<?xml version="1.0" standalone="no"?>
<!DOCTYPE svg PUBLIC "-//W3C//DTD SVG 20010904//EN"
 "http://www.w3.org/TR/2001/REC-SVG-20010904/DTD/svg10.dtd">
<svg version="1.0" xmlns="http://www.w3.org/2000/svg"
 width="16.000000pt" height="16.000000pt" viewBox="0 0 16.000000 16.000000"
 preserveAspectRatio="xMidYMid meet">
<metadata>
Created by potrace 1.11, written by Peter Selinger 2001-2013
</metadata>
<g transform="translate(0.000000,16.000000) scale(0.002286,-0.002286)"
fill="#000000" stroke="none">
<path d="M385 5563 c-172 -23 -319 -151 -371 -322 -21 -69 -18 -186 7 -258 56
-168 197 -280 383 -304 38 -5 71 -10 73 -12 2 -2 -4 -24 -13 -48 -38 -107 -26
-246 31 -358 66 -131 229 -231 377 -231 l56 0 -21 -57 c-26 -72 -28 -203 -4
-280 31 -102 125 -216 216 -262 101 -52 80 -51 1173 -51 l1018 0 0 -850 0
-850 -280 0 -280 0 0 -125 0 -125 690 0 690 0 0 125 0 125 -280 0 -280 0 0
850 0 850 1305 0 1305 0 0 -850 0 -850 -277 -2 -278 -3 -3 -122 -3 -123 691 0
690 0 0 125 0 125 -280 0 -280 0 0 1820 0 1820 280 0 280 0 0 125 0 125 -690
0 -691 0 3 -122 3 -123 278 -3 277 -2 0 -845 0 -845 -1305 0 -1305 0 0 845 0
845 280 0 280 0 0 125 0 125 -1857 -1 c-1022 -1 -1871 -4 -1888 -6z m2925
-443 l0 -200 -1467 2 -1468 3 -42 29 c-50 33 -93 111 -93 168 0 77 45 147 115
179 38 18 102 19 1498 19 l1457 0 0 -200z m0 -645 l0 -205 -1232 0 c-1171 0
-1235 1 -1273 19 -86 39 -139 143 -116 228 22 82 81 138 160 154 20 4 582 7
1249 8 l1212 1 0 -205z m0 -650 l0 -205 -1004 0 c-723 0 -1012 3 -1037 11
-193 65 -183 343 13 389 18 4 482 8 1031 9 l997 1 0 -205z"/>
</g>
</svg>
