<?xml version="1.0" encoding="utf-8"?>
<!-- Generator: Adobe Illustrator 17.0.0, SVG Export Plug-In . SVG Version: 6.00 Build 0)  -->
<!DOCTYPE svg PUBLIC "-//W3C//DTD SVG 1.1//EN" "http://www.w3.org/Graphics/SVG/1.1/DTD/svg11.dtd">
<svg version="1.1" id="Layer_1" xmlns="http://www.w3.org/2000/svg" xmlns:xlink="http://www.w3.org/1999/xlink" x="0px" y="0px"
	 width="266.893px" height="266.895px" viewBox="0 0 266.893 266.895" enable-background="new 0 0 266.893 266.895"
	 xml:space="preserve">
<path fill="#FFFFFF" d="M248.082,4.588H18.812c-7.857,0-14.224,6.367-14.224,14.224v229.27c0,7.855,6.366,14.225,14.224,14.225
	h123.431v-99.803h-33.585v-38.895h33.585V94.925c0-33.287,20.33-51.413,50.025-51.413c14.224,0,26.45,1.059,30.012,1.533v34.788
	l-20.596,0.009c-16.148,0-19.275,7.674-19.275,18.935v24.832h38.515l-5.016,38.895h-33.499v99.803h65.673
	c7.854,0,14.223-6.369,14.223-14.225V18.812C262.305,10.955,255.937,4.588,248.082,4.588z"/>
</svg>
