<?xml version="1.0" encoding="utf-8"?>
<!-- Generator: Adobe Illustrator 17.0.0, SVG Export Plug-In . SVG Version: 6.00 Build 0)  -->
<!DOCTYPE svg PUBLIC "-//W3C//DTD SVG 1.1//EN" "http://www.w3.org/Graphics/SVG/1.1/DTD/svg11.dtd">
<svg version="1.1" id="Layer_1" xmlns="http://www.w3.org/2000/svg" xmlns:xlink="http://www.w3.org/1999/xlink" x="0px" y="0px"
	 width="327.679px" height="56.961px" viewBox="0 0 327.679 56.961" enable-background="new 0 0 327.679 56.961"
	 xml:space="preserve">
<g>
	<path d="M121.281,15.041c10.96,0,16.32,8.56,16.32,18.24c0,0.4,0,1.039-0.08,1.439c-0.08,0.24-0.08,0.48-0.08,0.721h-32.081
		c0,11.6,7.84,18.24,17.121,18.24c3.84,0,6.96-1.28,9.12-2.56c1.28-0.72,2.4-1.6,3.28-2.481l1.84,2.801
		c-1.12,1.04-2.4,1.92-3.84,2.721c-2.48,1.359-6,2.799-10.4,2.799c-11.28,0-20.641-8.16-20.641-20.88
		C101.841,22.641,111.041,15.041,121.281,15.041z M134.082,32.32c-0.4-9.84-6.16-14.16-12.88-14.16c-7.36,0-14.08,4.801-15.6,14.16
		H134.082z"/>
	<path d="M145.68,52.881h6.4v-32c0-1.2-0.56-1.76-1.76-1.76h-5.84V16h6.32c3.28,0,4.64,1.281,4.64,4.4v2.801
		c0,0.879,0,1.76-0.08,2.32c-0.08,0.319-0.08,0.639-0.08,0.959h0.16c2-6.16,6.24-10.8,12.64-10.8c0.64,0,1.2,0,1.6,0.08l0.72,0.159
		v3.361c-0.16,0-0.32,0-0.56-0.08c-0.32-0.08-0.72-0.08-1.28-0.08c-9.36,0-13.12,11.52-13.12,19.6v14.16h6.4v3.121h-16.16V52.881z"
		/>
	<path d="M175.039,52.881h7.2v-32c0-1.2-0.56-1.76-1.76-1.76h-5.84V16h6.32c3.28,0,4.64,1.281,4.64,4.4v2.641
		c0,0.88-0.08,1.76-0.16,2.32l-0.16,0.959h0.16c1.92-6,9.12-11.279,15.36-11.279c8,0,11.76,3.76,12.64,10.88h0.16
		c2.32-5.521,8.24-10.88,15.2-10.88c10.32,0,13.36,6,13.36,15.6v22.24h7.2v3.121H238.8V31.841c0-7.521-1.44-13.681-10-13.681
		c-8.72,0-14.88,9.361-14.88,18.001v16.72h7.2v3.121h-10.56V31.841c0-6.88-0.88-13.681-9.76-13.681
		c-8.64,0-15.201,9.201-15.201,18.001v16.72h7.2v3.121h-17.76V52.881z"/>
	<path d="M274.479,15.041c10.96,0,16.32,8.56,16.32,18.24c0,0.4,0,1.039-0.08,1.439c-0.08,0.24-0.08,0.48-0.08,0.721h-32.081
		c0,11.6,7.84,18.24,17.121,18.24c3.84,0,6.96-1.28,9.12-2.56c1.28-0.72,2.4-1.6,3.28-2.481l1.84,2.801
		c-1.12,1.04-2.4,1.92-3.84,2.721c-2.48,1.359-6,2.799-10.4,2.799c-11.28,0-20.641-8.16-20.641-20.88
		C255.039,22.641,264.239,15.041,274.479,15.041z M287.28,32.32c-0.4-9.84-6.16-14.16-12.88-14.16c-7.36,0-14.08,4.801-15.6,14.16
		H287.28z"/>
	<path d="M298.718,44.081h3.36v3.04c0,4.721,6.8,6.56,11.6,6.56c5.44,0,10.48-2.56,10.48-7.28c0-5.12-5.681-7.2-11.521-9.36
		c-6.08-2.4-12.32-4.96-12.32-11.68c0-6.801,6.56-10.32,12.96-10.32c5.12,0,12.8,2.24,12.8,7.6v4.4h-3.36v-3.28
		c0-3.44-4.64-5.44-9.28-5.44c-4.96,0-9.601,2.32-9.601,6.801c0,4.88,5.36,6.88,10.96,9.04c6.24,2.399,12.88,5.12,12.88,11.92
		c0,6.4-5.6,10.88-14.32,10.88c-7.44,0-14.641-3.439-14.641-9.439V44.081z"/>
	<path d="M94.962,3.2V0h-18.64v3.2h7.6v23.12H48.401v-5.52v-3.2v-5.6v-3.2V3.2h7.6V0h-7.6h-11.04H6.001C2.687,0,0,2.687,0,6
		c0,3.314,2.687,6.001,6.001,6.001h0.695c-0.442,0.836-0.695,1.787-0.695,2.799c0,3.314,2.687,6.001,6.001,6.001h0.695
		c-0.442,0.836-0.695,1.788-0.695,2.8c0,3.314,2.686,6.001,6,6.001h26.96v23.199h-7.6v3.201h18.64v-3.201h-7.6V29.601v-0.08h35.521
		v23.279h-7.6v3.201h18.64v-3.201h-7.6V3.2H94.962z M3.2,6c0-1.546,1.254-2.8,2.8-2.8h31.361h7.6v5.601h-32.96V8.8
		c-0.006,0-0.013,0.001-0.02,0.001H6.001C4.454,8.801,3.2,7.547,3.2,6z M9.201,14.8c0-1.543,1.249-2.794,2.791-2.799h32.97v5.6
		h-32.96C10.455,17.601,9.201,16.347,9.201,14.8z M18.001,26.401c-1.546,0-2.8-1.254-2.8-2.801c0-1.546,1.254-2.8,2.8-2.8h26.96
		v5.601H18.001z"/>
</g>
</svg>
