<?xml version="1.0" encoding="utf-8"?>
<!-- Generator: Adobe Illustrator 17.0.0, SVG Export Plug-In . SVG Version: 6.00 Build 0)  -->
<!DOCTYPE svg PUBLIC "-//W3C//DTD SVG 1.1//EN" "http://www.w3.org/Graphics/SVG/1.1/DTD/svg11.dtd">
<svg version="1.1" id="Layer_1" xmlns="http://www.w3.org/2000/svg" xmlns:xlink="http://www.w3.org/1999/xlink" x="0px" y="0px"
	 width="327.679px" height="56.961px" viewBox="0 0 327.679 56.961" enable-background="new 0 0 327.679 56.961"
	 xml:space="preserve">
<g>
	<path d="M124.275,14.954c9.501,0,13.769,6.119,13.769,14.252c0,1.529-0.242,3.06-0.483,4.268c-0.161,0.725-0.322,1.369-0.563,2.013
		h-32.289l-0.242,1.288c-0.161,0.806-0.242,1.852-0.242,3.141c0,7.73,4.751,13.93,14.172,13.93c3.865,0,7.085-1.288,9.582-2.576
		c1.369-0.725,2.657-1.61,3.865-2.496l1.288,3.06c-1.288,0.966-2.737,1.853-4.268,2.657c-2.657,1.369-6.441,2.657-10.628,2.657
		c-10.307,0-17.634-6.442-17.634-16.829C100.602,27.434,110.506,14.954,124.275,14.954z M134.099,32.346l0.161-0.967
		c0.081-0.645,0.161-1.529,0.161-2.416c0-7.488-4.509-10.87-10.387-10.87c-7.327,0-15.299,4.831-18.52,14.253H134.099z"/>
	<path d="M152.322,20.831c0.242-0.966-0.08-1.771-1.449-1.771h-5.878l0.644-3.14H152c3.14,0,3.945,1.047,3.945,3.221
		c0,0.966-1.127,5.717-1.771,7.729h0.161c2.818-5.877,7.972-11.272,14.977-11.272c0.725,0,1.53,0.081,2.416,0.241l-0.725,3.383
		c-0.645-0.081-1.208-0.162-1.771-0.162c-9.904,0-15.702,13.608-17.393,21.741l-2.979,15.38h-3.382L152.322,20.831z"/>
	<path d="M182.587,20.831c0.242-0.966-0.08-1.771-1.449-1.771h-5.878l0.644-3.14h6.361c3.14,0,3.945,1.047,3.945,3.221
		c0,0.886-0.725,5.233-1.61,7.167h0.161c3.301-6.281,10.548-11.354,17.714-11.354c7.972,0,10.548,4.105,10.548,10.95h0.161
		c3.221-6.28,10.307-10.95,17.312-10.95c7.408,0,11.112,3.865,11.112,10.226c0,4.751-4.026,20.854-4.026,24.075
		c0,3.865,2.174,3.945,4.026,3.945c0.805,0,1.369,0,1.61-0.08s0.402-0.08,0.563-0.08l-0.644,3.141c-0.322,0-0.644,0-0.966,0.08
		c-0.563,0.08-1.127,0.08-1.53,0.08c-2.255,0-6.603-0.885-6.603-6.28c0-3.382,4.026-19.485,4.026-24.075
		c0-4.751-1.933-7.892-8.052-7.892c-9.582,0-16.829,9.985-18.6,18.439l-3.785,19.647h-3.382l4.67-24.318
		c0.402-2.174,0.725-4.187,0.725-6.119c0-4.428-1.691-7.649-7.73-7.649c-9.34,0-17.312,9.501-19.003,18.521l-3.785,19.566h-3.382
		L182.587,20.831z"/>
	<path d="M275.409,14.954c9.501,0,13.769,6.119,13.769,14.252c0,1.529-0.242,3.06-0.483,4.268c-0.161,0.725-0.322,1.369-0.563,2.013
		h-32.289l-0.242,1.288c-0.161,0.806-0.242,1.852-0.242,3.141c0,7.73,4.751,13.93,14.172,13.93c3.865,0,7.085-1.288,9.582-2.576
		c1.369-0.725,2.657-1.61,3.865-2.496l1.288,3.06c-1.288,0.966-2.737,1.853-4.268,2.657c-2.657,1.369-6.441,2.657-10.628,2.657
		c-10.307,0-17.634-6.442-17.634-16.829C251.736,27.434,261.64,14.954,275.409,14.954z M285.232,32.346l0.161-0.967
		c0.081-0.645,0.161-1.529,0.161-2.416c0-7.488-4.509-10.87-10.387-10.87c-7.327,0-15.299,4.831-18.52,14.253H285.232z"/>
	<path d="M294.652,44.182h3.382l-0.644,3.463c-1.047,5.395,6.925,6.199,10.548,6.199c5.798,0,11.998-2.818,11.998-8.293
		c0-9.662-20.13-7.247-20.13-19.004c0-7.246,7.569-11.594,15.379-11.594c6.441,0,12.239,2.898,11.192,7.811l-0.886,4.268h-3.382
		l0.806-3.865c0.885-3.945-4.832-4.912-8.536-4.912c-5.073,0-11.031,2.657-11.031,7.891c0,9.26,20.13,7.167,20.13,18.682
		c0,6.844-6.2,12.319-16.185,12.319c-6.764,0-14.655-2.818-13.366-9.099L294.652,44.182z"/>
	<path d="M82.325-0.185l-0.644,3.221h7.649l-4.509,23.271H49.07l4.509-23.271h7.649l0.645-3.221H49.865h-6.754H7.215
		c0,0,0,0-0.001,0c-3.334,0-6.036,2.703-6.036,6.035c0,3.334,2.702,6.036,6.036,6.036v0h0.001h0.697
		c-0.445,0.841-0.698,1.799-0.698,2.816c0,3.334,2.702,6.036,6.036,6.036c0.012,0,0.024-0.001,0.036-0.001h0.662
		c-0.445,0.841-0.698,1.799-0.698,2.817c0,3.334,2.702,6.036,6.036,6.036c0.013,0,0.026-0.001,0.04-0.001h25.608l-4.56,23.368
		h-7.569l-0.644,3.221h18.681l0.645-3.221h-7.649l4.589-23.432h35.751l-4.59,23.432h-7.649l-0.644,3.221h18.761l0.644-3.221H83.05
		l9.743-49.924h7.649l0.644-3.221H82.325z M7.214,8.668c-1.556,0-2.817-1.261-2.817-2.817c0-1.555,1.261-2.816,2.817-2.816h5.338
		h29.915l0,0.002h7.649l-1.099,5.632H13.25h-0.698H7.214z M13.286,17.519H13.25v0.001c-1.556,0-2.817-1.261-2.817-2.817
		c0-1.555,1.261-2.816,2.817-2.816h5.338h29.801l-1.099,5.633H18.589H13.286z M24.625,26.372h-5.299h-0.04v0.001
		c-1.556,0-2.817-1.261-2.817-2.817c0-1.555,1.261-2.816,2.817-2.816l5.338-0.001h22.038l-1.099,5.634H24.625z"/>
</g>
</svg>
