<?xml version="1.0" encoding="utf-8"?>
<!-- Generator: Adobe Illustrator 17.0.0, SVG Export Plug-In . SVG Version: 6.00 Build 0)  -->
<!DOCTYPE svg PUBLIC "-//W3C//DTD SVG 1.1//EN" "http://www.w3.org/Graphics/SVG/1.1/DTD/svg11.dtd">
<svg version="1.1" id="Layer_1" xmlns="http://www.w3.org/2000/svg" xmlns:xlink="http://www.w3.org/1999/xlink" x="0px" y="0px"
	 width="266.893px" height="266.895px" viewBox="0 0 266.893 266.895" enable-background="new 0 0 266.893 266.895"
	 xml:space="preserve">
<g>
	<path fill="#FFFFFF" d="M133.447,27.807c34.407,0,38.482,0.131,52.07,0.751c12.563,0.573,19.387,2.672,23.927,4.437
		c6.015,2.337,10.307,5.13,14.816,9.639c4.509,4.509,7.302,8.802,9.639,14.817c1.765,4.541,3.864,11.364,4.437,23.927
		c0.62,13.588,0.751,17.663,0.751,52.07s-0.131,38.482-0.751,52.07c-0.573,12.564-2.672,19.387-4.437,23.927
		c-2.337,6.015-5.13,10.307-9.639,14.816c-4.509,4.509-8.802,7.302-14.816,9.639c-4.541,1.765-11.364,3.864-23.927,4.437
		c-13.586,0.62-17.661,0.751-52.07,0.751s-38.484-0.131-52.07-0.751c-12.563-0.573-19.387-2.672-23.927-4.437
		c-6.015-2.337-10.307-5.13-14.816-9.639c-4.509-4.509-7.302-8.802-9.639-14.816c-1.765-4.541-3.864-11.364-4.437-23.927
		c-0.62-13.588-0.751-17.663-0.751-52.07s0.131-38.482,0.751-52.07c0.573-12.563,2.672-19.387,4.437-23.927
		c2.337-6.015,5.13-10.307,9.639-14.816c4.509-4.509,8.802-7.302,14.817-9.639c4.541-1.765,11.364-3.864,23.927-4.437
		C94.964,27.938,99.04,27.807,133.447,27.807 M133.447,4.589c-34.996,0-39.384,0.148-53.128,0.775
		c-13.716,0.626-23.083,2.804-31.279,5.99c-8.473,3.293-15.66,7.699-22.824,14.863c-7.164,7.164-11.57,14.35-14.863,22.824
		c-3.186,8.197-5.364,17.564-5.99,31.279c-0.627,13.744-0.775,18.132-0.775,53.128c0,34.996,0.148,39.384,0.775,53.128
		c0.626,13.716,2.804,23.083,5.99,31.279c3.293,8.473,7.699,15.66,14.863,22.824c7.164,7.164,14.35,11.57,22.824,14.863
		c8.197,3.186,17.564,5.364,31.279,5.99c13.744,0.627,18.132,0.775,53.128,0.775s39.384-0.148,53.128-0.775
		c13.716-0.626,23.083-2.804,31.279-5.99c8.474-3.293,15.66-7.699,22.824-14.863c7.164-7.164,11.57-14.35,14.863-22.824
		c3.186-8.197,5.364-17.564,5.99-31.279c0.627-13.744,0.775-18.132,0.775-53.128s-0.148-39.384-0.775-53.128
		c-0.626-13.716-2.804-23.083-5.99-31.279c-3.293-8.473-7.699-15.66-14.863-22.824c-7.164-7.164-14.35-11.57-22.824-14.863
		c-8.197-3.186-17.564-5.364-31.279-5.99C172.831,4.737,168.442,4.589,133.447,4.589L133.447,4.589z"/>
	<path fill="#FFFFFF" d="M133.447,67.277c-36.545,0-66.171,29.626-66.171,66.171s29.626,66.171,66.171,66.171
		s66.171-29.626,66.171-66.171S169.992,67.277,133.447,67.277z M133.447,176.4c-23.722,0-42.953-19.231-42.953-42.953
		s19.231-42.953,42.953-42.953s42.953,19.231,42.953,42.953S157.169,176.4,133.447,176.4z"/>
	<circle fill="#FFFFFF" cx="202.232" cy="64.662" r="15.463"/>
</g>
</svg>
