<?xml version="1.0" encoding="utf-8"?>
<!-- Generator: Adobe Illustrator 17.0.0, SVG Export Plug-In . SVG Version: 6.00 Build 0)  -->
<!DOCTYPE svg PUBLIC "-//W3C//DTD SVG 1.1//EN" "http://www.w3.org/Graphics/SVG/1.1/DTD/svg11.dtd">
<svg version="1.1" id="Layer_1" xmlns="http://www.w3.org/2000/svg" xmlns:xlink="http://www.w3.org/1999/xlink" x="0px" y="0px"
	 width="1050px" height="700px" viewBox="0 0 1050 700" enable-background="new 0 0 1050 700" xml:space="preserve">
<rect fill="#FFFFFF" width="1050" height="700"/>
<g>
	<path fill="#560F11" d="M461.748,366.746v-48.504c-5.166,2.599-9.946,5.313-14.007,8.102c-8.186,5.496-12.515,11.267-12.267,14.722
		v83.301c2.243-2.083,4.819-4.068,7.572-5.994c8.88-6.078,20.323-11.557,31.76-16.256c22.847-9.39,45.492-15.592,45.577-15.606
		c0.026-0.029,5.807-1.651,14.307-4.387c-4.192,0.34-8.54,0.579-13.268,0.579C496.849,382.705,476.683,375.214,461.748,366.746z"/>
	<path fill="#560F11" d="M595.229,355.774c8.219-5.46,12.555-11.227,12.307-14.706v-0.585c-0.236-3.515-4.532-8.955-12.307-14.137
		c-4.022-2.769-8.802-5.483-13.967-8.085v45.58C586.408,361.25,591.201,358.566,595.229,355.774z"/>
	<path fill="#560F11" d="M447.761,128.536c-8.207,5.477-12.536,11.247-12.287,14.726v0.575c0.222,3.518,4.518,8.972,12.287,14.138
		c4.028,2.772,8.808,5.496,13.987,8.089v-45.577C456.602,123.05,451.802,125.754,447.761,128.536z"/>
	<path fill="#560F11" d="M581.262,117.478v48.585c5.146-2.58,9.939-5.29,13.987-8.089c8.2-5.493,12.536-11.261,12.287-14.713v-83.3
		c-2.256,2.086-4.832,4.054-7.592,5.983c-8.86,6.091-20.317,11.558-31.76,16.269c-22.847,9.37-45.485,15.583-45.57,15.589
		c-0.026,0.04-5.63,1.602-13.928,4.257c4.074-0.314,8.324-0.53,12.895-0.53C546.16,101.53,566.339,109.033,581.262,117.478z"/>
	<polygon fill="#560F11" points="431.308,439.977 431.308,439.97 431.308,439.97 	"/>
	<path fill="#F16522" d="M595.229,227.442c-8.017-5.522-19.107-10.868-30.224-15.416c-19.355-7.971-38.698-13.63-43.491-14.968
		c-0.719-0.203-1.125-0.314-1.125-0.314c-0.046-0.036-2.452-0.696-6.316-1.851c-1.988-0.591-4.342-1.314-7.069-2.184
		c-16.903-5.359-45.989-15.609-63.958-27.86c-2.753-1.932-5.329-3.913-7.572-6v83.311c-0.248,3.466,4.081,9.23,12.267,14.723
		c8.03,5.502,19.088,10.845,30.204,15.412c19.329,7.945,38.724,13.628,43.524,14.978c0.706,0.206,1.112,0.311,1.124,0.311
		c0.053,0.04,2.472,0.7,6.343,1.863c1.975,0.589,4.322,1.305,7.029,2.168c16.903,5.352,45.989,15.589,63.978,27.863
		c2.759,1.932,5.336,3.9,7.592,5.986V242.16C607.784,238.715,603.448,232.919,595.229,227.442z"/>
	<g>
		<path fill="#560F11" d="M299.73,457.593h8.403v71.861h37.449v7.467H299.73V457.593z"/>
		<path fill="#560F11" d="M352.546,507.522c0-17.845,14.118-30.338,30.923-30.338c16.917,0,30.929,12.493,30.929,30.338
			c0,17.734-14.013,30.341-30.929,30.341C366.664,537.863,352.546,525.256,352.546,507.522z M405.996,507.522
			c0-13.186-9.344-23.099-22.527-23.099c-13.071,0-22.514,9.913-22.514,23.099c0,13.3,9.443,23.109,22.514,23.109
			C396.652,530.631,405.996,520.822,405.996,507.522z"/>
		<path fill="#560F11" d="M423.449,525.256l6.663-3.727c2.563,5.126,7.108,9.325,14.935,9.325c6.644,0,11.423-3.505,11.423-8.867
			c0-5.48-3.138-8.168-10.619-11.431l-4.675-2.105c-8.272-3.499-13.529-8.043-13.529-16.566c0-9.093,7.238-14.7,16.459-14.7
			c8.167,0,13.294,3.377,16.923,8.867l-6.186,4.198c-2.452-3.616-5.493-6.176-10.509-6.176c-5.244,0-8.749,2.792-8.749,7.706
			c0,4.539,2.577,6.883,8.278,9.453l4.787,2.092c9.919,4.309,15.988,9.096,15.988,18.557c0,9.796-7.807,15.982-19.48,15.982
			C434.199,537.863,426.725,532.017,423.449,525.256z"/>
		<path fill="#560F11" d="M499.707,521.764l7.01-3.74c3.734,6.644,9.226,12.365,20.408,12.365c9.22,0,16.459-5.133,16.459-13.529
			c0-8.056-5.015-12.136-14.935-16.576l-6.297-2.917c-11.326-5.13-17.499-10.626-17.499-21.693c0-11.44,8.985-19.023,20.879-19.023
			c10.613,0,17.276,4.888,21.481,11.905l-6.774,4.208c-3.034-4.918-7.245-8.641-14.706-8.641c-7.814,0-12.594,4.548-12.594,11.316
			c0,7,3.714,10.142,12.594,14.239l6.304,2.913c13.176,5.829,19.957,12.362,19.957,24.27c0,13.065-10.391,21.004-24.626,21.004
			C512.203,537.863,503.918,530.154,499.707,521.764z"/>
		<path fill="#560F11" d="M567.36,478.119h8.167v58.802h-8.167V478.119z"/>
		<path fill="#560F11" d="M593.366,478.119h8.278v51.57h27.425v7.232h-35.703V478.119z"/>
		<path fill="#560F11" d="M636.621,507.522c0-17.845,14.118-30.338,30.923-30.338c16.917,0,30.91,12.493,30.91,30.338
			c0,17.734-13.993,30.341-30.91,30.341C650.739,537.863,636.621,525.256,636.621,507.522z M690.065,507.522
			c0-13.186-9.338-23.099-22.521-23.099c-13.071,0-22.514,9.913-22.514,23.099c0,13.3,9.443,23.109,22.514,23.109
			C680.727,530.631,690.065,520.822,690.065,507.522z"/>
		<path fill="#560F11" d="M707.524,525.256l6.657-3.727c2.563,5.126,7.114,9.325,14.941,9.325c6.637,0,11.417-3.505,11.417-8.867
			c0-5.48-3.152-8.168-10.613-11.431l-4.669-2.105c-8.285-3.499-13.535-8.043-13.535-16.566c0-9.093,7.238-14.7,16.459-14.7
			c8.167,0,13.287,3.377,16.923,8.867l-6.199,4.198c-2.452-3.616-5.479-6.176-10.501-6.176c-5.244,0-8.743,2.792-8.743,7.706
			c0,4.539,2.557,6.883,8.285,9.453l4.78,2.092c9.913,4.309,15.995,9.096,15.995,18.557c0,9.796-7.834,15.982-19.5,15.982
			C718.268,537.863,710.8,532.017,707.524,525.256z"/>
		<path fill="#560F11" d="M430.773,598.166h4.191v22.351h21.239v-22.351h4.192v39.679h-4.192v-13.484h-21.239v13.484h-4.191V598.166
			z"/>
		<path fill="#560F11" d="M477.932,623.132c0-8.919,7.062-15.164,15.458-15.164c8.462,0,15.458,6.245,15.458,15.164
			c0,8.867-6.997,15.177-15.458,15.177C484.994,638.309,477.932,631.999,477.932,623.132z M504.651,623.132
			c0-6.591-4.662-11.561-11.261-11.561c-6.519,0-11.253,4.97-11.253,11.561c0,6.65,4.734,11.548,11.253,11.548
			C499.988,634.68,504.651,629.782,504.651,623.132z"/>
		<path fill="#560F11" d="M531.055,612.042h-9.096v-3.603h22.338v3.603h-9.096v25.803h-4.146V612.042z"/>
		<path fill="#560F11" d="M560.671,608.439h18.616v3.603h-14.471v12.032h12.718v3.426h-12.718v6.774h15.047v3.57h-19.192V608.439z"
			/>
		<path fill="#560F11" d="M597.119,608.439h4.139v25.784h13.699v3.622h-17.839v-29.406H597.119z"/>
	</g>
</g>
</svg>
