<?xml version="1.0" encoding="utf-8"?>
<!-- Generator: Adobe Illustrator 23.0.1, SVG Export Plug-In . SVG Version: 6.00 Build 0)  -->
<svg version="1.1" id="Layer_1" xmlns="http://www.w3.org/2000/svg" xmlns:xlink="http://www.w3.org/1999/xlink" x="0px" y="0px"
	 viewBox="0 0 1050 700" style="enable-background:new 0 0 1050 700;" xml:space="preserve">
<style type="text/css">
	.st0{fill:#FFFFFF;}
	.st1{fill:#EC1E24;}
</style>
<rect class="st0" width="1050" height="700"/>
<g>
	<g>
		<path class="st1" d="M209.7,349.4c0-13.8,2.6-27.3,7.8-40.1c5.4-13.2,13.2-25.1,23.4-35.2c10.2-10.2,22-18.1,35.2-23.4
			c12.8-5.2,26.3-7.8,40.1-7.8c21,0,40.7,8.2,55.5,23s23,34.5,23,55.5c0,20.2-7.6,39.3-14.5,46.6c0,0-6.9,7.3-16.9-9.9l-39.8-69
			c-1.5-2.6-4.3-4.2-7.3-4.2l0,0c-3,0-5.8,1.6-7.3,4.2L244,400c0,0-10.1,17.2-13.5,13s-9-13.4-13-23.5
			C212.3,376.8,209.7,363.3,209.7,349.4 M316.2,399.9c-16.1,0-32-3.7-39.2-7.1c0,0-7.2-3.5,2.9-20.7l26.3-44.8c0,0,10.1-17.2,20,0.1
			c0,0-10-17.2,24.2,41.9c0,0,10,17.2,3.5,21.6C347.4,395.2,332.2,399.9,316.2,399.9 M382,390.4L382,390.4c-4.2,4-8.6,7.5-13.3,10.6
			l16.9,29.3c-19.3,16.6-43.7,25.7-69.4,25.7c-13.8,0-27.3-2.6-40.1-7.8c-11-4.5-21.1-10.7-30-18.5l18-30.7
			c16.1,8,34,12.1,52.1,12.1c24,0,46.5-9.3,63.4-26.3s26.3-39.5,26.3-63.4s-9.3-46.5-26.3-63.4c-16.9-16.9-39.5-26.3-63.4-26.3
			c-15.3,0-30.2,2.9-44.3,8.6c-14.6,5.9-27.7,14.6-39,25.9c-11.2,11.2-19.9,24.3-25.9,39c-5.7,14.1-8.6,29-8.6,44.3
			s2.9,30.2,8.6,44.3c5.9,14.6,14.6,27.7,25.9,39c11.2,11.2,24.3,19.9,39,25.9c14.1,5.7,29,8.6,44.3,8.6c30.9,0,60-11.8,82.1-33.4
			c3.4-2.5,4.5-7.2,2.3-11L382,390.4z"/>
	</g>
	<g>
		<path class="st1" d="M420.9,421.9v-94.5h9.5c1.8,0,3,0.3,3.7,1s1.1,1.9,1.4,3.5l1.1,14.7c3.2-6.6,7.2-11.7,12-15.4
			c4.8-3.7,10.3-5.5,16.7-5.5c2.6,0,5,0.3,7.1,0.9s4.1,1.4,5.9,2.5l-2.1,12.4c-0.4,1.6-1.4,2.3-2.9,2.3c-0.9,0-2.2-0.3-4-0.9
			s-4.3-0.9-7.6-0.9c-5.8,0-10.6,1.7-14.5,5c-3.9,3.4-7.1,8.2-9.7,14.6v60.2L420.9,421.9L420.9,421.9z"/>
		<path class="st1" d="M550.4,344.2c-0.5,0.7-1,1.2-1.5,1.6s-1.2,0.6-2.1,0.6s-1.9-0.4-3-1.2c-1.1-0.8-2.5-1.6-4.2-2.6
			c-1.7-0.9-3.7-1.8-6.1-2.6c-2.4-0.8-5.3-1.2-8.8-1.2c-4.6,0-8.7,0.8-12.2,2.5c-3.5,1.6-6.5,4-8.9,7.1s-4.2,6.9-5.4,11.3
			c-1.2,4.4-1.8,9.4-1.8,14.8c0,5.7,0.7,10.8,2,15.2c1.3,4.4,3.1,8.2,5.5,11.2s5.2,5.3,8.6,6.9c3.4,1.6,7.2,2.4,11.4,2.4
			c4,0,7.4-0.5,10-1.4c2.6-1,4.8-2,6.5-3.2s3.2-2.3,4.3-3.2c1.1-1,2.2-1.4,3.4-1.4c1.4,0,2.5,0.5,3.2,1.6l4.7,6.1
			c-4.1,5-9.2,8.7-15.4,11.1c-6.2,2.3-12.7,3.5-19.5,3.5c-5.9,0-11.4-1.1-16.5-3.3c-5.1-2.2-9.5-5.3-13.2-9.5
			c-3.7-4.1-6.7-9.2-8.8-15.2c-2.1-6-3.2-12.9-3.2-20.6c0-7,1-13.5,2.9-19.5c2-6,4.8-11.1,8.6-15.4c3.8-4.3,8.4-7.7,13.9-10.1
			s11.9-3.6,19-3.6c6.6,0,12.4,1.1,17.5,3.2s9.6,5.2,13.5,9.1L550.4,344.2z"/>
		<path class="st1" d="M642.4,421.9H635c-1.6,0-2.9-0.2-3.9-0.7s-1.6-1.6-2-3.2l-1.9-8.8c-2.5,2.2-4.9,4.2-7.3,6
			c-2.4,1.8-4.8,3.3-7.5,4.5c-2.6,1.2-5.4,2.1-8.3,2.8c-3,0.6-6.2,0.9-9.8,0.9c-3.7,0-7.1-0.5-10.3-1.5s-6-2.6-8.3-4.6
			c-2.4-2.1-4.2-4.7-5.6-7.8s-2.1-6.9-2.1-11.2c0-3.7,1-7.3,3.1-10.8s5.4-6.5,9.9-9.2c4.6-2.7,10.6-4.9,18-6.6s16.4-2.6,27.1-2.6
			v-7.4c0-7.4-1.6-13-4.7-16.8c-3.1-3.8-7.8-5.7-13.9-5.7c-4,0-7.4,0.5-10.2,1.5s-5.2,2.2-7.2,3.5s-3.8,2.4-5.2,3.5
			c-1.5,1-2.9,1.5-4.3,1.5c-1.1,0-2.1-0.3-2.9-0.9c-0.8-0.6-1.5-1.3-2-2.2l-3-5.3c5.2-5,10.8-8.8,16.9-11.3c6-2.5,12.7-3.7,20.1-3.7
			c5.3,0,10,0.9,14.1,2.6s7.6,4.2,10.4,7.3c2.8,3.1,4.9,6.9,6.3,11.3c1.4,4.4,2.1,9.3,2.1,14.5v60.4H642.4z M599.3,411.7
			c2.9,0,5.6-0.3,8-0.9s4.7-1.4,6.9-2.5c2.1-1.1,4.2-2.4,6.2-4s3.9-3.3,5.7-5.3v-19.5c-7.6,0-14.1,0.5-19.5,1.5
			c-5.3,1-9.7,2.2-13.1,3.8c-3.4,1.6-5.8,3.4-7.3,5.5s-2.3,4.5-2.3,7.1c0,2.5,0.4,4.7,1.2,6.5s1.9,3.3,3.3,4.5c1.4,1.2,3,2,4.8,2.5
			C595.1,411.5,597.1,411.7,599.3,411.7z"/>
		<path class="st1" d="M734.1,421.9c-2.4,0-3.9-1.1-4.5-3.5l-1.5-11.5c-4,4.9-8.7,8.8-13.9,11.8s-11.1,4.4-17.9,4.4
			c-5.4,0-10.3-1-14.7-3.1s-8.2-5.1-11.3-9.2c-3.1-4-5.5-9.1-7.2-15.1s-2.5-13-2.5-20.8c0-7,0.9-13.4,2.8-19.4
			c1.9-6,4.6-11.2,8.1-15.6s7.8-7.9,12.8-10.4s10.8-3.8,17.2-3.8c5.8,0,10.7,1,14.8,2.9c4.1,2,7.8,4.7,11,8.3v-52.4H744v137.4
			L734.1,421.9L734.1,421.9z M701.9,409.8c5.4,0,10.2-1.2,14.2-3.7c4.1-2.5,7.8-6,11.2-10.5v-45.7c-3-4.1-6.4-7-10-8.6
			s-7.7-2.5-12.1-2.5c-8.8,0-15.6,3.1-20.3,9.4s-7.1,15.2-7.1,26.9c0,6.2,0.5,11.4,1.6,15.8s2.6,8,4.7,10.8c2.1,2.8,4.6,4.9,7.6,6.2
			C694.6,409.1,698.1,409.8,701.9,409.8z"/>
		<path class="st1" d="M794.1,297.7c0,1.6-0.3,3.1-1,4.5s-1.5,2.6-2.6,3.7s-2.3,1.9-3.8,2.6c-1.4,0.6-3,0.9-4.6,0.9
			s-3.1-0.3-4.5-0.9s-2.6-1.5-3.7-2.6c-1.1-1.1-1.9-2.3-2.6-3.7c-0.6-1.4-0.9-2.9-0.9-4.5s0.3-3.2,0.9-4.6c0.6-1.5,1.5-2.7,2.6-3.8
			c1.1-1.1,2.3-1.9,3.7-2.6c1.4-0.6,2.9-0.9,4.5-0.9s3.1,0.3,4.6,0.9c1.4,0.6,2.7,1.5,3.8,2.6s2,2.4,2.6,3.8
			C793.7,294.6,794.1,296.1,794.1,297.7z M790.3,327.4v94.5h-16.6v-94.5H790.3z"/>
		<path class="st1" d="M889,421.9h-7.4c-1.6,0-2.9-0.2-3.9-0.7s-1.6-1.6-2-3.2l-1.9-8.8c-2.5,2.2-4.9,4.2-7.3,6
			c-2.4,1.8-4.8,3.3-7.5,4.5c-2.6,1.2-5.4,2.1-8.3,2.8c-3,0.6-6.2,0.9-9.8,0.9c-3.7,0-7.1-0.5-10.3-1.5s-6-2.6-8.3-4.6
			c-2.4-2.1-4.2-4.7-5.6-7.8c-1.4-3.2-2.1-6.9-2.1-11.2c0-3.7,1-7.3,3.1-10.8s5.4-6.5,9.9-9.2c4.6-2.7,10.6-4.9,18-6.6
			s16.4-2.6,27.1-2.6v-7.4c0-7.4-1.6-13-4.7-16.8c-3.1-3.8-7.8-5.7-13.9-5.7c-4,0-7.4,0.5-10.2,1.5s-5.2,2.2-7.2,3.5
			s-3.8,2.4-5.2,3.5c-1.5,1-2.9,1.5-4.3,1.5c-1.1,0-2.1-0.3-2.9-0.9c-0.8-0.6-1.5-1.3-2-2.2l-3-5.3c5.2-5,10.8-8.8,16.9-11.3
			c6-2.5,12.7-3.7,20.1-3.7c5.3,0,10,0.9,14.1,2.6s7.6,4.2,10.4,7.3c2.8,3.1,4.9,6.9,6.3,11.3c1.4,4.4,2.1,9.3,2.1,14.5v60.4H889z
			 M845.9,411.7c2.9,0,5.6-0.3,8-0.9s4.7-1.4,6.9-2.5c2.1-1.1,4.2-2.4,6.2-4s3.9-3.3,5.7-5.3v-19.5c-7.6,0-14.1,0.5-19.5,1.5
			c-5.3,1-9.7,2.2-13.1,3.8c-3.4,1.6-5.8,3.4-7.3,5.5s-2.3,4.5-2.3,7.1c0,2.5,0.4,4.7,1.2,6.5s1.9,3.3,3.3,4.5c1.4,1.2,3,2,4.8,2.5
			C841.7,411.5,843.7,411.7,845.9,411.7z"/>
	</g>
</g>
</svg>
