<?xml version="1.0" encoding="utf-8"?>
<!-- Generator: Adobe Illustrator 17.0.0, SVG Export Plug-In . SVG Version: 6.00 Build 0)  -->
<!DOCTYPE svg PUBLIC "-//W3C//DTD SVG 1.1//EN" "http://www.w3.org/Graphics/SVG/1.1/DTD/svg11.dtd">
<svg version="1.1" id="Layer_1" xmlns="http://www.w3.org/2000/svg" xmlns:xlink="http://www.w3.org/1999/xlink" x="0px" y="0px"
	 width="1050px" height="700px" viewBox="0 0 1050 700" enable-background="new 0 0 1050 700" xml:space="preserve">
<rect fill="#FFFFFF" width="1050" height="700"/>
<g>
	<g>
		<g>
			<g>
				<defs>
					<rect id="SVGID_1_" x="169.66" y="222.934" width="710.748" height="357.347"/>
				</defs>
				<clipPath id="SVGID_2_">
					<use xlink:href="#SVGID_1_"  overflow="visible"/>
				</clipPath>
				<path clip-path="url(#SVGID_2_)" fill="#8BC53F" d="M457.954-114.128c-186.15,37.029-307.044,217.956-270.015,404.11
					c37.029,186.155,217.956,307.042,404.107,270.015c186.153-37.029,307.044-217.952,270.017-404.108
					C825.036-30.265,644.105-151.155,457.954-114.128z M555.048-44.418c1.795-9.034,8.798-16.037,17.836-17.834
					c2.922-0.582,5.895-0.58,8.839,0.005c37.518,7.446,72.772,22.07,104.794,43.463c10.401,6.953,13.208,21.073,6.26,31.476
					c-0.089,0.133-0.185,0.26-0.288,0.388L541.024,196.074c-0.713,0.859-1.681,1.415-2.718,1.621
					c-0.897,0.177-1.847,0.098-2.733-0.268c-1.918-0.794-3.096-2.746-2.898-4.811l22.3-236.554
					C554.993-44.1,555.015-44.259,555.048-44.418z M363.454-18.828c31.795-21.265,67.066-35.854,104.833-43.367
					c12.273-2.442,24.242,5.557,26.683,17.828c0.03,0.159,0.055,0.319,0.07,0.48l22.295,236.499
					c0.194,2.063-0.982,4.018-2.901,4.809c-0.29,0.122-0.587,0.21-0.886,0.271c-1.681,0.334-3.442-0.268-4.563-1.625L357.487,13.032
					c-0.102-0.126-0.199-0.255-0.286-0.388C350.25,2.241,353.057-11.875,363.454-18.828z M239.819,166.212
					c7.446-37.514,22.07-72.772,43.463-104.791c3.368-5.042,8.497-8.465,14.439-9.647c5.947-1.184,11.996,0.019,17.034,3.387
					c0.137,0.087,0.266,0.185,0.392,0.288l182.604,151.143c1.025,0.672,1.788,1.736,2.046,3.032c0.508,2.552-1.141,5.034-3.69,5.553
					c-0.018,0.004-0.04,0.009-0.063,0.013c-0.443,0.089-0.897,0.114-1.363,0.072L258.127,192.96c-0.161-0.015-0.319-0.039-0.48-0.07
					C245.381,190.45,237.381,178.484,239.819,166.212z M314.713,390.739c-2.501,1.668-5.247,2.809-8.172,3.393
					c-9.036,1.797-18.183-1.991-23.302-9.647c-21.261-31.795-35.854-67.066-43.365-104.831
					c-2.441-12.273,5.555-24.244,17.828-26.685c0.155-0.029,0.318-0.055,0.48-0.07l236.497-22.294
					c2.066-0.194,4.018,0.983,4.812,2.899c0.794,1.917,0.244,4.128-1.354,5.452l-183.04,151.496
					C314.973,390.554,314.844,390.652,314.713,390.739z M494.957,490.288c-1.797,9.038-8.796,16.039-17.834,17.837
					c-2.921,0.582-5.899,0.58-8.84-0.005c-37.518-7.448-72.774-22.07-104.794-43.463c-10.401-6.955-13.21-21.073-6.259-31.476
					c0.089-0.135,0.185-0.264,0.286-0.39l151.465-182.994c1.326-1.599,3.536-2.144,5.452-1.354c1.919,0.796,3.093,2.746,2.897,4.813
					L495.029,489.81C495.012,489.972,494.99,490.131,494.957,490.288z M686.55,464.702c-31.793,21.261-67.066,35.852-104.831,43.365
					c-12.273,2.441-24.244-5.555-26.685-17.828c-0.029-0.159-0.055-0.319-0.07-0.48l-22.295-236.497
					c-0.192-2.067,0.983-4.018,2.9-4.813c1.91-0.789,4.126-0.246,5.451,1.354l151.498,183.04c0.103,0.124,0.2,0.255,0.288,0.386
					C699.758,443.631,696.951,457.747,686.55,464.702z M810.185,279.658c-7.446,37.516-22.069,72.774-43.461,104.794
					c-3.368,5.04-8.499,8.465-14.441,9.647c-5.943,1.184-11.996-0.02-17.034-3.389c-0.137-0.089-0.262-0.185-0.391-0.286
					L551.865,238.96c-1.599-1.324-2.146-3.535-1.352-5.452c0.79-1.919,2.741-3.091,4.813-2.898l236.554,22.301
					c0.159,0.015,0.318,0.037,0.476,0.07C804.622,255.424,812.622,267.389,810.185,279.658z M792.301,192.905
					c-0.155,0.031-0.318,0.055-0.48,0.07l-236.495,22.294c-2.065,0.196-4.018-0.983-4.813-2.899
					c-0.794-1.917-0.244-4.129,1.356-5.45l183.036-151.5c0.126-0.1,0.255-0.198,0.388-0.288c2.5-1.668,5.245-2.809,8.17-3.39
					c9.038-1.797,18.183,1.989,23.302,9.647c21.263,31.795,35.856,67.066,43.369,104.833
					C812.574,178.493,804.574,190.463,792.301,192.905z"/>
			</g>
		</g>
	</g>
	<path fill="#FFFFFF" stroke="#8BC53F" stroke-width="10.4008" stroke-miterlimit="10" d="M181.335,249.666
		c0-12.253-9.933-22.186-22.188-22.186h-56.096c-12.251,0-22.187,9.933-22.187,22.186v105.699c0,12.253,9.935,22.187,22.187,22.187
		h56.096c12.255,0,22.188-9.934,22.188-22.187V249.666z"/>
	<path fill="#FFFFFF" stroke="#8BC53F" stroke-width="10.4008" stroke-miterlimit="10" d="M969.136,249.666
		c0-12.253-9.936-22.186-22.187-22.186h-56.096c-12.255,0-22.187,9.933-22.187,22.186v105.699c0,12.253,9.932,22.187,22.187,22.187
		h56.096c12.251,0,22.187-9.934,22.187-22.187V249.666z"/>
	<path fill="#FFFFFF" stroke="#8BC53F" stroke-width="10.4008" stroke-miterlimit="10" d="M909.568,222.67
		c0-12.253-9.936-22.187-22.187-22.187H162.619c-12.251,0-22.187,9.933-22.187,22.187v105.699c0,12.253,9.935,22.186,22.187,22.186
		h724.763c12.251,0,22.187-9.933,22.187-22.186V222.67H909.568z"/>
	<path fill="#8BC53F" stroke="#FFFFFF" stroke-width="5.6731" stroke-miterlimit="10" d="M864.884,404.587
		c0-12.253-9.935-22.186-22.186-22.186H207.304c-12.253,0-22.187,9.934-22.187,22.186v30.663c0,12.253,9.934,22.187,22.187,22.187
		h635.394c12.251,0,22.186-9.933,22.186-22.187V404.587z"/>
	<g>
		<path fill="#8BC53F" d="M188.927,232.238h12.342v68.345h36.56v10.827h-48.901L188.927,232.238L188.927,232.238z"/>
		<path fill="#8BC53F" d="M244.576,281.605c0-18.279,14.552-30.853,31.786-30.853c17.348,0,31.786,12.575,31.786,30.853
			c0,18.046-14.438,30.853-31.786,30.853C259.128,312.458,244.576,299.651,244.576,281.605z M295.923,281.605
			c0-11.76-8.033-20.375-19.561-20.375s-19.56,8.615-19.56,20.375c0,11.876,8.033,20.259,19.56,20.259
			S295.923,293.481,295.923,281.605z"/>
		<path fill="#8BC53F" d="M315.245,298.953l9.664-5.239c2.563,4.89,6.637,8.615,13.736,8.615c5.476,0,9.551-2.561,9.551-6.752
			c0-4.192-2.796-6.172-9.551-9.082l-3.607-1.631c-9.082-3.725-15.136-8.382-15.136-18.046c0-9.78,7.684-16.067,18.163-16.067
			c7.917,0,13.74,2.678,18.279,9.313l-8.615,5.939c-2.445-3.494-5.356-5.472-9.431-5.472c-4.19,0-6.986,2.211-6.986,6.054
			c0,3.959,2.678,5.705,7.333,7.801l3.728,1.631c10.478,4.306,17.579,9.08,17.579,19.444c0,10.595-8.264,16.997-21.189,16.997
			C327.236,312.458,318.97,306.521,315.245,298.953z"/>
		<path fill="#8BC53F" d="M419.908,271.824c0-23.634,18.164-40.517,40.635-40.517c14.203,0,24.683,5.239,31.668,15.717l-9.429,6.753
			c-4.425-6.87-11.876-11.411-22.238-11.411c-16.417,0-28.061,12.575-28.061,29.457s11.644,29.573,28.061,29.573
			c10.944,0,18.279-4.89,23.402-12.458l9.431,6.637c-6.87,10.478-18.048,16.881-32.833,16.881
			C438.072,312.458,419.908,295.461,419.908,271.824z"/>
		<path fill="#8BC53F" d="M509.672,311.411h-11.644l26.779-60.427h1.282l26.895,60.427H540.64l-2.792-6.753h-25.382L509.672,311.411
			z M528.65,282.419c-1.98-4.89-3.378-10.595-3.378-10.595s-1.398,5.705-3.492,10.595l-5.588,13.274h17.929L528.65,282.419z"/>
		<path fill="#8BC53F" d="M608.866,311.411h-13.389l-9.666-15.136c-1.282,0.116-2.56,0.233-3.959,0.233h-6.168v14.903h-11.878
			v-59.729h18.046c15.952,0,26.198,8.033,26.198,22.587c0,8.966-4.192,15.368-11.176,18.63L608.866,311.411z M581.505,286.378
			c10.246,0,14.438-4.425,14.438-12.109c0-7.801-4.192-12.225-14.438-12.225h-5.821v24.334H581.505z"/>
		<path fill="#8BC53F" d="M666.495,311.411h-13.389l-9.666-15.136c-1.282,0.116-2.56,0.233-3.959,0.233h-6.168v14.903h-11.878
			v-59.729h18.046c15.952,0,26.198,8.033,26.198,22.587c0,8.966-4.192,15.368-11.176,18.63L666.495,311.411z M639.133,286.378
			c10.246,0,14.438-4.425,14.438-12.109c0-7.801-4.192-12.225-14.438-12.225h-5.821v24.334H639.133z"/>
		<path fill="#8BC53F" d="M679.3,251.682h11.993v59.729H679.3V251.682z"/>
		<path fill="#8BC53F" d="M718.882,262.044h-17.813v-10.362h47.505v10.362h-17.813v49.367h-11.878v-49.367H718.882z"/>
		<path fill="#8BC53F" d="M751.13,281.605c0-18.279,14.556-30.853,31.786-30.853c17.348,0,31.786,12.575,31.786,30.853
			c0,18.046-14.438,30.853-31.786,30.853C765.686,312.458,751.13,299.651,751.13,281.605z M802.476,281.605
			c0-11.76-8.033-20.375-19.561-20.375c-11.527,0-19.557,8.615-19.557,20.375c0,11.876,8.03,20.259,19.557,20.259
			C794.443,301.863,802.476,293.481,802.476,281.605z"/>
		<path fill="#8BC53F" d="M818.306,298.953l9.666-5.239c2.56,4.89,6.637,8.615,13.736,8.615c5.474,0,9.548-2.561,9.548-6.752
			c0-4.192-2.792-6.172-9.548-9.082l-3.608-1.631c-9.082-3.725-15.136-8.382-15.136-18.046c0-9.78,7.686-16.067,18.164-16.067
			c7.915,0,13.74,2.678,18.279,9.313l-8.617,5.939c-2.445-3.494-5.355-5.472-9.429-5.472c-4.192,0-6.988,2.211-6.988,6.054
			c0,3.959,2.678,5.705,7.335,7.801l3.727,1.631c10.478,4.306,17.581,9.08,17.581,19.444c0,10.595-8.266,16.997-21.189,16.997
			C830.299,312.458,822.033,306.521,818.306,298.953z"/>
	</g>
	<g>
		<path fill="#FFFFFF" d="M232.831,395.609h0.772l18.593,44.345h-4.905l-2.969-7.359h-22.205l-2.907,7.359h-4.584L232.831,395.609z
			 M242.641,428.593l-7.745-19.494c-0.838-2.065-1.677-5.228-1.677-5.228s-0.905,3.164-1.743,5.228l-7.745,19.494H242.641z"/>
		<path fill="#FFFFFF" d="M264.587,396.061h4.713v43.893h-4.713V396.061z"/>
		<path fill="#FFFFFF" d="M313.773,439.954h-5.485l-8.458-12.005c-1.485,0.258-3.099,0.386-4.647,0.386h-5.23v11.62h-4.646v-43.893
			h9.876c12.007,0,18.201,6.713,18.201,16.201c0,6.584-3.095,11.749-9.163,14.201L313.773,439.954z M294.925,424.268
			c9.939,0,13.621-5.099,13.621-12.006s-3.745-12.07-13.621-12.07h-4.971v24.076L294.925,424.268L294.925,424.268z"/>
		<path fill="#FFFFFF" d="M327.586,396.061h26.722v4.131h-22.076v20.591h19.69v4.066h-19.69v10.973h22.981v4.131h-27.627
			L327.586,396.061L327.586,396.061z"/>
		<path fill="#FFFFFF" d="M364.702,431.562l3.871-2.065c2.065,3.679,5.101,6.842,11.298,6.842c5.097,0,9.101-2.84,9.101-7.489
			c0-4.454-2.777-6.713-8.262-9.165l-3.487-1.614c-6.26-2.84-9.681-5.874-9.681-12.005c0-6.327,4.968-10.523,11.553-10.523
			c5.873,0,9.551,2.711,11.878,6.584l-3.745,2.325c-1.677-2.711-4.004-4.778-8.133-4.778c-4.325,0-6.973,2.517-6.973,6.262
			c0,3.873,2.068,5.616,6.973,7.874l3.487,1.614c7.291,3.226,11.036,6.842,11.036,13.426c0,7.23-5.743,11.62-13.618,11.62
			C371.609,440.471,367.025,436.211,364.702,431.562z"/>
		<path fill="#FFFFFF" d="M421.891,431.562l3.871-2.065c2.065,3.679,5.101,6.842,11.298,6.842c5.097,0,9.101-2.84,9.101-7.489
			c0-4.454-2.777-6.713-8.262-9.165l-3.487-1.614c-6.26-2.84-9.68-5.874-9.68-12.005c0-6.327,4.968-10.523,11.553-10.523
			c5.872,0,9.551,2.711,11.878,6.584l-3.745,2.325c-1.677-2.711-4.004-4.778-8.133-4.778c-4.325,0-6.973,2.517-6.973,6.262
			c0,3.873,2.068,5.616,6.973,7.874l3.487,1.614c7.291,3.226,11.036,6.842,11.036,13.426c0,7.23-5.743,11.62-13.618,11.62
			C428.798,440.471,424.215,436.211,421.891,431.562z"/>
		<path fill="#FFFFFF" d="M478.368,395.609h0.776l18.589,44.345h-4.905l-2.97-7.359h-22.205l-2.903,7.359h-4.584L478.368,395.609z
			 M488.181,428.593l-7.745-19.494c-0.842-2.065-1.68-5.228-1.68-5.228s-0.905,3.164-1.743,5.228l-7.745,19.494H488.181z"/>
		<path fill="#FFFFFF" d="M509.932,396.061h4.646v39.762h20.721v4.131h-25.367V396.061z"/>
		<path fill="#FFFFFF" d="M545.759,424.979v-28.918h4.646v28.595c0,7.81,4.259,11.684,11.103,11.684
			c6.778,0,11.103-3.875,11.103-11.684v-28.595h4.646v28.918c0,10.262-6.84,15.492-15.749,15.492
			C552.537,440.471,545.759,435.241,545.759,424.979z"/>
		<path fill="#FFFFFF" d="M592.685,396.061h10.648c14.652,0,23.756,8.65,23.756,21.946c0,13.297-9.038,21.947-23.756,21.947h-10.648
			V396.061z M603.012,435.758c12.975,0,19.169-7.295,19.169-17.751s-6.194-17.751-19.169-17.751h-5.681v35.501h5.681V435.758z"/>
		<path fill="#FFFFFF" d="M652.068,395.609h0.772l18.593,44.345h-4.905l-2.97-7.359h-22.205l-2.907,7.359h-4.584L652.068,395.609z
			 M661.878,428.593l-7.745-19.494c-0.839-2.065-1.677-5.228-1.677-5.228s-0.905,3.164-1.743,5.228l-7.745,19.494H661.878z"/>
		<path fill="#FFFFFF" d="M683.632,396.061h14.911c8.196,0,12.07,4.84,12.07,10.779c0,4.325-1.939,7.488-5.681,8.715
			c5.681,1.355,9.038,5.681,9.038,11.488c0,7.295-4.521,12.911-13.88,12.911h-16.458V396.061z M698.864,414.006
			c5.101,0,7.099-2.905,7.099-6.907s-2.127-6.907-7.745-6.907h-9.939v13.814L698.864,414.006L698.864,414.006z M699.769,435.823
			c6.711,0,9.488-3.808,9.488-8.909c0-5.164-3.036-8.907-9.747-8.907h-11.232v17.815h11.491V435.823z"/>
		<path fill="#FFFFFF" d="M726.75,396.061h4.646v39.762h20.72v4.131H726.75V396.061z"/>
		<path fill="#FFFFFF" d="M764.574,396.061h26.722v4.131H769.22v20.591h19.69v4.066h-19.69v10.973h22.981v4.131h-27.627V396.061z"/>
		<path fill="#FFFFFF" d="M801.69,431.562l3.871-2.065c2.065,3.679,5.101,6.842,11.298,6.842c5.097,0,9.101-2.84,9.101-7.489
			c0-4.454-2.778-6.713-8.262-9.165l-3.487-1.614c-6.26-2.84-9.681-5.874-9.681-12.005c0-6.327,4.968-10.523,11.553-10.523
			c5.873,0,9.551,2.711,11.878,6.584l-3.745,2.325c-1.677-2.711-4.004-4.778-8.133-4.778c-4.325,0-6.973,2.517-6.973,6.262
			c0,3.873,2.068,5.616,6.973,7.874l3.487,1.614c7.291,3.226,11.036,6.842,11.036,13.426c0,7.23-5.743,11.62-13.618,11.62
			C808.596,440.471,804.013,436.211,801.69,431.562z"/>
	</g>
</g>
</svg>
