<?xml version="1.0" encoding="utf-8"?>
<!-- Generator: Adobe Illustrator 17.0.0, SVG Export Plug-In . SVG Version: 6.00 Build 0)  -->
<!DOCTYPE svg PUBLIC "-//W3C//DTD SVG 1.1//EN" "http://www.w3.org/Graphics/SVG/1.1/DTD/svg11.dtd">
<svg version="1.1" id="Layer_1" xmlns="http://www.w3.org/2000/svg" xmlns:xlink="http://www.w3.org/1999/xlink" x="0px" y="0px"
	 width="1050px" height="700px" viewBox="0 0 1050 700" enable-background="new 0 0 1050 700" xml:space="preserve">
<rect x="-1" y="1" width="1050" height="700"/>
<g>
	<path fill="#FFFFFF" d="M285.229,125.524h39.495c16.77,0,31.206,0,46.07,12.521c10.187,9.347,14.856,21.448,14.856,36.094
		c0,14.654-4.669,26.755-14.856,36.094c-14.864,12.529-29.3,12.529-46.07,12.529h-10.405v59.868h-29.09V125.524z M314.319,195.587
		h9.338c12.529,0,32.911-0.848,32.911-21.448c0-20.591-19.961-21.44-31.844-21.44h-10.405V195.587z"/>
	<path fill="#FFFFFF" d="M469.27,125.524h48.195c18.047,0,29.3,3.393,38.21,10.615c8.918,7.222,18.475,19.953,18.475,38
		c0,10.405-3.821,26.755-15.074,37.58c-9.338,8.918-18.257,11.043-26.117,12.949l42.677,57.961h-35.245l-41.611-60.086h-0.42v60.086
		h-29.09V125.524z M498.36,200.676h18.677c23.992,0,28.023-15.922,28.023-24.202c0-8.7-5.307-23.774-28.023-23.774H498.36V200.676z"
		/>
	<path fill="#FFFFFF" d="M587.966,152.699H475.421v-27.175h170.934v27.175h-29.3v129.93h-29.09V152.699z"/>
	<path fill="#FFFFFF" d="M666.367,224.668l-51.596-99.144h31.852l34.179,72.187l34.389-72.187h32.062l-77.775,157.105h-29.082
		L666.367,224.668z"/>
	<path fill="#FFFFFF" d="M435.964,125.524h25.512v157.105h-29.115v-40.553h-41.619l-24.404,40.553h-34.179L435.964,125.524z
		 M407.948,214.902h24.412v-41.401h-0.42L407.948,214.902z"/>
	<path fill="#EB008B" d="M552.467,297.496h21.468v92.267h-24.5v5.81h-34.359l-20.536,34.124h-29.424L552.467,297.496z
		 M528.892,372.706h20.543v-34.838h-0.353L528.892,372.706z"/>
	<path fill="#EB008B" d="M395.661,392.895c-10.36,24.295-35.729,39.481-61.098,39.481c-38.23,0-68.956-31.976-68.956-69.316
		c0-36.442,30.189-68.242,68.419-68.242c21.977,0,49.664,11.434,62.348,40.371h-27.864c-9.469-10.897-20.726-17.504-35.375-17.504
		c-21.44,0-43.057,19.292-43.057,45.735c0,24.832,20.543,46.088,43.947,46.088c17.688,0,27.334-10.36,33.234-16.614H395.661z"/>
	<path fill="#EB008B" d="M405.035,297.496h40.555c15.186,0,24.655,2.855,32.153,8.932c7.505,6.077,15.546,16.79,15.546,31.976
		c0,8.755-3.215,22.514-12.684,31.623c-7.858,7.505-15.363,9.292-21.977,10.897l35.912,48.773h-29.658l-35.015-50.561h-0.353v50.561
		h-24.479V297.496z M429.514,360.735h15.716c20.189,0,23.581-13.398,23.581-20.366c0-7.321-4.466-20.006-23.581-20.006h-15.716
		V360.735z"/>
	<path fill="#EB008B" d="M578.186,394.499c1.251,13.221,10.006,17.688,17.504,17.688c9.653,0,18.225-6.607,18.225-16.614
		c0-13.575-8.755-16.077-25.192-22.33c-10.183-3.929-31.439-10.183-31.439-38.053c0-21.08,16.437-37.693,38.767-37.693
		c15.363,0,37.877,10.72,39.128,37.693h-25.016c-1.067-11.794-8.218-14.826-14.826-14.826c-7.681,0-13.582,5.533-13.582,13.398
		c0,11.434,8.579,13.935,21.977,18.401c10.897,3.569,34.661,11.971,34.661,40.732c0,28.584-22.154,42.159-42.88,42.159
		c-16.974,0-41.622-11.434-43.057-40.555H578.186z"/>
	<path fill="#EB008B" d="M423.006,437.732h71.104V460.6h-46.619v40.371h68.043v20.118h-68.043v25.977h46.619v22.867h-71.104V437.732
		z"/>
	<path fill="#EB008B" d="M509.073,437.732h40.555c15.186,0,24.648,2.855,32.153,8.932s15.539,16.79,15.539,31.976
		c0,8.755-3.208,22.514-12.684,31.623c-7.858,7.505-15.363,9.292-21.97,10.897l35.905,48.773h-29.652l-35.022-50.561h-0.354v50.561
		h-24.472V437.732z M533.544,500.971h15.716c20.189,0,23.588-13.398,23.588-20.366c0-7.321-4.473-20.006-23.588-20.006h-15.716
		V500.971z"/>
	<path fill="#EB008B" d="M643.386,297.5h24.47v53.774h47.337V297.5h24.484v132.195h-24.484v-55.555h-47.337v55.555h-24.47V297.5z"/>
	<path fill="#FFF100" d="M715.197,125.524h73.575l-49.09,353.242h-24.485V125.524z"/>
	<g>
		<path fill="#EB008B" d="M666.365,499.61c-7.101,6.926-16.935,11.226-27.818,11.226c-4.82,0-9.384-0.956-13.649-2.496
			c2.357,0.968,4.551,1.756,6.38,2.461c16.437,6.254,25.192,8.755,25.192,22.33c0,10.006-8.579,16.614-18.231,16.614
			c-7.491,0-16.247-4.466-17.497-17.688h-25.736c1.441,29.121,26.09,40.555,43.056,40.555c20.733,0,42.88-13.575,42.88-42.159
			C680.942,515.215,674.258,505.727,666.365,499.61z"/>
		<path fill="#EB008B" d="M666.365,499.61c-7.004-5.429-14.958-8.211-20.078-9.889c-13.405-4.466-21.97-6.967-21.97-18.401
			c0-7.865,5.887-13.399,13.568-13.399c6.607,0,13.758,3.032,14.833,14.826h24.995c-0.01-1.835-0.288-3.6-0.559-5.364
			c-0.224-1.365-0.487-2.698-0.824-3.967c-0.066-0.246-0.161-0.48-0.232-0.724c-0.617-2.155-1.401-4.157-2.308-6.036
			c-0.751-1.515-1.531-3.015-2.475-4.41c-0.276-0.413-0.582-0.791-0.872-1.188c-1.116-1.517-2.335-2.956-3.665-4.296
			c-0.443-0.442-0.897-0.862-1.357-1.278c-1.117-1.022-2.322-1.947-3.557-2.838c-1.143-0.807-2.31-1.552-3.505-2.223
			c-0.677-0.387-1.373-0.742-2.075-1.089c-1.532-0.749-3.081-1.405-4.639-1.95c-1.304-0.449-2.615-0.879-3.978-1.194
			c-0.764-0.186-1.519-0.329-2.272-0.469c-2.223-0.38-4.483-0.663-6.818-0.665c-0.474,0-0.904,0.113-1.373,0.128
			c-12.885,0.43-24.206,6.778-31.02,16.424c-4.047,5.999-6.351,13.254-6.351,21.138c0,4.166,0.521,7.797,1.363,11.061
			c2.523,8.106,7.661,15.076,14.613,19.893c3.06,1.959,6.197,3.45,9.091,4.638c4.265,1.54,8.829,2.496,13.649,2.496
			C649.43,510.836,659.265,506.536,666.365,499.61z"/>
	</g>
	<polygon fill="#FFF100" points="420.459,511.056 420.521,510.993 347.147,437.827 318.647,437.82 381.978,500.971 285.229,500.971 
		285.229,521.089 381.994,521.089 333.192,569.892 361.601,569.934 406.305,525.229 406.315,525.239 413.418,518.116 
		420.469,511.066 	"/>
	<g>
		<circle fill="#000001" cx="728.181" cy="531.275" r="41.336"/>
		<g>
			<path fill="#FFF100" d="M726.937,491.214v14.761c-5.5-0.017-10.5,0.591-14.976,1.55
				C717.488,499.018,724.29,493.278,726.937,491.214L726.937,491.214z M721.955,491.007c-4.079,3.859-9.752,9.729-14.136,17.514
				c-7.548,2.086-13.268,5.002-16.703,7.071C696.321,503.392,707.467,494.204,721.955,491.007L721.955,491.007z M687.886,531.518
				c0-4.135,0.62-8.048,1.737-11.756c1.741-1.275,7.563-5.171,16.524-7.992c-2.323,4.87-4.086,10.353-4.677,16.478
				c0,0.057,0,0.093-0.028,0.147c-0.121,1.46-0.193,2.953-0.184,4.502h-13.314C687.915,532.439,687.886,531.977,687.886,531.518
				L687.886,531.518z M690.353,545.688c3.135,1.957,8.708,4.927,16.182,7.18c3.588,6.401,9.034,12.715,16.676,19.376
				C707.328,569.216,695.286,559.236,690.353,545.688L690.353,545.688z M726.937,571.578c-7.383-5.995-12.824-11.809-16.592-17.714
				c4.863,1.144,10.391,1.937,16.5,1.937h0.092V571.578z M726.937,553.123L726.937,553.123c-7.002,0-13.221-1.049-18.483-2.471
				c-2.593-4.891-4.041-9.891-4.439-15.095h22.922V553.123z M765.775,516.274c-6.739-3.581-13.19-6.054-19.267-7.678
				c-1.514-2.658-3.137-5.113-4.799-7.325c-3.129-4.336-6.451-7.917-9.219-10.629C748.4,493.315,760.562,502.932,765.775,516.274
				L765.775,516.274z M729.578,508.652c4.705,0.181,9.722,0.864,15.009,2.196c2.437,4.594,4.384,9.65,5.278,15.131
				c0.028,0.183,0.054,0.33,0.065,0.5c0.158,0.922,0.268,1.842,0.351,2.786c0.102,1.2,0.157,2.397,0.157,3.633h-20.861V508.652z
				 M729.578,535.556h20.732c-0.221,3.176-0.831,6.292-1.809,9.358c-0.075,0.237-0.15,0.481-0.229,0.699
				c-0.085,0.242-0.18,0.482-0.27,0.704c-0.525,1.402-1.181,2.783-1.89,4.171c-5.879,1.588-11.404,2.398-16.534,2.583V535.556z
				 M729.578,570.104V555.71c4.637-0.169,9.538-0.815,14.716-2.01C740.953,559.066,736.145,564.402,729.578,570.104L729.578,570.104
				z M732.139,572.427c7.224-6.399,12.496-12.974,15.953-19.743c5.786-1.645,11.887-4.118,18.217-7.51
				C761.325,559.415,748.648,569.788,732.139,572.427L732.139,572.427z M768.57,532.898h-15.465v-0.037
				c0.026-7.932-2.012-14.966-4.901-21.016c5.961,1.788,12.264,4.428,18.831,8.135c1.037,3.618,1.587,7.476,1.587,11.538
				C768.622,531.977,768.587,532.439,768.57,532.898L768.57,532.898z"/>
		</g>
	</g>
</g>
</svg>
