<?xml version="1.0" encoding="utf-8"?>
<!-- Generator: Adobe Illustrator 23.0.1, SVG Export Plug-In . SVG Version: 6.00 Build 0)  -->
<svg version="1.1" id="Layer_1" xmlns="http://www.w3.org/2000/svg" xmlns:xlink="http://www.w3.org/1999/xlink" x="0px" y="0px"
	 viewBox="0 0 1050 700" style="enable-background:new 0 0 1050 700;" xml:space="preserve">
<style type="text/css">
	.st0{fill:#3B3029;}
	.st1{fill:#867347;}
	.st2{fill:#FFFFFF;}
	.st3{fill:none;stroke:#867347;stroke-width:0.4378;stroke-miterlimit:10;}
	.st4{fill:none;stroke:#867347;stroke-width:0.4378;stroke-miterlimit:10;stroke-dasharray:0.8857,0.8857,0.8857,0.8857;}
	
		.st5{fill:none;stroke:#867347;stroke-width:0.4378;stroke-miterlimit:10;stroke-dasharray:0.8857,0.8857,0.8857,0.8857,0.8857,0.8857;}
	.st6{fill:none;}
	
		.st7{fill:none;stroke:#867347;stroke-width:0.4378;stroke-miterlimit:10;stroke-dasharray:0.8756,0.8756,0.8756,0.8756,0.8756,0.8756;}
</style>
<rect class="st0" width="1050" height="700"/>
<g>
	<path class="st1" d="M750.3,290.4c-0.7-1.6-1.5-3.2-2.3-4.8c-4.8-9.1-11.1-17.3-18.8-24c-15.2-17.2-37.5-28-62.3-28
		c-23.4,0-44.6,9.7-59.7,25.3c-14.5,15-23.5,35.4-23.5,57.9c0,24.8,10.9,47.1,28.1,62.3c15.2,17.2,37.5,28.1,62.3,28.1
		c13.4,0,26.1-3.2,37.3-8.8c-17.2,22.1-44.9,36.7-76.4,37.4l1.4,24.1l7.2,7.2c30.7-1.8,58.5-13.6,79.9-32.1
		c23.6-23.3,38.2-55.7,38.2-91.5C761.7,324.5,757.6,306.6,750.3,290.4z M614.6,324.2c0-22.6,12.6-42.3,31.3-52.5v101.2
		c-6.3-2.5-12.1-5.9-17.2-10.2C619.9,352.2,614.6,338.8,614.6,324.2z"/>
	<g>
		<path class="st2" d="M748,285.6c0.8,1.6,1.6,3.2,2.3,4.8C749.6,288.8,748.8,287.2,748,285.6z"/>
		<path class="st2" d="M750.3,290.4c-0.7-1.6-1.5-3.2-2.3-4.8c-13.9-26.6-41.7-44.8-73.8-44.8c-23.4,0-44.6,9.7-59.7,25.3
			c-14.5,15-23.5,35.4-23.5,57.9c0,45.9,37.2,83.2,83.2,83.2c21.8,0,41.6-8.4,56.4-22c-13.7,33.2-47.9,57-88.2,57.8l1.4,24.1
			c30.7-1.8,58.5-13.6,79.9-32.1c23.6-23.3,38.2-55.7,38.2-91.5C761.7,324.5,757.6,306.6,750.3,290.4z M653.1,380.1
			c-22.6-8.8-38.5-30.5-38.5-55.9c0-25.4,16-47.1,38.5-55.9V380.1z"/>
	</g>
	<path class="st3" d="M658.4,393.5v-5.4c-28.7-7.2-49.9-33.1-49.9-64h-5.3"/>
	<path class="st3" d="M603.2,324.1h5.3c0-30.9,21.2-56.8,49.9-64v-5.4"/>
	<path class="st3" d="M674.5,390.1v5.3c39.3,0,71.2-31.9,71.2-71.2h-5.3C740.4,360.6,710.9,390.1,674.5,390.1z"/>
	<path class="st3" d="M674.5,252.9v5.3c36.4,0,66,29.5,66,66h5.3C745.7,284.8,713.8,252.9,674.5,252.9z"/>
	<path class="st3" d="M674.5,386.9c9.6,0,18.7-2.2,26.9-6v-56.7h-26.9V386.9z"/>
	<path class="st3" d="M701.3,324.1v-56.7c-8.1-3.9-17.2-6-26.9-6v62.8H701.3z"/>
	<g>
		<g>
			<path class="st3" d="M603.2,324.1c0-0.1,0-0.3,0-0.4"/>
			<path class="st4" d="M603.3,322.8c0-1,0.1-2.1,0.1-3.1"/>
			<path class="st5" d="M603.4,319.3c2.1-31.3,24.5-57.1,54.1-64.3"/>
			<path class="st3" d="M658,254.9c0.1,0,0.3-0.1,0.4-0.1"/>
		</g>
	</g>
	<g>
		<g>
			<path class="st3" d="M658.4,393.5c-0.1,0-0.3-0.1-0.4-0.1"/>
			<path class="st4" d="M657.1,393.2c-1-0.3-2-0.5-3-0.8"/>
			<path class="st5" d="M653.7,392.3c-28.9-8.8-50.1-35.5-50.5-67.2"/>
			<path class="st3" d="M603.2,324.6c0-0.1,0-0.3,0-0.4"/>
		</g>
	</g>
	<g>
		<path class="st6" d="M740.4,324.1c0,11.2-2.8,21.8-7.8,31.1h5.9c4.6-9.4,7.1-19.9,7.1-31.1H740.4z"/>
		<path class="st6" d="M740.4,324.1h5.3c0-39.3-31.9-71.2-71.2-71.2v5.3C710.9,258.2,740.4,287.7,740.4,324.1z"/>
		<path class="st6" d="M701.3,267.4c-8.1-3.9-17.2-6-26.9-6v62.8v62.8c9.6,0,18.7-2.2,26.9-6v-56.7V267.4z"/>
		<path class="st6" d="M674.5,390.1v5.3c28.2,0,52.5-16.4,64.1-40.1h-5.9C721.5,376,699.6,390.1,674.5,390.1z"/>
		<path class="st3" d="M738.5,355.2c-11.5,23.8-35.9,40.1-64.1,40.1v-5.3c-1.7,0-3.3-0.1-5-0.2v-3.2v-62.5v-62.5v-3.2
			c1.6-0.1,3.3-0.2,5-0.2v-5.3c39.3,0,71.2,31.9,71.2,71.2h8.8c-2.3-13.2-6-24.7-9.2-30.6l0,0c-11.8-27.4-39.1-46.5-70.8-46.5
			c-1.7,0-3.3,0.1-5,0.2c-40.2,2.6-72.1,36-72.1,76.9s31.8,74.3,72.1,76.9c1.6,0.1,3.3,0.2,5,0.2c28,0,52.5-14.9,66-37.2h2.6
			c0,0-9.9,74.9-94.9,84.5V461c0,0,43.2-7.1,66.8-26.8c24.7-20.6,35.9-44.1,39.9-70.2c0.4-2.9,0.7-5.8,0.9-8.8H738.5z M658.4,260.2
			v3.3v60.7v60.7v3.3v5.4v-5.4v-3.3v-60.7v-60.7V260.2v-5.4V260.2z"/>
		<path class="st3" d="M738.5,355.2h17.3c0.7-10.3-0.1-20.7-1.4-31.1h-8.8C745.7,335.3,743.1,345.8,738.5,355.2z"/>
		<path class="st3" d="M729,355.2h3.7c5-9.3,7.8-19.8,7.8-31.1h-3.2C737.2,335.5,734.2,346.1,729,355.2z"/>
		<path class="st3" d="M732.6,355.2H729c-6.4,11.1-16,20.1-27.7,25.6c-8.1,3.9-17.2,6-26.9,6v-62.8v-62.8c9.6,0,18.7,2.2,26.9,6
			c21.2,10.1,35.9,31.7,35.9,56.7h3.2c0-36.4-29.5-66-66-66c-1.7,0-3.3,0.1-5,0.2v3.2v62.5v62.5v3.2c1.6,0.1,3.3,0.2,5,0.2
			C699.6,390.1,721.5,376,732.6,355.2z"/>
		<path class="st3" d="M729,355.2c5.2-9.2,8.2-19.8,8.2-31.1"/>
		<path class="st3" d="M737.2,324.1c0-25-14.7-46.7-35.9-56.7v56.7v56.7c11.6-5.5,21.3-14.5,27.7-25.6"/>
	</g>
	<path class="st7" d="M652.5,453.8c0,0,87.9-9.1,96.2-94.1"/>
	<path class="st7" d="M706.4,306v-29c0,0,12.9,6.3,16.9,17.7H711v-7.5"/>
	<path class="st7" d="M706.4,342.1v29c0,0,12.9-6.3,16.9-17.7H711v7.5"/>
	<path class="st1" d="M807.1,266c15.1-15.6,36.3-25.3,59.7-25.3c17.3,0,33.3,5.3,46.6,14.3c2.9,1.9,5.6,4,8.2,6.2
		c-15.2-17-37.4-27.8-62-27.8c-23.4,0-44.6,9.7-59.7,25.3c-14.5,15-23.5,35.4-23.5,57.9c0,24.8,10.9,47.1,28.1,62.3
		c-13-14.7-20.9-34-20.9-55.1C783.6,301.4,792.6,281,807.1,266z"/>
	<path class="st2" d="M940.6,285.6c-0.5-1-1.1-2-1.7-3c-0.2-0.3-0.3-0.6-0.5-0.8c-0.5-0.8-0.9-1.5-1.4-2.3c-0.2-0.2-0.3-0.5-0.5-0.7
		c-0.6-1-1.3-1.9-1.9-2.8c-0.1-0.1-0.2-0.3-0.3-0.4c-0.6-0.8-1.2-1.6-1.8-2.4c-0.2-0.2-0.4-0.5-0.6-0.7c-0.6-0.8-1.2-1.5-1.8-2.3
		c-0.1-0.1-0.2-0.3-0.4-0.4c-0.8-0.9-1.5-1.7-2.3-2.6c-0.2-0.2-0.3-0.3-0.5-0.5c-0.7-0.7-1.3-1.4-2-2c-0.2-0.2-0.4-0.4-0.6-0.6
		c-0.8-0.8-1.7-1.6-2.5-2.3l0,0c-2.7-2.3-5.5-4.5-8.4-6.5c-13.2-8.9-29.2-14.1-46.3-14.1c-45.9,0-83.2,37.2-83.2,83.2
		c0,27.4,13.2,51.7,33.7,66.8c1.6,1.2,3.2,2.3,4.9,3.3c0.1,0,0.1,0.1,0.2,0.1c0.5,0.3,1.1,0.7,1.6,1c0.1,0.1,0.2,0.1,0.3,0.2
		c0.5,0.3,1,0.6,1.6,0.9c0.1,0.1,0.2,0.1,0.3,0.2c0.5,0.3,1,0.6,1.5,0.8c0.1,0.1,0.2,0.1,0.4,0.2c0.5,0.3,1,0.5,1.5,0.8
		c0.1,0.1,0.3,0.1,0.4,0.2c0.5,0.3,1,0.5,1.6,0.7c0.1,0.1,0.2,0.1,0.4,0.2c0.5,0.3,1.1,0.5,1.6,0.7c0.1,0,0.2,0.1,0.3,0.1
		c0.6,0.3,1.2,0.5,1.8,0.8c0,0,0.1,0,0.1,0.1c2,0.8,4.1,1.5,6.2,2.2c0.1,0,0.2,0.1,0.4,0.1c0.6,0.2,1.1,0.3,1.7,0.5
		c0.2,0.1,0.4,0.1,0.6,0.2c0.5,0.1,1,0.3,1.5,0.4c0.2,0.1,0.5,0.1,0.7,0.2c0.4,0.1,0.9,0.2,1.4,0.3c0.3,0.1,0.5,0.1,0.8,0.2
		c0.4,0.1,0.9,0.2,1.3,0.3c0.3,0.1,0.6,0.1,0.9,0.2c0.4,0.1,0.8,0.2,1.3,0.2c0.3,0.1,0.6,0.1,0.9,0.1c0.4,0.1,0.8,0.1,1.3,0.2
		c0.3,0,0.6,0.1,0.9,0.1c0.4,0.1,0.8,0.1,1.3,0.2c0.3,0,0.6,0.1,0.9,0.1c0.4,0,0.9,0.1,1.3,0.1c0.3,0,0.6,0.1,0.9,0.1
		c0.4,0,0.9,0.1,1.4,0.1c0.3,0,0.6,0,0.9,0.1c0.5,0,1,0,1.5,0.1c0.2,0,0.5,0,0.7,0c0.7,0,1.5,0,2.2,0c1.2,0,2.4,0,3.6-0.1
		c0.3,0,0.5,0,0.8,0c1.2-0.1,2.3-0.1,3.4-0.2c0.2,0,0.5-0.1,0.7-0.1c1-0.1,2-0.2,3-0.4c0.2,0,0.4-0.1,0.6-0.1
		c1.1-0.2,2.1-0.3,3.2-0.5c0.3-0.1,0.7-0.1,1-0.2c1-0.2,2-0.4,3-0.7c0.3-0.1,0.6-0.2,1-0.2c0.8-0.2,1.5-0.4,2.3-0.6
		c0.4-0.1,0.8-0.2,1.2-0.3c0.9-0.3,1.8-0.6,2.7-0.9c0.5-0.2,0.9-0.3,1.4-0.5c0.6-0.2,1.2-0.4,1.8-0.7c0.7-0.3,1.4-0.5,2-0.8
		c0.6-0.2,1.1-0.5,1.6-0.7c0.5-0.2,1-0.4,1.5-0.7c0.8-0.4,1.5-0.7,2.3-1.1c0,0,0,0,0,0v0c7-3.5,13.4-8,19.1-13.2
		c-0.1,0.3-0.2,0.5-0.3,0.8c3.8-3.4,7.2-7.2,10.3-11.2c2-6.5,2.5-10.7,2.5-10.7H933c-13.5,22.3-38,37.2-66,37.2
		c-1.7,0-3.3-0.1-5-0.2c-40.2-2.6-72.1-36-72.1-76.9s31.8-74.3,72.1-76.9c1.6-0.1,3.3-0.2,5-0.2c31.7,0,58.9,19.1,70.8,46.5l0,0
		c3.2,5.9,7,17.3,9.2,30.6h-8.8c0-39.3-31.9-71.2-71.2-71.2v5.3c-1.7,0-3.3,0.1-5,0.2v3.2v62.5v62.5v3.2c1.6,0.1,3.3,0.2,5,0.2v5.3
		c28.2,0,52.5-16.4,64.1-40.1h13.1c3.9-9.6,6-20.1,6-31.1c0-9.1-1.5-17.9-4.2-26.2c-1-2.6-2-5.1-3.1-7.6
		C942.2,288.8,941.4,287.2,940.6,285.6z"/>
	<path class="st2" d="M867.1,395.4v-5.3c-1.7,0-3.3-0.1-5-0.2v-3.2v-62.5v-62.5v-3.2c1.6-0.1,3.3-0.2,5-0.2v-5.3
		c39.3,0,71.2,31.9,71.2,71.2h8.8c-2.3-13.2-6-24.7-9.2-30.6l0,0c-11.8-27.4-39.1-46.5-70.8-46.5c-1.7,0-3.3,0.1-5,0.2
		c-40.2,2.6-72.1,36-72.1,76.9s31.8,74.3,72.1,76.9c1.6,0.1,3.3,0.2,5,0.2c28,0,52.5-14.9,66-37.2h2.6c0,0-0.6,4.2-2.5,10.7
		c4.5-5.9,8.3-12.4,11.1-19.5h-13.1C919.6,379,895.3,395.4,867.1,395.4z M845.8,380.1c-9.6-3.7-17.9-9.8-24.4-17.4l0,0l0,0
		c-2.7-3.2-5.1-6.8-7.1-10.5c0-0.1-0.1-0.1-0.1-0.2c-0.4-0.7-0.7-1.4-1-2c-0.1-0.1-0.1-0.2-0.2-0.3c-0.3-0.6-0.6-1.3-0.9-2
		c-0.1-0.1-0.1-0.2-0.2-0.4c-0.3-0.7-0.6-1.4-0.8-2c0-0.1-0.1-0.2-0.1-0.3c-0.6-1.6-1.1-3.2-1.6-4.9c0,0,0-0.1,0-0.1
		c-0.2-0.7-0.4-1.5-0.6-2.3c-0.1-0.2-0.1-0.4-0.1-0.7c-0.1-0.6-0.3-1.2-0.4-1.8c-0.1-0.3-0.1-0.6-0.2-0.9c-0.1-0.5-0.2-1.1-0.3-1.6
		c0-0.3-0.1-0.6-0.1-0.9c-0.1-0.5-0.1-1.1-0.2-1.6c0-0.3-0.1-0.6-0.1-0.9c0-0.6-0.1-1.2-0.1-1.7c0-0.3,0-0.5,0-0.8
		c0-0.9-0.1-1.7-0.1-2.6c0-0.8,0-1.5,0-2.2c0-0.2,0-0.5,0-0.7c0-0.5,0.1-1,0.1-1.5c0-0.3,0.1-0.6,0.1-0.9c0-0.4,0.1-0.9,0.1-1.3
		c0-0.3,0.1-0.6,0.1-0.9c0.1-0.4,0.1-0.8,0.2-1.3c0-0.3,0.1-0.6,0.1-0.9c0.1-0.4,0.1-0.8,0.2-1.2c0.1-0.3,0.1-0.6,0.2-0.9
		c0.1-0.4,0.2-0.8,0.3-1.2c0.1-0.3,0.1-0.6,0.2-0.9c0.1-0.4,0.2-0.8,0.3-1.2c0.1-0.3,0.2-0.6,0.2-0.9c0.1-0.5,0.3-0.9,0.4-1.4
		c0.1-0.5,0.3-0.9,0.4-1.4c0.1-0.4,0.3-0.8,0.4-1.2c0.1-0.3,0.3-0.7,0.4-1c0.1-0.3,0.2-0.6,0.4-0.9c0.1-0.4,0.3-0.7,0.4-1.1
		c0.1-0.3,0.2-0.6,0.4-0.9c0.2-0.4,0.3-0.7,0.5-1.1c0.1-0.3,0.2-0.5,0.4-0.8c0.2-0.4,0.4-0.7,0.6-1.1c0.1-0.2,0.2-0.5,0.4-0.7
		c0.2-0.4,0.4-0.8,0.6-1.1c0.1-0.2,0.2-0.4,0.4-0.6c0.2-0.4,0.5-0.8,0.7-1.2c0.1-0.1,0.2-0.3,0.3-0.4c1.3-2.1,2.8-4.2,4.3-6.1
		c0,0,0,0,0,0c0.4-0.5,0.8-0.9,1.1-1.4c0.1-0.1,0.1-0.1,0.2-0.2c0.4-0.4,0.8-0.9,1.2-1.3c0.1-0.1,0.1-0.1,0.2-0.2
		c0.4-0.4,0.8-0.8,1.2-1.3c0.1-0.1,0.1-0.1,0.2-0.2c0.4-0.4,0.9-0.9,1.3-1.3c0,0,0,0,0.1-0.1c5.7-5.4,12.5-9.8,19.9-12.7V380.1z
		 M851,260.2v3.3v60.7v60.7v3.3v5.4v-5.4v-3.3v-60.7v-60.7V260.2v-5.4V260.2z"/>
	<path class="st3" d="M851,393.5v-5.4c-28.7-7.2-49.9-33.1-49.9-64h-5.3"/>
	<path class="st3" d="M795.9,324.1h5.3c0-30.9,21.2-56.8,49.9-64v-5.4"/>
	<path class="st3" d="M867.1,390.1v5.3c39.3,0,71.2-31.9,71.2-71.2H933C933,360.6,903.5,390.1,867.1,390.1z"/>
	<path class="st3" d="M867.1,252.9v5.3c36.4,0,66,29.5,66,66h5.3C938.3,284.8,906.4,252.9,867.1,252.9z"/>
	<path class="st3" d="M867.1,386.9c9.6,0,18.7-2.2,26.9-6v-56.7h-26.9V386.9z"/>
	<path class="st3" d="M893.9,324.1v-56.7c-8.1-3.9-17.2-6-26.9-6v62.8H893.9z"/>
	<g>
		<g>
			<path class="st3" d="M795.9,324.1c0-0.1,0-0.3,0-0.4"/>
			<path class="st4" d="M795.9,322.8c0-1,0.1-2.1,0.1-3.1"/>
			<path class="st5" d="M796,319.3c2.1-31.3,24.5-57.1,54.1-64.3"/>
			<path class="st3" d="M850.6,254.9c0.1,0,0.3-0.1,0.4-0.1"/>
		</g>
	</g>
	<g>
		<g>
			<path class="st3" d="M851,393.5c-0.1,0-0.3-0.1-0.4-0.1"/>
			<path class="st4" d="M849.7,393.2c-1-0.3-2-0.5-3-0.8"/>
			<path class="st5" d="M846.3,392.3c-28.9-8.8-50.1-35.5-50.5-67.2"/>
			<path class="st3" d="M795.9,324.6c0-0.1,0-0.3,0-0.4"/>
		</g>
	</g>
	<path class="st6" d="M933,324.1c0,11.2-2.8,21.8-7.8,31.1h5.9c4.6-9.4,7.1-19.9,7.1-31.1H933z"/>
	<path class="st6" d="M933,324.1h5.3c0-39.3-31.9-71.2-71.2-71.2v5.3C903.5,258.2,933,287.7,933,324.1z"/>
	<path class="st6" d="M893.9,267.4c-8.1-3.9-17.2-6-26.9-6v62.8v62.8c9.6,0,18.7-2.2,26.9-6v-56.7V267.4z"/>
	<path class="st6" d="M867.1,390.1v5.3c28.2,0,52.5-16.4,64.1-40.1h-5.9C914.2,376,892.3,390.1,867.1,390.1z"/>
	<path class="st3" d="M921.6,355.2h3.7c5-9.3,7.8-19.8,7.8-31.1h-3.2C929.8,335.5,926.8,346.1,921.6,355.2z"/>
	<path class="st3" d="M925.3,355.2h-3.7c-6.4,11.1-16,20.1-27.7,25.6c-8.1,3.9-17.2,6-26.9,6v-62.8v-62.8c9.6,0,18.7,2.2,26.9,6
		c21.2,10.1,35.9,31.7,35.9,56.7h3.2c0-36.4-29.5-66-66-66c-1.7,0-3.3,0.1-5,0.2v3.2v62.5v62.5v3.2c1.6,0.1,3.3,0.2,5,0.2
		C892.3,390.1,914.2,376,925.3,355.2z"/>
	<path class="st3" d="M921.6,355.2c5.2-9.2,8.2-19.8,8.2-31.1"/>
	<path class="st3" d="M929.8,324.1c0-25-14.7-46.7-35.9-56.7v56.7v56.7c11.6-5.5,21.3-14.5,27.7-25.6"/>
	<path class="st7" d="M899,306v-29c0,0,12.9,6.3,16.9,17.7h-12.3v-7.5"/>
	<path class="st7" d="M899,342.1v29c0,0,12.9-6.3,16.9-17.7h-12.3v7.5"/>
	<path class="st1" d="M805.9,380.6C805.9,380.6,805.9,380.6,805.9,380.6C805.9,380.6,805.9,380.6,805.9,380.6z"/>
	<path class="st2" d="M804.5,379c0.5,0.5,1,1.1,1.4,1.6C805.4,380.1,805,379.6,804.5,379L804.5,379z"/>
	<path class="st2" d="M805.9,380.6c3.9,4.2,8.2,8,12.9,11.3c-0.4-0.3-0.8-0.6-1.2-0.9C813.4,387.9,809.5,384.4,805.9,380.6z"/>
	<path class="st2" d="M817.6,391c-20.4-15.2-33.7-39.5-33.7-66.8c0-45.9,37.2-83.2,83.2-83.2c17.2,0,33.1,5.2,46.3,14.1
		c-13.3-9-29.3-14.3-46.6-14.3c-23.4,0-44.6,9.7-59.7,25.3c-14.5,15-23.5,35.4-23.5,57.9c0,21.1,7.9,40.4,20.9,55.1l0,0
		c0.5,0.5,1,1.1,1.4,1.6c0,0,0,0,0,0C809.5,384.4,813.4,387.9,817.6,391z"/>
	<path class="st6" d="M924.4,263.9c0.2,0.2,0.4,0.4,0.6,0.6c0.7,0.7,1.3,1.3,2,2c0.2,0.2,0.3,0.3,0.5,0.5c0.8,0.8,1.6,1.7,2.3,2.6
		c0.1,0.1,0.2,0.3,0.4,0.4c0.6,0.7,1.2,1.5,1.8,2.3c0.2,0.2,0.4,0.5,0.6,0.7c0.6,0.8,1.2,1.6,1.8,2.4c0.1,0.1,0.2,0.3,0.3,0.4
		c0.7,0.9,1.3,1.9,1.9,2.8c0.2,0.2,0.3,0.5,0.5,0.7c0.5,0.8,0.9,1.5,1.4,2.3c0.2,0.3,0.3,0.6,0.5,0.8c0.6,1,1.1,2,1.7,3
		c0.8,1.6,1.6,3.2,2.3,4.8c1.1,2.5,2.2,5,3.1,7.6c-4.8-14.4-13.3-27-24.5-36.7c0.1,0.1,0.2,0.2,0.2,0.3
		C922.7,262.3,923.5,263.1,924.4,263.9z"/>
	<path class="st6" d="M904,398.3c-0.8,0.4-1.5,0.7-2.3,1.1c-0.5,0.2-1,0.5-1.5,0.7c-0.5,0.2-1.1,0.5-1.6,0.7c-0.7,0.3-1.3,0.5-2,0.8
		c-0.6,0.2-1.2,0.5-1.8,0.7c-0.5,0.2-0.9,0.3-1.4,0.5c-0.9,0.3-1.8,0.6-2.7,0.9c-0.4,0.1-0.8,0.2-1.2,0.3c-0.8,0.2-1.5,0.4-2.3,0.6
		c-0.3,0.1-0.6,0.2-1,0.2c-1,0.2-2,0.5-3,0.7c-0.3,0.1-0.7,0.1-1,0.2c-1.1,0.2-2.1,0.4-3.2,0.5c-0.2,0-0.4,0.1-0.6,0.1
		c-1,0.1-2,0.3-3,0.4c-0.2,0-0.5,0.1-0.7,0.1c-1.1,0.1-2.3,0.2-3.4,0.2c-0.3,0-0.5,0-0.8,0c-1.2,0.1-2.4,0.1-3.6,0.1
		c-0.7,0-1.5,0-2.2,0c-0.2,0-0.5,0-0.7,0c-0.5,0-1,0-1.5-0.1c-0.3,0-0.6,0-0.9-0.1c-0.5,0-0.9-0.1-1.4-0.1c-0.3,0-0.6-0.1-0.9-0.1
		c-0.4,0-0.9-0.1-1.3-0.1c-0.3,0-0.6-0.1-0.9-0.1c-0.4,0-0.9-0.1-1.3-0.2c-0.3,0-0.6-0.1-0.9-0.1c-0.4-0.1-0.8-0.1-1.3-0.2
		c-0.3,0-0.6-0.1-0.9-0.1c-0.4-0.1-0.8-0.1-1.3-0.2c-0.3-0.1-0.6-0.1-0.9-0.2c-0.4-0.1-0.9-0.2-1.3-0.3c-0.3-0.1-0.5-0.1-0.8-0.2
		c-0.5-0.1-0.9-0.2-1.4-0.3c-0.2-0.1-0.5-0.1-0.7-0.2c-0.5-0.1-1-0.3-1.5-0.4c-0.2-0.1-0.4-0.1-0.6-0.2c-0.6-0.2-1.1-0.3-1.7-0.5
		c-0.1,0-0.2-0.1-0.4-0.1c-2.1-0.6-4.1-1.4-6.2-2.2c0,0-0.1,0-0.1-0.1c-0.6-0.2-1.2-0.5-1.8-0.8c-0.1,0-0.2-0.1-0.3-0.1
		c-0.6-0.2-1.1-0.5-1.6-0.7c-0.1-0.1-0.2-0.1-0.4-0.2c-0.5-0.2-1-0.5-1.6-0.7c-0.1-0.1-0.3-0.1-0.4-0.2c-0.5-0.3-1-0.5-1.5-0.8
		c-0.1-0.1-0.2-0.1-0.4-0.2c-0.5-0.3-1-0.5-1.5-0.8c-0.1-0.1-0.2-0.1-0.3-0.2c-0.5-0.3-1-0.6-1.6-0.9c-0.1-0.1-0.2-0.1-0.3-0.2
		c-0.5-0.3-1.1-0.7-1.6-1c-0.1,0-0.1-0.1-0.2-0.1c-1.2-0.8-2.5-1.6-3.7-2.4c13.6,9.7,30.3,15.4,48.3,15.4c13.1,0,25.5-3,36.5-8.4
		C903.7,398.7,903.9,398.5,904,398.3C904,398.3,904,398.3,904,398.3z"/>
	<path class="st1" d="M844.9,404.2c-0.2-0.1-0.4-0.1-0.6-0.2C844.5,404.1,844.7,404.1,844.9,404.2z"/>
	<path class="st1" d="M847.1,404.8c-0.2-0.1-0.5-0.1-0.7-0.2C846.6,404.6,846.8,404.7,847.1,404.8z"/>
	<path class="st1" d="M836.1,401.3c0,0-0.1,0-0.1-0.1C836,401.2,836,401.2,836.1,401.3z"/>
	<path class="st1" d="M834.1,400.4c-0.1,0-0.2-0.1-0.3-0.1C833.9,400.4,834,400.4,834.1,400.4z"/>
	<path class="st1" d="M849.2,405.2c-0.3-0.1-0.5-0.1-0.8-0.2C848.7,405.1,849,405.2,849.2,405.2z"/>
	<path class="st1" d="M842.6,403.5c-0.1,0-0.2-0.1-0.4-0.1C842.4,403.5,842.5,403.5,842.6,403.5z"/>
	<path class="st1" d="M853.6,406.1c-0.3,0-0.6-0.1-0.9-0.1C853,406,853.3,406,853.6,406.1z"/>
	<path class="st1" d="M860.1,406.8c-0.3,0-0.6-0.1-0.9-0.1C859.5,406.8,859.8,406.8,860.1,406.8z"/>
	<path class="st1" d="M851.4,405.7c-0.3-0.1-0.6-0.1-0.9-0.2C850.8,405.6,851.1,405.6,851.4,405.7z"/>
	<path class="st1" d="M857.9,406.6c-0.3,0-0.6-0.1-0.9-0.1C857.3,406.6,857.6,406.6,857.9,406.6z"/>
	<path class="st1" d="M855.7,406.4c-0.3,0-0.6-0.1-0.9-0.1C855.1,406.3,855.4,406.3,855.7,406.4z"/>
	<path class="st1" d="M832.2,399.6c-0.1-0.1-0.2-0.1-0.4-0.2C831.9,399.5,832,399.5,832.2,399.6z"/>
	<path class="st1" d="M862.3,407c-0.3,0-0.6,0-0.9-0.1C861.8,407,862,407,862.3,407z"/>
	<path class="st1" d="M936.6,278.7c0.2,0.2,0.3,0.5,0.5,0.7C936.9,279.2,936.8,278.9,936.6,278.7z"/>
	<path class="st1" d="M934.4,275.4c0.1,0.1,0.2,0.3,0.3,0.4C934.6,275.7,934.5,275.6,934.4,275.4z"/>
	<path class="st1" d="M927,266.5c0.2,0.2,0.3,0.3,0.5,0.5C927.3,266.9,927.1,266.7,927,266.5z"/>
	<path class="st1" d="M938.5,281.7c0.2,0.3,0.3,0.6,0.5,0.8C938.8,282.3,938.6,282,938.5,281.7z"/>
	<path class="st1" d="M932,272.3c0.2,0.2,0.4,0.5,0.6,0.7C932.4,272.8,932.2,272.6,932,272.3z"/>
	<path class="st1" d="M929.8,269.6c0.1,0.1,0.2,0.3,0.4,0.4C930,269.9,929.9,269.8,929.8,269.6z"/>
	<path class="st1" d="M830.2,398.7c-0.1-0.1-0.3-0.1-0.4-0.2C830,398.5,830.1,398.6,830.2,398.7z"/>
	<path class="st1" d="M826.4,396.7c-0.1-0.1-0.2-0.1-0.3-0.2C826.2,396.5,826.3,396.6,826.4,396.7z"/>
	<path class="st1" d="M828.3,397.7c-0.1-0.1-0.2-0.1-0.4-0.2C828.1,397.6,828.2,397.6,828.3,397.7z"/>
	<path class="st1" d="M824.5,395.6c-0.1-0.1-0.2-0.1-0.3-0.2C824.3,395.5,824.4,395.5,824.5,395.6z"/>
	<path class="st1" d="M924.4,263.9c0.2,0.2,0.4,0.4,0.6,0.6C924.8,264.3,924.6,264.1,924.4,263.9z"/>
	<path class="st1" d="M822.6,394.4c-0.1,0-0.1-0.1-0.2-0.1C822.5,394.3,822.6,394.4,822.6,394.4z"/>
	<path class="st1" d="M886.3,404.8c-1,0.2-2,0.5-3,0.7C884.2,405.3,885.3,405.1,886.3,404.8z"/>
	<path class="st1" d="M882.2,405.7c-1.1,0.2-2.1,0.4-3.2,0.5C880.1,406.1,881.1,405.9,882.2,405.7z"/>
	<path class="st1" d="M904,398.3c-0.8,0.4-1.5,0.7-2.3,1.1C902.5,399.1,903.3,398.7,904,398.3z"/>
	<path class="st1" d="M900.3,400.1c-0.5,0.2-1.1,0.5-1.6,0.7C899.2,400.6,899.7,400.3,900.3,400.1z"/>
	<path class="st1" d="M889.5,404c-0.8,0.2-1.5,0.4-2.3,0.6C888,404.4,888.8,404.2,889.5,404z"/>
	<path class="st1" d="M893.4,402.7c-0.9,0.3-1.8,0.6-2.7,0.9C891.6,403.3,892.5,403,893.4,402.7z"/>
	<path class="st1" d="M896.6,401.6c-0.6,0.2-1.2,0.5-1.8,0.7C895.4,402,896,401.8,896.6,401.6z"/>
	<path class="st1" d="M874.6,406.7c-1.1,0.1-2.3,0.2-3.4,0.2C872.3,406.9,873.5,406.8,874.6,406.7z"/>
	<path class="st1" d="M878.3,406.3c-1,0.1-2,0.3-3,0.4C876.3,406.6,877.3,406.4,878.3,406.3z"/>
	<path class="st1" d="M870.4,407c-1.2,0.1-2.4,0.1-3.6,0.1C868,407.1,869.2,407.1,870.4,407z"/>
	<path class="st1" d="M921.8,261.6c-0.1-0.1-0.2-0.2-0.2-0.3c-2.6-2.2-5.3-4.3-8.2-6.2C916.4,257,919.2,259.2,921.8,261.6z"/>
	<path class="st1" d="M864.6,407.1c-0.2,0-0.5,0-0.7,0C864.1,407.1,864.3,407.1,864.6,407.1z"/>
	<path class="st1" d="M923.2,385.1c-5.7,5.2-12.1,9.7-19.1,13.2c-0.2,0.2-0.3,0.4-0.5,0.6c7-3.4,13.5-7.8,19.2-13
		C922.9,385.6,923.1,385.4,923.2,385.1z"/>
	<path class="st2" d="M940.6,285.6c0.8,1.6,1.6,3.2,2.3,4.8C942.2,288.8,941.4,287.2,940.6,285.6z"/>
	<path class="st2" d="M898.6,400.8c-0.7,0.3-1.3,0.5-2,0.8C897.3,401.3,897.9,401.1,898.6,400.8z"/>
	<path class="st2" d="M930.2,270.1c0.6,0.7,1.2,1.5,1.8,2.3C931.4,271.5,930.8,270.8,930.2,270.1z"/>
	<path class="st2" d="M824.2,395.4c-0.5-0.3-1.1-0.7-1.6-1C823.2,394.8,823.7,395.1,824.2,395.4z"/>
	<path class="st2" d="M827.9,397.5c-0.5-0.3-1-0.5-1.5-0.8C826.9,396.9,827.4,397.2,827.9,397.5z"/>
	<path class="st2" d="M894.8,402.3c-0.5,0.2-0.9,0.3-1.4,0.5C893.9,402.6,894.3,402.4,894.8,402.3z"/>
	<path class="st2" d="M937.1,279.4c0.5,0.8,0.9,1.5,1.4,2.3C938,280.9,937.5,280.2,937.1,279.4z"/>
	<path class="st2" d="M826.1,396.5c-0.5-0.3-1-0.6-1.6-0.9C825,395.9,825.5,396.2,826.1,396.5z"/>
	<path class="st2" d="M829.8,398.5c-0.5-0.3-1-0.5-1.5-0.8C828.8,398,829.3,398.2,829.8,398.5z"/>
	<path class="st2" d="M924.4,263.9c-0.8-0.8-1.7-1.6-2.5-2.3l0,0C922.7,262.3,923.5,263.1,924.4,263.9z"/>
	<path class="st2" d="M939,282.6c0.6,1,1.1,2,1.7,3C940.1,284.6,939.5,283.5,939,282.6z"/>
	<path class="st2" d="M934.7,275.8c0.7,0.9,1.3,1.9,1.9,2.8C936,277.7,935.3,276.8,934.7,275.8z"/>
	<path class="st2" d="M932.6,273.1c0.6,0.8,1.2,1.6,1.8,2.4C933.8,274.6,933.2,273.8,932.6,273.1z"/>
	<path class="st2" d="M925,264.5c0.7,0.7,1.3,1.3,2,2C926.3,265.8,925.7,265.2,925,264.5z"/>
	<path class="st2" d="M901.7,399.4c-0.5,0.2-1,0.5-1.5,0.7C900.8,399.9,901.3,399.6,901.7,399.4z"/>
	<polygon class="st2" points="904,398.3 904.1,398.3 904.1,398.3 	"/>
	<path class="st2" d="M850.5,405.5c-0.4-0.1-0.9-0.2-1.3-0.3C849.7,405.3,850.1,405.4,850.5,405.5z"/>
	<path class="st2" d="M852.7,405.9c-0.4-0.1-0.8-0.1-1.3-0.2C851.8,405.8,852.2,405.8,852.7,405.9z"/>
	<path class="st2" d="M848.4,405.1c-0.5-0.1-0.9-0.2-1.4-0.3C847.5,404.9,848,405,848.4,405.1z"/>
	<path class="st2" d="M863.8,407.1c-0.5,0-1,0-1.5-0.1C862.8,407,863.3,407,863.8,407.1z"/>
	<path class="st2" d="M875.3,406.7c-0.2,0-0.5,0.1-0.7,0.1C874.8,406.7,875.1,406.7,875.3,406.7z"/>
	<path class="st2" d="M854.8,406.3c-0.4-0.1-0.8-0.1-1.3-0.2C854,406.1,854.4,406.2,854.8,406.3z"/>
	<path class="st2" d="M817.6,391c0.4,0.3,0.8,0.6,1.2,0.9c1.2,0.8,2.4,1.7,3.7,2.4C820.8,393.3,819.2,392.1,817.6,391z"/>
	<path class="st2" d="M866.8,407.1c-0.7,0-1.5,0-2.2,0C865.3,407.1,866,407.1,866.8,407.1z"/>
	<path class="st2" d="M871.2,407c-0.3,0-0.5,0-0.8,0C870.7,407,870.9,407,871.2,407z"/>
	<path class="st2" d="M861.5,406.9c-0.5,0-0.9-0.1-1.4-0.1C860.6,406.9,861,406.9,861.5,406.9z"/>
	<path class="st2" d="M857,406.5c-0.4,0-0.9-0.1-1.3-0.2C856.2,406.4,856.6,406.5,857,406.5z"/>
	<path class="st2" d="M859.2,406.8c-0.4,0-0.9-0.1-1.3-0.1C858.4,406.7,858.8,406.7,859.2,406.8z"/>
	<path class="st2" d="M833.8,400.3c-0.6-0.2-1.1-0.5-1.6-0.7C832.7,399.8,833.3,400.1,833.8,400.3z"/>
	<path class="st2" d="M835.9,401.2c-0.6-0.2-1.2-0.5-1.8-0.8C834.7,400.7,835.3,401,835.9,401.2z"/>
	<path class="st2" d="M887.2,404.6c-0.3,0.1-0.6,0.2-1,0.2C886.6,404.7,886.9,404.6,887.2,404.6z"/>
	<path class="st2" d="M927.5,267c0.8,0.8,1.6,1.7,2.3,2.6C929,268.7,928.3,267.9,927.5,267z"/>
	<path class="st2" d="M890.7,403.6c-0.4,0.1-0.8,0.2-1.2,0.3C889.9,403.8,890.3,403.7,890.7,403.6z"/>
	<path class="st2" d="M831.8,399.4c-0.5-0.2-1-0.5-1.6-0.7C830.7,398.9,831.3,399.2,831.8,399.4z"/>
	<path class="st2" d="M879,406.2c-0.2,0-0.4,0.1-0.6,0.1C878.5,406.3,878.8,406.3,879,406.2z"/>
	<path class="st2" d="M844.3,404c-0.6-0.2-1.1-0.3-1.7-0.5C843.2,403.7,843.7,403.9,844.3,404z"/>
	<path class="st2" d="M846.3,404.6c-0.5-0.1-1-0.3-1.5-0.4C845.4,404.3,845.9,404.5,846.3,404.6z"/>
	<path class="st2" d="M883.2,405.5c-0.3,0.1-0.7,0.1-1,0.2C882.5,405.6,882.9,405.5,883.2,405.5z"/>
	<path class="st2" d="M842.2,403.4c-2.1-0.6-4.1-1.4-6.2-2.2C838.1,402.1,840.1,402.8,842.2,403.4z"/>
	<path class="st3" d="M838.6,271.7c-4.6,2.6-8.9,5.7-12.7,9.3c0,0,0,0-0.1,0.1c-0.4,0.4-0.9,0.8-1.3,1.3c-0.1,0.1-0.1,0.1-0.2,0.2
		c-0.4,0.4-0.8,0.8-1.2,1.3c-0.1,0.1-0.1,0.1-0.2,0.2c-0.4,0.4-0.8,0.9-1.2,1.3c-0.1,0.1-0.1,0.1-0.2,0.2c-0.4,0.5-0.8,0.9-1.1,1.4
		c0,0,0,0,0,0c-1.6,1.9-3,4-4.3,6.1c-0.1,0.1-0.2,0.3-0.3,0.4c-0.2,0.4-0.5,0.8-0.7,1.2c-0.1,0.2-0.2,0.4-0.4,0.6
		c-0.2,0.4-0.4,0.8-0.6,1.1c-0.1,0.2-0.3,0.5-0.4,0.7c-0.2,0.4-0.4,0.7-0.6,1.1c-0.1,0.3-0.3,0.5-0.4,0.8c-0.2,0.4-0.3,0.7-0.5,1.1
		c-0.1,0.3-0.2,0.6-0.4,0.9c-0.2,0.4-0.3,0.7-0.4,1.1c-0.1,0.3-0.2,0.6-0.4,0.9c-0.1,0.3-0.3,0.7-0.4,1c-0.1,0.4-0.3,0.8-0.4,1.2
		c-0.2,0.5-0.3,0.9-0.4,1.4c-0.1,0.5-0.3,0.9-0.4,1.4c-0.1,0.3-0.2,0.6-0.2,0.9c-0.1,0.4-0.2,0.8-0.3,1.2c-0.1,0.3-0.1,0.6-0.2,0.9
		c-0.1,0.4-0.2,0.8-0.3,1.2c-0.1,0.3-0.1,0.6-0.2,0.9c-0.1,0.4-0.1,0.8-0.2,1.2c-0.1,0.3-0.1,0.6-0.1,0.9c-0.1,0.4-0.1,0.8-0.2,1.3
		c0,0.3-0.1,0.6-0.1,0.9c0,0.4-0.1,0.9-0.1,1.3c0,0.3-0.1,0.6-0.1,0.9c0,0.5-0.1,1-0.1,1.5c0,0.2,0,0.5,0,0.7c0,0.7,0,1.5,0,2.2
		c0,0.9,0,1.7,0.1,2.6c0,0.3,0,0.5,0,0.8c0,0.6,0.1,1.2,0.1,1.7c0,0.3,0.1,0.6,0.1,0.9c0.1,0.5,0.1,1.1,0.2,1.6
		c0,0.3,0.1,0.6,0.1,0.9c0.1,0.5,0.2,1.1,0.3,1.6c0,0.3,0.1,0.6,0.2,0.9c0.1,0.6,0.2,1.2,0.4,1.8c0,0.2,0.1,0.4,0.1,0.7
		c0.2,0.8,0.4,1.5,0.6,2.3c0,0,0,0.1,0,0.1c0.5,1.7,1,3.3,1.6,4.9c0,0.1,0.1,0.2,0.1,0.3c0.3,0.7,0.5,1.4,0.8,2
		c0.1,0.1,0.1,0.2,0.2,0.4c0.3,0.7,0.6,1.3,0.9,2c0.1,0.1,0.1,0.2,0.2,0.3c0.3,0.7,0.7,1.4,1,2c0,0.1,0.1,0.1,0.1,0.2
		c2,3.8,4.4,7.3,7.1,10.5l0,0c5.1,4.3,10.9,7.7,17.2,10.2V271.7z"/>
	<path class="st1" d="M807.9,315.3c0-0.3,0.1-0.6,0.1-0.9C808,314.7,808,315,807.9,315.3z"/>
	<path class="st1" d="M816.1,293c1.3-2.1,2.8-4.2,4.3-6.1C818.9,288.8,817.4,290.8,816.1,293z"/>
	<path class="st1" d="M807.4,319.7c0-0.3,0.1-0.6,0.1-0.9C807.5,319.1,807.4,319.4,807.4,319.7z"/>
	<path class="st1" d="M807.6,317.5c0-0.3,0.1-0.6,0.1-0.9C807.7,316.9,807.7,317.2,807.6,317.5z"/>
	<path class="st1" d="M815.1,294.6c0.2-0.4,0.5-0.8,0.7-1.2C815.6,293.8,815.4,294.2,815.1,294.6z"/>
	<path class="st1" d="M807.3,322c0-0.2,0-0.5,0-0.7C807.3,321.5,807.3,321.7,807.3,322z"/>
	<path class="st1" d="M820.5,286.8c0.4-0.5,0.8-0.9,1.1-1.4C821.2,285.9,820.8,286.4,820.5,286.8z"/>
	<path class="st1" d="M807.3,326.8c0-0.9-0.1-1.7-0.1-2.6C807.3,325.1,807.3,325.9,807.3,326.8z"/>
	<path class="st1" d="M807.5,329.3c0-0.6-0.1-1.2-0.1-1.7C807.4,328.2,807.4,328.7,807.5,329.3z"/>
	<path class="st1" d="M814.2,296.4c0.2-0.4,0.4-0.8,0.6-1.1C814.6,295.6,814.4,296,814.2,296.4z"/>
	<path class="st1" d="M812.4,300.1c0.2-0.4,0.3-0.7,0.5-1.1C812.7,299.4,812.5,299.7,812.4,300.1z"/>
	<path class="st1" d="M807.8,331.9c-0.1-0.5-0.1-1.1-0.2-1.6C807.6,330.8,807.7,331.3,807.8,331.9z"/>
	<path class="st1" d="M809.3,308.9c0.1-0.3,0.2-0.6,0.2-0.9C809.4,308.3,809.3,308.6,809.3,308.9z"/>
	<path class="st1" d="M810.8,304c0.1-0.3,0.3-0.7,0.4-1C811,303.3,810.9,303.7,810.8,304z"/>
	<path class="st1" d="M809.9,306.6c0.1-0.5,0.3-0.9,0.4-1.4C810.2,305.7,810,306.2,809.9,306.6z"/>
	<path class="st1" d="M808.3,313.2c0.1-0.3,0.1-0.6,0.2-0.9C808.4,312.5,808.3,312.9,808.3,313.2z"/>
	<path class="st1" d="M813.2,298.2c0.2-0.4,0.4-0.7,0.6-1.1C813.6,297.5,813.4,297.8,813.2,298.2z"/>
	<path class="st1" d="M811.5,302c0.1-0.4,0.3-0.7,0.4-1.1C811.8,301.3,811.7,301.7,811.5,302z"/>
	<path class="st1" d="M808.7,311c0.1-0.3,0.1-0.6,0.2-0.9C808.9,310.4,808.8,310.7,808.7,311z"/>
	<path class="st1" d="M813,349.6c-0.3-0.6-0.6-1.3-0.9-2C812.4,348.3,812.6,349,813,349.6z"/>
	<path class="st1" d="M824.5,282.3c0.4-0.4,0.9-0.9,1.3-1.3C825.3,281.5,824.9,281.9,824.5,282.3z"/>
	<path class="st1" d="M823.1,283.8c0.4-0.4,0.8-0.8,1.2-1.3C823.9,282.9,823.5,283.3,823.1,283.8z"/>
	<path class="st1" d="M811,344.9c-0.6-1.6-1.1-3.2-1.6-4.9C809.9,341.7,810.4,343.3,811,344.9z"/>
	<path class="st1" d="M811.9,347.3c-0.3-0.7-0.6-1.4-0.8-2C811.4,345.9,811.6,346.6,811.9,347.3z"/>
	<path class="st1" d="M821.4,362.7c-2.7-3.2-5.1-6.8-7.1-10.5C816.2,355.9,818.6,359.4,821.4,362.7z"/>
	<path class="st1" d="M814.1,352c-0.4-0.7-0.7-1.4-1-2C813.4,350.6,813.8,351.3,814.1,352z"/>
	<path class="st1" d="M838.6,271.7v101.2c-6.3-2.5-12.1-5.9-17.2-10.2c6.5,7.7,14.9,13.7,24.4,17.4V268.3
		c-7.5,2.9-14.3,7.3-19.9,12.7C829.6,277.4,833.9,274.2,838.6,271.7z"/>
	<path class="st1" d="M808.7,337c-0.1-0.6-0.3-1.2-0.4-1.8C808.4,335.9,808.5,336.4,808.7,337z"/>
	<path class="st1" d="M809.4,340c-0.2-0.7-0.4-1.5-0.6-2.3C809,338.4,809.2,339.2,809.4,340z"/>
	<path class="st1" d="M808.1,334.4c-0.1-0.5-0.2-1.1-0.3-1.6C808,333.3,808,333.9,808.1,334.4z"/>
	<path class="st1" d="M821.8,285.3c0.4-0.4,0.8-0.9,1.2-1.3C822.5,284.4,822.1,284.8,821.8,285.3z"/>
	<path class="st2" d="M820.4,286.9C820.4,286.9,820.4,286.9,820.4,286.9C820.4,286.9,820.4,286.9,820.4,286.9z"/>
	<path class="st2" d="M824.3,282.5c0.1-0.1,0.1-0.1,0.2-0.2C824.4,282.4,824.4,282.4,824.3,282.5z"/>
	<path class="st2" d="M812.9,299c0.1-0.3,0.2-0.5,0.4-0.8C813.1,298.5,813,298.7,812.9,299z"/>
	<path class="st2" d="M814.8,295.2c0.1-0.2,0.2-0.4,0.4-0.6C815,294.8,814.9,295,814.8,295.2z"/>
	<path class="st2" d="M815.9,293.4c0.1-0.1,0.2-0.3,0.3-0.4C816,293.1,815.9,293.3,815.9,293.4z"/>
	<path class="st2" d="M812,301c0.1-0.3,0.2-0.6,0.4-0.9C812.2,300.4,812.1,300.7,812,301z"/>
	<path class="st2" d="M813.8,297.1c0.1-0.2,0.2-0.5,0.4-0.7C814,296.6,813.9,296.9,813.8,297.1z"/>
	<path class="st2" d="M822.9,284c0.1-0.1,0.1-0.1,0.2-0.2C823,283.8,823,283.9,822.9,284z"/>
	<path class="st2" d="M821.6,285.5c0.1-0.1,0.1-0.1,0.2-0.2C821.7,285.3,821.7,285.4,821.6,285.5z"/>
	<path class="st2" d="M825.8,281.1C825.8,281,825.8,281,825.8,281.1C825.8,281,825.8,281,825.8,281.1z"/>
	<path class="st2" d="M808.5,312.2c0.1-0.4,0.2-0.8,0.3-1.2C808.6,311.4,808.5,311.8,808.5,312.2z"/>
	<path class="st2" d="M809.4,340.1c0,0,0-0.1,0-0.1C809.4,340,809.4,340,809.4,340.1z"/>
	<path class="st2" d="M808.3,335.3c-0.1-0.3-0.1-0.6-0.2-0.9C808.2,334.7,808.2,335,808.3,335.3z"/>
	<path class="st2" d="M808.8,337.7c-0.1-0.2-0.1-0.4-0.1-0.7C808.7,337.2,808.7,337.5,808.8,337.7z"/>
	<path class="st2" d="M807.9,332.8c0-0.3-0.1-0.6-0.1-0.9C807.8,332.2,807.8,332.5,807.9,332.8z"/>
	<path class="st2" d="M807.6,330.2c0-0.3-0.1-0.6-0.1-0.9C807.5,329.6,807.5,329.9,807.6,330.2z"/>
	<path class="st2" d="M812.1,347.6c-0.1-0.1-0.1-0.2-0.2-0.4C812,347.4,812,347.5,812.1,347.6z"/>
	<path class="st2" d="M811.1,345.2c0-0.1-0.1-0.2-0.1-0.3C811,345,811.1,345.1,811.1,345.2z"/>
	<path class="st2" d="M814.2,352.1c0-0.1-0.1-0.1-0.1-0.2C814.2,352,814.2,352.1,814.2,352.1z"/>
	<path class="st2" d="M813.1,349.9c-0.1-0.1-0.1-0.2-0.2-0.3C813,349.7,813.1,349.8,813.1,349.9z"/>
	<path class="st2" d="M807.4,327.6c0-0.3,0-0.5,0-0.8C807.3,327,807.3,327.3,807.4,327.6z"/>
	<path class="st2" d="M809.5,308c0.1-0.5,0.3-0.9,0.4-1.4C809.8,307.1,809.6,307.5,809.5,308z"/>
	<path class="st2" d="M811.2,303c0.1-0.3,0.2-0.6,0.4-0.9C811.4,302.3,811.3,302.7,811.2,303z"/>
	<path class="st2" d="M808.9,310.1c0.1-0.4,0.2-0.8,0.3-1.2C809.2,309.3,809,309.7,808.9,310.1z"/>
	<polygon class="st2" points="821.4,362.7 821.4,362.7 821.4,362.7 	"/>
	<path class="st2" d="M810.4,305.3c0.1-0.4,0.3-0.8,0.4-1.2C810.6,304.4,810.5,304.8,810.4,305.3z"/>
	<path class="st2" d="M807.3,324.2c0-0.8,0-1.5,0-2.2C807.3,322.7,807.3,323.4,807.3,324.2z"/>
	<path class="st2" d="M808.1,314.4c0.1-0.4,0.1-0.8,0.2-1.2C808.2,313.6,808.1,314,808.1,314.4z"/>
	<path class="st2" d="M807.3,321.2c0-0.5,0.1-1,0.1-1.5C807.4,320.2,807.4,320.7,807.3,321.2z"/>
	<path class="st2" d="M807.5,318.8c0-0.4,0.1-0.9,0.1-1.3C807.6,318,807.5,318.4,807.5,318.8z"/>
	<path class="st2" d="M807.7,316.6c0.1-0.4,0.1-0.8,0.2-1.3C807.9,315.7,807.8,316.2,807.7,316.6z"/>
	<g>
		<g>
			<path class="st2" d="M203.1,245.5h13.1l27.7,65.2h-14.9l-5.9-14.5h-27.4l-5.9,14.5h-14.5L203.1,245.5z M218.1,283.6l-8.6-21
				l-8.6,21H218.1z"/>
			<path class="st2" d="M248.4,246h15.4l17,27.4l17-27.4h15.4v64.7H299v-42.3l-18.2,27.7h-0.4l-18-27.4v42h-14V246z"/>
			<path class="st2" d="M354,260l-11.3,2.8l-3-11.7l18.6-5.5h9.7v65.2H354V260z"/>
			<path class="st2" d="M387.5,260l-11.3,2.8l-3-11.7l18.6-5.5h9.7v65.2h-14.1V260z"/>
			<path class="st2" d="M421,260l-11.3,2.8l-3-11.7l18.6-5.5h9.7v65.2H421V260z"/>
			<path class="st2" d="M443,278.6v-0.2c0-18.8,11.7-33.5,28.9-33.5c17.1,0,28.7,14.5,28.7,33.3v0.2c0,18.8-11.6,33.5-28.9,33.5
				S443,297.3,443,278.6z M485.9,278.6v-0.2c0-11.7-5.7-20.6-14.2-20.6s-14.1,8.6-14.1,20.4v0.2c0,11.8,5.6,20.6,14.2,20.6
				S485.9,290.3,485.9,278.6z"/>
		</g>
		<g>
			<path class="st2" d="M101.4,422.2h9.5v34.7h21.6v8.7h-31.1V422.2z"/>
			<path class="st2" d="M136,456v-0.1c0-7.2,5.5-10.6,13.4-10.6c3.3,0,5.8,0.6,8.1,1.4v-0.6c0-3.9-2.4-6.1-7.1-6.1
				c-3.6,0-6.1,0.7-9.2,1.8l-2.4-7.2c3.7-1.6,7.2-2.7,12.9-2.7c5.1,0,8.9,1.4,11.2,3.7c2.5,2.5,3.6,6.1,3.6,10.6v19.3h-9.1v-3.6
				c-2.3,2.5-5.4,4.2-10,4.2C141.2,466.1,136,462.5,136,456z M157.6,453.8v-1.7c-1.6-0.7-3.7-1.2-6-1.2c-4,0-6.5,1.6-6.5,4.6v0.1
				c0,2.5,2.1,4,5.1,4C154.7,459.6,157.6,457.2,157.6,453.8z"/>
			<path class="st2" d="M190.8,444v-0.1c0-12.3,9.7-22.4,23.1-22.4c13.4,0,23,10,23,22.3v0.1c0,12.3-9.7,22.4-23.1,22.4
				C200.4,466.2,190.8,456.3,190.8,444z M226.9,444v-0.1c0-7.4-5.4-13.6-13.1-13.6c-7.7,0-13,6.1-13,13.5v0.1
				c0,7.4,5.4,13.6,13.1,13.6C221.6,457.5,226.9,451.4,226.9,444z"/>
			<path class="st2" d="M243.6,432.3h9.4v4.7c2.2-2.8,5-5.3,9.7-5.3c7.1,0,11.3,4.7,11.3,12.3v21.5h-9.4V447c0-4.5-2.1-6.7-5.7-6.7
				c-3.6,0-5.9,2.3-5.9,6.7v18.5h-9.4V432.3z"/>
			<path class="st2" d="M279.8,449.1V449c0-9.5,7.2-17.3,17.4-17.3c6.3,0,10.2,2.1,13.2,5.6l-5.8,6.2c-2.1-2.2-4.2-3.7-7.6-3.7
				c-4.7,0-8,4.1-8,9v0.1c0,5.1,3.3,9.2,8.4,9.2c3.2,0,5.3-1.4,7.6-3.5l5.5,5.6c-3.2,3.5-6.9,6.1-13.6,6.1
				C287.1,466.2,279.8,458.6,279.8,449.1z"/>
			<path class="st2" d="M313.5,449.1V449c0-9.5,6.7-17.3,16.4-17.3c11.1,0,16.2,8.6,16.2,18c0,0.7-0.1,1.6-0.1,2.5h-23.1
				c0.9,4.3,3.9,6.5,8.1,6.5c3.2,0,5.4-1,8-3.4l5.4,4.8c-3.1,3.8-7.6,6.2-13.6,6.2C320.9,466.2,313.5,459.2,313.5,449.1z
				 M336.9,446.3c-0.6-4.2-3-7.1-7-7.1c-3.9,0-6.4,2.8-7.2,7.1H336.9z"/>
			<path class="st2" d="M371.1,422.2H388c13.6,0,23,9.3,23,21.5v0.1c0,12.2-9.4,21.7-23,21.7h-16.9V422.2z M388,456.9
				c7.8,0,13.1-5.3,13.1-12.9v-0.1c0-7.7-5.3-13.1-13.1-13.1h-7.4v26.1H388z"/>
			<path class="st2" d="M418,420.3h9.9v8.4H418V420.3z M418.3,432.3h9.4v33.2h-9.4V432.3z"/>
			<path class="st2" d="M434.2,449.1V449c0-9.5,6.7-17.3,16.4-17.3c11.1,0,16.2,8.6,16.2,18c0,0.7-0.1,1.6-0.1,2.5h-23.1
				c0.9,4.3,3.9,6.5,8.1,6.5c3.2,0,5.4-1,8-3.4l5.4,4.8c-3.1,3.8-7.6,6.2-13.6,6.2C441.5,466.2,434.2,459.2,434.2,449.1z
				 M457.6,446.3c-0.6-4.2-3-7.1-7-7.1c-3.9,0-6.4,2.8-7.2,7.1H457.6z"/>
			<path class="st2" d="M470.9,458.9l17.1-18.9h-16.6v-7.6h28.3v6.6l-17.2,18.9h17.2v7.6h-28.9V458.9z"/>
		</g>
		<g>
			<path class="st2" d="M99.7,341.2h10.6v40.5H503v10.7H99.7V341.2z"/>
		</g>
		<rect x="177.6" y="362.1" class="st2" width="10.6" height="19.6"/>
		<rect x="259.6" y="341.2" class="st2" width="10.6" height="40.5"/>
		<rect x="334.1" y="362.1" class="st2" width="10.6" height="19.6"/>
		<rect x="471.2" y="362.1" class="st2" width="10.6" height="19.6"/>
		<rect x="172.7" y="325.8" class="st2" width="326.6" height="4.7"/>
		<rect x="403.5" y="341.2" class="st2" width="10.6" height="40.5"/>
		<rect x="492.4" y="341.2" class="st2" width="10.6" height="40.5"/>
		<polygon class="st2" points="163.1,385.7 156.3,254.5 144.2,233 132.1,254.5 125.3,385.7 		"/>
	</g>
	<g>
		<path class="st2" d="M802.6,456.6l-2.5,6.4H790l14.1-36.6h10.4l13.8,36.6h-10.1l-2.4-6.4H802.6z M809.3,437.7L809.3,437.7l-4,11.6
			h7.9L809.3,437.7z"/>
		<path class="st2" d="M831.2,426.4h9.5l17.4,22.4h0.1v-22.4h9.5v36.6h-9.5l-17.4-22.4h-0.1v22.4h-9.5V426.4z M839.8,422.8l0-0.5
			c0-1.6,0.3-3,1.1-4.3c0.9-1.5,2.5-2.7,4.3-2.7c2.5,0,6,1.6,7.9,1.6c1.2,0,1.6-0.7,1.9-1.7h4.1c-0.3,3.5-2.2,7.7-6.3,7.7
			c-2.5,0-5.1-1.8-7.4-1.8c-1.2,0-1.4,0.9-1.6,1.8H839.8z"/>
		<path class="st2" d="M908.6,440.3c0,9.5-6.8,16.2-16.2,16.2c-9.4,0-16.2-6.7-16.2-16.2c0-8.9,7.8-15.1,16.2-15.1
			C900.8,425.2,908.6,431.4,908.6,440.3z M884.1,440.3c0,5.1,3.7,8.8,8.3,8.8c4.6,0,8.3-3.7,8.3-8.8c0-4-3.7-7.7-8.3-7.7
			C887.8,432.6,884.1,436.2,884.1,440.3z"/>
		<path class="st2" d="M937,435.8c-1.7-1.5-4-2.4-6.3-2.4c-1.7,0-4.1,1-4.1,3.1c0,2.1,2.6,3,4.2,3.5l2.4,0.7c5.1,1.5,9,4.1,9,10
			c0,3.6-0.9,7.4-3.8,9.8c-2.9,2.4-6.7,3.4-10.4,3.4c-4.6,0-9.1-1.6-12.9-4.2l4.1-7.7c2.4,2.1,5.2,3.8,8.4,3.8
			c2.2,0,4.6-1.1,4.6-3.7c0-2.7-3.7-3.6-5.8-4.2c-6-1.7-9.9-3.2-9.9-10.3c0-7.4,5.3-12.3,12.6-12.3c3.7,0,8.2,1.2,11.4,3L937,435.8z
			"/>
	</g>
	<rect x="878" y="458.5" class="st2" width="28.7" height="4.4"/>
	<rect x="553.1" y="241.8" class="st2" width="4.7" height="225.2"/>
</g>
</svg>
