<?xml version="1.0" encoding="utf-8"?>
<!-- Generator: Adobe Illustrator 17.0.0, SVG Export Plug-In . SVG Version: 6.00 Build 0)  -->
<!DOCTYPE svg PUBLIC "-//W3C//DTD SVG 1.1//EN" "http://www.w3.org/Graphics/SVG/1.1/DTD/svg11.dtd">
<svg version="1.1" id="Layer_1" xmlns="http://www.w3.org/2000/svg" xmlns:xlink="http://www.w3.org/1999/xlink" x="0px" y="0px"
	 width="1050px" height="700px" viewBox="0 0 1050 700" enable-background="new 0 0 1050 700" xml:space="preserve">
<rect x="-1" y="1" fill="#FFFFFF" width="1050" height="700"/>
<g>
	<path fill="none" d="M345.254,364.263c0.023-0.121,0.186-0.571,0.697-1.127C345.428,363.654,345.277,364.13,345.254,364.263z"/>
	<path fill="none" d="M345.254,364.263c0.023-0.121,0.186-0.571,0.697-1.127C345.428,363.654,345.277,364.13,345.254,364.263z"/>
	<radialGradient id="SVGID_1_" cx="225.8668" cy="240.1396" r="492.9797" gradientUnits="userSpaceOnUse">
		<stop  offset="0" style="stop-color:#000000"/>
		<stop  offset="1" style="stop-color:#808080"/>
	</radialGradient>
	<path fill="url(#SVGID_1_)" d="M278.746,277.656c0,0-6.759,20.401,0.893,32.641c8.941,14.311,8.941,20.126,6.261,23.259
		c-2.688,3.131-10.287-5.589-17.444,20.117c-3.357,12.066-3.133,12.074,1.795,21.463c4.915,9.396,22.806,18.337,16.09,39.353
		c-6.701,21.021-9.829,30.409,2.688,36.671c12.52,6.261,25.932,2.685,31.3,26.383c5.37,23.703-4.469,50.091,22.812,45.171
		c27.274-4.922,33.537,22.357,34.873,33.534c1.344,11.178,13.192,16.322,22.585,14.538c7.031-1.341,17.203-6.84,33.319-4.477
		c15.202,2.237,25.039,13.196,27.722,21.244c2.685,8.048,12.967,14.531,26.38,8.048c8.111-3.915,20.5-10.42,31.761-10.73
		c16.096-0.448,23.653,3.252,29.508,9.392c9.389,9.834,21.916,8.042,27.727-1.344c5.815-9.389,28.172-25.492,51.424-17.439
		c23.263,8.05,23.708-3.576,31.756-17.888c8.045-14.311,32.191-25.044,43.371-21.913c11.178,3.138,18.332-9.392,17.442-20.565
		c-0.894-11.188,7.154-32.644,31.75-39.806c24.594-7.156,0.45-40.686,7.152-58.576c6.709-17.892,24.38-8.279,23.705-22.362
		c-0.644-13.47,2.677-33.315-4.92-40.696c-5.679-5.504-9.006-8.307-3.583-18.328c5.811-10.738,9.394-22.364,3.133-42.038
		c-5.302-16.669-20.471-10.977-22.802-21.463c-4.922-22.14-0.226-45.843-6.48-49.862
		C742.692,217.955,278.746,277.656,278.746,277.656z"/>
	<radialGradient id="SVGID_2_" cx="668.56" cy="443.6924" r="391.1759" gradientUnits="userSpaceOnUse">
		<stop  offset="0" style="stop-color:#FFFFFF"/>
		<stop  offset="1" style="stop-color:#808080"/>
	</radialGradient>
	<path fill="url(#SVGID_2_)" d="M419.158,122.633c0,0-17.583,19.082-37.863,22.955c-20.265,3.875-29.208,16.993-33.087,29.513
		c-3.875,12.525-26.038,24.264-30.706,27.13c-5.217,3.204-14.314,13.415-14.314,25.344c0,11.923-0.743,23.401-5.962,28.617
		c-5.214,5.219-24.593,18.936-16.689,26.828c7.9,7.902,17.583,22.659,5.066,39.649c-12.522,16.999-18.484,23.554-6.553,30.407
		c11.915,6.86,23.841,23.627,20.27,34.29c-3.506,10.426-15.882,22.21-8.503,33.837c6.968,10.972,35.92-4.031,38.907,25.19
		c2.982,29.216-8.048,51.573,15.501,46.504c23.549-5.063,45.018,16.103,43.827,31.607c-1.193,15.497,8.045,24.44,24.143,16.101
		c16.098-8.353,49.786-1.495,54.56,16.986c4.769,18.481,17.434,15.955,29.217,4.172c11.774-11.772,38.155-14.007,47.996-4.172
		c9.842,9.835,18.487,25.938,30.112,9.835c11.626-16.091,24.148-25.636,39.051-28.316c14.9-2.69,32.198,25.638,38.462,5.36
		c6.25-20.271,16.984-44.716,36.962-42.924c19.984,1.787,24.742,13.418,28.026-13.712c3.279-27.135,12.519-41.441,29.513-41.441
		c16.986,0,11.475-13.564,8.649-28.32c-2.574-13.385-2.688-38.462,19.08-43.528c21.755-5.064-4.471-32.276-5.068-34.282
		c-1.8-6.04-9.251-26.534,5.068-37.863c14.304-11.324-20.874-34.581-20.874-38.457c0-3.875-9.236-24.148-3.279-33.089
		c5.962-8.946-14.9-18.189-24.45-25.341c-9.538-7.154-16.307-27.525-17.885-30.407c-3.206-5.896,0.576-7.335-28.024-18.189
		c-25.94-9.834-19.679-21.018-33.089-29.808c-12.318-8.078-33.691,0.894-51.578-12.225c-17.885-13.121-15.496-12.225-42.329-10.138
		c-26.834,2.086-33.396-1.193-38.16-3.279c-4.777-2.086-18.489-5.365-31.008,3.878c-12.517,9.24-34.285,12.819-43.525,10.73
		C431.375,113.986,421.76,120.038,419.158,122.633z"/>
	<path fill="#FFF100" d="M528.808,117.268c-117.135,0-212.094,94.957-212.094,212.099c0,48.598,16.357,93.377,43.86,129.151
		c16.093,20.932,35.998,38.784,58.685,52.492c31.979,19.319,69.47,30.455,109.55,30.455c20.587,0,40.483-2.947,59.303-8.418
		c3.893-1.256,7.793-2.514,11.704-3.782c21.264-7.552,40.971-18.398,58.498-31.932c9.563-7.388,18.476-15.567,26.647-24.45
		c34.728-37.765,55.947-88.157,55.947-143.515C740.908,212.225,645.948,117.268,528.808,117.268z"/>
	<linearGradient id="SVGID_3_" gradientUnits="userSpaceOnUse" x1="622.7459" y1="199.7628" x2="600.0807" y2="469.3534">
		<stop  offset="0" style="stop-color:#FFFFFF"/>
		<stop  offset="0.7692" style="stop-color:#FFF100"/>
		<stop  offset="1" style="stop-color:#EC1C24"/>
	</linearGradient>
	<path fill="url(#SVGID_3_)" d="M600.614,531.516c-3.951,1.276-7.902,2.554-11.84,3.825
		C592.768,534.176,596.723,532.897,600.614,531.516z"/>
	
		<linearGradient id="SVGID_4_" gradientUnits="userSpaceOnUse" x1="10671.2578" y1="462.6327" x2="10660.8066" y2="586.9463" gradientTransform="matrix(-1 0 0 1 11260 0)">
		<stop  offset="0" style="stop-color:#FFFFFF"/>
		<stop  offset="0.7692" style="stop-color:#FFF100"/>
		<stop  offset="1" style="stop-color:#EC1C24"/>
	</linearGradient>
	<path fill="url(#SVGID_4_)" d="M600.614,531.516c-3.951,1.276-7.902,2.554-11.84,3.825
		C592.768,534.176,596.723,532.897,600.614,531.516z"/>
	<g>
		<g>
			<path fill="#1E1C00" d="M546.94,124.02l2.172,0.111l-0.441,8.405l-2.272-0.119c-0.222-3.364-1.797-6.188-5.471-6.382
				c-4.512-0.242-5.869,3.805-6.08,7.826c-0.211,3.958,0.79,8.221,5.204,8.458c3.498,0.191,5.32-2.177,5.833-5.408l2.632,0.146
				c-0.649,5.312-3.883,8.156-9.245,7.869c-6.442-0.344-9.58-5.066-9.226-11.598c0.305-5.765,4.361-10.287,10.746-9.948
				c1.99,0.106,4.177,1.175,5.461,2.541L546.94,124.02z"/>
			<path fill="#1E1C00" d="M550.611,145.037l0.375-2.242l1.935,0.332c0.846,0.141,1.474-0.065,1.651-1.092l2.187-12.947
				c0.154-0.903-0.169-1.371-1.377-1.57l-1.759-0.299l0.383-2.24l11.067,1.878l-0.38,2.24l-1.688-0.292
				c-1.334-0.224-1.837,0.005-2.018,1.06l-2.411,14.253l4.932,0.831c3.113,0.531,4.162-1.067,5.227-5.708l2.235,0.373l-1.45,8.626
				L550.611,145.037z"/>
			<path fill="#1E1C00" d="M577.47,129.164l10.451,3.153l-0.657,2.169l-1.351-0.408c-1.498-0.45-1.905-0.159-2.137,0.604
				l-3.276,10.858c-0.614,2.056,0.591,3.571,3.088,4.328c2.461,0.743,4.502,0.139,5.37-2.74l2.866-9.505
				c0.355-1.178,0.076-1.744-1.27-2.147l-1.389-0.42l0.662-2.169l9.333,2.813l-0.657,2.177l-1.615-0.493
				c-1.231-0.373-1.636-0.081-2.011,1.16l-2.937,9.739c-1.555,5.164-5.815,5.355-9.598,4.215c-3.812-1.148-7.308-3.674-5.952-8.196
				l3.261-10.801c0.27-0.911-0.312-1.402-1.605-1.797l-1.233-0.37L577.47,129.164z"/>
			<path fill="#1E1C00" d="M596.225,153.901l1.993,0.888c0.863,0.388,1.271,0.237,1.598-0.493l5.572-12.398
				c0.325-0.725,0.171-1.128-0.7-1.52l-1.983-0.896l0.931-2.071l10.381,4.665c5.486,2.471,6.482,4.965,5.186,7.847
				c-1.102,2.463-3.322,2.979-5.753,2.327l-0.027,0.061c2.101,1.54,3.898,3.528,2.464,6.722c-1.356,3.02-3.936,4.416-8.581,2.33
				l-12.006-5.393L596.225,153.901z M603.281,157.066l3.135,1.41c2.24,1.004,4.359,1.452,5.63-1.372
				c1.255-2.795-0.461-4.142-2.7-5.154l-3.131-1.404L603.281,157.066z M607.141,148.47l2.685,1.208
				c2.215,0.997,4.152,1.397,5.262-1.064c1.152-2.574-0.435-3.762-2.645-4.751l-2.685-1.208L607.141,148.47z"/>
			<path fill="#1E1C00" d="M624.928,170.403l1.291-1.865c1.341,0.926,2.343,1.362,3.593,0.471l14.163-10.146l3.528,2.446
				L643.2,178.29c-0.37,1.497,0.367,2.265,1.704,3.198l-1.296,1.865l-8.77-6.08l1.286-1.865l1.998,1.377
				c0.581,0.402,0.868,0.417,1.045,0.163c0.154-0.226,0.264-0.491,0.317-0.672l0.916-3.098l-5.725-3.968l-2.579,1.945
				c-0.154,0.116-0.309,0.231-0.468,0.461c-0.249,0.349,0.018,0.677,0.493,1.011l1.97,1.362l-1.298,1.87L624.928,170.403z
				 M640.96,170.806l2.014-7.597l-0.048-0.035l-6.228,4.676L640.96,170.806z"/>
			<path fill="#1E1C00" d="M645.299,184.71l1.525-1.679l1.588,1.44c0.7,0.642,1.135,0.624,1.676,0.032l9.125-10.058
				c0.536-0.594,0.513-1.022-0.186-1.664l-1.593-1.444l1.525-1.673l9.877,8.958c3.299,2.99,3.659,5.685,1.417,8.158
				c-2.126,2.338-5.126,1.684-7.609-0.196l-0.033,0.047c2.106,2.459,1.704,3.999,0.096,5.768c-2.185,2.406-1.968,3.264-1.583,3.613
				c0.549,0.498,1.203,0.227,2.424-1.115l0.642-0.705l1.495,1.357l-0.639,0.712c-2.635,2.902-4.834,2.816-6.721,1.1
				c-2.248-2.038-1.817-3.881-0.121-5.74c3.294-3.634,3.201-5.171,0.541-7.585l-1.344-1.215l-4.135,4.562
				c-0.541,0.592-0.511,1.022,0.187,1.664l1.658,1.505l-1.525,1.679L645.299,184.71z M658.933,181.139l2.673,2.439
				c2.454,2.222,3.875,2.066,5.405,0.385c1.281-1.407,1.067-3.045-0.929-4.854l-2.906-2.64L658.933,181.139z"/>
			<path fill="#1E1C00" d="M689.765,201.039l1.462,1.734l-6.032,5.075l-1.522-1.797c1.724-2.539,2.917-5.635,0.35-8.682
				c-2.18-2.582-6.186-1.769-9.661,1.158c-3.558,3.003-5.25,6.438-2.459,9.742c1.998,2.368,4.15,2.441,5.934,0.944l0.883-0.758
				c0.808-0.675,0.596-1.578,0.078-2.189l-1.266-1.502l1.741-1.47l7.14,8.471l-1.739,1.462l-1.007-1.191
				c-0.85-1.012-1.281-1.044-2.219-0.254l-5.395,4.55l-1.427-1.691l0.463-1.875c-2.202-0.385-4.359-1.784-5.775-3.475
				c-3.84-4.55-3.078-10.212,1.945-14.442c4.736-3.996,10.657-4.059,14.543,0.539c1.581,1.874,2.161,4.036,2.174,6.143
				L689.765,201.039z"/>
			<path fill="#1E1C00" d="M679.125,220.233l1.918-1.221l0.924,1.447c0.566,0.871,1.137,1.193,2.692,0.199l10.044-6.455
				c1.107-0.719,1.241-1.246,0.38-2.584l-0.747-1.168l1.91-1.228l10.967,17.039l-6.817,4.386l-1.231-1.908
				c3.264-2.647,4.456-3.855,2.232-7.315l-2.927-4.545l-5.37,3.455l0.878,1.366c0.997,1.55,2.225,1.752,4.316,0.408l0.338-0.216
				l1.22,1.913l-8.619,5.544l-1.233-1.913l0.622-0.395c2.091-1.349,2.443-2.559,1.447-4.107l-0.881-1.364l-6.014,3.865l3.327,5.162
				c1.525,2.375,3.599,2.363,7.595,0.118l1.228,1.908l-7.23,4.655L679.125,220.233z"/>
			<path fill="#1E1C00" d="M709.288,238.608l-0.032-0.058l-11.739,5.508c-0.664,0.312-0.914,0.936-0.572,1.653l0.971,2.081
				l-2.051,0.971l-4.305-9.19l2.053-0.966l0.914,1.945c0.395,0.863,0.971,0.931,1.636,0.614l12.19-5.71
				c0.717-0.338,0.868-0.745,0.463-1.603l-0.908-1.945l2.053-0.964l3.835,8.181l-9.452,14.291l0.03,0.053l9.882-4.633
				c0.83-0.395,1.097-1.057,0.624-2.056l-0.79-1.696l2.051-0.956l4.243,9.044l-2.054,0.961l-0.762-1.633
				c-0.478-1.001-1.069-1.195-1.625-0.934l-15.376,7.21l-1.931-4.104L709.288,238.608z"/>
			<path fill="#1E1C00" d="M727.719,275.673l-7.982,2.559l-0.692-2.165l1.319-0.425c3.097-0.986,3.983-3.045,2.946-6.294
				l-14.002,4.482c-0.757,0.244-0.956,0.636-0.669,1.537l0.719,2.224l-2.172,0.687l-3.498-10.926l2.164-0.694l0.715,2.219
				c0.282,0.906,0.675,1.108,1.432,0.866l14.002-4.482c-1.036-3.249-2.952-4.404-6.052-3.412l-1.318,0.417l-0.69-2.159l7.979-2.559
				L727.719,275.673z"/>
			<path fill="#1E1C00" d="M708.694,283.942l2.217-0.491l0.332,1.502c0.27,1.226,0.669,1.638,1.458,1.469l13-2.866
				c0.747-0.164,1.266-0.66,1.012-1.824l-0.367-1.679l2.22-0.493l2.33,10.61l-2.215,0.488l-0.292-1.319
				c-0.206-0.953-0.715-1.822-1.852-1.568l-12.532,2.756c-0.951,0.214-1.362,0.778-1.143,1.789l0.382,1.741l-2.215,0.488
				L708.694,283.942z"/>
			<path fill="#1E1C00" d="M728.828,301.062l-0.01-0.063l-12.902,1.477c-0.735,0.078-1.168,0.591-1.085,1.384l0.264,2.29
				l-2.26,0.254l-1.147-10.096l2.252-0.259l0.244,2.137c0.113,0.948,0.632,1.198,1.364,1.112l13.4-1.525
				c0.793-0.091,1.064-0.43,0.953-1.379l-0.239-2.126l2.257-0.259l1.022,8.996l-13.544,10.536l0.01,0.063l10.858-1.233
				c0.916-0.113,1.379-0.659,1.259-1.756l-0.216-1.863l2.257-0.254l1.135,9.948l-2.257,0.257l-0.206-1.799
				c-0.126-1.1-0.634-1.477-1.246-1.407l-16.901,1.928l-0.511-4.515L728.828,301.062z"/>
			<path fill="#1E1C00" d="M724.113,345.271c-6.105-0.141-10.67-4.671-10.514-11.329c0.154-6.654,4.922-10.962,11.02-10.821
				c6.105,0.139,10.702,4.668,10.546,11.327C735.009,341.104,730.21,345.41,724.113,345.271z M724.513,327.938
				c-4.388-0.103-8.405,1.215-8.523,6.153c-0.113,4.852,3.845,6.263,8.229,6.361c4.384,0.101,8.435-1.122,8.549-6.064
				C732.883,329.541,728.896,328.038,724.513,327.938z"/>
			<path fill="#1E1C00" d="M714.729,357.851l-0.41,1.92c-0.148,0.689-0.035,1.341,0.743,1.5l13.405,2.876
				c0.783,0.169,1.148-0.38,1.294-1.075l0.413-1.918l2.217,0.476l-2.554,11.966c-1.296,6.027-5.504,9.296-12.072,7.891
				c-6.563-1.404-9.105-6.123-7.814-12.147l2.559-11.971L714.729,357.851z M713.146,365.26l-0.793,3.692
				c-0.748,3.475,0.508,6.563,6.417,7.829c5.904,1.266,8.284-1.05,8.963-4.228l0.853-3.986L713.146,365.26z"/>
			<path fill="#1E1C00" d="M707.139,381.521l2.137,0.757l-0.574,1.616c-0.35,0.984-0.254,1.641,1.482,2.25l11.249,3.996
				c1.248,0.443,1.741,0.227,2.277-1.273l0.46-1.304l2.139,0.758l-6.772,19.088l-7.635-2.71l0.757-2.134
				c4.087,0.953,5.773,1.165,7.147-2.713l1.806-5.083l-6.009-2.141l-0.548,1.537c-0.616,1.731-0.025,2.821,2.32,3.654l0.377,0.133
				l-0.762,2.139l-9.656-3.427l0.758-2.139l0.692,0.244c2.343,0.835,3.51,0.37,4.13-1.366l0.548-1.533l-6.739-2.388l-2.054,5.78
				c-0.946,2.662,0.332,4.29,4.55,6.077l-0.768,2.141l-8.093-2.876L707.139,381.521z"/>
			<path fill="#1E1C00" d="M704.866,436.854l-1.079,1.89l-7.321-4.139l1.117-1.983c3.113,1.311,6.339,1.155,8.149-2.053
				c2.227-3.926-0.793-6.938-4.296-8.921c-3.445-1.948-7.713-2.954-9.888,0.891c-1.721,3.053-0.42,5.725,2.253,7.62l-1.304,2.3
				c-4.471-2.949-5.571-7.102-2.926-11.78c3.176-5.607,8.795-6.306,14.485-3.088c5.018,2.844,7.255,8.48,4.114,14.037
				c-0.989,1.737-2.919,3.221-4.701,3.76L704.866,436.854z"/>
			<path fill="#1E1C00" d="M679.239,454.846c-4.892-3.644-5.997-9.973-2.014-15.313c3.979-5.34,10.355-6.095,15.258-2.446
				c4.892,3.649,6.02,9.996,2.033,15.338C690.538,457.76,684.141,458.503,679.239,454.846z M689.599,440.948
				c-3.518-2.617-7.559-3.873-10.506,0.091c-2.899,3.888-0.489,7.326,3.029,9.953c3.513,2.622,7.527,3.961,10.479,0
				C695.498,447.108,693.122,443.57,689.599,440.948z"/>
			<path fill="#1E1C00" d="M669.563,450.488l1.646,1.563l-1.351,1.424c-0.597,0.619-0.778,1.256-0.02,1.975l9.51,9.07
				c0.659,0.629,1.22,0.619,2.076-0.272l1.223-1.286l1.646,1.561l-7.755,8.133l-1.641-1.568l1.188-1.241
				c0.933-0.979,1.024-1.525,0.249-2.268l-10.468-9.978l-3.445,3.629c-2.179,2.28-1.442,4.046,1.812,7.529l-1.568,1.644l-6.339-6.04
				L669.563,450.488z"/>
			<path fill="#1E1C00" d="M654.849,465.826l1.447,1.754l-1.326,1.09c-0.806,0.667-1.06,1.273,0.118,2.693l7.605,9.2
				c0.835,1.016,1.371,1.09,2.605,0.073l1.064-0.878l1.447,1.749l-15.605,12.902l-5.161-6.239l1.751-1.452
				c3.01,2.922,4.349,3.966,7.519,1.344l4.16-3.442l-4.062-4.915l-1.256,1.039c-1.422,1.168-1.472,2.408,0.113,4.321l0.254,0.307
				l-1.754,1.452l-6.521-7.902l1.739-1.447l0.476,0.572c1.583,1.913,2.829,2.114,4.241,0.944l1.255-1.04l-4.55-5.506l-4.729,3.913
				c-2.179,1.797-1.92,3.843,0.78,7.547l-1.747,1.445l-5.476-6.618L654.849,465.826z"/>
			<path fill="#1E1C00" d="M634.267,506.595l-1.827,1.176l-4.535-7.077l1.907-1.228c2.139,2.607,5.058,3.976,8.156,1.991
				c3.802-2.431,2.536-6.498,0.372-9.882c-2.131-3.332-5.436-6.213-9.155-3.83c-2.944,1.892-3.04,4.867-1.573,7.786l-2.22,1.419
				c-2.561-4.688-1.605-8.875,2.914-11.769c5.423-3.473,10.715-1.472,14.238,4.026c3.111,4.857,2.451,10.884-2.921,14.321
				c-1.679,1.077-4.077,1.49-5.909,1.128L634.267,506.595z"/>
			<path fill="#1E1C00" d="M613.297,517.537l-1.955,0.961l-3.702-7.56l2.038-0.997c1.832,2.829,4.578,4.525,7.887,2.909
				c4.051-1.986,3.266-6.188,1.497-9.794c-1.747-3.561-4.696-6.795-8.664-4.852c-3.143,1.543-3.579,4.489-2.459,7.565l-2.366,1.158
				c-2.018-4.955-0.584-9.014,4.235-11.377c5.795-2.831,10.829-0.237,13.705,5.637c2.539,5.187,1.195,11.103-4.537,13.914
				c-1.792,0.876-4.228,1.007-6.002,0.445L613.297,517.537z"/>
			<path fill="#1E1C00" d="M599.869,500.775l0.8,2.124l-1.435,0.544c-1.178,0.445-1.52,0.909-1.24,1.648l4.721,12.459
				c0.275,0.72,0.835,1.158,1.953,0.735l1.603-0.614l0.808,2.128l-10.162,3.853l-0.798-2.126l1.261-0.476
				c0.916-0.355,1.701-0.976,1.288-2.066l-4.55-11.993c-0.35-0.916-0.966-1.238-1.94-0.871l-1.664,0.629l-0.805-2.119
				L599.869,500.775z"/>
			<path fill="#1E1C00" d="M568.969,521.098c-1.578-5.906,1.482-11.548,7.917-13.272c6.437-1.724,11.908,1.646,13.486,7.547
				c1.583,5.898-1.477,11.578-7.911,13.299C576.023,530.394,570.542,526.999,568.969,521.098z M585.721,516.616
				c-1.137-4.235-3.533-7.733-8.305-6.45c-4.688,1.248-4.932,5.443-3.797,9.681c1.132,4.245,3.448,7.786,8.224,6.515
				C586.529,525.106,586.851,520.859,585.721,516.616z"/>
			<path fill="#1E1C00" d="M559.529,528.982l0.063-0.008l-1.605-12.877c-0.091-0.737-0.607-1.16-1.397-1.065l-2.282,0.287
				l-0.282-2.257l10.076-1.255l0.284,2.25l-2.129,0.272c-0.948,0.116-1.19,0.642-1.095,1.371l1.656,13.368
				c0.096,0.795,0.441,1.062,1.384,0.944l2.139-0.264l0.274,2.252l-8.981,1.115l-10.67-13.42l-0.063,0.01l1.347,10.838
				c0.118,0.911,0.667,1.371,1.764,1.233l1.857-0.227l0.282,2.25l-9.925,1.235l-0.287-2.257l1.802-0.222
				c1.097-0.133,1.467-0.646,1.386-1.255l-2.096-16.871l4.507-0.561L559.529,528.982z"/>
			<path fill="#1E1C00" d="M537.946,514.63l0.048,2.268l-1.535,0.032c-1.256,0.025-1.744,0.342-1.729,1.143l0.264,13.31
				c0.018,0.775,0.4,1.377,1.593,1.356l1.719-0.033l0.043,2.268l-10.861,0.214l-0.048-2.268l1.354-0.027
				c0.979-0.02,1.922-0.345,1.902-1.515l-0.254-12.829c-0.012-0.979-0.488-1.493-1.528-1.465l-1.784,0.03l-0.043-2.272
				L537.946,514.63z"/>
			<path fill="#1E1C00" d="M509.114,534.254l-1.776-0.115l0.518-7.711l2.194,0.146c0.514,3.384,2.283,5.896,5.924,6.14
				c2.849,0.191,4.057-0.471,4.19-2.484c0.307-4.593-13.564-2.074-13-10.612c0.327-4.862,4.228-6.201,8.508-5.914
				c2.292,0.154,4.524,1.281,6.201,2.839l0.798-1.759l2.081,0.136l-0.551,8.297l-2.27-0.154c-0.154-4.132-2.514-6.5-6.857-6.792
				c-2.695-0.181-4.062,0.992-4.163,2.464c-0.347,5.229,13.562,2.187,12.98,10.937c-0.284,4.318-4.293,5.896-7.995,5.647
				c-2.325-0.154-4.215-1.357-5.672-2.527L509.114,534.254z"/>
			<path fill="#1E1C00" d="M483.169,530.225l1.478-8.247l2.234,0.403l-0.244,1.362c-0.576,3.198,0.833,4.945,4.182,5.544
				l2.587-14.465c0.141-0.785-0.111-1.145-1.047-1.309l-2.29-0.413l0.397-2.235l11.294,2.023l-0.395,2.235l-2.295-0.408
				c-0.939-0.169-1.296,0.078-1.437,0.861l-2.585,14.467c3.347,0.599,5.272-0.551,5.841-3.757l0.247-1.354l2.232,0.398l-1.475,8.247
				L483.169,530.225z"/>
			<path fill="#1E1C00" d="M486.881,510.345l-0.642,2.184c-1.557-0.463-2.652-0.564-3.566,0.677l-10.295,14.078l-4.119-1.218
				l-1.218-17.5c-0.126-1.548-1.059-2.043-2.624-2.512l0.649-2.176l10.247,3.04l-0.647,2.177l-2.327-0.692
				c-0.677-0.196-0.957-0.118-1.045,0.169c-0.075,0.272-0.093,0.556-0.088,0.748l0.098,3.233l6.684,1.983l1.845-2.658
				c0.111-0.161,0.224-0.32,0.305-0.583c0.121-0.413-0.234-0.647-0.788-0.811l-2.3-0.684l0.647-2.177L486.881,510.345z
				 M471.511,514.98l0.458,7.859l0.058,0.018l4.46-6.399L471.511,514.98z"/>
			<path fill="#1E1C00" d="M441.683,515.881l-1.631-0.712l3.073-7.094l2.029,0.871c-0.652,3.37,0.171,6.337,3.523,7.788
				c2.62,1.137,3.981,0.926,4.789-0.938c1.832-4.22-12.1-6.515-8.7-14.372c1.945-4.479,6.07-4.427,10.015-2.725
				c2.114,0.916,3.835,2.736,4.892,4.766l1.344-1.392l1.915,0.83l-3.307,7.633l-2.084-0.901c1.24-3.946-0.189-6.976-4.19-8.71
				c-2.482-1.075-4.162-0.43-4.751,0.926c-2.089,4.812,12.052,6.624,8.561,14.679c-1.721,3.968-6.032,4.109-9.439,2.635
				c-2.139-0.929-3.518-2.693-4.502-4.291L441.683,515.881z"/>
			<path fill="#1E1C00" d="M435.132,492.385l-1.643-1.084c-0.592-0.395-1.236-0.521-1.676,0.146l-7.557,11.452
				c-0.441,0.672-0.065,1.218,0.528,1.606l1.641,1.079l-1.251,1.898l-10.232-6.749c-5.149-3.395-6.668-8.51-2.964-14.13
				c3.701-5.617,9.021-6.261,14.175-2.863l10.23,6.744L435.132,492.385z M428.798,488.21l-3.153-2.081
				c-2.972-1.965-6.316-1.922-9.641,3.131c-3.332,5.048-2.043,8.11,0.679,9.897l3.405,2.255L428.798,488.21z"/>
			<path fill="#1E1C00" d="M415.977,476.599l-1.457,1.744l-1.318-1.1c-0.798-0.667-1.445-0.808-2.627,0.601l-7.66,9.165
				c-0.846,1.022-0.82,1.555,0.402,2.585l1.064,0.883l-1.457,1.749l-15.554-12.997l5.199-6.226l1.741,1.46
				c-2.318,3.5-3.1,5.007,0.058,7.648l4.142,3.462l4.099-4.9l-1.251-1.044c-1.412-1.18-2.64-0.999-4.238,0.909l-0.254,0.299
				l-1.741-1.45l6.578-7.869l1.741,1.454l-0.473,0.569c-1.59,1.905-1.563,3.165-0.156,4.346l1.251,1.045l4.59-5.489l-4.716-3.941
				c-2.164-1.812-4.135-1.178-7.285,2.156l-1.741-1.457l5.516-6.596L415.977,476.599z"/>
			<path fill="#1E1C00" d="M365.058,454.603l-1.384-1.679l6.503-5.338l1.442,1.754c-2.333,2.428-3.352,5.498-1.017,8.334
				c2.861,3.491,6.764,1.764,9.873-0.79c3.062-2.514,5.531-6.132,2.723-9.545c-2.22-2.71-5.189-2.456-7.919-0.649l-1.671-2.041
				c4.361-3.103,8.634-2.642,12.042,1.513c4.097,4.975,2.723,10.468-2.331,14.623c-4.459,3.661-10.527,3.719-14.578-1.216
				c-1.271-1.545-1.955-3.875-1.817-5.738L365.058,454.603z"/>
			<path fill="#1E1C00" d="M378.059,437.76l-1.913,1.22l-0.924-1.46c-0.566-0.873-1.135-1.208-2.69-0.216l-10.076,6.41
				c-1.108,0.71-1.256,1.233-0.395,2.579l0.74,1.17l-1.913,1.22l-10.871-17.097l6.835-4.351l1.218,1.915
				c-3.274,2.629-4.474,3.832-2.27,7.308l2.899,4.555l5.388-3.43l-0.871-1.374c-0.986-1.553-2.209-1.759-4.308-0.425l-0.337,0.211
				l-1.218-1.91l8.647-5.506l1.22,1.918l-0.622,0.4c-2.094,1.334-2.456,2.542-1.465,4.097l0.87,1.374l6.035-3.843l-3.294-5.179
				c-1.515-2.383-3.586-2.373-7.595-0.159l-1.215-1.913l7.25-4.613L378.059,437.76z"/>
			<path fill="#1E1C00" d="M365.695,418.146l-2.061,0.959l-0.901-1.948c-0.405-0.858-0.815-1.012-1.538-0.667l-12.31,5.745
				c-0.725,0.342-0.871,0.747-0.471,1.608l0.908,1.945l-2.053,0.964l-5.652-12.091c-1.877-4.027-1.18-6.659,1.85-8.073
				c2.864-1.338,5.38,0.43,6.946,3.121l0.053-0.025c-0.999-3.09-0.035-4.351,2.132-5.368c2.947-1.371,3.08-2.25,2.859-2.72
				c-0.312-0.669-1.022-0.669-2.662,0.093l-0.863,0.405l-0.853-1.835l0.861-0.403c3.556-1.664,5.546-0.735,6.628,1.573
				c1.281,2.755,0.171,4.293-2.106,5.35c-4.449,2.081-4.955,3.538-3.432,6.789l0.765,1.638l5.587-2.612
				c0.722-0.337,0.876-0.745,0.468-1.608l-0.949-2.031l2.056-0.959L365.695,418.146z M351.734,416.165l-1.53-3.276
				c-1.401-3.005-2.778-3.412-4.837-2.451c-1.721,0.808-2.161,2.401-1.019,4.842l1.663,3.561L351.734,416.165z"/>
			<path fill="#1E1C00" d="M332.032,382.092l0.216,0.667c0.448,1.371,1.027,1.859,2.627,1.91l17.233,0.675l1.309,3.994
				l-13.745,10.836c-1.185,0.914-1.188,1.585-0.828,2.698l0.267,0.81l-2.154,0.71l-3.384-10.313l2.154-0.71l0.599,1.807
				c0.281,0.873,0.611,1.185,1.074,1.034c0.468-0.151,0.77-0.415,1.1-0.684l9.424-7.099l-0.02-0.058l-11.898-0.456
				c-0.556-0.005-0.888-0.028-1.235,0.086c-0.521,0.174-0.544,0.793-0.27,1.638l0.584,1.782l-2.156,0.699l-3.058-9.321
				L332.032,382.092z"/>
			<path fill="#1E1C00" d="M348.78,374.566l-2.232,0.423l-0.32-1.691c-0.194-1.019-0.604-1.533-2.408-1.191l-11.724,2.225
				c-1.296,0.244-1.623,0.684-1.321,2.25l0.257,1.351l-2.232,0.425l-3.772-19.885l7.952-1.515l0.423,2.232
				c-4.014,1.228-5.572,1.9-4.802,5.936l1.002,5.307l6.271-1.19l-0.302-1.601c-0.342-1.807-1.404-2.446-3.845-1.985l-0.388,0.073
				l-0.425-2.224l10.063-1.918l0.423,2.237l-0.722,0.136c-2.441,0.468-3.219,1.452-2.876,3.264l0.302,1.596l7.021-1.338
				l-1.143-6.025c-0.526-2.771-2.451-3.528-6.991-2.952l-0.426-2.227l8.438-1.6L348.78,374.566z"/>
			<path fill="#1E1C00" d="M342.231,352.068l-16.485-11.022l0.322,4.283c0.259,3.548,0.941,4.854,6.613,4.555l0.171,2.267
				l-8.513,0.624l-1.22-16.518l2.443-0.186l16.48,11.002l-0.274-3.707c-0.345-4.651-1.12-5.949-7.288-5.71l-0.166-2.262l9.09-0.675
				l1.271,17.17L342.231,352.068z"/>
			<path fill="#1E1C00" d="M343.19,332.432l-2.268-0.098c0.078-1.62-0.093-2.703-1.512-3.289l-16.138-6.58l0.187-4.296l16.671-5.408
				c1.467-0.486,1.729-1.515,1.8-3.141l2.267,0.096l-0.468,10.667l-2.272-0.093l0.103-2.428c0.04-0.705-0.108-0.959-0.415-0.969
				c-0.269-0.01-0.554,0.038-0.74,0.091l-3.113,0.878l-0.302,6.961l3.014,1.143c0.187,0.071,0.37,0.141,0.639,0.151
				c0.433,0.02,0.574-0.373,0.597-0.954l0.108-2.39l2.267,0.101L343.19,332.432z M334.989,318.647l-7.504,2.345l-0.003,0.061
				l7.278,2.78L334.989,318.647z"/>
			<path fill="#1E1C00" d="M331.504,271.352l2.174,0.647l-0.624,2.119c-0.148,0.498,0.113,0.798,0.468,0.906
				c0.234,0.068,0.501,0.045,0.783-0.058l5.934-1.892l-3.865-5.106c-0.181-0.247-0.385-0.4-0.622-0.473
				c-0.355-0.108-0.74,0-0.891,0.498l-0.639,2.182l-2.18-0.644l2.758-9.321l2.174,0.644l-0.141,0.498
				c-0.31,1.027-0.259,1.842,0.294,2.549l6.538,8.617l4.618,1.371c0.616,0.179,1.288,0.06,1.552-0.82l0.74-2.499l2.179,0.639
				l-3.384,11.445l-2.177-0.644l0.715-2.441c0.274-0.911,0.071-1.293-0.699-1.522l-4.937-1.462l-9.83,3.397
				c-0.885,0.279-1.397,0.931-1.701,1.955l-0.144,0.468l-2.172-0.639L331.504,271.352z"/>
			<path fill="#1E1C00" d="M348.465,230.333l1.042-2.018l7.008,3.619l-1.084,2.104c-2.995-0.619-6.322-0.536-8.149,3.01
				c-1.552,3.002,0.738,6.397,4.779,8.478c4.145,2.141,7.954,2.383,9.94-1.462c1.429-2.753,0.669-4.771-1.402-5.841l-1.039-0.536
				c-0.924-0.476-1.689,0.063-2.056,0.773l-0.903,1.741l-2.016-1.04l5.084-9.849l2.02,1.044l-0.719,1.394
				c-0.604,1.17-0.471,1.588,0.616,2.149l6.274,3.239l-1.014,1.963l-1.913,0.292c0.496,2.187,0.025,4.709-0.986,6.674
				c-2.738,5.292-8.267,6.759-14.1,3.744c-5.509-2.843-7.844-8.299-5.081-13.644c1.128-2.182,2.902-3.551,4.847-4.381
				L348.465,230.333z"/>
			<path fill="#1E1C00" d="M370.273,232.739l-1.86-1.303c0.934-1.329,1.367-2.335,0.486-3.583l-10.104-14.193l2.459-3.521
				l16.961,4.359c1.502,0.377,2.272-0.358,3.198-1.689l1.862,1.296l-6.103,8.752l-1.865-1.298l1.389-1.986
				c0.4-0.579,0.418-0.87,0.166-1.047c-0.227-0.156-0.489-0.262-0.68-0.322l-3.088-0.926l-3.988,5.718l1.94,2.579
				c0.113,0.156,0.231,0.309,0.455,0.463c0.353,0.249,0.684-0.003,1.017-0.48l1.369-1.966l1.86,1.299L370.273,232.739z
				 M370.726,216.712l-7.587-2.041l-0.035,0.05l4.655,6.239L370.726,216.712z"/>
			<path fill="#1E1C00" d="M379.279,188.067l1.185-1.329l5.775,5.154l-1.475,1.649c-2.99-1.676-6.06-1.835-8.498,0.893
				c-1.9,2.129-2.124,3.491-0.612,4.842c3.43,3.068,9.988-9.44,16.377-3.735c3.644,3.254,2.3,7.157-0.566,10.366
				c-1.53,1.716-3.797,2.78-6.065,3.145l0.906,1.714l-1.389,1.555l-6.211-5.546l1.512-1.688c3.357,2.421,6.681,2.013,9.588-1.238
				c1.802-2.018,1.716-3.82,0.616-4.799c-3.915-3.503-10.081,9.354-16.631,3.506c-3.234-2.882-2.008-7.018,0.465-9.794
				c1.558-1.736,3.664-2.484,5.488-2.919L379.279,188.067z"/>
			<path fill="#1E1C00" d="M397.667,198.032l-1.505-1.696l1.283-1.142c0.778-0.695,1.004-1.316-0.224-2.693l-7.95-8.908
				c-0.881-0.986-1.422-1.037-2.615,0.025l-1.032,0.923l-1.513-1.696l15.119-13.496l5.401,6.045l-1.696,1.515
				c-3.126-2.813-4.505-3.802-7.575-1.06l-4.029,3.601l4.248,4.761l1.218-1.084c1.372-1.226,1.379-2.464-0.279-4.323l-0.264-0.294
				l1.694-1.515l6.832,7.648l-1.691,1.52l-0.495-0.554c-1.653-1.852-2.909-2.01-4.281-0.785l-1.22,1.084l4.771,5.338l4.58-4.095
				c2.104-1.88,1.767-3.923-1.075-7.517l1.699-1.515l5.725,6.409L397.667,198.032z"/>
			<path fill="#1E1C00" d="M427.595,161.749c3.443,5.038,2.436,11.374-3.055,15.137c-5.489,3.755-11.77,2.403-15.217-2.632
				c-3.445-5.036-2.451-11.4,3.038-15.159C417.854,155.335,424.148,156.716,427.595,161.749z M413.297,171.531
				c2.479,3.624,5.894,6.118,9.968,3.327c3.999-2.741,2.834-6.769,0.355-10.388c-2.471-3.621-5.83-6.19-9.904-3.402
				C409.716,163.802,410.82,167.912,413.297,171.531z"/>
			<path fill="#1E1C00" d="M439.06,144.212l1.578-0.823l3.566,6.865l-1.96,1.012c-2.192-2.627-5.01-3.848-8.252-2.169
				c-2.532,1.316-3.219,2.509-2.29,4.306c2.126,4.077,12.676-5.277,16.624,2.307c2.25,4.329-0.388,7.499-4.2,9.482
				c-2.041,1.059-4.53,1.251-6.774,0.793l0.239,1.915l-1.855,0.961l-3.837-7.371l2.018-1.044c2.275,3.442,5.528,4.243,9.392,2.235
				c2.39-1.251,2.954-2.955,2.275-4.263c-2.424-4.653-12.731,5.169-16.775-2.612c-1.996-3.837,0.609-7.268,3.903-8.976
				c2.069-1.077,4.303-1.034,6.158-0.785L439.06,144.212z"/>
			<path fill="#1E1C00" d="M452.677,159.99l-0.8-2.124c1.525-0.574,2.453-1.15,2.428-2.685l-0.299-17.422l4.019-1.51l11.521,13.191
				c1.027,1.153,2.078,0.984,3.601,0.418l0.795,2.116l-9.983,3.767l-0.803-2.124l2.268-0.858c0.659-0.244,0.835-0.476,0.73-0.765
				c-0.101-0.259-0.252-0.491-0.378-0.644l-2.025-2.509l-6.515,2.451l0.136,3.224c0.005,0.196,0.015,0.395,0.108,0.649
				c0.151,0.402,0.574,0.375,1.115,0.168l2.239-0.84l0.798,2.121L452.677,159.99z M462.114,147.028l-5.101-5.974l-0.055,0.023
				l0.31,7.781L462.114,147.028z"/>
			<path fill="#1E1C00" d="M485.311,128.258l1.729-0.423l1.85,7.51l-2.144,0.531c-1.52-3.078-3.971-4.942-7.514-4.069
				c-2.768,0.684-3.727,1.678-3.246,3.646c1.102,4.469,13.577-2.142,15.617,6.173c1.17,4.741-2.144,7.2-6.319,8.229
				c-2.235,0.548-4.706,0.146-6.779-0.833l-0.222,1.922l-2.026,0.498l-1.988-8.078l2.204-0.541c1.399,3.888,4.369,5.436,8.606,4.392
				c2.62-0.644,3.568-2.172,3.221-3.601c-1.255-5.101-13.601,2.018-15.7-6.51c-1.031-4.2,2.316-6.918,5.922-7.806
				c2.262-0.559,4.427,0.015,6.173,0.695L485.311,128.258z"/>
			<path fill="#1E1C00" d="M504.897,139.916l-0.334-3.169l7.894-0.838l0.34,3.176L504.897,139.916z"/>
		</g>
	</g>
	<path fill="none" d="M354.786,364.263c0.028-0.121,0.199-0.571,0.715-1.127C354.967,363.654,354.814,364.13,354.786,364.263z"/>
	<path fill="#00ADEE" d="M676.868,412.134c0.405-0.397,0.813-0.8,1.213-1.195C677.676,411.334,677.273,411.732,676.868,412.134
		L676.868,412.134z"/>
	<path fill="#00ADEE" d="M672.804,433.147"/>
	<path fill="none" d="M678.081,410.939c-0.405,0.395-0.808,0.793-1.213,1.195l0,0C677.273,411.737,677.681,411.334,678.081,410.939z
		"/>
	<path fill="none" d="M354.786,364.263c0.028-0.121,0.199-0.571,0.715-1.127C354.967,363.654,354.814,364.13,354.786,364.263z"/>
	<path fill="#FFFFFF" d="M705.83,316.017c-0.554-7.346-1.57-14.558-2.977-21.629c-1.671-8.289-3.88-16.377-6.646-24.206
		c-24.372-68.937-90.11-118.333-167.399-118.333c-77.284,0-143.014,49.396-167.386,118.333
		c-6.218,17.562-9.742,36.398-10.084,56.006c-0.018,1.06-0.035,2.111-0.035,3.178c0,0.64,0.03,1.271,0.035,1.911
		c0.124,11.289,1.319,22.303,3.448,32.986c0.028-0.133,0.181-0.609,0.715-1.127c-0.516,0.556-0.687,1.007-0.715,1.127
		c1.661,8.3,3.858,16.405,6.628,24.244c1.533,4.336,3.284,8.582,5.131,12.759c0.82-0.571,28.613-19.581,93.742-2.801
		c9.772,2.526,19.802,6.08,30.067,10.078c29.246,11.39,60.454,26.315,93.185,30.99c33.55,4.799,68.705-1.18,105.023-32.832
		c2.869-5.896,5.456-11.956,7.66-18.194c5.121-14.497,8.42-29.863,9.608-45.807c0.327-4.401,0.493-8.845,0.493-13.333
		C706.323,324.875,706.157,320.426,705.83,316.017z M676.868,412.134L676.868,412.134c0.405-0.402,0.808-0.8,1.213-1.195
		C677.681,411.334,677.273,411.737,676.868,412.134z"/>
	<path fill="#00ADEE" d="M583.539,439.534c-32.732-4.675-63.939-19.601-93.185-30.99c-10.265-3.998-20.296-7.552-30.067-10.078
		c-65.129-16.78-92.921,2.23-93.742,2.801c2.813,6.334,5.942,12.502,9.452,18.418c2.677,4.532,5.554,8.928,8.622,13.181
		c1.104,1.548,2.232,3.085,3.395,4.592c13.463,17.522,30.122,32.46,49.114,43.935c26.753,16.176,58.136,25.484,91.681,25.484
		c17.235,0,33.89-2.458,49.63-7.041c3.259-1.047,6.53-2.109,9.799-3.166c17.802-6.318,34.29-15.398,48.956-26.722
		c1.729-1.334,3.412-2.713,5.086-4.105c6.095-5.071,11.855-10.524,17.22-16.362c8.367-9.105,15.791-19.087,22.135-29.793
		c2.486-4.215,4.784-8.561,6.928-12.987C652.245,438.353,617.089,444.333,583.539,439.534z"/>
	<path fill="#00ADEE" d="M474.082,219.19c32.735,4.683,63.929,19.614,93.18,30.996c10.27,3.999,20.301,7.554,30.075,10.076
		c65.124,16.785,92.916-2.23,93.739-2.798c-2.815-6.334-5.944-12.499-9.442-18.421c-2.688-4.53-5.571-8.926-8.637-13.184
		c-1.104-1.54-2.222-3.078-3.377-4.588c-13.479-17.52-30.138-32.462-49.122-43.935c-26.768-16.176-58.133-25.487-91.69-25.487
		c-17.231,0-33.877,2.464-49.628,7.044c-3.254,1.049-6.525,2.101-9.794,3.163c-17.804,6.324-34.292,15.401-48.958,26.727
		c-1.729,1.329-3.415,2.705-5.088,4.099c-6.09,5.073-11.86,10.529-17.218,16.367c-8.372,9.099-15.789,19.087-22.125,29.793
		c-2.499,4.21-4.789,8.558-6.941,12.982C405.375,220.378,440.538,214.399,474.082,219.19z"/>
	<g>
		<path fill="#DD1A22" d="M475.301,240.626h13.342v51.51h-13.908c-2.446-20.487-12.965-37.219-35.518-37.219
			c-27.639,0-34.584,25.188-34.584,49.809c0,24.249,7.514,50,34.584,50c21.423,0,31.761-15.041,33.822-34.962h16.171
			c-2.252,32.709-21.058,51.125-53.948,51.125c-39.468,0-60.144-27.815-60.144-67.852c0-35.339,23.303-64.284,62.399-64.284
			c12.22,0,25.942,5.823,34.209,13.717L475.301,240.626z"/>
		<path fill="#DD1A22" d="M528.992,292.136h-3.747c-8.173,0-10.385,0.68-10.385,3.405c0,2.041,1.874,6.13,4.429,12.258
			l16.853,39.854l19.923-45.981c0.508-1.366,1.193-3.067,1.193-5.451c0-2.552-3.571-4.084-10.393-4.084h-4.771v-8.002h40.536v8.002
			h-4.771c-4.932,0-8.851,4.598-11.573,10.728l-35.596,79.679c-4.421,10.051-14.303,17.371-26.383,17.371
			c-9.882,0-19.417-6.641-19.417-17.371c0-10.383,5.962-13.45,10.564-13.45c4.769,0,9.195,3.068,9.195,8.858
			c0,6.296-5.28,7.834-10.225,7.834c0.687,3.063,4.945,6.128,10.056,6.128c8.34,0,13.612-4.766,16.858-11.239l8.166-16.516
			l-28.773-62.995c-2.897-6.302-5.962-9.027-12.258-9.027h-3.583v-8.002h44.104V292.136z"/>
		<path fill="#DD1A22" d="M644.647,287.893h13.911v48.306h-14.475c-5.071-18.045-14.85-35.905-39.282-35.905
			c-20.68,0-32.707,21.997-32.707,49.816c0,28.567,9.392,49.99,35.895,49.99c18.989,0,27.817-9.772,27.817-24.058v-7.144
			c0-6.39-5.073-9.014-9.963-9.014H613.82v-13.914h67.852v13.914h-9.582c-8.078,0-9.96,1.872-9.96,9.402v43.226h-13.536l-6.95-9.588
			c-10.534,8.836-25.57,13.343-39.094,13.343c-36.469,0-59.97-25.937-59.97-66.156c0-37.968,23.116-65.977,59.97-65.977
			c15.031,0,27.437,5.828,37.395,14.1L644.647,287.893z"/>
		<rect x="581.045" y="284.133" fill="#DD1A22" width="19.704" height="8.835"/>
	</g>
	<path fill="none" d="M384.418,576.058c0.025-0.124,0.202-0.584,0.699-1.13C384.584,575.446,384.448,575.912,384.418,576.058z"/>
	<path fill="none" d="M384.418,576.058c0.025-0.124,0.202-0.584,0.699-1.13C384.584,575.446,384.448,575.912,384.418,576.058z"/>
</g>
</svg>
