<?xml version="1.0" encoding="utf-8"?>
<!-- Generator: Adobe Illustrator 17.0.0, SVG Export Plug-In . SVG Version: 6.00 Build 0)  -->
<!DOCTYPE svg PUBLIC "-//W3C//DTD SVG 1.1//EN" "http://www.w3.org/Graphics/SVG/1.1/DTD/svg11.dtd">
<svg version="1.1" id="Layer_1" xmlns="http://www.w3.org/2000/svg" xmlns:xlink="http://www.w3.org/1999/xlink" x="0px" y="0px"
	 width="1050px" height="700px" viewBox="0 0 1050 700" enable-background="new 0 0 1050 700" xml:space="preserve">
<rect fill="#FFFFFF" width="1050" height="700"/>
<g>
	<g>
		<path fill="#7ED2F6" d="M342.444,429.958c-14.617-1.666-28.722-4.757-42.204-9.096c2.101,0.227,4.215,0.418,6.342,0.569
			c33.035,2.305,64.443-5.405,91.273-20.538c-8.712,11.459-18.904,21.697-30.259,30.469
			C359.289,431.375,350.898,430.922,342.444,429.958z"/>
		<path fill="#7ED2F6" d="M417.207,462.044c-9.136,2.216-18.475,3.7-27.916,4.468c-0.142,0-0.277,0.004-0.419,0.004
			c-27.418,12.659-57.748,19.703-89.366,19.881C338.453,487.988,379.119,481.205,417.207,462.044z"/>
		<path fill="#00A3DF" d="M367.597,431.361c-8.308,0.013-16.698-0.44-25.153-1.404c-14.617-1.666-28.722-4.757-42.204-9.096
			c-29.046-9.358-55.187-24.553-77.213-44.096c-0.002,0.005-0.013,0.009-0.018,0.018l-6.391-4.504
			c-4.953-2.847-10.558-4.762-16.605-5.446c-23.652-2.696-45.018,14.302-47.714,37.958c-1.763,15.47,4.899,29.963,16.341,38.891
			c0.149,0.116,0.302,0.231,0.455,0.351c0.14,0.098,0.273,0.2,0.406,0.297c0.406,0.302,0.831,0.591,1.239,0.893
			c6.434,4.664,13.158,8.963,20.123,12.916c6.962,3.957,14.183,7.533,21.624,10.722c0.077,0.031,0.144,0.067,0.222,0.098
			c0.006,0,0.012,0.005,0.018,0.005c18.898,8.079,39.257,13.605,60.726,16.052c8.761,0.999,17.452,1.43,26.054,1.381
			c31.619-0.178,61.948-7.222,89.366-19.881c0.026-0.013,0.052-0.022,0.079-0.035c29.457-13.609,55.56-33.659,76.272-58.572
			C435.66,422.927,402.401,431.313,367.597,431.361z"/>
		<path fill="#7ED2F6" d="M172.958,270.042c14.624,1.666,28.726,4.757,42.211,9.099c-2.103-0.229-4.215-0.42-6.345-0.571
			c-33.032-2.305-64.443,5.403-91.271,20.538c8.712-11.462,18.906-21.697,30.254-30.47
			C156.113,268.625,164.506,269.078,172.958,270.042z"/>
		<path fill="#7ED2F6" d="M98.201,237.955c9.134-2.216,18.468-3.7,27.916-4.468c0.122,0.009,0.238,0.013,0.36,0.02
			c27.428-12.67,57.773-19.723,89.409-19.905C176.944,212.012,136.283,218.799,98.201,237.955z"/>
		<path fill="#00A3DF" d="M346.768,256.317c-0.149-0.118-0.3-0.231-0.455-0.351c-0.14-0.098-0.273-0.2-0.406-0.298
			c-0.406-0.302-0.828-0.591-1.237-0.893c-6.436-4.664-13.16-8.963-20.127-12.921c-6.796-3.86-13.839-7.355-21.092-10.491
			c-0.25-0.107-0.485-0.227-0.747-0.324c-0.02-0.009-0.041-0.013-0.062-0.022c-18.888-8.068-39.235-13.591-60.688-16.034
			c-8.766-0.999-17.461-1.43-26.067-1.381c-31.635,0.182-61.981,7.235-89.409,19.905c-0.008,0.002-0.015,0.007-0.022,0.011
			c-29.457,13.609-55.56,33.656-76.272,58.572c29.566-15.017,62.825-23.401,97.625-23.452c8.306-0.013,16.698,0.44,25.151,1.404
			c14.624,1.666,28.726,4.757,42.211,9.099c29.044,9.352,55.185,24.551,77.213,44.094c0-0.007,0.011-0.011,0.018-0.018l6.389,4.504
			c4.955,2.847,10.562,4.757,16.605,5.445c23.652,2.696,45.018-14.302,47.714-37.958
			C364.872,279.736,358.207,265.245,346.768,256.317z"/>
		<path fill="#FFDD00" d="M285.205,353.131c-1.734,15.186-15.446,26.103-30.638,24.367c-15.186-1.732-26.094-15.439-24.36-30.634
			c1.725-15.186,15.448-26.097,30.634-24.365C276.022,324.23,286.937,337.941,285.205,353.131z"/>
	</g>
	<g>
		<g>
			<path fill="#0054A5" d="M411.365,315.251l-2.345-7.53h-15.554l-2.487,7.53h-12.998l18.397-50.575h9.589l18.397,50.575H411.365z
				 M401.491,283.855l-4.546,13.496h8.808L401.491,283.855z"/>
			<path fill="#0054A5" d="M449.296,289.112c-1.137-1.137-2.203-1.99-4.193-1.99c-1.561,0-4.688,0.924-4.688,5.257v22.872h-11.648
				v-38.215h11.366v3.125c1.703-1.704,5.041-3.551,9.021-3.551c3.764,0,6.32,0.924,8.95,3.551L449.296,289.112z"/>
			<path fill="#0054A5" d="M474.153,328.036c-5.967,0-10.442-1.065-14.349-4.971l7.246-7.245c1.774,1.776,3.906,2.415,6.534,2.415
				c4.901,0,6.181-3.339,6.181-5.825v-2.771c-2.132,2.132-4.688,3.197-8.239,3.197c-3.695,0-6.749-1.207-8.95-3.409
				c-3.482-3.481-3.553-7.743-3.553-14.704s0.071-11.223,3.553-14.703c2.201-2.203,5.326-3.41,9.021-3.41
				c3.906,0,6.178,1.207,8.524,3.551v-3.125h11.293v35.444C491.414,321.501,484.596,328.036,474.153,328.036z M475.22,287.122
				c-4.262,0-4.546,3.694-4.546,7.601c0,3.906,0.284,7.601,4.546,7.601s4.546-3.694,4.546-7.601
				C479.765,290.816,479.481,287.122,475.22,287.122z"/>
			<path fill="#0054A5" d="M509.955,299.908c0,3.125,2.414,5.966,6.747,5.966c4.051,0,5.825-1.136,7.886-3.196l6.96,6.96
				c-3.906,3.908-7.742,6.038-14.846,6.038c-8.452,0-18.184-3.055-18.184-19.534c0-12.501,7.104-19.533,17.12-19.533
				c11.08,0,17.189,8.097,17.189,18.113v5.186H509.955z M520.682,289.182c-0.711-1.633-2.274-2.982-5.044-2.982
				c-2.771,0-4.333,1.349-5.043,2.982c-0.498,0.995-0.64,2.061-0.64,2.984h11.364C521.319,291.243,521.177,290.177,520.682,289.182z
				"/>
			<path fill="#0054A5" d="M560.954,315.251v-22.872c0-4.404-3.125-5.257-4.688-5.257c-1.561,0-4.688,0.853-4.688,5.257v22.872
				H539.93v-38.215h11.366v3.125c2.343-2.344,5.823-3.551,8.879-3.551c3.622,0,6.534,1.207,8.595,3.268
				c3.267,3.267,3.835,6.89,3.835,10.939v24.434H560.954z"/>
			<path fill="#0054A5" d="M593.771,315.251c-8.452,0-11.861-6.037-11.861-11.294v-16.48h-3.48v-8.95h3.48v-10.939h11.648v10.939
				h6.038v8.95h-6.038v15.627c0,1.492,0.782,2.344,2.345,2.344h3.693v9.803H593.771z"/>
			<path fill="#0054A5" d="M606.84,273.13v-8.88h11.648v8.88H606.84z M606.84,315.251v-36.723h11.648v36.723H606.84z"/>
			<path fill="#0054A5" d="M648.323,315.251v-22.872c0-4.404-3.125-5.257-4.688-5.257c-1.561,0-4.688,0.853-4.688,5.257v22.872
				h-11.648v-38.215h11.366v3.125c2.343-2.344,5.823-3.551,8.879-3.551c3.622,0,6.534,1.207,8.595,3.268
				c3.267,3.267,3.835,6.89,3.835,10.939v24.434H648.323z"/>
			<path fill="#0054A5" d="M686.965,315.251v-3.126c-2.345,2.344-4.475,3.481-8.523,3.481c-3.836,0-7.033-1.279-9.163-3.41
				c-2.203-2.202-3.338-5.398-3.338-8.95c0-5.753,3.906-11.081,12.998-11.081h7.742v-0.994c0-3.481-1.706-4.759-5.754-4.759
				c-2.982,0-4.262,0.71-6.107,2.557l-7.246-7.246c3.906-3.907,7.46-5.114,13.922-5.114c10.94,0,16.834,4.546,16.834,13.851v24.79
				h-11.365L686.965,315.251L686.965,315.251z M686.681,299.908h-5.896c-2.272,0-3.693,1.278-3.693,3.054
				c0,1.706,1.279,3.197,3.835,3.197c2.274,0,3.34-0.213,4.617-1.42c0.853-0.782,1.137-1.989,1.137-3.836L686.681,299.908
				L686.681,299.908z"/>
			<path fill="#00ADEE" d="M705.859,315.251v-10.512l18.326-19.889c1.848-1.989,2.558-3.267,2.558-5.398
				c0-2.77-1.563-4.688-4.546-4.688c-2.132,0-4.688,0.994-4.688,4.901h-11.651c0-9.945,7.531-15.415,16.339-15.415
				c9.376,0,16.194,5.754,16.194,15.273c0,5.327-2.201,8.168-6.252,12.43l-12.074,12.786h18.326v10.512H705.859z"/>
			<path fill="#00ADEE" d="M761.338,315.677c-8.383,0-16.267-5.328-16.267-15.769V280.02c0-10.442,7.884-15.77,16.267-15.77
				c8.381,0,16.265,5.328,16.265,15.77v19.888C777.603,310.349,769.719,315.677,761.338,315.677z M765.955,280.02
				c0-3.552-2.132-5.257-4.617-5.257c-2.487,0-4.617,1.704-4.617,5.257v19.96c0,3.551,2.13,5.185,4.617,5.185
				c2.485,0,4.617-1.634,4.617-5.185V280.02z"/>
			<path fill="#00ADEE" d="M800.83,315.677c-8.381,0-16.267-5.328-16.267-15.769V280.02c0-10.442,7.886-15.77,16.267-15.77
				c8.381,0,16.265,5.328,16.265,15.77v19.888C817.096,310.349,809.212,315.677,800.83,315.677z M805.447,280.02
				c0-3.552-2.132-5.257-4.617-5.257c-2.487,0-4.617,1.704-4.617,5.257v19.96c0,3.551,2.13,5.185,4.617,5.185
				c2.485,0,4.617-1.634,4.617-5.185V280.02z"/>
			<path fill="#0054A5" d="M843.521,315.251v-3.126c-2.345,2.344-4.475,3.481-8.524,3.481c-3.835,0-7.033-1.279-9.163-3.41
				c-2.203-2.202-3.338-5.398-3.338-8.95c0-5.753,3.906-11.081,12.998-11.081h7.742v-0.994c0-3.481-1.706-4.759-5.754-4.759
				c-2.982,0-4.262,0.71-6.107,2.557l-7.247-7.246c3.906-3.907,7.46-5.114,13.922-5.114c10.94,0,16.834,4.546,16.834,13.851v24.79
				h-11.363L843.521,315.251L843.521,315.251z M843.237,299.908h-5.896c-2.272,0-3.693,1.278-3.693,3.054
				c0,1.706,1.279,3.197,3.835,3.197c2.274,0,3.34-0.213,4.617-1.42c0.853-0.782,1.137-1.989,1.137-3.836L843.237,299.908
				L843.237,299.908z"/>
			<path fill="#0054A5" d="M884.079,315.251v-22.872c0-4.404-3.125-5.257-4.688-5.257c-1.561,0-4.688,0.853-4.688,5.257v22.872
				h-11.648v-38.215h11.366v3.125c2.343-2.344,5.823-3.551,8.879-3.551c3.622,0,6.534,1.207,8.595,3.268
				c3.267,3.267,3.835,6.89,3.835,10.939v24.434H884.079z M884.364,271.211c-2.13,0-3.622-0.283-5.752-1.562
				c-1.35-0.782-2.558-1.207-3.98-1.207c-1.277,0-2.414,0.212-4.12,1.918l-4.83-4.901c3.056-3.055,5.328-4.475,8.668-4.475
				c2.13,0,3.622,0.284,5.752,1.562c1.35,0.782,2.487,1.208,3.906,1.208c1.279,0,2.416-0.213,4.122-1.918l4.97,4.9
				C890.047,269.791,887.704,271.211,884.364,271.211z"/>
			<path fill="#0054A5" d="M931.6,310.776c-2.274,2.415-6.109,4.901-12.288,4.901c-6.181,0-10.016-2.486-12.29-4.901
				c-3.196-3.48-4.191-7.103-4.191-14.633c0-7.457,0.995-11.152,4.191-14.632c2.274-2.415,6.109-4.901,12.29-4.901
				c6.178,0,10.014,2.486,12.288,4.901c3.196,3.48,4.191,7.174,4.191,14.632C935.791,303.673,934.796,307.296,931.6,310.776z
				 M922.437,288.188c-0.711-0.711-1.706-1.066-3.125-1.066c-1.421,0-2.416,0.355-3.127,1.066c-1.49,1.491-1.703,4.191-1.703,7.955
				c0,3.765,0.213,6.465,1.703,7.956c0.711,0.711,1.706,1.065,3.127,1.065c1.419,0,2.414-0.354,3.125-1.065
				c1.492-1.491,1.706-4.191,1.706-7.956C924.143,292.379,923.93,289.679,922.437,288.188z"/>
			<path fill="#0054A5" d="M956.176,315.677c-5.754,0-11.364-0.284-16.621-5.541l7.528-7.529c3.196,3.196,7.318,3.196,9.305,3.196
				c1.706,0,4.972-0.497,4.972-2.486c0-1.065-0.497-2.202-2.769-2.415l-5.896-0.567c-6.607-0.639-11.082-3.623-11.082-11.082
				c0-8.452,7.602-12.643,15.201-12.643c6.252,0,11.295,0.924,15.059,4.688l-7.176,7.174c-1.917-1.918-5.114-2.273-8.097-2.273
				c-2.84,0-3.764,1.349-3.764,2.202c0,0.426-0.142,1.847,2.485,2.131l5.896,0.569c8.026,0.78,11.508,5.54,11.508,11.649
				C972.728,311.771,965.055,315.677,956.176,315.677z"/>
		</g>
	</g>
	<g>
		<g>
			<path fill="#0054A5" d="M987.469,301.431c-6.822,0-12.348-5.525-12.348-12.348s5.525-12.348,12.348-12.348
				s12.348,5.525,12.348,12.348S994.292,301.431,987.469,301.431z M987.469,278.543c-5.73,0-10.369,4.742-10.369,10.54
				s4.639,10.54,10.369,10.54s10.404-4.741,10.404-10.54S993.199,278.543,987.469,278.543z M990.472,295.837l-3.105-5.525h-2.048
				v5.525h-1.874v-13.541h4.604c2.354,0,4.264,1.773,4.264,4.06c0,1.978-1.228,3.206-2.898,3.717l3.24,5.764L990.472,295.837
				L990.472,295.837z M987.845,283.966h-2.525v4.741h2.525c1.501,0,2.558-0.989,2.558-2.353
				C990.403,284.99,989.346,283.966,987.845,283.966z"/>
		</g>
	</g>
	<g>
		<path fill="#00ADEE" d="M401.224,335.762v3.482h-14.868v9.787h13.928v3.481h-13.928v11.152h15.339v3.482h-19.903v-31.385h19.432
			V335.762z"/>
		<path fill="#00ADEE" d="M417.411,355.665l8.611,11.482h-4.894l-6.352-8.988l-5.881,8.988h-4.706l8.281-11.482l-7.764-10.305h4.847
			l5.505,7.764l5.222-7.764h4.611L417.411,355.665z"/>
		<path fill="#00ADEE" d="M433.974,349.408c1.741-3.2,4.094-4.565,7.716-4.565c5.6,0,8.988,4.188,8.988,11.152
			c0,7.482-3.388,11.669-9.316,11.669c-3.293,0-5.364-1.224-7.387-4.282v11.669h-4.187V345.36h4.187v4.048H433.974z
			 M440.232,347.667c-3.858,0-6.305,3.388-6.305,8.799c0,5.176,2.399,8.376,6.257,8.376c3.859,0,6.165-3.247,6.165-8.752
			C446.349,350.819,444.09,347.667,440.232,347.667z"/>
		<path fill="#00ADEE" d="M465.546,367.664c-6.634,0-10.822-4.376-10.822-11.34c0-7.152,4.094-11.482,10.87-11.482
			s10.963,4.329,10.963,11.293C476.556,363.194,472.275,367.664,465.546,367.664z M465.546,347.667
			c-4.141,0-6.493,3.011-6.493,8.469c0,5.552,2.352,8.706,6.54,8.706c4.234,0,6.635-3.2,6.635-8.893
			C472.228,350.584,469.875,347.667,465.546,347.667z"/>
		<path fill="#00ADEE" d="M507.989,335.762c3.764,0,5.27,0.329,7.058,1.506c2.023,1.412,3.199,3.67,3.199,6.305
			c0,3.623-2.164,5.928-6.634,7.011c2.352,0.376,3.435,0.8,4.705,1.694c1.976,1.411,2.965,3.435,2.965,6.07
			c0,2.823-1.224,5.364-3.153,6.729c-1.883,1.27-4.847,2.07-7.764,2.07h-11.669v-31.385H507.989z M506.906,348.937
			c2.447,0,3.482-0.235,4.611-1.035c1.317-0.941,2.023-2.4,2.023-4.094c0-1.6-0.659-3.058-1.647-3.717
			c-0.847-0.611-2.071-0.846-4.094-0.846h-6.54v9.693L506.906,348.937L506.906,348.937z M507.848,363.665
			c4.423,0,6.728-1.882,6.728-5.458c0-2.353-1.176-4.282-3.011-4.988c-1.365-0.565-3.152-0.8-5.6-0.8h-4.705v11.245h6.588
			L507.848,363.665L507.848,363.665z"/>
		<path fill="#00ADEE" d="M529.349,339.338h-4.187v-3.576h4.187V339.338z M529.349,367.147h-4.187v-21.786h4.187V367.147z"/>
		<path fill="#00ADEE" d="M554.569,359.995c-0.375,2.682-0.893,3.952-2.116,5.176c-1.552,1.6-4.235,2.494-7.293,2.494
			c-6.447,0-10.4-4.376-10.4-11.434c0-6.776,4.377-11.387,10.822-11.387c5.223,0,8.706,2.918,8.988,7.623h-3.858
			c-0.282-1.365-0.518-1.977-0.942-2.635c-0.799-1.365-2.494-2.164-4.375-2.164c-4.095,0-6.307,3.058-6.307,8.563
			c0,5.552,2.261,8.611,6.401,8.611c3.247,0,4.752-1.459,5.223-4.847L554.569,359.995L554.569,359.995z"/>
		<path fill="#00ADEE" d="M578.192,360.182c-0.518,4.753-4,7.482-9.552,7.482c-6.447,0-10.493-4.376-10.493-11.387
			c0-7.058,4.095-11.434,10.729-11.434c6.398,0,9.74,4.094,9.74,11.81v0.424h-16.139v0.282c0,1.365,0.375,2.87,1.035,4.282
			c1.035,2.118,2.823,3.2,5.27,3.2c3.151,0,4.939-1.553,5.363-4.659L578.192,360.182L578.192,360.182z M568.687,347.667
			c-3.482,0-5.787,2.4-6.163,6.493h11.857C574.146,349.926,572.169,347.667,568.687,347.667z"/>
		<path fill="#00ADEE" d="M588.165,345.361v3.295c1.93-2.635,4.142-3.812,7.2-3.812c2.965,0,5.456,1.224,6.776,3.341
			c0.988,1.553,1.27,3.058,1.27,6.164v12.798h-4.188v-12.798c0-4.517-1.648-6.681-5.128-6.681c-1.93,0-3.624,0.847-4.706,2.353
			c-0.895,1.317-1.224,2.682-1.224,5.27v11.857h-4.188v-21.786L588.165,345.361L588.165,345.361z"/>
		<path fill="#00ADEE" d="M614.373,345.361h4.753v2.918h-4.753v12.187c0,1.552,0.047,1.929,0.235,2.541
			c0.282,0.941,1.128,1.506,2.07,1.506c0.893,0,2.447-0.33,2.447-0.33v2.965c-1.412,0.282-2.683,0.423-3.906,0.423
			c-2.259,0-3.906-0.846-4.47-2.352c-0.422-1.036-0.564-2.259-0.564-4.753v-12.187h-4.282v-2.918h4.282v-4.046l4.188-1.6V345.361z"
			/>
		<path fill="#00ADEE" d="M643.124,360.182c-0.517,4.753-4,7.482-9.552,7.482c-6.447,0-10.493-4.376-10.493-11.387
			c0-7.058,4.095-11.434,10.729-11.434c6.398,0,9.74,4.094,9.74,11.81v0.424h-16.139v0.282c0,1.365,0.375,2.87,1.035,4.282
			c1.035,2.118,2.823,3.2,5.27,3.2c3.151,0,4.939-1.553,5.363-4.659L643.124,360.182L643.124,360.182z M633.619,347.667
			c-3.482,0-5.787,2.4-6.163,6.493h11.857C639.078,349.926,637.101,347.667,633.619,347.667z"/>
		<path fill="#00ADEE" d="M653.1,345.361v3.295c1.93-2.635,4.14-3.812,7.2-3.812c2.963,0,5.457,1.224,6.776,3.341
			c0.988,1.553,1.27,3.058,1.27,6.164v12.798h-4.188v-12.798c0-4.517-1.646-6.681-5.128-6.681c-1.93,0-3.624,0.847-4.706,2.353
			c-0.895,1.317-1.224,2.682-1.224,5.27v11.857h-4.188v-21.786L653.1,345.361L653.1,345.361z"/>
		<path fill="#00ADEE" d="M675.072,351.243c0.378-4.376,3.011-6.399,8.377-6.399c6.258,0,9.128,2.588,9.128,8.235v6.87
			c0,1.176,0.093,3.058,0.189,4.469c0.047,0.894,0.14,1.459,0.375,2.729h-4.186c-0.235-1.176-0.282-1.459-0.471-3.293
			c-2.023,2.823-3.86,3.811-7.058,3.811c-4.613,0-7.671-2.635-7.671-6.587c0-2.729,1.552-4.941,4.235-5.93
			c2.212-0.846,3.718-1.035,9.034-1.222l1.459-0.048c-0.047-2.729-0.142-3.717-0.566-4.611c-0.657-1.271-2.023-1.976-3.951-1.976
			c-3.058,0-4.564,1.317-4.564,3.952H675.072z M687.025,356.277c-3.389,0-5.081,0.235-6.636,0.988
			c-1.457,0.706-2.305,2.023-2.305,3.529c0,2.353,1.93,4.047,4.566,4.047c2.163,0,3.951-0.988,4.939-2.729
			c0.66-1.223,0.895-2.353,0.895-4.47v-1.365H687.025z"/>
		<path fill="#00ADEE" d="M703.494,345.361v3.812c1.552-3.2,3.34-4.235,7.386-4.235v3.764h-0.939
			c-2.918,0.141-4.331,0.658-5.27,1.976c-0.848,1.27-1.177,2.635-1.177,5.035v11.434h-4.188v-21.786L703.494,345.361
			L703.494,345.361z"/>
		<path fill="#00ADEE" d="M719.444,339.338h-4.188v-3.576h4.188V339.338z M719.444,367.147h-4.188v-21.786h4.188V367.147z"/>
		<path fill="#00ADEE" d="M735.629,367.664c-6.634,0-10.822-4.376-10.822-11.34c0-7.152,4.093-11.482,10.869-11.482
			s10.964,4.329,10.964,11.293C746.64,363.194,742.359,367.664,735.629,367.664z M735.629,347.667c-4.14,0-6.493,3.011-6.493,8.469
			c0,5.552,2.354,8.706,6.54,8.706c4.235,0,6.636-3.2,6.636-8.893C742.312,350.584,739.958,347.667,735.629,347.667z"/>
		<path fill="#00ADEE" d="M782.495,367.147h-4.282v-26.821c-2.07,1.647-3.904,2.729-7.011,4.188v-3.718
			c1.601-0.847,2.543-1.365,3.764-2.117c1.837-1.129,2.636-1.694,3.813-2.917h3.715L782.495,367.147L782.495,367.147z"/>
		<path fill="#00ADEE" d="M809.309,352.561c1.835,1.458,2.916,3.67,2.916,6.116c0,5.27-4.704,8.941-11.479,8.941
			c-6.918,0-11.575-3.576-11.575-8.893c0-4.046,2.258-6.635,7.104-8.094c-1.834-0.564-2.683-0.988-3.576-1.788
			c-1.601-1.317-2.447-3.247-2.447-5.411c0-4.988,3.999-8.14,10.351-8.14c6.494,0,10.587,3.106,10.587,8.046
			c0,3.623-1.976,5.976-6.07,7.293C807.191,351.196,808.179,351.667,809.309,352.561z M800.604,352.278
			c-4.186,0-6.869,2.305-6.869,6.023c0,3.622,2.869,6.164,7.058,6.164c4,0,6.869-2.635,6.869-6.306
			C807.661,354.63,804.792,352.278,800.604,352.278z M800.746,338.444c-3.811,0-6.305,2.023-6.305,5.176
			c0,3.154,2.727,5.505,6.398,5.505c3.482,0,6.165-2.446,6.165-5.599C807.004,340.608,804.321,338.444,800.746,338.444z"/>
		<path fill="#00ADEE" d="M826.763,367.147h-4.282v-26.821c-2.07,1.647-3.904,2.729-7.011,4.188v-3.718
			c1.601-0.847,2.543-1.365,3.764-2.117c1.837-1.129,2.636-1.694,3.813-2.917h3.715L826.763,367.147L826.763,367.147z"/>
		<path fill="#00ADEE" d="M847.09,367.617c-7.482,0-12.092-6.164-12.092-16.14c0-9.928,4.799-16.186,12.421-16.186
			c7.34,0,12.092,6.212,12.092,15.904C859.511,361.359,854.758,367.617,847.09,367.617z M853.537,342.867
			c-1.177-2.728-3.578-4.423-6.258-4.423c-4.895,0-7.717,4.8-7.717,13.175c0,8.14,2.823,12.846,7.668,12.846
			c4.848,0,7.717-4.752,7.717-12.846C854.947,347.949,854.476,345.032,853.537,342.867z"/>
		<path fill="#00ADEE" d="M872.78,356.748h-11.104v-3.67h11.104V356.748z"/>
		<path fill="#00ADEE" d="M876.402,367.147v-3.811c4.848-4.141,7.624-6.729,10.493-9.835c3.906-4.282,5.505-7.058,5.505-9.739
			c0-3.106-2.398-5.318-5.694-5.318c-3.433,0-5.081,1.836-5.599,6.071h-4.706c0.331-3.2,0.753-4.517,1.93-5.882
			c1.834-2.212,4.564-3.341,8.188-3.341c6.305,0,10.445,3.247,10.445,8.235c0,3.858-1.646,6.728-6.822,11.951
			c-1.553,1.6-3.622,3.576-5.741,5.458c-0.893,0.8-1.646,1.459-3.294,2.87h16.894v3.341H876.402z"/>
		<path fill="#00ADEE" d="M912.87,367.617c-7.482,0-12.092-6.164-12.092-16.14c0-9.928,4.799-16.186,12.421-16.186
			c7.34,0,12.092,6.212,12.092,15.904C925.291,361.359,920.539,367.617,912.87,367.617z M919.317,342.867
			c-1.177-2.728-3.578-4.423-6.258-4.423c-4.895,0-7.717,4.8-7.717,13.175c0,8.14,2.823,12.846,7.668,12.846
			c4.848,0,7.717-4.752,7.717-12.846C920.727,347.949,920.257,345.032,919.317,342.867z"/>
		<path fill="#00ADEE" d="M939.835,367.147h-4.282v-26.821c-2.07,1.647-3.904,2.729-7.011,4.188v-3.718
			c1.601-0.847,2.543-1.365,3.764-2.117c1.837-1.129,2.636-1.694,3.813-2.917h3.715L939.835,367.147L939.835,367.147z"/>
		<path fill="#00ADEE" d="M960.16,367.617c-7.482,0-12.092-6.164-12.092-16.14c0-9.928,4.799-16.186,12.421-16.186
			c7.34,0,12.092,6.212,12.092,15.904C972.581,361.359,967.829,367.617,960.16,367.617z M966.607,342.867
			c-1.177-2.728-3.578-4.423-6.258-4.423c-4.895,0-7.717,4.8-7.717,13.175c0,8.14,2.823,12.846,7.669,12.846
			c4.848,0,7.717-4.752,7.717-12.846C968.017,347.949,967.547,345.032,966.607,342.867z"/>
	</g>
</g>
</svg>
