<?xml version="1.0" encoding="utf-8"?>
<!-- Generator: Adobe Illustrator 17.0.0, SVG Export Plug-In . SVG Version: 6.00 Build 0)  -->
<!DOCTYPE svg PUBLIC "-//W3C//DTD SVG 1.1//EN" "http://www.w3.org/Graphics/SVG/1.1/DTD/svg11.dtd">
<svg version="1.1" id="Layer_1" xmlns="http://www.w3.org/2000/svg" xmlns:xlink="http://www.w3.org/1999/xlink" x="0px" y="0px"
	 width="1050px" height="700px" viewBox="0 0 1050 700" enable-background="new 0 0 1050 700" xml:space="preserve">
<rect x="-1" y="1" fill="#FFFFFF" width="1050" height="700"/>
<g>
	<path fill-rule="evenodd" clip-rule="evenodd" fill="#A91E23" d="M490.607,530c-49.015,3.871-95.718,15.811-138.829,34.499
		l-0.696-41.818l-52.477-11.337c40.378-20.176,83.782-35.121,129.362-43.994L490.607,530z M560.302,530L560.302,530
		c48.977,3.871,95.686,15.811,138.844,34.499l0.669-41.818l52.49-11.337c-40.378-20.176-83.782-35.121-129.338-43.994L560.302,530z"
		/>
	<path fill-rule="evenodd" clip-rule="evenodd" fill="#6E0E0F" d="M672.403,516.946L560.302,530.01l26.808-32.394
		C616.469,501.46,644.973,507.971,672.403,516.946 M378.489,516.946L378.489,516.946l112.119,13.065l-26.808-32.394
		C434.431,501.46,405.913,507.971,378.489,516.946"/>
	<path d="M698.197,174.523l-8.258-30.079l8.258,30.074c22.82,83.364,17.275,165.901-16.118,238.697
		c-18.981,41.363-46.053,77.386-78.95,105.76c32.897-28.374,59.968-64.387,78.95-105.756
		C715.472,340.419,721.017,257.883,698.197,174.523z"/>
	<g>
		<path fill="#FFFFFF" d="M668.346,188.995c-18.447,6.861-40.828,10.621-63.822,10.621c-31.533,0-60.047-7.079-79.088-19.482
			c-19.032,12.403-47.549,19.482-79.05,19.482c-23.026,0-45.408-3.76-63.854-10.621c-41.28,160.855,39.695,293.088,142.904,342.256
			C628.636,482.084,709.625,349.85,668.346,188.995z"/>
	</g>
	<path d="M677.25,180.249l-1.668-6.013l1.668,6.008c21.477,78.396,16.327,155.82-14.905,223.912
		c-14.068,30.713-32.952,58.23-55.488,81.488c22.536-23.257,41.42-50.775,55.488-81.488
		C693.577,336.065,698.727,258.641,677.25,180.249z"/>
	<path fill="#EA2227" d="M677.25,180.245l-1.668-6.008l-5.711,2.458c-18.126,7.776-41.327,12.052-65.347,12.052
		c-4.814,0-9.527-0.178-14.147-0.522c-2.844-0.2-5.665-0.45-8.434-0.79c-0.587-0.061-1.199-0.153-1.772-0.237
		c-2.844-0.367-5.665-0.794-8.388-1.288c-17.368-3.179-32.366-8.914-43.154-16.758l-3.194-2.33l-3.188,2.33
		c-17.131,12.456-44.79,19.595-75.862,19.595c-24.053,0-47.268-4.267-65.365-12.052l-5.721-2.458l-1.668,6.008
		c-7.154,26.082-11.331,52.048-12.6,77.615c-1.961,39.24,2.965,77.504,14.752,113.676c3.616,11.085,7.859,21.965,12.748,32.621
		c9.574,20.878,21.384,40.24,35.043,57.831c19.627,25.316,43.075,46.889,69.459,63.659c9.671,6.163,19.714,11.702,30.121,16.522
		l2.282,1.064l2.273-1.064c29.155-13.489,55.646-32.451,78.419-55.753c0.06-0.051,0.093-0.117,0.153-0.168
		c0.182-0.195,0.377-0.408,0.577-0.603c22.536-23.257,41.42-50.775,55.488-81.488C693.577,336.065,698.727,258.641,677.25,180.245z
		 M525.436,531.251C422.226,482.084,341.252,349.85,382.532,188.995c18.447,6.861,40.828,10.621,63.854,10.621
		c31.501,0,60.018-7.079,79.05-19.482c19.041,12.403,47.555,19.482,79.088,19.482c22.994,0,45.375-3.76,63.822-10.621
		C709.625,349.85,628.636,482.084,525.436,531.251z"/>
	<path fill="#EA2227" d="M682.079,413.216c33.393-72.797,38.939-155.333,16.118-238.697l-8.258-30.074l-28.648,12.298
		c-15.467,6.641-35.624,10.293-56.767,10.293c-24.595,0-46.856-5.07-60.516-13.682c-0.911-0.573-1.789-1.163-2.607-1.761
		l-15.965-11.605l-15.96,11.605c-13.324,9.667-36.908,15.444-63.091,15.444c-21.171,0-41.332-3.653-56.823-10.293l-28.657-12.298
		l-8.208,30.061c-7.477,27.261-11.906,54.441-13.309,81.212c-2.199,41.651,2.891,82.352,15.215,120.884
		c4.002,12.434,8.71,24.656,14.181,36.605c11.144,24.331,25.138,46.783,41.439,66.954c0.436,0.543,0.873,1.12,1.31,1.668
		c1.502,1.808,3.049,3.54,4.563,5.312c1.362,1.594,2.692,3.23,4.072,4.782c26.52,29.611,58.355,53.508,93.854,69.943l11.414,5.303
		l11.424-5.29c7.873-3.648,15.584-7.677,23.077-12.042c0.444-0.255,0.849-0.53,1.272-0.779c7.056-4.17,13.966-8.603,20.645-13.362
		c0.938-0.666,1.831-1.372,2.752-2.051c2.592-1.896,5.2-3.787,7.729-5.771c1.268-1,2.496-2.069,3.772-3.092
		c2.115-1.724,4.282-3.425,6.358-5.214c0.248-0.191,0.452-0.405,0.664-0.59C636.026,490.602,663.098,454.579,682.079,413.216z
		 M532.282,552.022l-6.846,3.179l-6.84-3.189c-60.764-28.128-110.437-79.033-139.941-143.322
		c-32.301-70.454-37.649-150.425-15.508-231.308l4.939-18.047l17.205,7.381c16.806,7.208,38.483,11.182,61.095,11.182
		c28.819,0,54.158-6.39,69.481-17.54l9.569-6.948l9.575,6.948c15.327,11.15,40.648,17.54,69.513,17.54
		c22.565,0,44.289-3.975,61.048-11.182l17.192-7.381l4.954,18.047c22.169,80.883,16.806,160.854-15.496,231.308
		C642.718,472.979,593.046,523.884,532.282,552.022z"/>
	<path fill="#FFFFFF" d="M687.717,177.382l-4.954-18.047l-17.192,7.381c-16.759,7.208-38.483,11.182-61.048,11.182
		c-28.865,0-54.186-6.39-69.513-17.54l-9.575-6.948l-9.569,6.948c-15.323,11.15-40.662,17.54-69.481,17.54
		c-22.612,0-44.289-3.975-61.095-11.182l-17.205-7.381l-4.939,18.047c-22.141,80.883-16.793,160.854,15.508,231.308
		c29.503,64.29,79.177,115.194,139.941,143.322l6.84,3.189l6.846-3.179c60.764-28.138,110.436-79.043,139.939-143.332
		C704.523,338.235,709.886,258.265,687.717,177.382z M606.858,485.644c-0.2,0.195-0.395,0.408-0.577,0.603
		c-0.06,0.051-0.093,0.117-0.153,0.168c-22.774,23.303-49.264,42.265-78.4,55.753l-2.292,1.064l-2.282-1.064
		c-10.407-4.82-20.45-10.359-30.121-16.522c-26.384-16.77-49.832-38.343-69.459-63.659c-13.659-17.591-25.469-36.953-35.043-57.831
		c-4.89-10.656-9.132-21.537-12.748-32.621c-11.787-36.172-16.713-74.436-14.752-113.676c1.269-25.567,5.446-51.533,12.6-77.615
		l1.668-6.008l5.721,2.458c18.097,7.776,41.312,12.052,65.365,12.052c31.072,0,58.731-7.139,75.862-19.595l3.188-2.33l3.194,2.33
		c10.787,7.849,25.785,13.579,43.154,16.758c2.723,0.498,5.544,0.921,8.388,1.288c0.573,0.085,1.185,0.176,1.772,0.237
		c2.77,0.339,5.59,0.59,8.434,0.79c4.62,0.344,9.333,0.522,14.147,0.522c24.021,0,47.221-4.276,65.333-12.052l5.726-2.458
		l1.668,6.013c21.477,78.391,16.327,155.816-14.905,223.908C648.277,434.869,629.394,462.387,606.858,485.644z"/>
	<path fill="#EA2227" d="M719.139,168.778l-14.83-54.13l-51.562,22.137c-12.846,5.507-29.971,8.533-48.224,8.533
		c-21.142,0-40.917-4.435-50.355-11.299l-28.733-20.872l-28.727,20.872c-9.434,6.864-29.211,11.299-50.323,11.299
		c-18.279,0-35.41-3.026-48.257-8.533l-51.56-22.137l-14.798,54.116c-24.232,88.353-18.251,176.015,17.294,253.491
		c32.71,71.346,88.048,127.925,155.839,159.315l20.533,9.524l20.539-9.51c67.776-31.394,123.129-87.97,155.839-159.325
		C737.359,344.779,743.339,257.125,719.139,168.778z M691.955,417.743c-31.636,68.993-85.117,123.681-150.555,153.98l-15.965,7.407
		l-15.987-7.407c-65.429-30.299-118.886-84.996-150.527-153.99c-34.467-75.134-40.24-160.236-16.704-246.091l11.513-42.093
		l40.132,17.22c14.143,6.065,32.793,9.406,52.523,9.406c23.627,0,45.34-5.126,56.732-13.376l22.318-16.233l22.356,16.244
		c11.326,8.241,33.077,13.366,56.732,13.366c19.688,0,38.349-3.341,52.491-9.406l40.132-17.22l11.526,42.107
		C732.194,257.497,726.423,342.599,691.955,417.743z"/>
	<path fill="#FFFFFF" d="M708.673,171.656l-11.526-42.107l-40.132,17.22c-14.143,6.065-32.803,9.406-52.491,9.406
		c-23.655,0-45.406-5.126-56.732-13.366l-22.356-16.244l-22.318,16.233c-11.392,8.251-33.105,13.376-56.732,13.376
		c-19.73,0-38.381-3.341-52.523-9.406l-40.132-17.22l-11.513,42.093c-23.536,85.855-17.763,170.958,16.704,246.091
		c31.641,68.994,85.098,123.691,150.527,153.99l15.987,7.407l15.965-7.407c65.438-30.299,118.918-84.987,150.555-153.98
		C726.423,342.599,732.194,257.497,708.673,171.656z M682.079,413.221c-18.981,41.369-46.053,77.382-78.95,105.756
		c-0.213,0.185-0.417,0.399-0.664,0.59c-2.076,1.789-4.243,3.491-6.358,5.214c-1.276,1.023-2.505,2.092-3.772,3.092
		c-2.529,1.984-5.137,3.875-7.729,5.771c-0.921,0.679-1.814,1.386-2.752,2.051c-6.679,4.758-13.589,9.192-20.645,13.362
		c-0.422,0.249-0.828,0.524-1.272,0.779c-7.493,4.365-15.203,8.393-23.077,12.042l-11.424,5.29l0,0l0,0l-11.414-5.303
		c-35.475-16.424-67.335-40.331-93.854-69.943c-1.38-1.552-2.71-3.188-4.072-4.782c-1.514-1.772-3.076-3.504-4.563-5.312
		c-0.437-0.548-0.874-1.125-1.31-1.668c-16.3-20.172-30.294-42.62-41.439-66.944c-5.471-11.959-10.178-24.174-14.181-36.615
		c-12.324-38.532-17.414-79.232-15.215-120.884c1.403-26.772,5.832-53.951,13.309-81.212l8.208-30.061l28.657,12.298
		c15.49,6.641,35.652,10.293,56.823,10.293c26.183,0,49.767-5.777,63.091-15.444l15.96-11.605l15.965,11.605
		c0.817,0.599,1.696,1.189,2.607,1.761c13.66,8.612,35.936,13.682,60.516,13.682c21.143,0,41.3-3.653,56.767-10.293l28.648-12.298
		l8.258,30.079C721.017,257.883,715.472,340.419,682.079,413.221z"/>
	<g>
		<path fill="#EA2227" d="M477.849,268.466c-12.413,7.231-18.608,11.284-18.608,12.171c0,0.13,1.259,1.594,3.801,4.369
			c8.603,9.253,14.054,15.211,16.332,17.87c0.497,0.507,0.753,1.023,0.753,1.528c0,0.242-0.256,0.749-0.753,1.515
			c-2.152,2.538-6.651,7.162-13.483,13.883c-4.452,4.307-6.651,7.162-6.651,8.565c0,1.641,4.667,6.45,14.041,14.436
			c8.254,7.106,13.054,11.066,14.449,11.887c1.39,0.829,2.333,1.428,2.844,1.804c1.655,1.144,2.483,1.971,2.483,2.468
			l-21.277,17.112l-53.973-43.914c-0.622-0.628-0.938-1.335-0.938-2.082c0-0.897,0.316-1.655,0.938-2.301
			c5.828-5.061,11.522-10.225,17.099-15.482c5.586-5.261,8.376-8.277,8.376-9.045c0-0.497-2.729-3.922-8.166-10.257
			c-0.906-1.013-6.66-7.608-17.309-19.771c-0.497-0.516-0.743-1.074-0.743-1.71c0-0.637,0.246-1.142,0.743-1.524
			c12.68-7.352,25.335-14.705,38.013-22.054c14.3-8.243,21.913-12.362,22.787-12.362c4.183,4.694,7.232,8.181,9.123,10.458
			c5.936,6.976,8.938,10.843,8.938,11.596C488.181,262.446,481.916,266.062,477.849,268.466z"/>
		<path fill="#EA2227" d="M574.943,309.322c-4.694,4.431-13.888,12.865-27.547,25.284c-10.011,9.118-15.021,13.863-15.021,14.245
			v21.671c0,0.377-4.499,1.335-13.483,2.845c-2.918,0.511-7.419,1.273-13.487,2.282v-124.68c1.134-1.014,3.782-2.311,7.933-3.89
			c4.168-1.591,8.965-3.079,14.389-4.467c0.618-0.13,1.492-0.382,2.649-0.766c0.511-0.121,0.934-0.191,1.335-0.191
			c0.994,0,1.872,0.316,2.636,0.957c8.57,6.967,17.14,13.878,25.714,20.709c9.469,7.734,16.523,13.809,21.203,18.251
			c5.781,5.577,8.691,9.569,8.691,11.967C589.954,294.687,584.958,299.944,574.943,309.322z M544.551,283.31
			c-5.209-4.814-8.421-7.213-9.708-7.213h-1.697v33.436h2.073c3.82-3.165,6.666-5.512,8.561-7.023
			c5.707-4.811,8.557-7.914,8.557-9.319C552.337,291.416,549.748,288.129,544.551,283.31z"/>
		<path fill="#EA2227" d="M599.254,376.644V244.12l27.171-4.935v131.959L599.254,376.644z"/>
	</g>
	<path fill-rule="evenodd" clip-rule="evenodd" fill="#EA2227" d="M525.436,423.566c-71.238,0-139.266,13.765-201.571,38.727
		l54.624,54.652c46.266-15.119,95.637-23.336,146.947-23.336c51.301,0,100.7,8.217,146.967,23.336l54.642-54.652
		C664.706,437.332,596.675,423.566,525.436,423.566"/>
	<path fill="#FFFFFF" d="M387.485,486.634l-4.508,1.19l-12.498-20.115l4.62-1.218l7.432,13.274c0.728,1.286,1.473,2.969,1.473,2.969
		l0.06-0.015c0,0-0.2-1.827-0.2-3.309l-0.047-15.202l4.62-1.218L387.485,486.634z"/>
	<path fill="#FFFFFF" d="M407.192,473.588l-10.244,3.843c0.911,2.334,2.956,3.114,5.363,2.561c1.636-0.376,3.332-1.205,4.337-2.082
		l1.9,2.84c-1.203,1.008-3.402,2.04-5.783,2.583c-5.44,1.25-9.118-1.636-10.266-6.696c-1.152-5.034,0.846-9.212,5.652-10.323
		c4.535-1.032,7.752,1.37,8.78,5.855C407.038,472.622,407.145,473.081,407.192,473.588z M398.756,469.348
		c-2.167,0.498-3.332,2.446-2.682,5.532l6.66-2.528C402.158,469.884,400.679,468.913,398.756,469.348z"/>
	<path fill="#FFFFFF" d="M417.485,465.994c-0.558-0.047-1.24,0-1.938,0.13c-0.743,0.153-1.511,0.446-1.995,0.758l2.659,13.18
		l-4.177,0.842l-3.166-15.7c1.594-1.008,3.835-2.012,6.53-2.542c0.846-0.176,1.604-0.259,2.165-0.283L417.485,465.994z"/>
	<path fill="#FFFFFF" d="M422.037,459.07c-1.335,0.245-2.576-0.573-2.809-1.842c-0.227-1.263,0.656-2.439,1.971-2.676
		c1.32-0.246,2.589,0.549,2.812,1.798C424.244,457.614,423.36,458.832,422.037,459.07z M423.453,478.654l-3.026-16.56l4.174-0.771
		l3.035,16.569L423.453,478.654z"/>
	<path fill="#FFFFFF" d="M437.233,476.525c-3.207,0.53-4.996-0.985-5.567-4.471l-1.394-8.496l-2.124,0.357l-0.511-3.146l2.12-0.353
		l-0.605-3.701l3.937-1.868l0.813,4.903l3.109-0.519l0.53,3.146l-3.132,0.52l1.348,8.198c0.208,1.352,1.12,1.687,2.207,1.515
		c0.428-0.079,0.911-0.284,1.171-0.452l0.554,3.486C439.232,475.976,438.262,476.358,437.233,476.525z"/>
	<path fill="#FFFFFF" d="M449.592,474.815c-5.025,0.688-7.814-0.953-8.27-4.355c-0.631-4.559,3.983-6.112,8.998-7.078l-0.121-0.864
		c-0.24-1.743-1.528-2.222-3.452-1.963c-1.59,0.22-3.44,0.985-4.541,1.632l-1.456-2.7c1.329-0.781,3.616-1.729,6.042-2.059
		c4.253-0.592,6.893,0.752,7.496,5.032l1.409,10.286C454.531,473.565,452.106,474.475,449.592,474.815z M450.716,466.077
		c-3.09,0.576-5.791,1.231-5.436,3.746c0.227,1.571,1.588,2.301,3.769,2.008c0.911-0.13,1.938-0.437,2.35-0.673L450.716,466.077z"/>
	<path fill="#FFFFFF" d="M463.86,473.049c-2.073,0.223-4.206-0.106-5.541-0.618l1.014-3.379c0.892,0.436,2.835,0.785,4.043,0.65
		c1.511-0.162,2.421-0.981,2.315-2.105c-0.131-1.236-1.288-1.649-2.831-2.018c-2.213-0.533-4.968-1.244-5.346-4.535
		c-0.321-2.946,1.71-5.182,5.619-5.605c2.152-0.246,3.937,0.098,5.284,0.632l-0.981,3.044c-0.758-0.361-2.305-0.72-3.425-0.603
		c-1.515,0.157-2.306,1.008-2.18,1.989c0.135,1.282,1.269,1.664,2.802,2.031c2.283,0.558,5.104,1.203,5.452,4.588
		C470.431,470.256,468.326,472.557,463.86,473.049z"/>
	<path fill="#FFFFFF" d="M495.073,461.956l-10.722,2.161c0.53,2.445,2.421,3.542,4.89,3.379c1.668-0.093,3.453-0.65,4.605-1.362
		l1.428,3.109c-1.368,0.804-3.696,1.456-6.122,1.617c-5.544,0.358-8.723-3.067-9.058-8.235c-0.344-5.159,2.319-8.956,7.209-9.276
		c4.665-0.293,7.435,2.589,7.738,7.171C495.073,460.984,495.119,461.449,495.073,461.956z M487.424,456.443
		c-2.213,0.144-3.663,1.869-3.546,5.015l7.004-1.422C490.728,457.512,489.393,456.303,487.424,456.443z"/>
	<path fill="#FFFFFF" d="M504.453,469.978c-3.245,0.115-4.853-1.6-5-5.131l-0.335-8.589l-2.153,0.092l-0.134-3.188l2.167-0.083
		l-0.149-3.746l4.132-1.386l0.195,4.964l3.154-0.125l0.131,3.179l-3.165,0.13l0.334,8.305c0.061,1.381,0.93,1.81,2.016,1.772
		c0.437-0.023,0.94-0.163,1.195-0.297l0.153,3.521C506.497,469.67,505.48,469.931,504.453,469.978z"/>
	<path fill="#FFFFFF" d="M517.685,469.41l-0.178-24.544l4.235-0.028l0.213,24.548L517.685,469.41z"/>
	<path fill="#FFFFFF" d="M532.736,469.832c-4.629-0.079-7.055-1.993-6.98-6.367l0.168-10.977l4.253,0.06l-0.168,11.071
		c-0.023,1.807,0.911,2.676,2.789,2.704c1.106,0.013,2.018-0.153,2.481-0.329l0.214-13.353l4.244,0.07l-0.246,16.01
		C538.008,469.41,535.372,469.87,532.736,469.832z"/>
	<path fill="#FFFFFF" d="M550.881,470.422c-5.433-0.268-8.254-3.623-7.997-9.086c0.24-5.177,3.118-8.551,8.299-8.305
		c0.879,0.047,1.85,0.246,2.381,0.459l0.382-7.876l4.266,0.208l-1.125,23.68C555.822,470.093,553.424,470.534,550.881,470.422z
		 M553.411,456.68c-0.35-0.185-1.195-0.377-1.952-0.409c-2.668-0.134-4.165,2.016-4.318,5.21c-0.168,3.402,1.18,5.467,3.803,5.586
		c0.758,0.038,1.617-0.079,1.97-0.246L553.411,456.68z"/>
	<path fill="#FFFFFF" d="M560.786,470.614l1.18-16.816l4.243,0.297l-1.185,16.816L560.786,470.614z M564.271,451.27
		c-1.333-0.098-2.365-1.195-2.271-2.472c0.087-1.288,1.254-2.209,2.602-2.115c1.333,0.093,2.365,1.171,2.273,2.455
		C566.786,450.411,565.629,451.372,564.271,451.27z"/>
	<path fill="#FFFFFF" d="M575.747,472.198c-4.871-0.46-7.238-4.48-6.754-9.491c0.465-5.01,3.514-8.481,8.404-8.022
		c4.894,0.462,7.245,4.444,6.772,9.463C583.685,469.159,580.627,472.663,575.747,472.198z M577.08,458.019
		c-2.222-0.219-3.546,1.7-3.875,5.057c-0.307,3.364,0.637,5.455,2.88,5.669c2.236,0.204,3.542-1.678,3.858-5.025
		C580.259,460.356,579.326,458.233,577.08,458.019z"/>
	<path fill="#FFFFFF" d="M600.62,474.949c-0.897-0.13-1.863-0.459-2.366-0.72l-0.938,6.846l-4.243-0.609l3.197-22.475
		c1.348-0.479,3.774-0.707,6.288-0.354c5.354,0.766,7.846,4.401,7.084,9.82C608.916,472.597,605.724,475.67,600.62,474.949z
		 M602.144,460.923c-0.766-0.102-1.603-0.055-2.008,0.07l-1.416,10.081c0.32,0.205,1.202,0.492,1.928,0.59
		c2.631,0.382,4.313-1.654,4.754-4.809C605.892,463.475,604.733,461.299,602.144,460.923z"/>
	<path fill="#FFFFFF" d="M618.11,477.892c-4.996-0.874-7.162-3.272-6.558-6.666c0.79-4.535,5.66-4.595,10.717-4.005l0.153-0.86
		c0.307-1.729-0.785-2.589-2.695-2.92c-1.571-0.274-3.57-0.106-4.828,0.172l-0.558-3.006c1.501-0.345,3.969-0.549,6.357-0.146
		c4.272,0.745,6.345,2.827,5.601,7.079l-1.751,10.225C623.212,478.198,620.605,478.319,618.11,477.892z M621.805,469.893
		c-3.105-0.367-5.861-0.567-6.284,1.929c-0.306,1.566,0.804,2.672,2.979,3.058c0.896,0.153,1.957,0.185,2.439,0.079L621.805,469.893
		z"/>
	<path fill="#FFFFFF" d="M638.768,467.671c-0.469-0.246-1.138-0.474-1.817-0.613c-0.758-0.153-1.59-0.191-2.171-0.085l-2.634,13.187
		l-4.165-0.842l3.166-15.699c1.849-0.322,4.302-0.358,6.97,0.175c0.879,0.163,1.585,0.377,2.12,0.577L638.768,467.671z"/>
	<path fill="#FFFFFF" d="M644.996,483.162c-3.157-0.707-4.276-2.784-3.505-6.227l1.865-8.398l-2.107-0.475l0.685-3.109l2.118,0.474
		l0.813-3.666l4.35-0.27l-1.078,4.841l3.077,0.688l-0.679,3.111l-3.09-0.689l-1.804,8.13c-0.316,1.337,0.409,1.974,1.502,2.216
		c0.417,0.089,0.938,0.085,1.222,0.025l-0.772,3.453C647.078,483.395,646.005,483.385,644.996,483.162z"/>
	<path fill="#FFFFFF" d="M650.476,484.189l3.964-16.388l4.145,1.004l-3.982,16.383L650.476,484.189z M657.153,465.683
		c-1.319-0.316-2.137-1.581-1.83-2.821c0.297-1.241,1.598-1.963,2.904-1.646c1.301,0.312,2.153,1.544,1.831,2.793
		C659.742,465.26,658.456,466.003,657.153,465.683z"/>
	<path fill="#FFFFFF" d="M662.588,487.605c-2.027-0.539-3.909-1.613-4.968-2.57l2.184-2.802c0.664,0.739,2.328,1.76,3.508,2.067
		c1.488,0.395,2.636-0.047,2.943-1.135c0.302-1.212-0.605-2.003-1.925-2.899c-1.869-1.297-4.212-2.965-3.36-6.167
		c0.771-2.867,3.453-4.23,7.254-3.216c2.086,0.543,3.631,1.515,4.722,2.505l-2.027,2.477c-0.576-0.609-1.895-1.496-2.988-1.789
		c-1.441-0.382-2.496,0.108-2.742,1.087c-0.329,1.233,0.609,1.999,1.897,2.882c1.923,1.367,4.332,2.956,3.453,6.256
		C669.74,487.364,666.938,488.758,662.588,487.605z"/>
</g>
</svg>
