<?xml version="1.0" encoding="utf-8"?>
<!-- Generator: Adobe Illustrator 17.0.0, SVG Export Plug-In . SVG Version: 6.00 Build 0)  -->
<!DOCTYPE svg PUBLIC "-//W3C//DTD SVG 1.1//EN" "http://www.w3.org/Graphics/SVG/1.1/DTD/svg11.dtd">
<svg version="1.1" id="Layer_1" xmlns="http://www.w3.org/2000/svg" xmlns:xlink="http://www.w3.org/1999/xlink" x="0px" y="0px"
	 width="1050px" height="700px" viewBox="0 0 1050 700" enable-background="new 0 0 1050 700" xml:space="preserve">
<rect fill="#FFFFFF" width="1050" height="700"/>
<g>
	<path fill="#FFFFFF" d="M819.582,210.184L762.864,54.099c-135.42,72.546-238.303,0.879-238.303,0.879S414.643,134.999,286.697,51.9
		l-56.278,158.283c80.021,37.812,50.123,160.701,50.123,160.701s-50.416,136.227,66.83,184.004c0,0,153.007,47.924,177.216,93.211
		c24.594-45.286,172.764-91.452,172.764-91.452C823.099,506.084,767.7,365.389,767.7,365.389S739.121,247.116,819.582,210.184z"/>
	<path fill="#00B4EB" d="M759.786,198.748H289.555c0,0,35.885,28.781,40.01,104.897h127.411
		c15.673-20.769,40.555-34.198,68.577-34.198c28.026,0,52.907,13.43,68.579,34.198h125.496
		C723.753,227.529,759.786,198.748,759.786,198.748z"/>
	<g>
		<path fill="#F6921E" d="M479.065,404.393c1.693-1.955,6.247-6.949,5.355-23.069c-15.457-3.596-25.862-11.016-26.413-19.088
			l0.168,1.508C460.013,379.895,467.809,394.149,479.065,404.393z"/>
		<path fill="#F6921E" d="M552.583,381.1c24.213-4.709,41.25-15.584,42.796-26.047c0.196,16.343-5.747,31.485-15.773,43.102
			C573.704,398.814,554.946,403.633,552.583,381.1c-0.004-0.041-0.192-0.852-0.199-0.9L552.583,381.1z"/>
		<path fill="#F6921E" d="M484.089,374.405c-15.043-3.48-25.008-8.419-26.114-16.172c-0.034-0.244-0.058-0.488-0.079-0.735
			c-1.225-17.809,4.991-34.57,15.827-47.067C476.552,306.21,482.311,349.024,484.089,374.405z"/>
		<path fill="#F6921E" d="M553.149,373.272c0-0.048,0-0.103-0.007-0.158c-1.518-23.43,15.419-64.518,20.606-66.888l0.007,0.052
			c11.483,10.324,19.236,25.063,20.379,41.693c0.041,0.57,0.079,1.261,0.096,1.821C593.009,359.81,576.308,368.755,553.149,373.272z
			"/>
		<path fill="#F6921E" d="M547.252,374.728c-5.592,1.017-10.878,1.669-17.034,2.095c-3.672,0.247-7.268,0.594-10.796,0.604
			c-1.103-7.619-2.387-15.55-2.992-24.374c-2.453-35.731,0.986-65.062,7.519-65.512c17.724-1.141,34.168,4.96,46.605,15.766
			C565.721,305.086,545.514,349.447,547.252,374.728z"/>
		<path fill="#F6921E" d="M577.325,400.525c-10.858,12.352-26.463,20.689-44.163,21.943c-0.055,0.007,0.055,0,0,0l-0.014-0.01
			c-4.809,0.33-9.491-14.75-12.888-37.166c3.473-0.021,6.65-0.481,10.267-0.728c6.131-0.416,11.926-0.866,17.511-1.875l0.103-0.017
			C550.628,406.289,572.498,400.854,577.325,400.525"/>
		<path fill="#F6921E" d="M513.891,377.579c-1.099-7.598-1.724-15.633-2.326-24.412c-2.452-35.743,0.859-65.073,7.399-65.522
			c-17.017,1.391-31.644,9.171-42.325,20.926c2.848-4.247,11.435,66.371,11.442,66.412l-0.01-0.014
			C495.771,376.597,504.349,377.514,513.891,377.579z"/>
		<path fill="#F6921E" d="M514.98,385.304c3.397,22.472,8.642,37.568,13.472,37.235c-17.439,0.886-33.751-5.304-45.995-15.969
			c1.716-1.948,7.071-7.832,6.276-24.251C496.492,383.975,505.328,385.25,514.98,385.304z"/>
	</g>
	<g>
		<path fill="#00B4EB" d="M301.973,175.248l-3.72,11.237H286.46l19.706-59.356h16.778l20.102,59.356h-11.554l-3.878-11.237H301.973z
			 M314.873,135.835h-0.158l-10.131,30.786h20.498L314.873,135.835z"/>
		<path fill="#00B4EB" d="M359.033,166.858v19.627h-11.396v-59.356h30.311c12.979,0.316,17.965,4.352,17.965,17.807
			c0,8.785-0.475,15.195-10.526,16.699v0.316c8.072,0.713,10.051,5.065,10.051,13.455v11.079h-11.396v-11.079
			c0-4.986-2.057-8.469-7.518-8.548H359.033z M374.07,157.123c8.389,0,10.446-1.661,10.446-10.367c0-8.39-1.504-9.893-9.655-9.893
			h-15.828v20.259h15.037V157.123z"/>
		<path fill="#00B4EB" d="M454.319,154.987v10.763c0,17.57-4.432,21.209-25.563,21.209c-18.994,0-26.117-3.323-26.117-23.425
			v-13.613c0-19.785,7.756-23.268,26.117-23.268c14.483,0,25.88-0.711,25.484,18.362h-11.317c0-8.706-4.274-8.627-14.167-8.627
			c-13.296,0-14.562,2.058-14.72,13.534v13.613c0.158,12.424,2.057,13.692,14.72,13.692c10.842,0,14.167-0.239,14.167-11.476v-2.137
			h-14.958v-8.627H454.319z"/>
		<path fill="#00B4EB" d="M473.312,151.663h27.778v9.338h-27.778v15.749h29.519v9.735h-40.915v-59.356h40.678v9.735h-29.282V151.663
			z"/>
		<path fill="#00B4EB" d="M555.303,127.129h11.394v59.356h-18.913l-25.247-49.621h-0.395l0.948,49.621h-11.394v-59.356h18.834
			l25.405,49.621h0.316L555.303,127.129z"/>
		<path fill="#00B4EB" d="M600.888,186.485h-11.397v-49.621h-17.412v-9.735h46.217v9.735h-17.408V186.485z"/>
		<path fill="#00B4EB" d="M634.997,186.485H623.6v-59.356h11.397L634.997,186.485L634.997,186.485z"/>
		<path fill="#00B4EB" d="M689.05,127.129h11.394v59.356h-18.913l-25.247-49.621h-0.395l0.948,49.621h-11.394v-59.356h18.834
			l25.405,49.621h0.316L689.05,127.129z"/>
		<path fill="#00B4EB" d="M720.944,175.248l-3.72,11.237h-11.792l19.706-59.356h16.776l20.101,59.356h-11.552l-3.878-11.237H720.944
			z M733.842,135.835h-0.158l-10.13,30.786h20.496L733.842,135.835z"/>
	</g>
	<path fill="#00B4EB" d="M798.917,202.489L753.63,77.402c-125.304,60.089-229.043-2.638-229.043-2.638
		s-106.365,69.845-229.098,2.198l-45.067,125.967c78.482,53.42,47.265,167.955,47.265,167.955s-49.098,125.968,57.817,169.934
		c0,0,135.681,38.88,169.082,81.56c37.345-44.333,169.247-81.56,169.247-81.56c106.107-43.674,57.817-171.913,57.817-171.913
		S720.803,245.651,798.917,202.489z M742.786,371.692c0,0,44.259,116.706-50.781,159.162c0,0-131.267,36.23-167.392,76.189
		c-37.024-37.024-167.39-76.484-167.39-76.484c-94.855-38.104-49.423-157.11-49.423-157.11s30.778-114.022-44.846-174.701
		l38.691-106.983c118.619,59.796,222.942-4.982,222.942-4.982s99.013,57.158,222.793,4.982l38.837,106.983
		C710.103,251.513,742.786,371.692,742.786,371.692z"/>
	<path fill="#00B4EB" d="M525.553,441.181c-27.828,0-52.551-13.249-68.241-33.772H315.715
		c-6.221,39.165-3.078,84.167,49.243,107.909c0,0,118.511,35.413,159.655,70.348c40.654-35.432,158.669-70.348,158.669-70.348
		c52.927-20.85,56.052-68.744,49.831-107.909H593.797C578.108,427.932,553.383,441.181,525.553,441.181z"/>
	<g>
		<path fill="#FFFFFF" d="M392.148,476.875c0-12.83,4.349-18.997,18.088-18.997h26.291c12.479,0,15.914,5.819,15.914,12.617v4.35
			h-6.03v-2.315c0-8.623-5.328-9.043-11.638-9.043h-23.837c-6.59,0-11.918,1.961-11.918,10.794v19.069
			c0,8.833,5.328,10.798,11.918,10.798h24.048c9.252,0,11.918-1.965,11.918-8.836v-3.152h6.449v3.433
			c0,9.187-2.944,14.164-17.175,14.164h-25.941c-13.74,0-18.088-6.171-18.088-19L392.148,476.875L392.148,476.875z"/>
		<path fill="#FFFFFF" d="M488.897,458.438h8.551l30.145,50.757h-7.78l-6.312-10.726h-40.659l-6.31,10.726h-7.782L488.897,458.438z
			 M493.172,464.046l-17.036,28.814h34.073L493.172,464.046z"/>
		<path fill="#FFFFFF" d="M535.377,458.438H578.7c10.518,0,13.463,5.468,13.463,11.289v4.345c0,3.643-2.034,7.363-8.204,7.993v0.278
			c5.4,0.282,10.168,2.315,10.168,10.027v6.03c0,7.079-6.312,10.794-14.722,10.794h-44.028L535.377,458.438L535.377,458.438z
			 M585.294,469.373c0-4.627-5.118-5.328-7.22-5.328h-35.827v16.194h35.473c3.718,0,7.574-1.19,7.574-6.239V469.373z
			 M587.255,493.141c0-6.312-3.505-7.292-9.745-7.292h-35.263v17.738h36.316c6.377,0,8.692-2.312,8.692-6.799V493.141z"/>
		<path fill="#FFFFFF" d="M606.324,458.438h43.323c10.518,0,13.463,5.468,13.463,11.289v4.345c0,3.643-2.034,7.363-8.204,7.993
			v0.278c5.4,0.282,10.168,2.315,10.168,10.027v6.03c0,7.079-6.312,10.794-14.722,10.794h-44.028L606.324,458.438L606.324,458.438z
			 M656.241,469.373c0-4.627-5.118-5.328-7.22-5.328h-35.827v16.194h35.473c3.718,0,7.574-1.19,7.574-6.239V469.373z
			 M658.202,493.141c0-6.312-3.505-7.292-9.745-7.292h-35.263v17.738h36.316c6.377,0,8.692-2.312,8.692-6.799V493.141z"/>
	</g>
</g>
</svg>
