<?xml version="1.0" encoding="utf-8"?>
<!-- Generator: Adobe Illustrator 17.0.0, SVG Export Plug-In . SVG Version: 6.00 Build 0)  -->
<!DOCTYPE svg PUBLIC "-//W3C//DTD SVG 1.1//EN" "http://www.w3.org/Graphics/SVG/1.1/DTD/svg11.dtd">
<svg version="1.1" id="Layer_1" xmlns="http://www.w3.org/2000/svg" xmlns:xlink="http://www.w3.org/1999/xlink" x="0px" y="0px"
	 width="1050px" height="700px" viewBox="0 0 1050 700" enable-background="new 0 0 1050 700" xml:space="preserve">
<rect x="-1" y="1" fill="#FFFFFF" width="1050" height="700"/>
<g>
	<path d="M217.273,297.126l4.253-4.25c0-0.003-0.006-0.006-0.006-0.006c-31.545-31.552-82.699-31.552-114.252,0
		c-31.552,31.552-31.552,82.703,0,114.255c31.552,31.552,82.706,31.552,114.252,0l0.006-0.003l-4.253-4.25
		C246.419,373.719,246.419,326.281,217.273,297.126z"/>
	<path fill="#A04A9B" d="M230.301,284.097l-4.349,4.343l-4.337,4.343v0.003l-0.09,0.09c31.545,31.552,31.545,82.697,0,114.246
		l0.09,0.09v0.003l4.337,4.34l4.349,4.346C266.628,379.565,266.628,320.435,230.301,284.097z"/>
	<path fill="#FFFFFF" d="M221.526,292.876l-4.253,4.25c29.146,29.155,29.146,76.594,0,105.746l4.253,4.25
		C253.071,375.573,253.071,324.427,221.526,292.876z"/>
	<path fill="#0071BB" d="M250.816,436.42l-8.686-8.685c20.761-20.764,32.2-48.371,32.2-77.733c0-29.366-11.439-56.973-32.2-77.737
		l8.686-8.685c23.082,23.082,35.798,53.775,35.798,86.422C286.615,382.644,273.898,413.339,250.816,436.42z"/>
	<path fill="#E91C24" d="M209.367,394.971l-8.686-8.686c9.694-9.693,15.032-22.581,15.032-36.287
		c0-13.707-5.338-26.591-15.032-36.284l8.686-8.686c12.009,12.012,18.631,27.983,18.631,44.97S221.376,382.96,209.367,394.971z"/>
	<path fill="#FFED00" d="M189.057,374.655l-8.686-8.686c8.806-8.806,8.806-23.133,0-31.942l8.686-8.686
		C202.649,338.94,202.649,361.063,189.057,374.655z"/>
	<g>
		<path fill="#FFFFFF" d="M164.379,403.423l-37.952-31.161h-25.343v-44.526h25.367l37.946-31.162L164.379,403.423z"/>
	</g>
	<g>
		<g>
			<path fill="#231F20" d="M695.742,278.111v54.558h-9.981v-54.558H695.742z"/>
			<path fill="#231F20" d="M677.284,314.062c0-0.846-0.036-1.832-0.114-2.957s-0.258-2.351-0.54-3.683
				c-0.276-1.329-0.684-2.672-1.223-4.028c-0.54-1.356-1.266-2.66-2.19-3.911c-0.918-1.257-2.069-2.394-3.455-3.419
				c-1.02-0.714-2.046-1.278-3.065-1.689c-1.026-0.408-1.974-0.701-2.844-0.881c-0.863-0.177-1.674-0.291-2.411-0.345
				c-0.744-0.051-1.343-0.075-1.805-0.075c-3.071,0-5.771,0.549-8.098,1.65c-2.327,1.101-4.283,2.597-5.872,4.489
				c-1.584,1.889-2.784,4.103-3.599,6.634c-0.822,2.534-1.236,5.234-1.236,8.098c0,2.099,0.192,3.977,0.576,5.641
				c0.39,1.661,0.888,3.119,1.499,4.37c0.612,1.257,1.29,2.331,2.034,3.225c0.744,0.896,1.445,1.649,2.111,2.264
				c1.122,1.026,2.352,1.83,3.684,2.418c1.332,0.59,2.597,1.023,3.796,1.305c1.2,0.282,2.279,0.462,3.221,0.537
				c0.948,0.075,1.65,0.117,2.112,0.117c2.813,0,5.117-0.36,6.904-1.077c1.793-0.714,3.149-1.43,4.073-2.147
				c1.074-0.819,2.046-1.791,2.915-2.915c0.87-1.125,1.554-2.303,2.069-3.53c0.204-0.51,0.36-0.972,0.462-1.383
				c0.102-0.408,0.18-0.717,0.228-0.921l-8.823-0.384c-0.102,0.153-0.24,0.411-0.42,0.768c-0.18,0.36-0.426,0.744-0.732,1.152
				c-0.564,0.615-1.164,1.089-1.8,1.418c-0.642,0.336-1.26,0.576-1.848,0.732c-0.588,0.15-1.122,0.243-1.607,0.267
				c-0.492,0.027-0.834,0.039-1.037,0.039c-0.918,0-1.902-0.129-2.951-0.384c-1.05-0.255-2.022-0.744-2.915-1.458
				c-0.9-0.717-1.679-1.728-2.345-3.033c-0.66-1.305-1.074-3.005-1.224-5.101h26.471
				C677.284,315.508,677.284,314.904,677.284,314.062z M650.34,309.14c0.378-4.954,3.701-9.159,9.285-9.159
				c5.273,0,9.1,4.079,9.352,9.159H650.34z"/>
			<path fill="#231F20" d="M632.854,330.138c-0.072-0.768-0.144-1.586-0.192-2.456c-0.048-0.87-0.078-1.868-0.078-2.993
				c0-1.125-0.024-2.531-0.078-4.22v-42.358h-9.97v20.178c-0.209-0.255-0.564-0.687-1.079-1.301
				c-0.51-0.615-1.122-1.176-1.842-1.689c-1.025-0.717-2.147-1.241-3.377-1.574c-1.224-0.333-2.477-0.498-3.755-0.498
				c-1.895,0-3.557,0.282-4.991,0.843c-1.433,0.564-2.675,1.242-3.719,2.034c-1.05,0.795-1.919,1.614-2.609,2.456
				c-0.69,0.846-1.193,1.523-1.499,2.033c-1.23,1.994-2.093,4.106-2.609,6.328c-0.51,2.228-0.792,4.493-0.84,6.797
				c0,1.79,0.174,3.578,0.534,5.368c0.354,1.791,0.906,3.491,1.649,5.104c0.744,1.611,1.716,3.095,2.916,4.451
				c1.2,1.356,2.651,2.442,4.336,3.263c0.666,0.354,1.56,0.714,2.687,1.071c1.121,0.357,2.579,0.537,4.373,0.537
				c1.739,0,3.221-0.204,4.451-0.615c1.23-0.408,2.262-0.93,3.107-1.571c0.846-0.639,1.535-1.317,2.075-2.034
				c0.534-0.714,0.983-1.38,1.343-1.994c-0.06,0.306-0.096,0.615-0.12,0.918c-0.024,0.309-0.036,0.591-0.036,0.849
				c0,0.612,0.024,1.11,0.078,1.494c0.048,0.384,0.15,1.088,0.306,2.111h9.286C633.047,331.748,632.932,330.902,632.854,330.138z
				 M613.516,324.529c-6.214,0-9.034-5.306-9.034-10.788c0-5.702,2.201-11.289,8.745-11.289c6.611,0,9.208,5.305,9.208,11.061
				C622.435,318.998,619.958,324.529,613.516,324.529z"/>
		</g>
		<g>
			<path fill="#231F20" d="M737.647,293.035c0.36,1.023,0.588,1.856,0.695,2.495c0.096,0.639,0.15,1.497,0.15,2.57
				c0.15-0.207,0.294-0.396,0.426-0.579c0.126-0.177,0.264-0.345,0.42-0.495c0.252-0.309,0.671-0.741,1.265-1.305
				c0.588-0.564,1.314-1.125,2.183-1.689c0.72-0.411,1.662-0.819,2.844-1.23c1.176-0.408,2.711-0.612,4.6-0.612
				c0.312,0,0.792,0.027,1.464,0.075c0.66,0.051,1.404,0.168,2.219,0.345c0.822,0.18,1.679,0.489,2.573,0.921
				c0.894,0.438,1.751,1.038,2.567,1.806c0.57,0.561,0.99,1.058,1.272,1.496c0.281,0.432,0.623,0.957,1.031,1.572
				c0.462-0.561,1.026-1.203,1.686-1.919c0.672-0.714,1.488-1.392,2.459-2.034c0.972-0.639,2.135-1.176,3.491-1.611
				c1.356-0.432,2.951-0.651,4.799-0.651c0.408,0,1.062,0.039,1.956,0.114c0.894,0.075,1.883,0.282,2.957,0.615
				c1.074,0.333,2.147,0.882,3.222,1.65c1.074,0.768,1.967,1.842,2.687,3.221c0.306,0.666,0.558,1.356,0.762,2.072
				c0.204,0.717,0.348,1.523,0.426,2.417c0.078,0.894,0.126,1.892,0.156,2.993c0.024,1.098,0.036,2.394,0.036,3.875v22.482H775.94
				v-22.329c0-0.717-0.012-1.545-0.036-2.493c-0.03-0.948-0.168-1.754-0.426-2.417c-0.461-1.23-1.229-2.099-2.304-2.609
				c-1.074-0.513-2.225-0.768-3.449-0.768c-0.36,0-0.972,0.051-1.848,0.153c-0.864,0.102-1.74,0.486-2.603,1.152
				c-1.284,0.87-2.051,1.97-2.303,3.299c-0.258,1.332-0.408,2.711-0.462,4.145v21.867h-10.047v-21.487c0-0.663,0-1.391,0-2.186
				c0-0.792-0.072-1.572-0.198-2.34c-0.127-0.768-0.366-1.47-0.726-2.112c-0.36-0.636-0.9-1.187-1.614-1.649
				c-0.714-0.408-1.434-0.651-2.147-0.729c-0.714-0.078-1.206-0.114-1.458-0.114c-0.36,0-0.984,0.063-1.878,0.192
				c-0.9,0.129-1.781,0.498-2.646,1.113c-1.385,0.972-2.189,2.174-2.423,3.605c-0.228,1.433-0.341,2.84-0.341,4.22v21.487h-10.054
				v-29.542c0-1.23-0.018-2.273-0.042-3.146c-0.024-0.87-0.072-1.638-0.15-2.304c-0.078-0.663-0.18-1.278-0.306-1.841
				c-0.132-0.561-0.324-1.149-0.576-1.764H737.647z"/>
			<path fill="#231F20" d="M806.634,293.035v22.023c0.054,1.026,0.102,1.892,0.156,2.609c0.048,0.717,0.15,1.305,0.306,1.763
				c0.252,1.026,0.66,1.818,1.224,2.381c0.564,0.561,1.152,0.972,1.764,1.227c0.618,0.258,1.206,0.423,1.77,0.498
				c0.558,0.078,0.996,0.117,1.301,0.117c1.794,0,3.161-0.348,4.109-1.037c0.941-0.69,1.62-1.317,2.033-1.881
				c0.714-1.023,1.14-2.171,1.266-3.452c0.126-1.278,0.216-2.507,0.27-3.683v-20.565h10.054v26.63c0,1.685,0,3.08,0,4.178
				c0,1.101,0.024,2.076,0.072,2.918c0.054,0.843,0.144,1.625,0.27,2.34c0.126,0.716,0.348,1.56,0.654,2.531h-9.514
				c-0.21-0.561-0.372-1.161-0.504-1.803c-0.126-0.639-0.24-1.521-0.342-2.648c-0.155,0.258-0.426,0.614-0.81,1.074
				c-0.384,0.462-0.852,0.923-1.416,1.385c-0.822,0.663-1.662,1.188-2.531,1.572c-0.876,0.384-1.692,0.663-2.459,0.843
				c-0.768,0.18-1.469,0.297-2.111,0.345c-0.636,0.051-1.11,0.075-1.416,0.075c-2.201-0.048-4.337-0.486-6.406-1.302
				c-2.075-0.819-3.773-2.148-5.104-3.992c-0.618-0.87-1.104-1.776-1.458-2.723c-0.36-0.945-0.618-1.905-0.768-2.876
				c-0.156-0.972-0.258-1.967-0.306-2.993c-0.054-1.023-0.108-2.046-0.156-3.071v-22.482H806.634z"/>
			<path fill="#231F20" d="M850.453,293.035c0.252,0.615,0.444,1.254,0.57,1.917c0.132,0.669,0.246,1.665,0.348,2.993
				c0.258-0.408,0.678-0.933,1.266-1.572c0.588-0.639,1.421-1.316,2.495-2.033c0.66-0.411,1.62-0.87,2.88-1.383
				c1.247-0.51,2.849-0.765,4.792-0.765c1.434,0,2.723,0.165,3.875,0.497c1.152,0.333,2.165,0.744,3.029,1.227
				c0.87,0.486,1.601,1.026,2.189,1.614c0.588,0.588,1.062,1.11,1.422,1.572c0.612,0.873,1.085,1.802,1.415,2.801
				c0.336,0.999,0.564,2.034,0.696,3.107c0.126,1.077,0.192,2.162,0.192,3.261c0,1.103,0,2.138,0,3.11v22.251h-10.054v-21.867
				c-0.053-2.151-0.27-3.785-0.654-4.913c-0.384-1.125-1.038-2.046-1.956-2.762c-1.026-0.717-2.255-1.074-3.689-1.074
				c-0.408,0-1.007,0.063-1.799,0.192c-0.792,0.129-1.626,0.549-2.495,1.266c-0.768,0.612-1.356,1.281-1.764,1.994
				c-0.408,0.717-0.708,1.485-0.881,2.3c-0.18,0.822-0.282,1.665-0.306,2.534c-0.03,0.87-0.042,1.716-0.042,2.531v19.798h-9.975
				v-24.782c0-0.051,0-0.477,0-1.269c0-0.792,0-1.736,0-2.837c0-1.101-0.036-2.252-0.114-3.455c-0.077-1.2-0.192-2.288-0.348-3.26
				c-0.102-0.768-0.228-1.383-0.378-1.841c-0.156-0.462-0.282-0.843-0.384-1.152H850.453z"/>
			<path fill="#231F20" d="M928.258,312.295c0-0.717,0.09-1.869,0.27-3.452c0.18-1.587,0.624-3.326,1.344-5.219
				c1.481-3.683,3.785-6.55,6.904-8.595c3.119-2.046,6.652-3.068,10.593-3.068c1.481,0,2.963,0.168,4.445,0.497
				c1.487,0.333,2.867,0.834,4.145,1.497c1.794,0.87,3.353,1.955,4.679,3.263c1.332,1.302,2.417,2.759,3.263,4.373
				c0.846,1.611,1.47,3.336,1.884,5.177c0.408,1.845,0.612,3.713,0.612,5.605c0,2.711-0.408,5.321-1.23,7.825
				c-0.714,1.946-1.662,3.686-2.837,5.218c-1.176,1.536-2.531,2.838-4.067,3.914c-1.535,1.074-3.233,1.908-5.105,2.493
				c-1.866,0.588-3.821,0.885-5.867,0.885c-1.896,0-3.533-0.207-4.913-0.615c-1.386-0.411-2.381-0.768-2.993-1.073
				c-1.896-0.816-3.527-1.893-4.913-3.225c-1.38-1.329-2.531-2.801-3.449-4.412c-0.924-1.611-1.614-3.362-2.076-5.255
				S928.258,314.29,928.258,312.295z"/>
			<path fill="#231F20" d="M920.31,329.715c-0.077-0.768-0.144-1.587-0.192-2.456c-0.054-0.87-0.078-1.866-0.078-2.993
				c0-1.122-0.03-2.531-0.078-4.22v-42.358h-9.975v20.182c-0.204-0.258-0.564-0.693-1.073-1.305
				c-0.516-0.615-1.128-1.176-1.842-1.688c-1.026-0.717-2.153-1.239-3.377-1.572c-1.23-0.333-2.483-0.501-3.761-0.501
				c-1.89,0-3.557,0.282-4.985,0.846c-1.434,0.561-2.675,1.242-3.725,2.033c-1.05,0.792-1.919,1.611-2.609,2.453
				c-0.69,0.846-1.188,1.524-1.499,2.034c-1.224,1.998-2.094,4.109-2.604,6.332c-0.516,2.225-0.798,4.489-0.846,6.793
				c0,1.79,0.174,3.581,0.534,5.371c0.36,1.791,0.912,3.488,1.656,5.102c0.738,1.611,1.709,3.095,2.915,4.451
				c1.2,1.356,2.645,2.442,4.331,3.263c0.666,0.358,1.559,0.714,2.687,1.074c1.128,0.357,2.585,0.534,4.373,0.534
				c1.74,0,3.227-0.201,4.451-0.615c1.23-0.406,2.261-0.93,3.113-1.572c0.84-0.636,1.529-1.314,2.069-2.033
				c0.534-0.714,0.984-1.38,1.344-1.995c-0.054,0.306-0.09,0.615-0.114,0.921c-0.03,0.309-0.042,0.591-0.042,0.846
				c0,0.615,0.024,1.11,0.078,1.497c0.048,0.384,0.156,1.086,0.306,2.109h9.285C920.496,331.326,920.382,330.482,920.31,329.715z
				 M901.229,324.11c-6.208,0-9.027-5.309-9.027-10.792c0-5.701,2.195-11.289,8.745-11.289c6.604,0,9.208,5.309,9.208,11.064
				C910.155,318.576,907.671,324.11,901.229,324.11z"/>
		</g>
		<g>
			<path fill="#231F20" d="M317.956,294.378c0.354,1.026,0.582,1.857,0.69,2.496c0.102,0.639,0.156,1.496,0.156,2.57
				c0.15-0.204,0.288-0.396,0.42-0.576c0.126-0.18,0.27-0.345,0.419-0.498c0.258-0.309,0.678-0.741,1.266-1.305
				c0.588-0.564,1.32-1.125,2.189-1.688c0.714-0.408,1.662-0.819,2.837-1.227c1.176-0.411,2.712-0.615,4.607-0.615
				c0.307,0,0.793,0.027,1.458,0.078c0.666,0.048,1.409,0.165,2.225,0.345c0.816,0.177,1.673,0.486,2.567,0.918
				c0.893,0.438,1.758,1.037,2.574,1.805c0.564,0.564,0.983,1.062,1.265,1.497c0.282,0.432,0.624,0.959,1.038,1.571
				c0.456-0.561,1.02-1.2,1.686-1.916c0.666-0.717,1.481-1.394,2.453-2.036c0.972-0.639,2.141-1.176,3.497-1.611
				c1.35-0.432,2.951-0.651,4.793-0.651c0.408,0,1.062,0.036,1.956,0.114c0.9,0.078,1.883,0.282,2.957,0.615
				c1.074,0.333,2.147,0.881,3.221,1.649c1.074,0.768,1.967,1.841,2.687,3.224c0.306,0.663,0.564,1.356,0.768,2.072
				s0.342,1.521,0.42,2.415c0.078,0.897,0.132,1.896,0.156,2.993c0.024,1.101,0.036,2.393,0.036,3.875v22.485h-10.053v-22.329
				c0-0.717-0.012-1.55-0.036-2.495c-0.024-0.948-0.168-1.752-0.426-2.418c-0.456-1.23-1.224-2.099-2.297-2.609
				c-1.074-0.51-2.226-0.768-3.455-0.768c-0.36,0-0.972,0.051-1.842,0.153c-0.87,0.105-1.739,0.489-2.609,1.152
				c-1.278,0.873-2.046,1.971-2.304,3.302c-0.258,1.329-0.408,2.711-0.456,4.143v21.87h-10.053v-21.486c0-0.666,0-1.395,0-2.187
				c0-0.792-0.066-1.575-0.192-2.34c-0.132-0.771-0.372-1.472-0.732-2.114c-0.36-0.636-0.894-1.188-1.608-1.647
				c-0.719-0.411-1.434-0.654-2.153-0.732c-0.714-0.075-1.2-0.114-1.458-0.114c-0.36,0-0.984,0.066-1.878,0.192
				c-0.894,0.129-1.776,0.498-2.646,1.112c-1.386,0.972-2.189,2.174-2.417,3.608c-0.234,1.431-0.348,2.838-0.348,4.22v21.486
				h-10.053v-29.545c0-1.227-0.012-2.273-0.036-3.146c-0.03-0.87-0.078-1.634-0.156-2.3c-0.078-0.666-0.18-1.278-0.306-1.842
				c-0.132-0.564-0.324-1.152-0.576-1.766H317.956z"/>
			<path fill="#231F20" d="M427.919,294.378c0.252,1.23,0.419,2.445,0.497,3.647c0.072,1.2,0.114,1.982,0.114,2.339
				s-0.012,0.69-0.042,0.999c-0.024,0.306-0.036,0.639-0.036,0.996c0.408-0.921,0.948-1.866,1.614-2.837
				c0.204-0.36,0.545-0.87,1.037-1.536c0.48-0.666,1.11-1.332,1.878-1.994c0.768-0.666,1.697-1.242,2.801-1.727
				c1.098-0.486,2.364-0.729,3.797-0.729c0.822,0,1.422,0.063,1.805,0.192c0.384,0.126,0.78,0.243,1.188,0.345l-0.078,10.131
				c-0.204-0.204-0.462-0.387-0.762-0.54c-0.366-0.204-1.026-0.483-2.004-0.846c-0.966-0.357-2.045-0.537-3.215-0.537
				c-1.182,0-2.099,0.168-2.765,0.501c-0.666,0.333-1.206,0.677-1.614,1.034c-0.768,0.666-1.368,1.446-1.8,2.343
				c-0.438,0.894-0.768,1.853-1.002,2.876c-0.234,1.023-0.365,2.046-0.419,3.069c-0.054,1.026-0.078,1.998-0.078,2.918v17.956
				h-9.975v-26.783c0-1.736,0-3.131,0-4.181c0-1.05-0.012-1.956-0.036-2.727c-0.03-0.765-0.078-1.506-0.156-2.222
				c-0.078-0.717-0.192-1.61-0.342-2.687H427.919z"/>
			<path fill="#231F20" d="M543.016,294.378c0.258,0.615,0.45,1.254,0.582,1.919c0.126,0.666,0.239,1.665,0.342,2.99
				c0.258-0.408,0.678-0.932,1.266-1.571c0.588-0.639,1.416-1.314,2.495-2.034c0.666-0.408,1.62-0.87,2.88-1.379
				c1.247-0.513,2.849-0.768,4.793-0.768c1.434,0,2.723,0.165,3.875,0.498c1.151,0.333,2.16,0.744,3.029,1.227
				c0.876,0.489,1.601,1.026,2.189,1.614c0.588,0.588,1.062,1.112,1.422,1.574c0.612,0.87,1.085,1.803,1.415,2.798
				c0.336,0.999,0.564,2.033,0.691,3.107c0.126,1.077,0.191,2.163,0.191,3.263c0,1.101,0,2.135,0,3.108v22.254h-10.047v-21.87
				c-0.054-2.151-0.27-3.786-0.654-4.913c-0.384-1.125-1.037-2.045-1.955-2.762c-1.026-0.714-2.256-1.074-3.689-1.074
				c-0.408,0-1.008,0.066-1.8,0.192c-0.792,0.129-1.625,0.549-2.496,1.265c-0.768,0.615-1.356,1.281-1.763,1.998
				c-0.408,0.717-0.702,1.481-0.882,2.298c-0.18,0.821-0.282,1.667-0.306,2.537c-0.03,0.867-0.042,1.713-0.042,2.532v19.797h-9.975
				v-24.786c0-0.051,0-0.474,0-1.265c0-0.795,0-1.739,0-2.84c0-1.101-0.036-2.249-0.114-3.455c-0.078-1.203-0.192-2.289-0.342-3.26
				c-0.108-0.768-0.234-1.38-0.39-1.841c-0.15-0.462-0.276-0.843-0.378-1.152H543.016z"/>
			<path fill="#231F20" d="M408.808,332.21c-0.048-0.156-0.126-0.333-0.228-0.537c-0.306-1.023-0.497-2.214-0.576-3.569
				c-0.078-1.356-0.114-2.597-0.114-3.722v-15.575c0-1.077-0.03-2.162-0.078-3.263c-0.054-1.101-0.18-2.174-0.384-3.224
				c-0.204-1.047-0.534-2.058-0.996-3.033c-0.462-0.969-1.152-1.838-2.076-2.606c-0.918-0.819-1.991-1.431-3.221-1.841
				c-1.223-0.408-2.388-0.717-3.491-0.921c-1.104-0.204-2.07-0.321-2.916-0.348c-0.846-0.021-1.367-0.036-1.571-0.036
				c-0.312,0-1.062,0.027-2.268,0.078c-1.2,0.048-2.567,0.267-4.102,0.651c-1.536,0.384-3.083,0.996-4.643,1.841
				c-1.56,0.843-2.855,2.033-3.875,3.569c-0.666,0.921-1.14,1.892-1.422,2.915c-0.282,1.023-0.473,2.124-0.576,3.299h9.52
				c0.15-0.819,0.378-1.469,0.69-1.955c0.306-0.486,0.647-0.885,1.031-1.191c0.39-0.306,0.786-0.524,1.194-0.65
				c0.408-0.129,0.768-0.243,1.068-0.345c0.414-0.105,0.846-0.18,1.308-0.231c0.462-0.051,0.9-0.078,1.308-0.078
				c1.074,0,2.147,0.192,3.221,0.576c1.074,0.384,1.818,1.14,2.225,2.264c0.15,0.459,0.252,0.957,0.306,1.497
				c0.054,0.537,0.078,1.034,0.078,1.496v0.612c-2.303,0.411-4.745,0.846-7.33,1.305c-2.579,0.461-4.948,1.127-7.096,1.997
				c-0.306,0.102-0.972,0.393-1.998,0.882c-1.02,0.486-1.967,1.113-2.837,1.878c-0.102,0.105-0.36,0.348-0.768,0.729
				c-0.408,0.387-0.768,0.807-1.073,1.269c-1.026,1.379-1.65,2.711-1.884,3.989c-0.228,1.281-0.342,2.225-0.342,2.84
				c0,1.791,0.27,3.221,0.809,4.298c0.534,1.073,1.056,1.892,1.571,2.453c0.198,0.258,0.444,0.54,0.726,0.846
				s0.726,0.666,1.344,1.074c1.326,0.87,2.891,1.485,4.685,1.841c1.787,0.357,3.473,0.537,5.062,0.537
				c2.399,0,4.319-0.36,5.752-1.074c1.427-0.717,2.507-1.431,3.221-2.147c0.36-0.36,0.683-0.756,0.96-1.191
				c0.282-0.432,0.474-0.701,0.576-0.803c-0.054,0.972-0.054,1.712,0,2.222c0.054,0.513,0.204,1.227,0.462,2.151h9.136
				C408.988,332.621,408.862,332.363,408.808,332.21z M399.21,319.983c0,2.954-2.891,7.345-9.915,7.345
				c-3.257,0-6.275-1.257-6.275-4.766c0-3.956,3.017-5.207,6.526-5.84c3.575-0.623,7.588-0.687,9.663-2.195V319.983z"/>
			<path fill="#231F20" d="M526.287,314.29c0-0.843-0.036-1.829-0.114-2.954c-0.078-1.125-0.252-2.354-0.534-3.683
				c-0.282-1.329-0.69-2.673-1.23-4.031c-0.534-1.353-1.265-2.657-2.189-3.911c-0.918-1.254-2.069-2.391-3.449-3.416
				c-1.026-0.714-2.045-1.278-3.071-1.688c-1.026-0.408-1.967-0.702-2.837-0.882c-0.87-0.177-1.68-0.294-2.418-0.345
				c-0.744-0.051-1.343-0.078-1.805-0.078c-3.071,0-5.771,0.552-8.092,1.65c-2.333,1.104-4.289,2.6-5.873,4.493
				c-1.583,1.892-2.789,4.103-3.605,6.634c-0.822,2.534-1.23,5.234-1.23,8.098c0,2.099,0.192,3.976,0.576,5.638
				c0.384,1.665,0.881,3.122,1.499,4.373c0.612,1.257,1.29,2.33,2.028,3.224c0.744,0.897,1.445,1.65,2.111,2.265
				c1.128,1.023,2.351,1.83,3.683,2.417c1.332,0.588,2.598,1.023,3.797,1.305c1.206,0.282,2.279,0.459,3.227,0.537
				c0.941,0.078,1.65,0.114,2.112,0.114c2.813,0,5.111-0.357,6.904-1.074c1.794-0.717,3.149-1.431,4.067-2.147
				c1.074-0.819,2.046-1.791,2.915-2.918c0.87-1.121,1.559-2.3,2.076-3.53c0.198-0.507,0.354-0.969,0.456-1.38
				c0.102-0.408,0.18-0.717,0.234-0.921l-8.824-0.384c-0.108,0.156-0.246,0.411-0.426,0.768c-0.18,0.36-0.419,0.744-0.725,1.152
				c-0.564,0.615-1.164,1.088-1.806,1.418c-0.642,0.336-1.254,0.576-1.842,0.729c-0.588,0.153-1.128,0.243-1.613,0.27
				c-0.486,0.027-0.827,0.039-1.037,0.039c-0.918,0-1.902-0.129-2.951-0.384c-1.05-0.255-2.022-0.744-2.915-1.458
				c-0.894-0.72-1.679-1.728-2.34-3.032c-0.666-1.305-1.074-3.005-1.23-5.104h26.471
				C526.287,315.736,526.287,315.136,526.287,314.29z M499.342,309.371c0.378-4.958,3.701-9.16,9.285-9.16
				c5.279,0,9.106,4.079,9.357,9.16H499.342z"/>
			<path fill="#231F20" d="M485.545,294.378l-12.74,0.231c-0.564-0.102-1.506-0.306-2.837-0.615
				c-1.332-0.306-2.813-0.459-4.451-0.459c-3.227,0-5.795,0.423-7.714,1.266c-1.919,0.846-3.413,1.754-4.487,2.723
				c-0.414,0.36-0.846,0.807-1.308,1.344c-0.456,0.537-0.882,1.203-1.265,1.998c-0.384,0.792-0.72,1.7-0.996,2.723
				c-0.282,1.023-0.42,2.199-0.42,3.53c0,0.306,0.024,0.819,0.072,1.533c0.054,0.717,0.192,1.497,0.426,2.343
				c0.228,0.843,0.582,1.725,1.073,2.648c0.486,0.918,1.158,1.761,2.033,2.529c0.558,0.513,1.121,0.935,1.685,1.268
				c0.564,0.333,0.972,0.549,1.23,0.651c-2.304,0.87-4.007,1.778-5.104,2.726c-1.098,0.945-1.65,2.085-1.65,3.413
				c0,1.332,0.438,2.342,1.308,3.032c0.87,0.69,1.841,1.239,2.915,1.65c-0.36,0.153-0.959,0.396-1.805,0.729
				c-0.846,0.333-1.715,0.843-2.609,1.533c-0.894,0.692-1.674,1.574-2.34,2.648c-0.666,1.074-0.996,2.429-0.996,4.067
				c0,0.462,0.048,1.026,0.15,1.689c0.102,0.666,0.336,1.368,0.69,2.112c0.36,0.741,0.858,1.493,1.5,2.264
				c0.642,0.765,1.469,1.454,2.495,2.069c1.278,0.819,2.693,1.46,4.259,1.919c1.56,0.459,3.041,0.792,4.445,0.996
				c1.41,0.204,2.639,0.321,3.683,0.348c1.05,0.024,1.728,0.036,2.04,0.036c1.224,0,2.531-0.051,3.911-0.153
				c1.38-0.102,2.735-0.306,4.067-0.612c1.332-0.309,2.621-0.728,3.875-1.268c1.253-0.537,2.363-1.239,3.341-2.109
				c0.918-0.768,1.649-1.586,2.183-2.456c0.539-0.87,0.948-1.7,1.229-2.492c0.282-0.795,0.462-1.536,0.54-2.228
				c0.072-0.69,0.108-1.239,0.108-1.647c0-0.309-0.036-0.807-0.108-1.496c-0.078-0.69-0.258-1.461-0.54-2.304
				c-0.281-0.846-0.719-1.701-1.307-2.57c-0.588-0.87-1.368-1.638-2.34-2.304c-0.816-0.51-1.776-0.945-2.88-1.301
				c-1.098-0.36-2.237-0.642-3.413-0.846c-1.176-0.204-2.34-0.357-3.491-0.462c-1.152-0.099-2.183-0.204-3.107-0.306
				c-1.638-0.153-3.197-0.318-4.679-0.498c-1.487-0.18-2.483-0.423-2.993-0.729c-0.102-0.051-0.246-0.18-0.42-0.384
				c-0.18-0.204-0.27-0.486-0.27-0.843c0-0.36,0.102-0.654,0.306-0.885c0.204-0.231,0.42-0.419,0.654-0.576
				c0.228-0.153,0.546-0.306,0.959-0.459c0.51-0.156,1.11-0.282,1.8-0.384c0.69-0.102,1.392-0.18,2.112-0.231
				c0.714-0.051,1.434-0.102,2.147-0.153c0.714-0.051,1.332-0.102,1.841-0.153c0.252-0.051,0.69-0.129,1.308-0.231
				c0.612-0.102,1.302-0.267,2.069-0.501c0.768-0.228,1.584-0.545,2.453-0.957c0.87-0.408,1.668-0.948,2.381-1.613
				c0.768-0.663,1.356-1.38,1.763-2.145c0.414-0.77,0.714-1.523,0.924-2.267c0.204-0.741,0.33-1.407,0.384-1.994
				c0.048-0.588,0.078-1.035,0.078-1.343c0-1.635-0.246-3.083-0.732-4.334c-0.486-1.254-0.912-2.112-1.265-2.57h7.828V294.378z
				 M466.008,331.616c3.24,0.093,5.507,0.231,6.808,0.42c1.296,0.189,2.327,0.633,3.077,1.338c0.75,0.702,1.121,1.604,1.121,2.705
				c0,2.039-1.265,3.488-3.796,4.343c-2.531,0.858-5.321,1.284-8.368,1.284c-3.281,0-5.981-0.498-8.104-1.494
				c-2.123-0.999-3.185-2.396-3.185-4.204c0-2.13,1.289-3.761,3.869-4.886C459.284,331.358,462.14,331.52,466.008,331.616z
				 M469.758,310.622c-1.23,1.014-2.819,1.521-4.775,1.521c-1.973,0-3.562-0.501-4.774-1.496c-1.206-0.999-1.811-2.306-1.811-3.926
				c0-1.814,0.672-3.212,2.015-4.196c1.35-0.981,2.891-1.473,4.631-1.473c1.818,0,3.359,0.528,4.643,1.572
				c1.278,1.05,1.919,2.396,1.919,4.049C471.605,308.286,470.987,309.605,469.758,310.622z"/>
		</g>
	</g>
	<g>
		<path fill="#231F20" d="M310.956,405.505v-34.898h4.02v6.644h0.137c1.873-4.295,5.639-7.316,10.061-7.316h1.819v3.892h-1.819
			c-4.423,0-10.198,5.234-10.198,11.947v19.73H310.956z"/>
		<path fill="#231F20" d="M352.622,405.505l-0.545-4.229c-4.157,3.29-7.309,4.901-12.684,4.901c-5.437,0-9.595-3.356-9.595-9.127
			c0-9.532,7.786-11.274,22.348-14.495v-2.418c0-4.631-2.01-6.98-7.982-6.98c-4.167,0-7.585,2.283-10.134,6.31l-2.687-1.613
			c3.021-5.636,7.32-7.918,12.954-7.918c7.919,0,11.674,3.221,11.674,10.938v18.254c0,1.746,0.138,4.028,0.539,6.377H352.622z
			 M351.949,385.775c-15.974,3.488-18.127,6.779-18.127,11.206c0,3.827,2.623,5.975,6.247,5.975c3.761,0,8.384-2.216,11.88-5.774
			V385.775z"/>
		<path fill="#231F20" d="M392.731,405.505h-2.814l-0.677-4.562c-2.544,3.623-6.443,5.234-11.203,5.234
			c-9.055,0-14.027-6.443-14.027-18.323c0-10.267,5.638-17.918,13.763-17.918c4.697,0,7.516,1.61,10.933,5.236V357.05h4.025V405.505
			z M388.706,379.398c-1.338-2.348-5.909-6.241-9.865-6.241c-7.246,0-10.806,6.376-10.806,15.435
			c0,8.056,3.221,14.364,10.209,14.364c4.961,0,7.849-2.753,10.463-6.377V379.398z"/>
		<path fill="#231F20" d="M404.33,362.956v-5.906h4.026v5.906H404.33z M408.356,405.505h-4.026v-34.898h4.026V405.505z"/>
		<path fill="#231F20" d="M444.922,388.058c0,9.46-3.491,18.119-14.361,18.119c-10.875,0-14.366-8.659-14.366-18.119
			c0-9.463,3.491-18.122,14.366-18.122C441.431,369.936,444.922,378.594,444.922,388.058z M420.22,388.058
			c0,9.46,3.153,14.898,10.341,14.898c7.178,0,10.33-5.438,10.33-14.898c0-9.463-3.152-14.901-10.33-14.901
			C423.373,373.157,420.22,378.594,420.22,388.058z"/>
		<path fill="#231F20" d="M497.103,405.505h-2.814l-0.671-4.562c-2.555,3.623-6.448,5.234-11.213,5.234
			c-9.05,0-14.023-6.443-14.023-18.323c0-10.267,5.644-17.918,13.758-17.918c4.697,0,7.516,1.61,10.944,5.236V357.05h4.02V405.505z
			 M493.083,379.398c-1.344-2.348-5.914-6.241-9.871-6.241c-7.247,0-10.801,6.376-10.801,15.435c0,8.056,3.216,14.364,10.204,14.364
			c4.961,0,7.844-2.753,10.468-6.377V379.398z"/>
		<path fill="#231F20" d="M509.708,388.19c0,7.918,3.285,14.766,11.208,14.766c4.496,0,6.707-1.545,10.199-7.048l3.284,1.746
			c-3.76,6.175-7.177,8.524-13.822,8.524c-9.129,0-14.895-5.84-14.895-18.119c0-10.806,5.502-18.122,14.356-18.122
			c9.468,0,13.965,7.45,13.965,18.254H509.708z M529.972,384.969c-0.809-7.181-3.961-11.743-10.071-11.812
			c-7.109-0.066-10.129,7.18-10.193,11.812H529.972z"/>
		<path fill="#231F20" d="M580.01,405.505l-0.539-4.229c-4.158,3.29-7.31,4.901-12.685,4.901c-5.437,0-9.595-3.356-9.595-9.127
			c0-9.532,7.786-11.274,22.348-14.495v-2.418c0-4.631-2.016-6.98-7.982-6.98c-4.168,0-7.585,2.283-10.134,6.31l-2.687-1.613
			c3.02-5.636,7.321-7.918,12.949-7.918c7.923,0,11.678,3.221,11.678,10.938v18.254c0,1.746,0.138,4.028,0.539,6.377H580.01z
			 M579.344,385.775c-15.974,3.488-18.127,6.779-18.127,11.206c0,3.827,2.623,5.975,6.247,5.975c3.755,0,8.389-2.216,11.88-5.774
			V385.775z"/>
		<path fill="#231F20" d="M620.802,370.607v34.898h-4.031v-5.504c-3.755,3.893-6.844,6.176-11.943,6.176
			c-7.247,0-10.336-4.16-10.336-11.746v-23.824h4.031v23.422c0,5.77,1.735,8.926,7.109,8.926c4.295,0,6.707-2.618,11.139-6.644
			v-25.705H620.802z"/>
		<path fill="#231F20" d="M632.185,370.607v-11.409h4.031v11.409h7.648v3.221h-7.648v25.57c0,2.349,1.078,3.557,3.554,3.557
			c1.343,0,2.825-0.336,4.094-0.738v3.354c-1.344,0.201-2.751,0.606-4.094,0.606c-5.702,0-7.585-1.881-7.585-6.107v-26.242h-5.226
			v-3.221H632.185z"/>
		<path fill="#231F20" d="M676.077,388.058c0,9.46-3.491,18.119-14.366,18.119c-10.876,0-14.356-8.659-14.356-18.119
			c0-9.463,3.48-18.122,14.356-18.122C672.587,369.936,676.077,378.594,676.077,388.058z M651.376,388.058
			c0,9.46,3.152,14.898,10.336,14.898c7.183,0,10.335-5.438,10.335-14.898c0-9.463-3.152-14.901-10.335-14.901
			C654.528,373.157,651.376,378.594,651.376,388.058z"/>
		<path fill="#231F20" d="M683.71,405.505v-34.898h4.026v6.644h0.127c1.883-4.295,5.639-7.316,10.072-7.316h1.809v3.892h-1.809
			c-4.433,0-10.198,5.234-10.198,11.947v19.73H683.71z"/>
	</g>
</g>
</svg>
