<?xml version="1.0" encoding="utf-8"?>
<!-- Generator: Adobe Illustrator 17.0.0, SVG Export Plug-In . SVG Version: 6.00 Build 0)  -->
<!DOCTYPE svg PUBLIC "-//W3C//DTD SVG 1.1//EN" "http://www.w3.org/Graphics/SVG/1.1/DTD/svg11.dtd">
<svg version="1.1" id="Layer_1" xmlns="http://www.w3.org/2000/svg" xmlns:xlink="http://www.w3.org/1999/xlink" x="0px" y="0px"
	 width="1050px" height="700px" viewBox="0 0 1050 700" enable-background="new 0 0 1050 700" xml:space="preserve">
<rect x="-1" y="1" fill="#FFFFFF" width="1050" height="700"/>
<g>
	<path fill="#000F24" d="M383.896,477.948c-15.308,0-27.712,12.401-27.712,27.707c0,15.31,12.404,27.712,27.712,27.712
		c9.375,0,17.659-4.659,22.674-11.788v9.271h5.036v-25.195C411.605,490.35,399.202,477.948,383.896,477.948z M383.896,528.329
		c-12.523-0.022-22.652-10.15-22.676-22.673c0.024-12.519,10.152-22.647,22.676-22.669c12.519,0.022,22.65,10.15,22.674,22.669
		C406.545,518.179,396.415,528.307,383.896,528.329z"/>
	<polygon fill="#000F24" points="568.987,530.851 568.987,480.465 574.023,480.465 574.023,530.851 	"/>
	<path fill="#000F24" d="M325.25,505.656v25.195h5.04v-25.195h-0.002c0.022-12.519,10.152-22.647,22.676-22.669v-5.038
		C337.656,477.948,325.252,490.35,325.25,505.656L325.25,505.656z"/>
	<path fill="#000F24" d="M654.254,529.409c-3.344-2.604-5.384-6.597-5.36-11.156l0,0h5.038c0.026,3.122,1.226,5.421,3.442,7.198l0,0
		c2.219,1.759,5.593,2.882,9.786,2.878l0,0c4.084,0.004,7.47-1.119,9.721-2.883l0,0c2.249-1.79,3.477-4.098,3.503-7.193l0,0
		c-0.026-3.109-1.221-5.413-3.431-7.194l0,0c-2.217-1.755-5.589-2.883-9.793-2.883l0,0c-5.315,0.004-9.686-1.341-12.776-4.058l0,0
		c-3.1-2.713-4.622-6.697-4.6-11.056l0,0c-0.024-4.485,1.674-8.478,4.825-11.139l0,0c3.137-2.669,7.479-3.98,12.552-3.976l0,0
		c4.888-0.004,9.207,1.589,12.338,4.302l0,0c3.129,2.7,5.04,6.575,5.034,10.812l0,0h-5.04c-0.009-5.347-4.694-10.006-12.332-10.081
		l0,0c-4.232,0.004-7.318,1.093-9.284,2.778l0,0c-1.953,1.69-3.031,3.993-3.055,7.302l0,0c0.022,3.292,1.019,5.604,2.894,7.276l0,0
		c1.885,1.668,4.94,2.796,9.445,2.8l0,0c5.084,0.004,9.584,1.345,12.92,3.971l0,0c3.338,2.604,5.369,6.601,5.341,11.143l0,0
		c0.024,4.581-2.079,8.574-5.436,11.16l0,0c-3.353,2.617-7.842,3.954-12.824,3.954l0,0
		C662.092,533.367,657.591,532.03,654.254,529.409L654.254,529.409z"/>
	<path fill="#000F24" d="M455.748,477.948c-15.306,0-27.712,12.406-27.714,27.712c0,0.009,0,0.022,0,0.035v50.35h5.038V521.58
		c5.014,7.128,13.296,11.788,22.676,11.788c15.304,0,27.709-12.406,27.709-27.707C483.457,490.354,471.052,477.948,455.748,477.948z
		 M455.748,528.334c-12.523-0.026-22.652-10.154-22.673-22.673c0.022-12.523,10.15-22.652,22.673-22.673
		c12.519,0.022,22.65,10.15,22.674,22.673C478.398,518.179,468.267,528.307,455.748,528.334z"/>
	<path fill="#000F24" d="M552.543,505.656c-0.004-15.306-12.408-27.707-27.714-27.707c-9.377,0-17.659,4.659-22.671,11.787v-34.461
		h-5.04v75.576h5.04V505.66l0,0c0.02-12.523,10.15-22.652,22.671-22.678c12.523,0.026,22.652,10.155,22.674,22.678h0.002v25.195
		h5.038L552.543,505.656L552.543,505.656z"/>
	<path fill="#000F24" d="M283.717,477.948c-15.308,0-27.712,12.401-27.714,27.712c0.002,15.302,12.406,27.707,27.714,27.712
		c9.375-0.004,17.657-4.664,22.672-11.787v9.271h0.002c-0.024,12.519-10.154,22.647-22.673,22.669v5.038
		c15.306-0.004,27.709-12.406,27.712-27.707V505.66C311.427,490.35,299.023,477.948,283.717,477.948z M283.717,528.334
		c-12.521-0.026-22.652-10.154-22.676-22.673c0.024-12.523,10.155-22.652,22.676-22.678c12.519,0.026,22.65,10.155,22.672,22.678
		C306.367,518.179,296.237,528.307,283.717,528.334z"/>
	<path fill="#000F24" d="M587.897,505.656c0.002-15.306,12.408-27.707,27.714-27.707l0,0c10.25,0,19.21,5.578,23.995,13.851l0,0
		l-4.363,2.521c-3.928-6.776-11.241-11.339-19.632-11.339l0,0c-12.523,0.026-22.652,10.155-22.674,22.674l0,0
		c0.022,12.523,10.15,22.652,22.674,22.673l0,0c8.391,0.004,15.704-4.555,19.632-11.335l0,0l4.363,2.521
		c-4.788,8.278-13.745,13.852-23.995,13.856l0,0C600.305,533.367,587.899,520.962,587.897,505.656L587.897,505.656z"/>
</g>
<g>
	<polygon fill="#000F24" points="237.391,455.275 237.391,344.427 247.469,344.427 247.469,455.275 	"/>
	<polygon fill="#000F24" points="468.585,455.275 468.585,344.427 478.661,344.427 478.661,455.275 	"/>
	<path fill="#000F24" d="M394.817,455.275c-16.697-0.004-30.229-13.538-30.231-30.233l0,0v-75.577l0.002-5.038h10.074v80.615
		c0.022,11.13,9.025,20.131,20.155,20.152l0,0h25.195c11.128-0.022,20.131-9.022,20.152-20.152l0,0v-80.615h10.078v80.615
		c-0.004,16.695-13.536,30.229-30.231,30.233l0,0H394.817L394.817,455.275z"/>
	<path fill="#000F24" d="M552.543,344.427h-55.425v110.848h55.425c16.697-0.004,30.227-13.534,30.229-30.233v-50.381
		C582.769,357.959,569.24,344.43,552.543,344.427z M572.695,425.042c-0.02,11.13-9.024,20.135-20.152,20.152h-45.347v-90.689h45.347
		c11.128,0.017,20.133,9.021,20.152,20.156V425.042z"/>
	<g>
		<path fill="#000F24" d="M293.508,455.275c-16.697-0.004-30.229-13.534-30.23-30.233l0,0v-50.381
			c0.002-16.703,13.534-30.23,30.23-30.234l0,0h25.193c16.699,0.004,30.229,13.531,30.233,30.234l0,0v50.381h-10.076v-50.381
			c-0.022-11.134-9.027-20.136-20.157-20.158l0,0h-25.193c-11.13,0.022-20.135,9.024-20.154,20.158l0,0v50.381
			c0.02,11.13,9.024,20.135,20.154,20.152l0,0h25.193v10.081H293.508L293.508,455.275z"/>
		<polygon fill="#000F24" points="294.81,415.188 300.397,406.801 359.282,446.044 353.695,454.426 		"/>
	</g>
	<g>
		<path fill="#000F24" d="M166.866,455.271h-5.038l0,0c-9.741,0-17.631-7.89-17.633-17.631l0,0v-5.038V344.43h10.076v88.172v5.038
			c0.009,4.172,3.386,7.546,7.557,7.555l0,0h5.038l0,0h62.983v10.076L166.866,455.271L166.866,455.271z"/>
	</g>
</g>
<g>
	
		<linearGradient id="SVGID_1_" gradientUnits="userSpaceOnUse" x1="6205.6533" y1="3109.6055" x2="6474.3047" y2="3283.9932" gradientTransform="matrix(-0.6364 0.7713 -0.7713 -0.6364 7255.771 -2529.6699)">
		<stop  offset="0" style="stop-color:#0071BB"/>
		<stop  offset="1" style="stop-color:#00ADEE"/>
	</linearGradient>
	<path fill="url(#SVGID_1_)" d="M881.139,459.244c-12.364-37.887-11.935-59.738-11.935-59.738
		c-30.725-12.745-140.568,13.473-140.568,13.473c78.079-30.137,92.769-56.72,97.772-87.595
		c6.255-38.627-35.397-67.144-58.656-126.429c-8.959-22.845-5.362-37.196,2.051-46.535c0.004-0.005,0.008-0.01,0.012-0.015
		c-45.476-1.033-80.296,40.683-76.581,79.437c3.973,41.467,65.774,92.458,45.388,150.486
		c-10.407,29.628-36.953,39.173-58.851,42.726c0,0,0,0,0,0c-23.871,18.049-52.165,28.365-52.164,28.364
		c21.807-5.779,41.739-9.706,59.969-12.123c12.366-1.639,23.941-2.577,34.787-2.928c-10.845,0.351-22.421,1.289-34.786,2.928
		C721.392,416.213,787.883,389.852,881.139,459.244z"/>
	
		<linearGradient id="SVGID_2_" gradientUnits="userSpaceOnUse" x1="6599.457" y1="2369.4585" x2="6623.457" y2="2296.4585" gradientTransform="matrix(-0.6364 0.7713 -0.7713 -0.6364 7255.771 -2529.6699)">
		<stop  offset="0" style="stop-color:#0071BB"/>
		<stop  offset="1" style="stop-color:#106689"/>
	</linearGradient>
	<path fill="url(#SVGID_2_)" d="M738.622,382.328c20.386-58.028-41.415-109.019-45.388-150.486
		c-3.714-38.754,31.106-80.47,76.581-79.437c11.054-13.902,30.563-16.677,29.676-19.799c-0.063-0.22-0.221-0.442-0.497-0.67
		c-3.303-2.724-20.338-7.371-42.138-7.455c-23.207-0.089-51.812,4.994-75,23.075c-44.972,35.069-31.188,100.283-12.634,123.611
		c18.556,23.33,49.534,64.927,42.51,109.537c-2.767,17.588-16.429,32.606-31.961,44.35
		C701.669,421.501,728.215,411.956,738.622,382.328z"/>
	
		<linearGradient id="SVGID_3_" gradientUnits="userSpaceOnUse" x1="6461.6528" y1="3139.5461" x2="6377.9937" y2="2949.8401" gradientTransform="matrix(-0.6364 0.7713 -0.7713 -0.6364 7255.771 -2529.6699)">
		<stop  offset="0" style="stop-color:#0071BB"/>
		<stop  offset="1" style="stop-color:#106689"/>
	</linearGradient>
	<path fill="url(#SVGID_3_)" d="M881.139,459.244C881.139,459.244,881.139,459.244,881.139,459.244
		c-93.256-69.393-159.747-43.031-193.563-17.949c12.366-1.639,23.941-2.577,34.786-2.928c1.993-0.064,3.965-0.112,5.908-0.138
		c101.816-1.321,136.407,50.336,149.226,60.914c0.549,0.453,1.178,1.024,1.876,1.694c10.182,9.786,35.581,41.868,58.163,71.138
		c1.435,1.86,2.861,3.711,4.268,5.542C908.98,529.86,890.993,489.451,881.139,459.244z"/>
</g>
</svg>
