<?xml version="1.0" encoding="utf-8"?>
<!-- Generator: Adobe Illustrator 17.0.0, SVG Export Plug-In . SVG Version: 6.00 Build 0)  -->
<!DOCTYPE svg PUBLIC "-//W3C//DTD SVG 1.1//EN" "http://www.w3.org/Graphics/SVG/1.1/DTD/svg11.dtd">
<svg version="1.1" id="Layer_1" xmlns="http://www.w3.org/2000/svg" xmlns:xlink="http://www.w3.org/1999/xlink" x="0px" y="0px"
	 width="1050px" height="700px" viewBox="0 0 1050 700" enable-background="new 0 0 1050 700" xml:space="preserve">
<rect x="-1" y="1" fill="#FFFFFF" width="1050" height="700"/>
<g>
	<path fill="#8BC53F" d="M455.679,464.868c-4.397,4.647-10.018,5.87-14.172,5.87c-8.308,0-13.196-5.133-14.417-12.71
		c-10.752,9.53-19.551,12.95-27.858,12.95c-10.752,0-20.77-7.331-20.77-20.527c0-24.678,28.59-32.009,48.14-32.009v-26.146
		c0-10.507-4.645-15.639-13.441-15.639c-7.82,0-13.196,2.689-14.417,5.373c2.686,1.713,4.642,4.888,4.642,8.308
		c0,4.888-3.908,9.045-8.796,9.045c-5.133,0-9.041-4.157-9.041-9.045c0-10.506,14.417-19.305,27.613-19.305
		c18.326,0,29.081,8.799,29.081,29.571v57.916c0,5.618,1.219,7.086,3.663,7.086c3.666,0,4.645-4.397,6.355-6.109
		c0.488-0.491,0.976-0.731,1.71-0.731c1.71,0,3.177,1.222,3.177,2.684C457.147,462.915,456.413,464.137,455.679,464.868z
		 M426.602,423.329c-15.151,0-32.013,6.109-32.013,24.438c0,10.997,5.864,14.903,11.486,14.903c4.397,0,10.506,0,20.527-10.752
		V423.329z"/>
	<path fill="#8BC53F" d="M457.886,348.797c0-2.199,0.976-3.175,2.198-3.175c1.713,0,2.932,0.731,5.376,0.731
		c2.444,0,3.666-0.731,5.622-0.731c1.222,0,2.198,0.976,2.198,3.175v24.678c10.509,0,21.015-0.24,22.728-0.24
		c1.222,0,2.198,0.976,2.198,2.929c0,1.958-0.976,2.935-2.198,2.935c-2.201,0-10.997-0.245-22.728-0.245v77.22
		c0,7.817,2.444,10.261,7.331,10.261c5.622,0,10.021-5.619,10.509-10.997c0.242-2.198,1.222-3.42,2.686-3.42
		c1.222,0,2.201,0.976,2.201,2.69c0,7.086-6.11,16.861-19.062,16.861c-10.507,0-19.06-6.109-19.06-19.551v-73.063
		c-11.974,0-14.906,0.245-17.107,0.245c-1.219,0-2.199-0.976-2.199-2.935c0-1.953,0.979-2.929,2.199-2.929
		c7.331,0,12.953,0,17.107,0V348.797z"/>
	<path fill="#8BC53F" d="M561.012,448.007c-7.331,18.083-20.285,23.462-32.989,23.462c-22.24,0-40.566-18.574-40.566-50.338
		c0-29.811,19.06-50.098,39.344-50.098c24.19,0,36.409,18.328,34.699,40.323h-56.448c0,3.175-0.245,6.355-0.245,9.775
		c0,30.057,9.287,44.229,25.903,44.229c13.195,0,21.015-7.331,25.415-20.773c0.488-1.462,1.465-3.174,2.932-3.174
		c1.71,0,2.686,1.222,2.686,2.444C561.743,445.077,561.255,447.03,561.012,448.007z M529,376.165
		c-11.24,0-20.527,7.086-23.216,29.572h39.832c1.222-4.157,1.467-6.846,1.467-9.29C547.083,383.742,538.775,376.165,529,376.165z"/>
	<g>
		<rect x="138.304" y="336.769" fill="#F5E0BF" width="23.161" height="15.443"/>
		<polygon fill="#8BC53F" points="176.906,346.113 161.466,346.113 149.882,351.034 138.304,346.113 124.083,346.113 
			124.083,399.763 176.906,399.763 		"/>
		<polyline fill="#F79835" points="107.066,310.356 107.066,331.085 111.029,327.119 110.724,334.123 112.096,332.754 
			113.47,331.385 117.428,331.385 119.713,333.671 124.44,328.947 		"/>
		<polyline fill="#F79835" points="196.364,310.356 196.364,331.085 192.409,327.119 192.709,334.123 191.334,332.754 
			189.962,331.385 186.005,331.385 183.714,333.671 178.992,328.947 		"/>
		<path fill="#F79835" d="M199.719,287.603c0-0.344,6.647-13.932,6.306-13.926c-0.625-25.191-23.849-45.805-52.889-46.46
			c-29.034-0.671-53.156,18.847-54.951,43.978c-9.532-0.185,16.793,27.292,17.014,17.723c0.169-7.637-4.607-14.211-11.401-16.687
			c9.211-15.285,27.744-7.059,48.882-6.579c21.282,0.491,39.442-6.748,47.867,9.116c-6.423,2.422-11.065,8.553-11.226,15.841
			C189.103,300.166,199.719,325.505,199.719,287.603z"/>
		<image overflow="visible" width="126" height="92" xlink:href="9039AC36B6939964.png"  transform="matrix(1 0 0 1 89.5 246.5)">
		</image>
		<path fill="#F79835" d="M110.784,279.339c0,0,12.028-10.435,26.522,0.617v-0.546c-14.494-13.283-26.522-0.611-26.522-0.611
			V279.339z"/>
		<path fill="#F79835" d="M164.567,280.566c0,0,12.023-10.037,26.517,0.605v-0.545c-14.494-13.278-26.517-0.605-26.517-0.605
			V280.566z"/>
		<path fill="#00B4B7" d="M172.027,290.702c-0.063,2.897,2.231,5.302,5.136,5.367c2.899,0.077,5.302-2.225,5.365-5.122
			c0.071-2.907-2.225-5.302-5.13-5.378C174.497,285.509,172.095,287.805,172.027,290.702z"/>
		
			<radialGradient id="SVGID_1_" cx="36.8001" cy="-728.666" r="9.5233" gradientTransform="matrix(0.9997 0.0227 -0.0227 0.9997 100.239 1027.2448)" gradientUnits="userSpaceOnUse">
			<stop  offset="0" style="stop-color:#F2C09F"/>
			<stop  offset="1" style="stop-color:#F7E2C0"/>
		</radialGradient>
		<path fill="url(#SVGID_1_)" d="M156.824,305.594c0.065-2.907-2.231-5.302-5.133-5.379c-2.899-0.06-5.302,2.237-5.37,5.138
			c-0.065,2.891,2.234,5.303,5.136,5.368C154.352,310.793,156.758,308.491,156.824,305.594z"/>
		<path fill="#231F20" d="M175.049,290.767c-0.03,1.238,0.946,2.253,2.176,2.291c1.236,0.027,2.258-0.949,2.286-2.187
			c0.033-1.233-0.949-2.248-2.176-2.28C176.099,288.558,175.076,289.54,175.049,290.767z"/>
		<path fill="#FFFFFF" d="M176.638,288.177c-0.011,0.589,0.447,1.069,1.026,1.08c0.581,0.016,1.061-0.447,1.078-1.031
			c0.011-0.578-0.45-1.064-1.028-1.069C177.135,287.134,176.655,287.603,176.638,288.177z"/>
		<path fill="#00B4B7" d="M118.906,289.491c-0.068,2.897,2.228,5.302,5.125,5.367c2.905,0.071,5.311-2.231,5.373-5.122
			c0.065-2.908-2.228-5.308-5.133-5.379C121.374,284.298,118.969,286.595,118.906,289.491z"/>
		<path fill="#231F20" d="M121.922,289.562c-0.027,1.233,0.95,2.253,2.18,2.286c1.236,0.027,2.258-0.949,2.286-2.187
			c0.027-1.233-0.95-2.253-2.182-2.275C122.973,287.353,121.95,288.329,121.922,289.562z"/>
		<path fill="#FFFFFF" d="M123.518,286.976c-0.016,0.578,0.445,1.059,1.023,1.069c0.581,0.011,1.064-0.442,1.078-1.031
			c0.011-0.573-0.447-1.052-1.031-1.069C124.012,285.929,123.532,286.392,123.518,286.976z"/>
		<polygon fill="#0071BB" points="176.906,399.763 124.083,399.763 124.083,460.706 145.412,460.706 145.412,420.241 
			155.575,420.241 155.575,460.706 176.906,460.706 		"/>
		<path fill="#F5E0BF" d="M114.534,355.861v44.704h9.549v-54.452C118.811,346.113,114.534,350.483,114.534,355.861z"/>
		<path fill="#F5E0BF" d="M186.455,355.861v44.704h-9.549v-54.452C182.181,346.113,186.455,350.483,186.455,355.861z"/>
		<path fill="#F5E0BF" d="M114.823,400.161c0,0-0.742,0.993-0.515,1.669c0.226,0.666,9.808,14.57,10.132,14.892
			c0.319,0.317,4.465-6.671,4.885-7.669c0.417-0.993-2.294-1.544-2.195-1.893c0.093-0.36,0.581-0.474,3.273,0.835
			c1.064,0.524,4.22-1.402-0.551-5.111c0,0-1.531-1.075-2.48-1.549c-0.854-0.431-2.615-0.988-3.289-0.769
			C123.409,400.794,114.823,400.161,114.823,400.161z"/>
		<path fill="#F5E0BF" d="M186.561,400.161c0,0,0.739,0.993,0.516,1.669c-0.223,0.666-9.81,14.57-10.13,14.892
			c-0.319,0.317-4.47-6.671-4.885-7.669c-0.42-0.993,2.294-1.544,2.193-1.893c-0.098-0.36-0.575-0.474-3.271,0.835
			c-1.069,0.524-4.222-1.402,0.546-5.111c0,0,1.53-1.075,2.482-1.549c0.854-0.431,2.616-0.988,3.292-0.769
			C177.978,400.794,186.561,400.161,186.561,400.161z"/>
		<polygon fill="#39B0C0" points="147.346,458.48 147.346,465.79 147.346,465.79 		"/>
		<polygon fill="#39B0C0" points="153.72,458.48 153.72,465.79 153.72,465.79 		"/>
		<path fill="#004071" d="M144.095,458.48c0,0-8.327,2.739-18.692,0h-10.059c0,0-15.544,1.522-15.544,14.319h47.545V458.48H144.095z
			"/>
		<polygon fill="#39B0C0" points="153.922,458.48 153.922,465.79 153.922,465.79 		"/>
		<polygon fill="#39B0C0" points="147.547,458.48 147.547,465.79 147.547,465.79 		"/>
		<path fill="#004071" d="M185.923,458.48H175.87c-10.362,2.739-18.694,0-18.694,0h-3.254V472.8h47.548
			C201.47,460.002,185.923,458.48,185.923,458.48z"/>
		<path fill="#F79835" d="M103.799,272.232c0,0,14.6-6.165,30.392-9.574c0.657-0.142-0.431-1.844,0.24-1.98
			c0.949-0.197,0.96,2.144,1.942,1.969c2.637-0.48,8.916-1.02,11.687-1.347c1.2-0.125-1.159-10.73,0.058-10.828
			c0.813-0.071,1.628,10.484,2.441,10.435c1.492-0.093,5.447-0.158,6.949-0.18c0.936-0.011-0.584-13.201,0.355-13.179
			c0.941,0.016,1.887,13.245,2.829,13.288c14.502,0.742,28.584,5.39,37.811,17.822c0,0,2.845,11.782,2.845,19.916
			c0,8.128,0.938,9.066,0.938,9.066l2.695-12.726l1.846-11.793l1.833,3.665v-3.398l5.627,9.525v-6.933l-3.186-14.227l-3.658-18.694
			c0,0-7.858-17.537-29.937-20.151c-22.082-2.607-63.676,7.981-63.676,7.981s-17.333,10.136-17.333,12.17
			c0,2.035-2.436,25.601-2.436,25.601v6.911v4.064l3.052-7.113v3.862l4.43-4.43v8.488l1.95,1.948L103.799,272.232z"/>
		<path fill="#8BC53F" d="M114.534,355.861v13.316h9.549v-23.064C118.811,346.113,114.534,350.483,114.534,355.861z"/>
		<path fill="#8BC53F" d="M126.063,348.099h12.241l11.578,4.915l11.583-4.915h15.441v-1.986h-15.441l-11.583,4.921l-11.578-4.921
			h-14.221v2.199C124.721,348.176,125.381,348.099,126.063,348.099z"/>
		<path fill="#8BC53F" d="M124.083,348.312v-2.199c-5.273,0-9.549,4.37-9.549,9.748v13.316h1.98v-11.33
			C116.514,353.161,119.76,349.239,124.083,348.312z"/>
		<path fill="#8BC53F" d="M186.455,355.861v13.316h-9.549v-23.064C182.181,346.113,186.455,350.483,186.455,355.861z"/>
		<path fill="#8BC53F" d="M176.906,348.312v-2.199c5.275,0,9.549,4.37,9.549,9.748v13.316h-1.975v-11.33
			C184.481,353.161,181.235,349.239,176.906,348.312z"/>
		<rect x="114.534" y="398.339" fill="#231F20" width="9.549" height="2.226"/>
		<rect x="176.906" y="398.339" fill="#231F20" width="9.549" height="2.226"/>
		<path fill="#E6E7E8" d="M120.095,399.452c0-0.442-0.355-0.797-0.791-0.797c-0.436,0-0.788,0.355-0.788,0.797
			c0,0.431,0.352,0.785,0.788,0.785C119.741,400.238,120.095,399.883,120.095,399.452z"/>
		<path fill="#E6E7E8" d="M117.201,399.452c0-0.442-0.355-0.797-0.788-0.797c-0.439,0-0.788,0.355-0.788,0.797
			c0,0.431,0.349,0.785,0.788,0.785C116.847,400.238,117.201,399.883,117.201,399.452z"/>
		<path fill="#E6E7E8" d="M122.787,399.452c0-0.442-0.349-0.797-0.788-0.797c-0.433,0-0.785,0.355-0.785,0.797
			c0,0.431,0.352,0.785,0.785,0.785C122.438,400.238,122.787,399.883,122.787,399.452z"/>
		<path fill="#231F20" d="M183.741,399.452c0-1.135-0.922-2.062-2.059-2.062c-1.134,0-2.057,0.927-2.057,2.062
			c0,1.14,0.922,2.051,2.057,2.051C182.819,401.503,183.741,400.593,183.741,399.452z"/>
		<rect x="99.8" y="470.367" fill="#FFFFFF" stroke="#231F20" stroke-width="1.3965" width="47.545" height="2.433"/>
		<rect x="153.922" y="470.367" fill="#FFFFFF" stroke="#231F20" stroke-width="1.3965" width="47.548" height="2.433"/>
		<path fill="#0067AB" d="M129.325,409.053c0,0,4.563,4.315,2.888,7.517c-1.68,3.202-7.468,4.418-7.773,0.152
			C124.134,412.457,129.325,409.053,129.325,409.053z"/>
		<path fill="#0067AB" d="M172.062,409.053c0,0-4.569,4.315-2.891,7.517c1.677,3.202,7.468,4.418,7.776,0.152
			C177.247,412.457,172.062,409.053,172.062,409.053z"/>
		<rect x="114.534" y="367.044" fill="#8BC53F" width="9.549" height="2.133"/>
		<rect x="176.906" y="367.044" fill="#8BC53F" width="9.549" height="2.133"/>
		<path fill="#F79835" d="M136.717,318.582l0.483-0.497c6.368,6.23,12.336,7.293,17.091,6.568l0,0
			c5.801-0.894,9.808-4.527,10.261-4.975l0,0c0.035-0.022,0.046-0.033,0.046-0.033l0,0l0,0l0.483,0.486
			c-0.027,0.022-4.252,4.206-10.681,5.204l0,0c-0.008,0-0.016,0-0.025,0l0,0C149.435,326.094,143.192,324.921,136.717,318.582
			L136.717,318.582z"/>
	</g>
	<path fill="#8BC53F" d="M304.978,443.594c-0.218-2.346-0.325-4.789-0.325-7.315v-18.814c0,28.098-17.107,47.895-39.098,47.895
		c-25.657,0-41.297-18.814-41.297-74.286c0-55.718,15.64-74.531,41.297-74.531c21.992,0,39.098,21.012,39.098,48.14
		c0,1.222,0.246,2.69,2.199,2.69c1.71,0,2.201-1.467,2.201-2.69v-49.116c0-0.982,0-2.444-2.444-2.444
		c-1.956,0-1.956,1.707-1.956,2.444c0,5.373-2.689,10.752-5.864,11.728c-8.553-9.284-17.349-16.862-34.944-16.862
		c-31.525,0-58.404,32.501-58.404,80.641c0,47.895,26.879,80.395,58.404,80.395c16.861,0,26.879-6.6,34.944-16.37
		c0,0,6.186-9.165,6.186-11.505H304.978z"/>
	<path fill="#8BC53F" d="M385.783,458.764c-0.491,0-0.979,0.24-1.467,0.731c-1.956,1.713-2.687,6.109-6.598,6.109
		c-2.444,0-3.665-1.467-3.665-7.086v-83.085c0-1.958-0.976-2.934-2.199-2.934c-2.444,0-6.598,0.976-12.219,0.976
		c-8.796,0-15.151-0.731-16.373-0.731c-0.976,0-2.198,0.976-2.198,2.689c0,1.708,1.222,2.69,2.198,2.69
		c1.71,0,8.065-0.246,15.397-0.246v41.294c0,24.929-13.93,45.456-26.391,45.456c-8.554,0-12.219-5.624-12.219-19.551v-69.644
		c0-1.958-0.976-2.934-2.199-2.934c-2.201,0-6.598,0.976-12.219,0.976c-8.553,0-15.151-0.731-16.128-0.731
		c-1.222,0-2.201,0.976-2.201,2.689c0,1.708,0.979,2.69,2.201,2.69c1.465,0,7.82-0.246,15.151-0.246v39.587
		c0-1.222,0.246-2.69,2.199-2.69c1.71,0,2.201,1.222,2.201,2.69v24.105l4.615-2.296l3.955,19.436l-2.621,7.86
		c3.584,2.809,8.207,4.407,14.087,4.407c13.684,0,25.415-13.435,29.569-25.654v9.039c0,10.507,6.598,16.376,14.66,16.376
		c4.399,0,10.021-1.222,14.418-5.87c0.733-0.731,1.467-1.953,1.467-3.42C389.203,459.986,387.735,458.764,385.783,458.764z"/>
	<path fill="#8BC53F" d="M304.978,443.594l4.075-2.024v-24.105c0-1.467-0.491-2.69-2.201-2.69c-1.953,0-2.199,1.467-2.199,2.69
		v18.814C304.653,438.804,304.76,441.248,304.978,443.594z"/>
	<path fill="#8BC53F" d="M313.668,439.274l-4.615,2.296v17.592c1.525,2.978,3.488,5.483,5.949,7.408l2.621-7.86L313.668,439.274z"/>
	<path fill="#8BC53F" d="M309.053,459.162V441.57l-4.075,2.024C305.532,449.551,306.838,454.842,309.053,459.162z"/>
	<path fill="#8BC53F" d="M956.836,458.764c-0.733,0-1.222,0.24-1.71,0.731c-1.71,1.713-2.689,6.109-6.354,6.109
		c-2.444,0-3.663-1.467-3.663-7.086v-57.916c0-20.772-10.755-29.571-29.081-29.571c-13.196,0-27.613,8.799-27.613,19.305
		c0,4.888,3.908,9.045,9.041,9.045c4.888,0,8.796-4.157,8.796-9.045c0-3.42-1.956-6.595-4.642-8.308
		c1.222-2.684,6.597-5.373,14.417-5.373c8.796,0,13.441,5.133,13.441,15.639v26.146c-19.551,0-48.14,7.331-48.14,32.009
		c0,5.875,2.054,10.512,5.207,13.932h-8.708v-88.949c0-1.958-0.979-2.934-2.201-2.934c-2.441,0-6.597,0.976-12.216,0.976
		c-8.799,0-15.151-0.731-16.373-0.731l-3.734-0.878l-1.323-0.339c0,0-0.006,0.055-0.006,0.06c-1.489-0.327-3.058-0.556-4.792-0.556
		c-10.509,0-19.305,8.313-23.947,20.042v-15.64c0-1.958-0.979-2.934-2.201-2.934c-2.441,0-6.597,0.976-12.216,0.976
		c-8.799,0-15.151-0.731-16.373-0.731c-1.222,0-2.199,0.976-2.199,2.689c0,1.708,0.976,2.69,2.199,2.69
		c1.467,0,8.065-0.246,15.151-0.246v86.505h-18.654c-2.444,0-3.663-0.246-3.663-5.864v-57.916c0-20.772-10.755-29.571-29.081-29.571
		c-13.196,0-27.613,8.799-27.613,19.305c0,4.888,3.908,9.045,9.041,9.045c4.888,0,8.796-4.157,8.796-9.045
		c0-3.42-1.956-6.595-4.642-8.308c1.222-2.684,6.597-5.373,14.417-5.373c8.796,0,13.441,5.133,13.441,15.639v26.146
		c-19.551,0-48.14,7.331-48.14,32.009c0,5.875,2.054,10.512,5.207,13.932h-8.395v-58.646c0-19.796-7.086-34.705-26.149-34.705
		c-14.417,0-26.879,14.177-31.033,26.636v-22.235c0-1.958-0.979-2.934-2.201-2.934c-2.441,0-6.597,0.976-12.216,0.976
		c-7.029,0-12.443-0.464-14.982-0.649c-1.14,0-7.206-1.38-7.206-1.38l-0.036,0.038c-1.364-0.267-2.793-0.452-4.353-0.452
		c-10.509,0-19.305,8.313-23.947,20.042v-15.64c0-1.958-0.979-2.934-2.201-2.934c-2.441,0-6.598,0.976-12.216,0.976
		c-8.799,0-15.152-0.731-16.373-0.731c-1.222,0-2.199,0.976-2.199,2.689c0,1.708,0.976,2.69,2.199,2.69
		c1.467,0,8.065-0.246,15.151-0.246v86.505h-15.151c-1.222,0-2.199,0.976-2.199,2.444c0,1.707,0.976,2.689,2.199,2.689
		c2.932,0,5.864-0.736,20.039-0.736h5.619c13.929,0,17.349,0.736,20.284,0.736c0.976,0,2.199-0.982,2.199-2.689
		c0-1.467-1.222-2.444-2.199-2.444h-15.151v-47.409c0-28.835,13.439-42.762,23.947-39.341c-1.71,1.222-3.42,4.156-3.42,7.577
		c0,5.374,4.397,9.775,9.773,9.775c5.867,0,9.775-4.888,9.775-11.242c0-2.046-0.606-3.972-1.639-5.712
		c2.875-0.071,6.772-0.153,10.866-0.153v86.505h-15.151c-1.222,0-2.199,0.976-2.199,2.444c0,1.707,0.976,2.689,2.199,2.689
		c2.932,0,5.864-0.736,20.039-0.736h5.618c12.953,0,14.909,0.736,17.841,0.736c0.976,0,2.198-0.982,2.198-2.689
		c0-1.467-1.222-2.444-2.198-2.444h-12.707v-40.809c0-25.169,14.905-45.942,29.077-45.942c9.533,0,12.708,5.373,12.708,19.305
		v67.445h-12.708c-1.222,0-2.198,0.976-2.198,2.444c0,1.707,0.976,2.689,2.198,2.689c2.69,0,3.911-0.736,17.596-0.736h5.621
		c10.812,0,15.271,0.442,17.993,0.638l0.013,0.006l5.406,0.829c1.767,0.431,3.576,0.725,5.433,0.725
		c8.308,0,17.107-3.42,27.859-12.95c0.878,5.45,3.684,8.968,8.264,10.533c1.123,0.388,2.346,0.66,3.684,0.802
		c0.573,0.065,1.181,0.087,1.787,0.109v0.044h8.58c2.932,0,5.864-0.736,20.039-0.736h5.618c13.93,0,17.353,0.736,20.285,0.736
		c0.976,0,2.198-0.982,2.198-2.689c0-1.467-1.222-2.444-2.198-2.444h-15.151v-47.409c0-28.835,13.438-42.762,23.947-39.341
		c-1.71,1.222-3.42,4.156-3.42,7.577c0,5.374,4.397,9.775,9.773,9.775c5.867,0,9.775-4.888,9.775-11.242
		c0-2.046-0.608-3.982-1.642-5.723c2.837-0.065,6.584-0.142,10.52-0.142v86.505h-15.151c-1.222,0-2.199,0.976-2.199,2.444
		c0,1.707,0.976,2.689,2.199,2.689c2.932,0,5.864-0.736,20.039-0.736h5.618c13.93,0,17.353,0.736,20.285,0.736
		c0,0,1.95,0.344,2.643,0.535c0.033,0.011,0.065-0.038,0.098-0.054c2.054,0.6,4.187,0.981,6.38,0.981
		c8.308,0,17.107-3.42,27.859-12.95c1.222,7.577,6.109,12.71,14.417,12.71c4.154,0,9.775-1.222,14.172-5.87
		c0.733-0.731,1.467-1.953,1.467-3.42C960.013,459.986,958.546,458.764,956.836,458.764z M759.639,451.918
		c-10.021,10.752-16.13,10.752-20.527,10.752c-5.622,0-11.486-3.906-11.486-14.903c0-18.329,16.862-24.438,32.013-24.438V451.918z
		 M929.468,451.918c-10.021,10.752-16.13,10.752-20.527,10.752c-5.622,0-11.486-3.906-11.486-14.903
		c0-18.329,16.862-24.438,32.013-24.438V451.918z"/>
	<g>
		<path fill="#8BC53F" d="M345.017,322.766c0,5.351-4.495,8.99-11.428,8.99c-0.622,0-1.915,0-3.3,0v11.281
			c3.014,0,4.018-0.044,4.877-0.044c0.385,0,0.717,0.333,0.717,0.856c0,0.529-0.333,0.813-0.717,0.813
			c-0.908,0-2.007-0.24-6.453-0.24h-1.77c-4.544,0-5.548,0.24-6.456,0.24c-0.382,0-0.717-0.284-0.717-0.813
			c0-0.524,0.335-0.856,0.717-0.856c0.766,0,1.484,0.044,4.83,0.044v-27.733c-3.347,0-4.064,0.049-4.83,0.049
			c-0.382,0-0.717-0.333-0.717-0.862c0-0.475,0.335-0.813,0.717-0.813c0.908,0,1.912,0.24,6.456,0.24
			c1.672,0,3.491-0.098,6.647-0.098C340.522,313.82,345.017,317.36,345.017,322.766z M330.289,330.032c0,0,2.487,0,3.3,0
			c4.781,0,6.453-1.816,6.453-7.266c0-5.357-1.672-7.173-6.453-7.173c-0.862,0-3.3,0-3.3,0V330.032z"/>
		<path fill="#8BC53F" d="M390.239,313.056c3.205,0,5.163,1.915,5.163,4.113c0,2.007-1.241,3.584-3.107,3.584
			c-1.77,0-3.156-1.386-3.156-3.153c0-1.053,0.526-1.958,1.053-2.389c-3.109-0.769-7.7,3.393-7.7,12.623v15.203
			c3.014,0,4.018-0.044,4.877-0.044c0.385,0,0.717,0.333,0.717,0.856c0,0.529-0.333,0.813-0.717,0.813
			c-0.908,0-2.007-0.24-6.453-0.24h-1.77c-4.544,0-5.548,0.24-6.456,0.24c-0.382,0-0.717-0.284-0.717-0.813
			c0-0.524,0.335-0.856,0.717-0.856c0.766,0,1.484,0.044,4.83,0.044v-27.733c-2.297,0-4.353,0.049-4.83,0.049
			c-0.382,0-0.717-0.333-0.717-0.862c0-0.475,0.335-0.813,0.717-0.813c0.335,0,2.392,0.191,5.212,0.191
			c1.77,0,3.156-0.333,3.873-0.333c0.431,0,0.717,0.382,0.717,1.004v5.166C383.832,315.876,386.843,313.056,390.239,313.056z"/>
		<path fill="#8BC53F" d="M435.657,345.284c-7.173,0-13.056-6.502-13.056-16.114c0-9.563,5.883-16.114,13.056-16.114
			c7.124,0,13.005,6.551,13.005,16.114C448.662,338.782,442.781,345.284,435.657,345.284z M435.657,314.731
			c-5.117,0-7.46,3.873-7.46,14.439c0,10.615,2.343,14.439,7.46,14.439c5.068,0,7.457-3.824,7.457-14.439
			C443.114,318.604,440.725,314.731,435.657,314.731z"/>
		<path fill="#8BC53F" d="M477.39,344.662c-0.382,0-0.717-0.284-0.717-0.813c0-0.524,0.335-0.856,0.717-0.856
			c0.766,0,1.484,0.044,4.83,0.044v-27.733c-3.347,0-4.064,0.049-4.83,0.049c-0.382,0-0.717-0.333-0.717-0.862
			c0-0.475,0.335-0.813,0.717-0.813c0.908,0,1.912,0.24,6.456,0.24h1.195c3.731,0,5.452-0.142,7.555-0.142
			c6.933,0,13.629,6.164,13.629,15.394s-6.696,15.448-13.629,15.448c-2.057,0-3.633-0.196-7.555-0.196h-1.195
			C479.302,344.422,478.299,344.662,477.39,344.662z M500.628,329.17c0-10.234-2.58-13.577-8.032-13.577
			c-3.156,0-5.403,0.093-5.403,0.093v26.969c0,0,1.961,0.098,5.403,0.098C498.048,342.753,500.628,339.404,500.628,329.17z"/>
		<path fill="#8BC53F" d="M561.972,343.419c1.195,0,1.484-1.386,2.057-1.909c0.191-0.191,0.335-0.289,0.526-0.289
			c0.573,0,1.05,0.382,1.05,0.911c0,0.382-0.237,0.813-0.477,1.053c-1.435,1.478-3.442,1.86-4.541,1.86
			c-2.774,0-4.781-1.86-4.781-5.45v-3.442c-1.339,4.255-5.166,8.99-9.421,8.99c-5.785,0-7.891-4.784-7.891-11.095v-18.743
			c-2.294,0-4.35,0.049-4.828,0.049c-0.385,0-0.717-0.333-0.717-0.862c0-0.475,0.333-0.813,0.717-0.813
			c0.333,0,2.389,0.191,5.209,0.191c1.77,0,3.158-0.333,3.876-0.333c0.428,0,0.715,0.382,0.715,1.004v22.136
			c0,4.495,1.197,6.268,3.873,6.268c4.018,0,8.466-6.41,8.466-14.439v-13.201c-2.297,0-4.399,0.049-4.879,0.049
			c-0.333,0-0.717-0.333-0.717-0.862c0-0.475,0.385-0.813,0.717-0.813c0.385,0,2.438,0.191,5.212,0.191
			c1.816,0,3.156-0.333,3.922-0.333c0.382,0,0.717,0.382,0.717,1.004v26.631C560.778,342.944,561.16,343.419,561.972,343.419z"/>
		<path fill="#8BC53F" d="M616.189,337.778c-2.294,5.831-5.88,7.506-9.898,7.506c-7.457,0-12.432-6.502-12.432-16.114
			c0-9.563,4.975-16.114,12.432-16.114c5.643,0,9.852,3.3,9.852,7.795c0,2.106-1.435,3.633-3.251,3.633
			c-1.721,0-3.06-1.386-3.06-3.06c0-1.527,1.05-3.011,3.156-3.153c-0.908-2.204-3.109-3.398-5.883-3.398
			c-5.403,0-7.697,3.78-7.697,14.297c0,10.523,2.82,14.205,7.746,14.205c3.969,0,6.17-2.395,7.602-6.742
			c0.145-0.431,0.431-0.96,0.911-0.96c0.524,0,0.813,0.382,0.813,0.813C616.478,336.824,616.285,337.445,616.189,337.778z"/>
		<path fill="#8BC53F" d="M668.347,337.778c-2.294,5.831-5.88,7.506-9.898,7.506c-7.457,0-12.432-6.502-12.432-16.114
			c0-9.563,4.975-16.114,12.432-16.114c5.643,0,9.852,3.3,9.852,7.795c0,2.106-1.435,3.633-3.251,3.633
			c-1.721,0-3.06-1.386-3.06-3.06c0-1.527,1.05-3.011,3.156-3.153c-0.908-2.204-3.109-3.398-5.883-3.398
			c-5.403,0-7.697,3.78-7.697,14.297c0,10.523,2.82,14.205,7.746,14.205c3.969,0,6.167-2.395,7.602-6.742
			c0.145-0.431,0.431-0.96,0.911-0.96c0.524,0,0.813,0.382,0.813,0.813C668.636,336.824,668.442,337.445,668.347,337.778z"/>
		<path fill="#8BC53F" d="M711.85,342.993c0.382,0,0.717,0.333,0.717,0.856c0,0.529-0.335,0.813-0.717,0.813
			c-0.908,0-2.007-0.24-6.453-0.24h-1.77c-4.544,0-5.548,0.24-6.456,0.24c-0.382,0-0.717-0.284-0.717-0.813
			c0-0.524,0.336-0.856,0.717-0.856c0.766,0,1.484,0.044,4.83,0.044v-27.733c-3.347,0-4.064,0.049-4.83,0.049
			c-0.382,0-0.717-0.333-0.717-0.862c0-0.475,0.336-0.813,0.717-0.813c0.908,0,1.912,0.24,6.456,0.24h1.77
			c4.446,0,5.545-0.24,6.453-0.24c0.382,0,0.717,0.338,0.717,0.813c0,0.529-0.335,0.862-0.717,0.862
			c-0.859,0-1.863-0.049-4.877-0.049v27.733C709.987,343.037,710.991,342.993,711.85,342.993z"/>
		<path fill="#8BC53F" d="M753.581,345.284c-7.173,0-13.054-6.502-13.054-16.114c0-9.563,5.88-16.114,13.054-16.114
			c7.124,0,13.005,6.551,13.005,16.114C766.586,338.782,760.705,345.284,753.581,345.284z M753.581,314.731
			c-5.117,0-7.46,3.873-7.46,14.439c0,10.615,2.343,14.439,7.46,14.439c5.068,0,7.457-3.824,7.457-14.439
			C761.038,318.604,758.648,314.731,753.581,314.731z"/>
		<path fill="#8BC53F" d="M828.355,344.662c-0.908,0-1.961-0.24-6.453-0.24h-1.77c-4.35,0-4.735,0.24-5.69,0.24
			c-0.336,0-0.717-0.284-0.717-0.813c0-0.524,0.382-0.856,0.717-0.856c0.813,0,1.195,0.044,4.064,0.044v-21.471
			c0-4.446-0.957-6.213-4.064-6.213c-4.495,0-9.325,6.551-9.325,14.581v13.103c2.869,0,3.205-0.044,4.064-0.044
			c0.382,0,0.717,0.333,0.717,0.856c0,0.529-0.336,0.813-0.717,0.813c-0.908,0-1.481-0.24-5.64-0.24h-1.77
			c-4.544,0-5.548,0.24-6.456,0.24c-0.382,0-0.717-0.284-0.717-0.813c0-0.524,0.336-0.856,0.717-0.856
			c0.766,0,1.484,0.044,4.83,0.044v-27.733c-2.297,0-4.353,0.049-4.83,0.049c-0.382,0-0.717-0.333-0.717-0.862
			c0-0.475,0.336-0.813,0.717-0.813c0.335,0,2.392,0.191,5.212,0.191c1.77,0,3.156-0.333,3.873-0.333
			c0.431,0,0.717,0.382,0.717,1.004v7.604c1.29-4.353,5.403-9.088,9.994-9.088c6.074,0,8.417,4.784,8.417,11.188v18.792
			c2.965,0,3.969-0.044,4.828-0.044c0.385,0,0.717,0.333,0.717,0.856C829.072,344.379,828.739,344.662,828.355,344.662z"/>
		<path fill="#8BC53F" d="M861.775,329.17c0,9.612,2.965,14.156,8.272,14.156c4.255,0,6.789-2.297,8.223-6.65
			c0.095-0.426,0.382-1.004,0.862-1.004c0.573,0,0.908,0.382,0.908,0.813c0,0.338-0.191,1.004-0.286,1.293
			c-2.297,5.831-6.456,7.506-10.569,7.506c-7.075,0-12.958-5.93-12.958-16.114c0-9.563,6.025-16.114,12.576-16.114
			c7.746,0,11.668,5.93,11.142,13.005H861.87C861.821,327.021,861.775,328.074,861.775,329.17z M874.828,324.053
			c0.431-1.287,0.526-2.007,0.526-2.82c0-4.113-2.725-6.361-5.883-6.361c-3.584,0-6.502,1.964-7.411,9.181H874.828z"/>
		<path fill="#8BC53F" d="M920.628,343.326c3.682,0,7.46-2.007,7.46-6.028c0-3.104-3.254-4.348-6.025-5.16l-3.014-0.911
			c-6.358-1.909-8.032-5.259-8.032-9.039c0-6.742,5.69-9.132,9.753-9.132c4.686,0,9.085,2.537,9.085,5.979
			c0,2.198-1.244,3.3-2.678,3.3c-1.432,0-2.629-1.195-2.629-2.629c0-1.151,0.766-2.106,1.77-2.487
			c-0.957-1.533-3.06-2.247-5.357-2.247c-4.206,0-7.029,2.007-7.029,5.739c0,2.58,2.057,3.824,4.781,4.686l3.445,1.053
			c5.736,1.767,8.99,4.255,8.99,9.464c0,5.979-4.83,9.47-10.76,9.47c-6.647,0-10.711-4.686-10.711-7.986
			c0-2.007,1.053-3.109,2.629-3.109c1.435,0,2.629,1.195,2.629,2.629c0,1.244-0.859,2.247-1.958,2.537
			C914.363,342.082,917.664,343.326,920.628,343.326z"/>
	</g>
	<path fill="#8BC53F" d="M452.259,459.495"/>
</g>
</svg>
