<?xml version="1.0" encoding="utf-8"?>
<!-- Generator: Adobe Illustrator 23.0.1, SVG Export Plug-In . SVG Version: 6.00 Build 0)  -->
<svg version="1.1" id="Layer_1" xmlns="http://www.w3.org/2000/svg" xmlns:xlink="http://www.w3.org/1999/xlink" x="0px" y="0px"
	 viewBox="0 0 1050 700" style="enable-background:new 0 0 1050 700;" xml:space="preserve">
<style type="text/css">
	.st0{fill:#F4EDE1;}
	.st1{opacity:0.5;clip-path:url(#SVGID_2_);}
	.st2{fill:#8AB23F;}
	.st3{fill:#89B13F;}
	.st4{fill:#89B23F;}
	.st5{fill:#818FC7;}
	.st6{fill:#F4836C;}
	.st7{opacity:0.6;fill:#FFFFFF;}
	.st8{clip-path:url(#SVGID_2_);}
	.st9{fill:#FFFFFF;}
	.st10{fill:#A5CD39;}
	.st11{font-family:'Futura-Bold';}
	.st12{font-size:153.7967px;}
	.st13{fill:#A09081;}
	.st14{font-family:'FranklinGothic-Book';}
	.st15{font-size:46.7105px;}
</style>
<rect y="1.2" class="st0" width="1050" height="699.9"/>
<g>
	<defs>
		<rect id="SVGID_1_" y="1.2" width="1050" height="699.9"/>
	</defs>
	<clipPath id="SVGID_2_">
		<use xlink:href="#SVGID_1_"  style="overflow:visible;"/>
	</clipPath>
	<g class="st1">
		<g>
			<path class="st2" d="M917.5,74.4c3.6-9.6,7.6-19,12.8-27.8c8.2-14,17.9-26.3,32.2-34.8c11.4-6.8,22.2-14.7,33.3-22.1
				c2-1.4,3.7-3.4,7.2-4.3c-13.9,35.8-26.9,71-48.6,102.3c4.1-2,7.4-4.9,10.6-7.9c12.9-11.7,23.8-24.7,30.2-41.2
				c3.7-9.7,8.7-18.9,13.1-28.3c0.1,19.8,2.3,39.4-1.5,58.9c-1,5,0,6.3,4.9,7.3c2.8,0.6,5.5,1.4,8.4,1c4.3-1.3,8.6-1.3,12.9,0
				c9.2-0.5,12.5-4.3,11.9-13.3c-0.3-4.3-0.9-8.6-0.2-13.7c7.8,12.8,15.8,24.4,21.3,38.6c1.1-6.8,1.7-12.5,1.4-18.3
				c-1-18.1-7.7-34.3-17.4-49.3c-3.3-5.1-7-10-7.1-16.1c0,1.7,0,3.3,0,5c-0.1-0.4-0.2-0.9-0.3-1.3c-0.1,0-0.2-0.1-0.2-0.3
				c0-0.2,0-0.3,0-0.5c-0.5-2.8-0.6-5.5-0.2-8.3c0,0,0.2-0.1,0.3-0.1c0.1,0,0.2,0.1,0.3,0.2c0,0,0,0,0,0c0,0,0,0,0,0
				c1-1,1.6-0.2,2.4,0.4c13.9,10.8,27.8,21.6,41.7,32.5c6.7,5.3,13.1,11,19.3,17c0.9-1.7-0.1-2.7-0.6-3.7
				c-11.8-27.2-31.9-45.7-59.1-56.9c-2.6-1.1-3.7-2.3-3.7-5.2c0.2-6.8,0-13.7-0.1-20.6c-11.3,0-22.6,0-33.9,0c0,4.3,0,8.6,0,12.8
				c0,0,0,0,0,0c0,0,0,0,0,0c-2.7,1.7-5.8,2-8.9,2.4c0,0,0,0,0,0c-2.2,0.3-4.3,0.5-6.5,0.8c0,0,0,0,0,0c-1.3,0.2-2.7,0.5-4,0.7
				c0,0,0,0,0,0c-1.3,0.3-2.7,0.6-4,0.9l0,0l0,0c-1.2,0.3-2.3,0.6-3.5,1c-23.4,6.9-41.6,19.5-50.5,43.4
				c-5.7,15.4-11.6,30.6-14.8,46.8c0,0,0,0,0,0c0,0,0,0,0,0C916.9,73.3,917.2,73.9,917.5,74.4z M1009.8,10.1c0.1,0,0.3,0,0.4,0
				c0,15,0,30,0,45c-0.1,0-0.3,0-0.4,0C1009.8,40.1,1009.8,25.1,1009.8,10.1z"/>
			<path class="st2" d="M1043,2.8c0-0.1-0.1-0.2-0.2-0.4c0,0.9,0,1.9,0,2.8C1042.9,4.4,1042.9,3.6,1043,2.8z"/>
			<path class="st2" d="M1042.4,8.6C1042.4,8.6,1042.4,8.6,1042.4,8.6c0,0.2,0,0.3,0,0.5c0,0.2,0.1,0.3,0.2,0.3
				c0-0.2-0.1-0.4-0.1-0.6C1042.4,8.7,1042.4,8.7,1042.4,8.6z"/>
			<path class="st2" d="M1042.4,8.6c0,0.1,0,0.1,0,0.2C1042.4,8.7,1042.4,8.6,1042.4,8.6z"/>
			<path class="st2" d="M1079.9,412.1c-15.4,12.3-30.9,24.6-46.1,37.7c-0.3-0.9-0.5-1.2-0.4-1.3c6-23.8,11.9-47.6,18.5-71.3
				c1.7-5.9,4.1-11,9.2-14.4c0.9-1.3,2-2.4,3.3-3.2c2.7-2.7,5.4-5.4,8.1-8.1c0,0,0,0,0,0c6.9-8,14.2-15.8,20.2-24.5
				c6.3-9.1,12.3-18.3,14.6-29.3c-0.2-0.9,0.2-1.9-0.9-2.5c-0.6,1.2-1.3,2.4-1.9,3.5c-6.2,10.8-12.9,21.2-23.6,28.2
				c-4.1,2.7-7.9,5.6-10.7,9.7c-5.9,8.5-13.1,16.2-16.3,26.3c-0.1,0.4-0.3,0.7-0.5,1.1c-5.1,12.4-11.6,24.4-14.3,37.6
				c-3,14.4-7.7,28.2-12.2,42.1c-0.3,1-0.2,2.5-2.2,3.2c-0.2-2.2-0.4-4.3-0.6-6.3c-1.1-15.3-0.8-30.6,0.5-45.9
				c2.6-29.2,5.2-58.4,8.8-87.4c1.2-9.9,0.3-11.2-9.7-12.7c-0.7-0.1-1.3-0.1-2-0.2c-6.6-1-13.5-1-19.8-3.5c-3.3-1.3-4.8-0.2-5.9,2.7
				c-1.3,3.7-1.8,7.6-1.9,11.5c-0.5,14.3,0,28.5,0.2,42.8c0,2.9,0,5.8,0,8.8c-5.3-18.7-10.7-37.1-17.9-55c-0.6-1.5-0.5-2.9-0.1-4.3
				c7.4-26,14.9-51.9,25.1-77c0.2-0.7,0.2-1.5,1.4-2.1c0,2.2,0.3,4.2-0.7,6.2c0,0,0,0,0,0c-0.8,12.9-2.1,25.7-3.9,38.5
				c-1,6.9-2.4,13.8-2.5,20.8c0,2.6,0.5,4.6,4,3c2.3-1,5-0.9,7.6-0.7c7.6,0.7,14.8,2.9,22,4.8c3.5,0.9,5.2-0.3,5.4-3.7
				c0.2-2.8,0.3-5.7,0.1-8.5c-2-24.7-3-49.4-2.1-74.2c1.3-35,4.7-69.7,8.4-104.5c0.3-3.3,0.4-6.6,2.7-9.5c1.4-1.7,0.6-3.6-1.2-4.8
				c-1.7-1.2-3.6-1.8-5.6-2.1c-8.3-1.4-16.3,1.3-24.4,2.2c-7.1,0.8-8.2,2.3-6.9,9.4c2.1,11.5,3.3,23.1,2.9,34.9
				c-0.7,25.4-2.8,50.7-4.7,76.1c-0.3,4.6-2,8-4.8,11.5c-12.7,15.8-22.7,32.9-26.6,53.2c-1.1,5.7-1.2,11.5-1.3,18.2
				c-2.7-5.3-4.9-9.7-7.2-14.1c-7.9-14.4-16.9-27.9-30.3-37.8c-7-5.1-14.2-10.3-23.1-11.9c-9.1-1.7-18.2-1.1-27.3,0.3
				c-19.5,2.8-38.2,8.7-56.6,15.8c0.3,0.3,0.6,0.5,0.8,0.8c0,0,0,0,0,0c0,0,0,0,0,0c12.4-2.2,24.8-2.6,37.3-1.8
				c11.1,0.7,21.8,4.4,33,4.3c-9,4.2-18,8.2-26.6,13.1c-8.6,4.9-17,10.1-23.9,17.4c0.6,0.3,1,0.3,1.3,0.2
				c10.2-6.3,21.3-10.1,32.6-13.5c16-4.9,32.7-7.7,48.4-13.8c8-3.1,8-2.9,13.7,3.8c0.2,0.2,0.3,0.5,0.4,0.7l0,0h0l0,0l0,0
				c0,0,0,0,0,0c4.3,4.4,7.8,9.6,11,14.8c14.7,23.8,24,49.8,31.1,76.7c3.4,12.9,6.9,26,6.2,39.3c-1.2,24.4-4,48.8-6,73.2
				c-0.6,7.1-1.4,14.1-2.7,21.2c-0.9,4.9-0.1,5.5,4.8,6.1c2,0.3,4,0.6,6,1c8.6,1.7,17.2,2.9,26,0.7c2.5-0.6,4.3-1.9,4.2-4.1
				c-0.1-5,3.1-7.4,6.4-9.9c1.7-1.3,3.3-2.8,4.9-4.2c17.5-15.8,30-35.8,44.8-53.9C1080.5,412.6,1080.2,412.3,1079.9,412.1z
				 M1031.6,210.3c0.1,0,0.3,0,0.4,0c0,5.8,0,11.7,0,17.5c-0.1,0-0.3,0-0.4,0C1031.6,222,1031.6,216.1,1031.6,210.3z"/>
			<path class="st2" d="M1020.1,489.6c-3.1-0.6-6.2-0.5-9.2,0.2c-7,1.5-13.8,1.6-20.7-0.4c-4.5-1.3-5.4-0.5-6.3,4.1
				c-1.2,5.9-1,11.8-0.8,17.7c0.8,30.3,4.5,60.3,6.1,90.6c0.9,16.1-1.1,32-2.5,48c-2.4-10.1-4.5-20.1-9.1-29.4
				c-0.6,0.1-1.4,1.2-1.4,0.8c-0.1-2-4-3.3-1.1-5.7c-0.2-0.8-0.5-1.6-0.7-2.4l0,0l0,0c-1.8-2.8-3.6-5.7-5.5-8.4
				c-9.1-12.6-21.1-21.2-36-25.9c-2.5-0.8-4.5,0.3-5,1.8c-0.5,1.6,2,1.6,3.3,2c10.9,3.3,20.5,8.8,28.3,17.1
				c15.3,16.2,21.1,36.4,23.7,57.9c1.8,14.8,1.1,29.5,0.1,44.3c-0.5,6.7,1.3,8.6,8.1,9c6.5,0.4,12.9-0.3,19.2-1.6
				c7.4-1.5,8-2.1,8.1-9.8c-1.3-5.7-1.3-11.3,0-17c0-1.3,0.1-2.7,0-4c-1-20.8-1.9-41.6-1.2-62.5c1-29.6,1.6-59.2,3-88.7
				c0.5-10.5-0.1-21.3,3.6-31.5C1025.2,492.5,1023.5,490.3,1020.1,489.6z"/>
			<path class="st2" d="M1016.1,711.3c-6.6,2-13,4.4-19.8,5.5c-4.2,0.7-8.6,1.4-12.6-0.9c-1.5-0.9-2.7-1.9-4.2-0.3
				c-1.3,1.4-1.3,3-0.3,4.5c1.2,1.8,1.5,3.7,1.6,5.7c0.9,15.2,0.6,30.4,0.7,45.5c11.6,0,23.1,0,34.7,0c-0.2-12.5,0.4-25,1.1-37.5
				c0.3-5.8,0.3-11.8,3.6-17.2c0.9-1.4,1.5-3.3,0.1-4.9C1019.5,710.1,1017.7,710.8,1016.1,711.3z"/>
			<path class="st2" d="M922.1,164.5c-2.5,26.7,5.8,50.4,20,72.5c2.6,4.1,5.3,8.3,9.5,12.2c-0.7-7.1-1.9-13.2-3.3-19.4
				c-3.3-15-6.1-30.1-12.1-44.3c-6.4-15.2-9.7-31-12.1-47.2c-1.7,2.2-0.5,4.7-0.8,7.1c0,0,0,0,0,0c0,0,0,0,0,0
				c-0.2,2.7,0.8,5.6-0.6,8.2c0,0,0,0,0,0C922.4,157.2,922.4,160.9,922.1,164.5z"/>
			<path class="st2" d="M903.1,626.7c5.3,0,5.3,0,4.6,5.4c-1,7-2.7,13.8-5.2,20.5c2.4,0,2.6-1.7,3.3-2.9c3.6-6.3,6.2-13.1,8.4-20
				c0.5-1.5,0.8-2.6,2.9-2.4c12.3,1.3,24.6,2.4,36.1,7.5c6.6,3,13.5,5.3,20.8,6.3c1.4,0.2,3.2,0.4,3.9-1.3c0.7-1.6-0.7-2.5-1.8-3.2
				c-13.2-8.5-26.7-16.4-43.3-14.8c-5.4,0.5-10.8,0.9-16.6,1.4c3.2-11.7,5.5-23.1,7.5-34.6c0.6-3.6-1.1-4.1-3.7-3.9
				c-4.1,0.3-5.8,3.6-7.2,6.8c-3.1,7.4-3.9,15.3-4.1,23.3c-0.1,3,0.6,6.3-0.6,8.7c-1.3,2.8-5.4,1.3-8,2.6c-0.1,0.1-0.2,0.2-0.5,0.6
				C901,626.7,902,626.7,903.1,626.7z"/>
			<path class="st2" d="M918.4,346.7c1.6-11.5,3.5-23.1,10.2-32.8c5.5-8,8.5-16.7,10.5-25.9c0.7-3.1,1.3-6.3,0.9-9.6
				c-0.2-1.7-0.4-3.7-2.5-4.2c-1.7-0.5-3.1,0.5-4.2,1.8c-0.5,0.5-0.9,1-1.4,1.5c-14.8,17.5-21.3,37.7-19.8,60.5
				c0.5,7.4,1.7,14.8,4.9,22.9C917.6,355.3,917.8,351,918.4,346.7z"/>
			<path class="st2" d="M923,257.2c-16.6,14.1-34.4,26.7-51.7,39.8c-0.8,0.6-2.1,0.8-1.6,2.9c2.2-1.2,4.3-2.2,6.3-3.4
				c12.9-7.6,26.1-14.4,40.4-19c7.7-2.5,15-5.8,21.5-10.9c4.7-3.7,7.8-8.1,6.4-14.5C936.4,251,929.1,252,923,257.2z"/>
			<path class="st2" d="M1044.4,270.8c-0.8,9.9-1.8,19.8-2.1,29.8c-0.4,14.8-1.7,29.6,1.2,44.3c1.4,7.2,3.3,14.2,6.6,20.9
				c2.1-11.8,5-23.5,3.7-35.4c-2.3-21.4-5.3-42.6-8.1-64.5C1044.3,267.6,1044.5,269.3,1044.4,270.8z"/>
			<path class="st2" d="M873.3,542.4c7.1,2.8,13.3,6.9,18.6,12.4c5.8,6,12,11.6,19,16.2c2.7,1.8,5.5,3.4,8.7,4
				c3.8,0.7,5.6-0.9,5.4-4.7c-0.1-4.2-1.7-7.6-5.3-9.8c-7-4.3-13.9-8.7-21-12.8c-14.9-8.5-30.4-14.8-48.1-13.5c0,0.4,0,0.9,0,1.3
				c0,0,0,0,0,0C858.6,536.7,866,539.5,873.3,542.4z"/>
			<path class="st2" d="M988.5-20.2c0.8-0.4,1.6-0.6,2.5-0.6c0.8-0.2,1.7-0.2,2.5-0.3c0.1,0,0.2,0,0.2,0c1.2-0.7,2.5-0.6,3.8-0.6
				c0.7-0.1,1.5-0.3,2.2-0.3c0.2,0,0.4-0.1,0.6-0.1c1.3-1,3.3,0.3,4.5-1.2c-17.2-4.9-34.6-6.5-52.2-3c-13,2.6-24.5,8.2-33.8,18.2
				c21.1-5.3,42.5-8.9,64-11.4c1.7-0.9,3.6-0.8,5.4-0.8C988.3-20.1,988.4-20.2,988.5-20.2z"/>
			<path class="st3" d="M976.5,647.7c-0.3,0.6-0.7,1.3-1.4,1.2c-4.5-0.7-9-0.1-13.5-0.3c-0.8,0-1.6-0.2-2.1-0.9c0,0,0,0,0,0
				c0,0,0,0,0,0c-25.9-0.2-53.4,14.7-58.3,32c2.5-2.5,4.9-4.6,7-6.9c8.6-9.4,19.5-12.8,31.7-11.7c11,1,21.1-1.4,30.9-5.9
				c2.3-1,4.5-2.4,6.5-4C978.6,650.1,979.8,648.3,976.5,647.7z"/>
			<path class="st2" d="M1115.5,351.6C1115.5,351.6,1115.5,351.6,1115.5,351.6c-0.3-0.3-0.7-0.7-1-1c0,0,0,0,0,0s0,0,0,0
				c-6.2,4-12.3,8.4-19.5,10.4c-12.6,3.6-23,10.8-33.2,18.4c-3.9,2.9-7.8,5.9-11.3,10.3c1.2,0,1.8,0,2.5,0c10.1-0.6,19-4.5,27.6-9.4
				c12.1-7,22.3-16.2,32.5-25.6C1113.8,353.7,1114.7,352.6,1115.5,351.6C1115.5,351.6,1115.5,351.6,1115.5,351.6z"/>
			<path class="st2" d="M975.5,614.8c0,0.2,0,0.4,0,0.6c-0.8,2.2-0.4,3.9,1.9,4.9c0-1.3-0.1-2.7,0-4c0.5-12.1,1.2-24.1-0.1-36.2
				c-0.8-7.5-2.2-14.9-6.4-21.4c-2.1-3.3-4.7-6.3-9-7.7c0.1,1.4,0,2.3,0.2,3.2c2,11.5,4.1,22.9,6.6,34.4c1.6,7.5,5.8,14.2,6.3,22
				C975.5,611.9,976.4,613.4,975.5,614.8z"/>
			<path class="st4" d="M874.7,583c0-0.1,0.1-0.1,0.2-0.2c0.5-0.2-0.2,0.1,0.4,0c2-0.5,4.1-0.2,6.1,0c7.8-0.4,15.6-0.8,23.3,0.4
				c0,0,0,0,0,0c5.7,0.1,11.4,0.1,16.8-2.4c-9.9-4-20.1-6.7-30.8-5.2c-14.7,2.1-28.8,6.4-42.6,11.9c-2.4,1-4.7,2.3-7,3.5
				c0.2,0.4,0.3,0.8,0.5,1.2c11.1-3.4,22-7.4,33.5-8.7c-0.9-0.1-1.8-0.2-2.7-0.3C873.1,583,873.9,583,874.7,583z"/>
		</g>
		<g>
			<path class="st5" d="M268.1,65.6c5.7,0.9,11.3,2.2,17,3.2v0l0,0c6.4,0.8,12.9,1.1,19.4,0.9c0.8,0,1.6-0.1,2.4-0.1c0,0,0,0,0,0
				c0,0,0,0,0,0c0.5-0.1,0.9-0.1,1.4-0.2c1.7-0.5,3.4-1,5.1-1.5c6.1-3.8,6.5-4.7,4.2-11.4c-0.9-2.6-0.7-5.3-0.6-8
				c0.6-12.6,1.2-25.2,2-37.8c0.9-15.7,1.7-31.4,3.3-47c-12.9,0-25.8,0-38.8,0c-1.8,24.7-5.7,49.1-11.4,73.2
				c-1.7,7.2-2.7,14.9-9.6,19.7c0,0,0,0,0,0C260.6,63.1,261.6,64.6,268.1,65.6z"/>
			<path class="st5" d="M268.1,252.3c-0.3,4.9-0.5,9.9-0.7,14.8c0.1-0.4,0.1-0.8,0.2-1.2C268.3,261.3,268,256.8,268.1,252.3z"/>
			<path class="st5" d="M180.1,144.7c3.2-10.1,7.2-20,11.9-29.5c6.9-14.1,14.6-27.9,25.5-39.4c3.7-3.9,7.8-7.9,13.5-8.2
				c9.7-0.6,19.2,1,29.5,3.8c-8.3,3.2-15.7,6.4-22.4,10.7c-11.4,7.2-19.8,16.5-22.9,30.3c-4.5,20.2-9.1,40.3-13.3,60.5
				c0.3,0.3,0.6,0.6,0.9,0.8h0c5-12.2,10.5-24.2,14.9-36.6c9.1-25.5,25.4-45.8,44.5-64.4c0.2-0.2,0.7-0.2,1-0.4
				c0.5,14.3,3.7,28,6.5,41.8c0,0,0,0,0,0c0,0,0,0,0,0c0.1-0.3,0.1-0.6,0.2-0.8c0.3-0.4,0.6-0.4,0.7,0.1c0.1,1.2,0,2.4,0,3.6l0,0
				c1,0.8,0.8,1.9,0.8,3c0,24.6,0,49.2,0,73.8c0,0.5-0.1,1-0.9,1.5c0-8.4,0-16.8,0-25.2c0,0,0,0,0,0c-0.1,1.3-0.4,2.6-0.4,4
				c-0.2,13.8-0.4,27.6-0.5,41.5c-0.1,6.2-1.3,11.9-4,17.7c-9.6,21.2-13.9,43.8-16.1,66.9c0,0,0,0,0,0c0,0,0,0,0,0
				c0.2,1.2-0.3,2.5,0.8,3.4c0,0.1,0,0.1,0,0.2c2.8-0.9,3.4-3.6,4.6-5.8c5.4-9.9,10.5-19.9,12.5-31.2c0.2-4.9,0.4-9.9,0.7-14.8
				c0-1.4,0.1-2.9,0.3-4.3c-0.1,1.4-0.2,2.9-0.3,4.3c-0.1,4.5,0.2,9-0.5,13.6c-0.1,0.4-0.1,0.8-0.2,1.2c-0.9,25.6-0.5,51.2,0.7,77.1
				c-2.6-5.7-5.3-10.8-7.9-16c-1.3-2.6-2.3-5.5-4.7-7.4c-0.1,0-0.2,0-0.4,0c0,0,0,0,0,0c-0.6,0.9-1.1,1.8-1.7,2.6c0,0,0,0,0,0
				c0,0,0,0,0,0c3.1,8.7,5.9,17.6,9.2,26.2c4.4,11.4,8.2,22.7,5.6,35.2c-0.9,4.2-1.3,8.4-4,12.1c-1.8,2.5-2.7,5.6-2.6,8.8
				c0.1,3.1,1.8,4.5,4.8,3.6c14.9-4,29.9-2,44.8-0.1c2.4,0.3,5.3,1.8,7.2-0.6c1.9-2.4,0.3-5.1-0.7-7.6c-0.1-0.4-0.3-0.8-0.5-1.1
				c-4.6-6.1-5-13.5-5.6-20.7c-1.9-20.8-2.8-41.6-3.4-62.4c-1.3-45.7-3.4-91.4-1.4-137.1c1.2-28.2,3.4-56.4,6.7-84.4
				c0.4-3.6,0.4-7.5,3.2-11.8c6,37.2,20.4,69.7,44.4,97.9c0.2-10.2,0-20.2-0.9-30.2c-2.1-22.7-7.3-44.1-25.9-59.7
				c-1.1-0.4-1.9-1.2-2.6-2.2c0,0,0,0,0,0c-1.2-0.8-2.4-1.7-3.5-2.5c-0.1,0-0.2-0.1-0.3-0.2c-1-0.6-2.3-0.7-2.8-2.2
				c1.8-0.3,3,0.2,3.6,2c0,0,0,0,0,0c0,0,0,0,0,0c1.3,0.3,2.3,1.1,3.2,2c0,0,0,0,0,0c0,0,0,0,0,0c1.3,0.4,2.5,1,3.4,2.1c0,0,0,0,0,0
				c0.9,0.5,1.9,1,2.8,1.6c18.1,12,38.2,18.7,59.2,23.2c0.9,0.2,1.9,0.2,2.8,0.3c-16.9-12.6-34-24.4-51-36.3
				c-3.5-2.5-7.4-3.4-11.6-4c-6.7-0.9-13.4,0.2-20.1,0.1c-3.8-3.3-8.6-2-13-2.8c-0.6-0.1-1.2-0.2-1.7-0.4c-0.5,0-1-0.1-1.5-0.1
				c-1.7,0-3.4,0.2-4.9-0.7c0,0,0,0-0.1,0c0,0,0,0,0,0l0,0c0,0,0,0,0,0c-4,0-7.9-0.5-11.7-1.5c-0.1,0-0.3,0-0.5-0.1
				c-3.2-0.3-6.4-0.6-9.6-0.8c-2.3-0.2-4.9-1-6.8-0.1c-4.9,2.4-7.2-1.1-10.1-3.5c-6.2-5.1-12.8-9.7-19.3-14.3
				c-0.5-0.3-1.1-0.6-1.6-0.9c-1.5-0.7-2.9-1.5-4.4-2.2c0,0,0,0,0,0c-6.2-2.8-9.7,1-13.2,5.1c-12.3,14.9-21.9,31.4-29.4,49.2
				c-5.4,12.8-9.4,26-10.6,39.9C179.5,143,179,144.1,180.1,144.7z"/>
			<path class="st5" d="M326.6,674.4c-1.5-22.4-3.1-44.8-2.6-67.3c0.1-5.2,0.5-10.4,3-15.3c1.9-3.8,3.1-8,3.3-12.4
				c0.1-3.7-1.3-6.1-5.2-7c-9.7-2.3-19.5-3.8-29.5-3.8c-3.5,1.4-7,1.3-10.5,0.1c0,0,0,0,0,0c-1.8-0.2-3.5,0-5.2,0.5
				c-4.8,1.3-5.2,2-4.3,6.8c0.5,2.5,1.1,5,1.3,7.5c3.4,40.7,9.6,81.1,11.9,121.9c0.4,6.7,0.1,13.5,0.1,20.8
				c-5.7-8.8-12-16.5-16-25.7c-5.3-12.2-10.7-24.4-16-36.5c-0.3,0.3-0.6,0.6-0.9,0.9c0,0,0,0,0,0c0,0,0,0,0,0c0.7,2.5,1.2,5,2.1,7.4
				c6.4,19,14.6,37.3,22.8,55.5c0.5,1.1,1.6,2.2,0.9,3.7c-0.9,0.1-1.5-0.5-2.1-1c-7.5-6-16.1-9.5-25.6-11.1
				c-13.6-2.4-27.2-5.1-40.8-7.7c-6.3-1.2-12.6-2.3-18.8-3.5c1.1,1.6,2.5,2.6,3.9,3.5c27.6,17.3,56.4,31.9,89.1,37
				c2.3,0.4,2.5,1.4,2.4,3.2c0,6.5,0,12.9,0,19.4c14.9,0,29.7,0,44.6,0c-1.1-13.3-2.2-26.5-3.3-39.8
				C329.6,712.4,327.9,693.4,326.6,674.4z"/>
			<path class="st5" d="M339.2,406.6c-0.7-0.8-1.8-1.7-2.8-1.1c-1.4,0.7-0.3,1.9,0,2.8c6.3,17.4,6.2,35.3,3.9,53.4
				c-1.8,14.2-6.2,27.8-8.7,41.8c-2,11.4-4.4,22.6-7.5,34.3c-1.9-3.9-0.5-7.9-1.9-11.4c-0.1,1.4-0.2,2.8-0.3,4.3
				c-0.4-2.2-1.3-4.4,0.2-6.5c-0.1-2.3,0-4.6-0.2-6.8c-1.7-19.8-2.4-39.7-4.1-59.6c-0.9-11.1,0.8-20.3,10.1-27.1
				c-0.3-0.3-0.7-0.7-1-1h0h0c-3.1,1.1-5.4,3.8-8.7,4.6c-1-4.9,0.1-8.5,4.6-11c2.9-1.6,5.7-3.9,8.7-7.4c-6.1,1.6-11.2,2.3-16-0.5
				c-0.4-0.2-1.1-0.1-1.6-0.2c-8.9-0.1-17.7-1.7-26.5-2.2c-7-0.4-14-1-20.9,0.3c-3.2,0.6-4.6,2-3.2,5.6c2.1,5.4,3.6,11,5.5,16.4
				c0.8,2.3,0.2,3.6-1.6,5.1c-10.7,8.6-20.8,18-30.9,27.2c-5.9,5.4-11.6,10.9-17.5,16.3c18.7-8.8,36.5-19.1,54.8-29.4
				c0.9,4.9,1.6,9.1,2.4,13.3c0.3,1.5-0.1,2.9-0.9,4.2c-4,6.8-7.1,13.9-9.8,21.2c-4.3,11.5-8.4,23.1-12.6,34.6
				c0.4,0.2,0.7,0.4,1.1,0.6c7.7-11.3,15.5-22.6,23.2-33.8c0.5,0.3,0.6,0.3,0.6,0.4c0.2,21.5,5,43.1-1.8,64.5
				c-0.7,2.1-0.4,3.9,2.2,4.1c12.2,1,24.3,3.3,36.6,3.1c2.8,0,5.6-0.3,8.3-1.3c2.5-0.9,3.7-2.5,2.8-5.3c-1-2.9-0.9-5.8-0.2-8.8
				c1.7-7.3,3.5-14.6,5.1-22c3.5-15.7,8.2-31.2,10.3-47.3c1.9-14.5,3-29.2,4.9-43.7c1.2-9.3-0.4-17.9-3.6-26.5
				C341.6,410.2,340.7,408.3,339.2,406.6z"/>
			<path class="st5" d="M196.3,686.6C196.3,686.6,196.3,686.6,196.3,686.6C196.3,686.6,196.3,686.6,196.3,686.6
				c2.8,0.2,5.6,0,8.4-0.6c15.4-3.3,30.1-8.8,44.8-14.4c1.2-0.5,2.4-1.2,3.5-2c0.7-0.4,1.5-0.9,1.2-1.9c-0.2-0.8-1.1-0.6-1.7-0.8
				c-3.3-0.7-6.5-1.5-9.9-2c-8.3-1.3-16.8-3.7-25.2-2.2c-22.8,3.9-45.3,8.9-67.3,16.2c-3.1,1-6.3,2-9.8,4.3
				c14.1,0.9,27.2,3.3,40.5,3.3C186,685.3,191.2,685.2,196.3,686.6z"/>
			<path class="st5" d="M367,414.1c-0.9,0.1-2.1-0.1-2.4,1.1c-0.3,1.2,0.5,2.1,1.3,2.8c2.2,2,4.8,3.5,7.5,4.7
				c15.6,6.9,31.4,13.4,48.1,17c18.5,4.1,37,7.9,55.6,11.2c0.6-0.2,1.4-0.1,1.8-0.9l0,0c-18.7-10-37.8-19.3-56.5-29.3
				C404.5,411.1,385.9,411.8,367,414.1z"/>
			<path class="st5" d="M448.9,495.3c0.3-0.3,0.6-0.6,0.9-0.9c-9.6-8.2-19.2-16.4-29.3-24c-15.2-11.5-30.4-23.1-47.9-31.1
				c-3.6-1.6-7.2-3-11.2-3c-1,0-2.3-0.4-2.9,0.8c-0.5,1,0.6,1.7,1,2.5c4.7,7.2,9.8,14.1,15.8,20.4c4.4,4.6,9.1,8.8,15.1,11.2
				C410.2,478.6,429.6,486.7,448.9,495.3z"/>
			<path class="st5" d="M262.3,662.9c1.2,0,1.6-1.3,2-2.3c0.4-0.7,0.7-1.4,1-2.2c4.1-13.5,7.1-27,4.1-41.2c-1.1-5.3-1.9-10.6-3-15.8
				c-2-9.9-4.2-19.9-6.3-29.8c-0.3,0-0.6,0-1,0c-0.3,16.7-3,33.1-5.5,49.6c-0.4,2.4-0.8,4.7-0.5,7.2c1.5,10.9,4.2,21.6,7.5,32.1
				C261,661.5,261,662.9,262.3,662.9z"/>
			<path class="st5" d="M427.2,372.1c1.5-1,3.4-1.6,4.6-3.4c-1.7-0.7-2.7,0.2-3.8,0.6c-11.9,4.1-23.9,8.2-35.8,12.3
				c-13.1,4.5-25.6,10.4-37.1,18.3c-1.8,1.2-3.5,2.6-4.5,4.5c-0.7,1.4-0.7,2.8,1.5,2.4c12.7-2.1,25.6-3.5,36.9-10.7
				C401.8,388.2,414.5,380.2,427.2,372.1z"/>
			<path class="st5" d="M242.4,290.6C242.4,290.6,242.4,290.6,242.4,290.6c-0.6-1.9-0.8-3.9-0.8-5.9c0-8.8-0.5-17.5-3.1-25.9
				c-6.6-21.7-15.4-42.7-25.4-63.1c-0.3,0.3-0.6,0.7-0.9,1c0,0,0,0,0,0c0,0,0,0,0,0c2,9,3.9,18.1,5.9,27.1
				c4.5,19.9,7.2,40.5,18.5,58.3c1.9,3,3.4,6.4,5,9.6C241.9,291.3,242.1,290.9,242.4,290.6C242.4,290.6,242.4,290.6,242.4,290.6z"/>
			<path class="st5" d="M404.5,45c-9.6-1.7-19.3-3.4-29.2-2.1c2.3,0,4.6,0,6.9,0c0,0,0,0,0,0c-0.1-0.1,0-0.1,0,0c0,0,0,0,0,0
				c0.2,0,0.4,0,0.6,0c-0.2,0-0.4,0.1-0.6,0.1c0,0.1,0,0.1-0.2,0.2c-0.1,0.1-0.3,0.2-0.7,0.3c-0.3,0-0.6-0.1-0.9-0.1
				c-0.1,0-0.1,0-0.2,0c-2.7,0.5-5.3,0.9-7.9-0.3c0,0,0,0,0,0c-16-0.2-38.8,9.9-45.5,20.3c28.6-8.3,57.9-11.3,87.2-15.6
				C410.8,46.5,407.7,45.6,404.5,45z"/>
			<path class="st5" d="M202.5,593C202.5,593,202.5,593,202.5,593c10.9,24.5,24.2,47.2,47,63.9c-1.6-11.3-4.4-20.7-12.3-28.6
				c-11.8-11.6-23.2-23.5-33.7-36.3C203.2,592.4,202.9,592.7,202.5,593C202.5,593,202.5,593,202.5,593z"/>
			<path class="st5" d="M171.3,343.5C171.3,343.5,171.3,343.5,171.3,343.5c6.4-1,12.7-2,19.1-2.9c20.7-2.9,41.4-6.7,62.5-6.2
				c0.1,0,0.3-0.4,0.5-0.7c-2.1-2.4-4.8-4.2-7.3-6.2c-6.4-4.8-13.1-6.5-21.1-3.6c-18.3,6.5-36.9,12.5-55.3,18.7
				C170.2,342.9,170.8,343.2,171.3,343.5C171.3,343.5,171.3,343.5,171.3,343.5z"/>
			<path class="st5" d="M260.8,78.2C260.8,78.2,260.8,78.2,260.8,78.2C260.8,78.2,260.8,78.2,260.8,78.2
				c-14.9,22.2-23.3,46.9-28.2,73c17.7-19.7,26.4-43.1,28.4-69.2C260.9,80.7,260.8,79.4,260.8,78.2z"/>
			<path class="st5" d="M174.3,264.4C174.3,264.4,174.3,264.4,174.3,264.4c2.5,2.6,4.9,5.4,7.5,7.9c12.1,11.7,25,22.4,40.8,29
				c5.7,2.4,11.5,3.9,17.8,4c-0.1-0.6,0-0.9-0.1-1.1c-0.8-0.9-1.6-1.8-2.5-2.6c-9.8-8.3-19.5-17.1-31.7-21.7
				c-11.3-4.3-22-9.2-31.6-16.5C174.4,263.7,174.4,264,174.3,264.4C174.3,264.4,174.3,264.4,174.3,264.4z"/>
			<path class="st5" d="M240.7,40.5C240.7,40.5,240.7,40.5,240.7,40.5c4.9,5.6,9.8,11.3,14.7,16.9c1-0.7,0.2-1.5,0.3-2.2
				c0,0,0,0,0,0c-1.5-3.7-2.9-7.5-4.6-11.1c-7.6-16.5-17.9-30.7-34.8-38.8c-3.7-1.8-7.5-3.3-12.5-3.7c11.4,10.1,21.3,20.4,30.4,31.5
				C236.8,35.2,238.7,38,240.7,40.5z"/>
			<path class="st5" d="M270.4,117.9c0-0.1,0-0.1,0-0.2c0-0.1-0.1-0.3-0.1-0.4c-0.1,0-0.3,0-0.4,0c0,2.8-0.4,5.7,0.6,8.4
				C270.1,123.1,269.9,120.5,270.4,117.9z"/>
			<path class="st5" d="M270.4,117.7c0,0.1,0,0.1,0,0.2c0-0.2,0.1-0.4,0.1-0.6l0,0c-0.1,0-0.2,0-0.2,0
				C270.3,117.4,270.3,117.6,270.4,117.7z"/>
			<path class="st5" d="M270.5,119.1C270.5,119,270.5,119,270.5,119.1c0-0.4-0.1-0.8-0.1-1.1c-0.5,2.6-0.3,5.2,0,7.8v0
				C270.5,123.5,270.5,121.3,270.5,119.1z"/>
			<path class="st5" d="M270.5,119C270.5,119,270.5,119,270.5,119c0-0.5,0-1.1,0-1.7c-0.1,0.2-0.1,0.4-0.1,0.6
				C270.5,118.3,270.5,118.6,270.5,119z"/>
		</g>
		<g>
			<path class="st6" d="M34.7,142c-0.7,4.6,0.1,5.5,4.8,5.5c6,0,11.7-1.7,17.3-3.5c6.8-2.1,13.5-4.4,20.3-6.6c0,0,0,0,0,0
				c2.1-1.9,3.2-4.2,3.4-7.1c0.3-4.6,0.2-9.1-0.5-13.7c-1.1-6.9-3.2-13.8-3.2-20.6c0-10.6,2-21.1,5.3-31.3
				c7.5-22.9,21.1-40,44.7-47.7c0.7-0.2,1.6-0.4,2-1.6c-1.7-1.8-3.4-2.5-6.1-1.4c-8,3.1-15.3,7.3-21.7,12.9
				c-7.3,6.4-12.7,14.2-17.3,22.6c-0.3,1-0.6,2-0.9,3c-1.3,1.4-0.2,3.9-2.3,5v0c-3,6.7-4.7,13.7-5.9,20.9l0,0
				c0.1,0.8,0.3,1.9-0.5,2.1c-1.1,0.2-0.9-1-0.9-1.7c-0.1-0.9,0.1-1.8,0.1-2.7c0.1,0.1,0.1,0.3,0.2,0.4c0-0.2-0.1-0.3-0.2-0.4
				c-1.4-19.2-1.9-38.4-2-57.6c0-2.9,0.4-5.9-0.4-8.8c0,8.1,0,16.1,0,25c0.2-0.2,0.2,0.2,0,0.2c0,0.3,0,0.6,0,0.9
				c-1.3-2.1-0.9-3.4-0.9-4.7c0-19.3-0.1-38.6,0.1-57.9c0-2.3-1.8-4.6-0.1-6.9c0,0,0,0,0,0c0,0,0,0,0,0c0-0.5,0-1.1,0-1.6
				c-12.4,0-24.8,0-37.1,0c0.8,9,1.8,17.9,2.3,26.9c1.7,28.7,2.1,57.5,1.9,86.3c-0.1,19.4-0.1,38.7-1.8,58c0,0,0,0,0,0c0,0,0,0,0,0
				C34.9,138,34.9,140,34.7,142z"/>
			<path class="st6" d="M63.6,145.8c-7.5,1.8-14.9,4.3-22.1,7.1c-5.1,2-5.4,2.7-3.4,7.7c0.8,2,1.2,3-1.5,3.9
				c-4.1,1.3-6.4,4.7-7.9,8.6c-1.4,3.5-2.6,7-3.9,10.5c-3.9,11.7-9.1,23-13.9,34.3c-3.7,8.6-7.5,17.1-11.2,25.7
				c4.5-4.1,8.4-8.7,11.9-13.5c13.8-18.8,28.3-37.3,29.7-62.6c0.5,1,0.8,1.6,1.1,2.1c3.6,6.6,3,13.9,2.6,20.9
				c-1.3,21.9-2.7,43.7-2.7,65.7c-0.1,13.4-0.7,26.9-0.9,40.3c0,3-1.2,4.1-3.9,5c-18.1,6.5-35.8,14.1-51.9,24.7
				c-4.4,2.9-8.7,6-12,10.3c23.1-8.2,46.3-15.9,67.4-29.4c0,2.4-0.2,4.3,0,6.2c1,7.8-1.9,13.5-7.3,19.2
				c-13.8,14.7-24.9,31.3-32.3,50.4c13.4-10,25.2-21.7,37.6-33.3c0.7,1.8,0.2,3.1-0.1,4.4c-1.5,6.3-3.1,12.5-4.6,18.8
				c-1.3,5.3-0.6,6.3,5,6c12.3-0.6,24-4.5,36.1-6.2c1.7-0.2,3.2-1.2,2.5-3.3c-2.1-6.5-1.6-13.3-2.3-19.9c-0.3-3.2-0.8-6.4-0.3-10.6
				c9.6,21.1,20.3,40.3,36.3,56.5c0.9-2.2,0-3.6-0.4-4.9c-2.6-8.2-5.2-16.4-8.1-24.5c-5.2-14.4-10.2-28.9-17.4-42.5
				c-0.9-1.8-1.5-4.1-4.2-4.4c-1.8,1.4-3.7,1.2-5.6,0.2c0,0,0,0,0,0c-1.5-0.6-1.1-2-1-3.1c0-3.1,0.1-6.2,0.2-9.3
				c0.5-16.1,1.1-32.2,1.6-48.3c-1.3-2.1-0.8-4.3-0.5-6.5c0-0.6,0.1-1.1,0.2-1.5c0,0,0,0,0,0c0-0.3,0.1-0.6,0.1-0.9
				c0.1,1.7,0.2,3.4,0.3,5.1c0,0,0,0,0,0c0.2-1.2,0.4-2.4,0.5-3.6c0.4-14.9,0.8-29.9,1.3-44.8c0.1-2.4,0.3-4.7,0.5-7.9
				c12,13.4,23.6,26.1,37,37.2c0.6-1.1,0-1.7-0.4-2.4c-3.6-6.2-7.1-12.4-10.7-18.5c-6.4-11.1-12.9-22.1-24.5-28.8
				c-1.6-0.9-1.4-2.4-1.4-3.9c0.3-11.2,0.6-22.3,1-33.5c0.1-1.6,0.5-3.2-1.1-4.4c0,0,0,0,0,0C73.5,143.4,68.5,144.6,63.6,145.8z"/>
			<path class="st6" d="M62,620.3c-9.2-1.3-18,0.8-26.5,3.7c-5,1.7-7.6,7.1-6.5,12.6c0.8,4.3,1.2,8.5,1,12.8
				c-0.7,19.5-1.2,39-2.2,58.4c-1.1,21.5-2,43-5.7,64.2c14.3,0,28.5,0,42.8,0c-0.7-16.6-1.8-33.3-1-50c1.5-30.9,3.5-61.7,5.3-92.6
				C69.6,623.4,68.1,621.2,62,620.3z"/>
			<path class="st6" d="M98.4,321.6c-4.2-1.1-8.3-2.4-12.6-2.2c22.4,31.1,52.8,53.2,82.9,75.6c-14.3-19.7-28.8-39.2-44.6-57.7
				C117.1,329.2,108.5,324.2,98.4,321.6z"/>
			<path class="st6" d="M-23.7,533.2c0-1.5,0-3.1-1.5-3.9c-1.7-0.9-3.1,0.2-4.2,1.3c-0.9,0.8-1.9,1.5-2.5,2.5
				c-1.1,0.9-2.3,1.9-3.4,2.8c-8.4,6.7-17,13.5-21.5,23.6c-8.7,19.6-16.2,39.8-23.6,60c0.3,0.3,0.6,0.6,0.9,0.9l0,0h0
				c15-20.1,31.5-39.2,43.6-61.4c5-5.9,7.6-13.2,10.7-20.1C-24.3,537.2-23.7,535.3-23.7,533.2z"/>
			<path class="st6" d="M134.9,57.1c-19.8-3-36.3,4.6-51.7,16C82,74,80.1,75,81,76.9c0.9,1.8,2.9,1.1,4.4,0.9
				c5.5-0.8,10.8-2.6,15.6-5.1c11.9-6.2,24.7-8.8,37.7-10.9c3.4-0.5,5,0.4,6.1,3.7c2.8,8.1,6.5,15.8,11.9,22.8
				c0.6-1.9-0.5-3.1-0.9-4.5c-1.9-5.2-3.6-10.4-4.7-15.8c-1.4-6.8-1.4-6.8,4.7-8.2c-6.5-2-6.5-2-6.9-9.4c0-0.7,0-1.3-0.1-2
				c-0.6-7-1.6-13.9-4.2-20.5c-1.2-3.1-2.7-6.1-5.8-8c-2-1.2-4-1-5.7,0c-1.7,1-0.5,2.8-0.2,4c1.9,9.2,4.1,18.3,6.9,27.3
				C142,57.9,141.9,58.2,134.9,57.1z"/>
			<path class="st6" d="M34.3,158.6c1.5-3.7,0.3-5.3-3.7-5c-6.8,0.4-13.2,2.4-19.6,4.3c-5,2.4-9.5,5.5-13.5,9.3
				c-11.9,11.6-23.9,23.2-35.8,34.7c-0.4,0.4-0.7,0.8-0.4,1.5c1.4,0.4,2.5-0.6,3.6-1.1c17.1-7.7,33.7-16.6,49.9-26.1
				c4.5-3.6,9.6-6.4,13.8-10.4C30.8,163.7,33.1,161.6,34.3,158.6z"/>
			<path class="st6" d="M-11,559.3c-1.1-5.4-2.6-10.7-4.5-15.9c-0.9-2.4-1.1-6.2-4.2-6.2c-3.4,0-4.1,3.8-5.1,6.5
				c-1.6,4-2.1,8.2-2.7,12.4c0.4,0.8,0.4,1.7,0.5,2.5c-0.1,0.7-0.1,1.5-0.2,2.2c-0.3-0.4-0.5-0.8-0.8-1.3c0,0.7,0,1.4,0,2
				c-0.2,1.3-0.4,2.6-0.4,4c0.3,16.5-0.5,32.9,0.3,49.4c0.1,0.4,0.1,0.7,0,1.1c0,0.6,0,1.1,0.1,1.7c0.1,2-1,4.3,0.9,6.1
				c1,3.1,0.7,6.4,0.8,9.6l0,0c0.5,0,0.9,0,1.4,0c0,0,0,0,0,0c1.6-10.6,4.7-21,6.9-31.5c2.5-12,7.9-23.5,6.9-36.2
				C-9.8,563.4-10.5,561.3-11,559.3z"/>
			<path class="st6" d="M140,556.7c-1.8-19.2-9.9-35.5-23.2-49.3c-1.3-1.3-2.9-2.3-4.7-1.5c-2,0.8-2,2.8-1.9,4.5
				c0.8,12.1,4.6,23.1,11.8,32.9c2.2,2.9,4.2,5.9,5.6,9.3c4.6,10.8,7.3,22.2,8.5,33.9c1.1,1.1,0.1,2.9,1.4,3.9c0,0,0,0,0,0
				c0.9-5.3,2.6-10.5,2.5-15.9C138.8,568.5,138.9,562.6,140,556.7z"/>
			<path class="st6" d="M174,286c-16.3-3.2-32.8-4-49.2-5.3c-4.4-0.4-8.9-0.6-13.2,1.1c-10,3.9-17.6,11-24.6,19.4
				c30.4-4,60.3-10.4,91.7-14.1C176.5,285.5,175.2,286.3,174,286z"/>
			<path class="st6" d="M103.8,484.7c1.3,10.7,9.3,15.2,17.9,19c4,1.8,8.2,3.4,12.4,4.6c12.3,3.5,24.1,8.1,35.4,14.2
				c3.5,1.9,7.2,3.6,10.8,5.4c0.8,0.4,1.5,1,2.6-0.1c-1.3-0.9-2.5-1.8-3.7-2.6c-16.6-11.2-33.4-22-49.2-34.3c-7-5.5-14.3-8.9-23.4-7
				c-1.6,0.3-1.5-0.4-1-1.4c-0.1,0-0.2-0.1-0.3-0.1C104.3,482.1,104.1,482.6,103.8,484.7z"/>
			<path class="st6" d="M96.2,281.2c2.1-0.3,2.9-1.5,3.9-2.3c5.3-4.3,10.5-9,16.7-11.9c9.3-4.3,17.3-10.3,25.2-16.6
				c7.3-5.8,14.5-11.9,21.8-17.9c-1.2-0.9-2-0.5-2.7-0.3c-11.2,3.7-22.3,7.7-33.2,12.3C111.2,251.6,104.3,266.5,96.2,281.2z"/>
			<path class="st6" d="M135.3,9.6c3.4-0.4,6.3-2.2,9-4.2c7.9-5.7,14.5-12.8,21.1-19.9c3-3.2,6.3-5.8,10.1-7.9
				c9-4.9,18.5-8.6,28.3-11.3c-2.6-0.6-5.6,1.4-8.1-0.8c-8.6,1.1-16.8,3.5-24.6,7.1c-13.3,6.1-24.8,14.9-36.7,23.2
				c-3.2,2.2-4,5.9-4,9.7C130.4,9,132.4,9.9,135.3,9.6z"/>
			<path class="st6" d="M115.8,96.7c15.1-1.7,28.3,0.8,38.9,12.5c1.1,1.2,1.9,2.7,2.9,4.1c0.3-0.4,0.7-0.7,1-1.1
				c-2.9-13.3-29.3-27.8-50.8-27.9c-1.3,1.3-3,0.7-4.6,0.7c-5.9,0.2-11.8-0.2-17.8,0.7c-1.6,0.2-2.6,1-3.8,1.9c0,0,0,0,0,0
				c0,0,0,0,0,0C91.9,95.1,103.6,98,115.8,96.7z"/>
			<path class="st6" d="M82.1,51.6c-0.7-1.8,0-3.6,0.6-5.3c0,0,0,0,0,0c-0.2-2.3,0.4-4.6,1.2-6.7c3.1-8.3,4.5-16.9,5.8-25.5
				C91,5.3,92.4-3.4,93-12.6c-2.5,0.7-4.1,2.1-5.5,3.7c-3.7,4.1-5.8,9-7.1,14.3c-1.8,7.5-2,15.2-1.6,22.9c0.4,9.8,1.1,19.6,1.7,29.4
				c0,0,0,0,0,0c1-1.6,0.4-3.7,1.4-5.3C81.9,52.1,82,51.8,82.1,51.6z"/>
			<path class="st6" d="M-38.3,131c7.4,1.7,14.9,3.2,22.3,5c13.2,3.3,26.9,5.2,39.1,11.9c0,0,0,0,0,0c3.4-1.3,6.3,1.6,9.7,1.3
				c-1.5-3.4-5.1-5.3-6-9.1c-3-2.2-5.5-5.3-9.5-5.7c-13.9-1.4-27.8-2.8-41.7-3.3c-2.5-0.1-5.1,0.8-7.5-0.7c0,0,0,0,0,0
				c-1-0.1-2-0.1-2.9-0.2C-36,130.5-37.3,129.9-38.3,131z"/>
			<path class="st6" d="M169.2,9.3c-4.6,1.1-9.1,1.3-13.7-0.1c-7.4,0.6-14.3,2.6-21,5.8c1.2,1.6,2.5,1.5,3.6,1.7
				c7.9,1.1,15.8,0.5,23.7,0.2c7-0.3,14-0.7,20.9-0.7c10.3,0.1,20,3.7,29.9,6c0.6-0.3,1.1-0.5,1.7-0.8
				C200,14.6,184.7,11.4,169.2,9.3z"/>
			<path class="st6" d="M-65.5,518.8c10.2,1.6,20.4,2.7,30.4,5.6c4-0.2,7.5,2.5,11.5,2.4c0.3-0.5,0.4-1,0.2-1.6
				c-1.4-2.8-3.5-5.1-5.5-7.4c-0.2-0.2-0.4-0.4-0.6-0.7c0,0.2,0,0.5,0,0.9c-0.5-0.5-1.1-1-1.6-1.5c0.3-0.1,0.6-0.2,0.9-0.2
				c-0.1-0.1-0.3-0.3-0.4-0.4c-0.8-0.9-2-0.6-2.9-1.1c-2.2-0.8-4.4-0.9-6.7-0.9c-12.2,0.3-24.5,0.6-36.7,1c-2.5,1.5-5.5-0.4-8,1.4
				c0,0,0,0,0,0C-78.5,517-72,517.7-65.5,518.8z"/>
			<path class="st6" d="M70.8,3.8c0.8-10.8,0.5-21.7,0.6-32.5c0-0.9-0.4-1.8-0.6-2.7C71.3-19.7,71.2-7.9,70.8,3.8z"/>
			<path class="st6" d="M70.8,3.8c0.5-11.7,0.5-23.5,0-35.2c0,0,0,0,0,0C70.7-19.7,70.8-7.9,70.8,3.8z"/>
			<path class="st6" d="M169.6,454.9c-9.4-1.3-18.8-1.8-28.2-0.5c-15.5,2.3-26.8,11.9-36.8,23c-10.8,12.1-17.9,26.4-24.2,41.2
				c-0.4,0.9-0.2,2.1-1.7,2.4c0.3-10.6-1.9-20.6-5.9-30.3c-1.2-2.8-1.6-5.6-1.4-8.6c3-33.6,3.2-67.4,8.7-100.8
				c1-6.1,0.3-6.6-5.7-5.8c-13.3,1.7-25.8,6.4-38.7,9.5c-5.3,1.2-6.3,5.8-2.5,9.6c3.4,3.5,6.6,7.1,9,11.3c3.1-0.5,1.1,2,1.7,3
				l-0.1,0c0,0,0,0,0,0c0.1,0.1,0.2,0.2,0.3,0.3c0-0.1,0-0.3,0-0.4c0.1,0.1,0.2,0.2,0.3,0.3c0,6.6,0,13.2,0,19.8c-0.1,0-0.2,0-0.3,0
				c0-6.4,0-12.9,0-19.3c-0.1-0.2-0.2-0.5-0.3-0.7c0,0-0.1,0-0.2,0h-0.2l-0.4,0c0,0,0,0,0,0c-0.1,11-0.1,22-0.2,33
				c0,2.1-0.1,2.1-1.5,2.7l0,0l0,0c-0.2,0.2-0.5,0.4-0.7,0.6v0c1.9,1.9,1.8,4.3,1.7,6.8c-1.5,30.5-3,60.9-4.6,91.4
				c-0.1,1.8-0.3,3.6-0.5,6.5c-3.7-6.1-7.1-11.1-10-16.3c-1.8-3.3-4.4-5.1-7.9-6.2c-6.3-2-12.8-2.7-19.2-4.4c-1.5-1.5-3.5-1.6-4.5,0
				c-0.9,1.3,1.1,2.2,2.1,2.9c12.3,8.3,23.2,18.3,34.6,27.8c2.7,2.2,3.5,4.8,3,8.2c-1,6.4-1.8,12.7-2.4,19.2
				c-2.4-7.7-5.4-15.2-8.1-22.7C19.4,543,6.5,536.5-7.2,530.9c-0.9-0.4-2.2-0.8-3,0.2c-0.8,1-0.2,2.1,0.3,3
				c1.7,3.6,3.5,7.3,5.5,10.8c10.1,17,21.2,33.4,32.2,49.8c3,4.5,2.8,8-0.6,12.4c-1-0.9-1.6-2.1-2.4-3.2
				c-8.5-12.6-15.1-26.4-22.9-39.4c-9.3-15.4-15.8-31.7-15.7-50.1c0-1.4-0.3-2.8-2.3-2.3c-1.1,0.7-1.7,1.7-2,2.9
				c-1.9,6.7-1.3,13.3,1.1,19.7c3.3,8.8,7.3,17.3,11.1,25.9c0.6,1.3,1.3,2.4,2.5,3.1c2.1,4,4.1,8.1,6.4,12.1
				c7.3,12.4,14.7,24.7,22,37.1c1.1,1.9,1.9,3.6,1.5,6c-0.5,3.3,1,4.4,4.3,3.6c1.7-0.4,3.4-0.9,5-1.7c8.1-3.9,16.5-4.4,25.2-2.8
				c1.6,0.3,3.2,0.5,4.8,0.8c2.9,0.5,4.1-1,3.9-3.6c-0.2-2.4-0.6-4.8-1.1-7.1c-2.1-9.9-4.6-19.5-2.1-30.1
				c8-32.9,17.5-65.1,37.3-93.2l0,0l0,0c-0.2-1-0.3-2.1-0.5-3.3c0.9-0.3,1.3,0.5,1.9,0.9c0.1,0,0.2,0.1,0.3,0.1
				c0.5-0.5,1.1-0.8,1.4-1.4c2.3-3.9,5.1-4.3,9.4-2.9c11.2,3.7,22.7,6.4,34.4,8.6c16.1,3.1,32.1,6.8,47,14.1
				c1.6,0.8,3.2,1.6,4.9,2.4c-15.2-14.1-33.9-21.9-52.6-28.9c22.6-4.3,45.1-9.7,68.3-6.4h0c0.3-0.3,0.7-0.6,1-0.9
				C203.1,461.3,186.6,457.3,169.6,454.9z M74.1,535.5c-2.3,7.6-4.5,15.1-6.8,22.7c0,0,0,0,0,0c0,0,0,0,0,0c0.1,1.2-0.4,2.2-1.4,4.2
				c0-2.8-0.4-4.7,0.6-6.6c0.8-13.1,1.7-26.2,2.6-40.5c2.7,6.2,4.2,11.4,5.8,16.7C75.2,533.2,74.5,534.3,74.1,535.5z"/>
		</g>
		<path class="st7" d="M235.1,397.7c2.1-0.6,4.2-1.1,6.3-1.7c50.2-13.8,104.6-33.3,140.6-61.5c17.6-13.8,30.7-31.1,43.4-47.1
			c1-1.2,2-2.4,3.1-3.7c16.2-15.9,27.2-33.3,34.1-51.5c1-0.6,1.8-1.4,2.3-2.6C490.8,163,480.1,90,438,27
			c-25.8-38.6-75.5-91.1-140-106.8c-17.6-9-35.8-17.5-55.8-23.9c-31.5-10.1-66.9-14.5-100.9-18.2c-65.5-7-129-5.5-191.9,9.8
			c-126.3,30.8-248,121.1-263.8,213.7c-4.4,26,1.1,52.7,4.7,78.6c3.4,24.5,9.3,48.5,22.7,71.5c26.7,45.8,72.4,85.5,128.2,116.5
			c51.9,28.9,120.8,52.5,188.2,56.6C97.4,429,171.9,417.3,235.1,397.7z"/>
	</g>
	<g class="st8">
		<g>
			<g>
				<path class="st9" d="M771.5-42.2c8.8,5.4,16,13.2,20.3,22.5c4.4,9.5,6.2,20.1,6.5,30.5c0.3,11.3-1.1,22.7-3.4,33.7
					c-2.2,10.6-5.2,21-8.9,31.2c-2.9,8-6.3,16-10.4,23.5c-0.4,0.7-0.8,1.4-1.2,2.1c0.8-0.4,1.5-0.7,2.3-1.1
					c-11.2-16.5-17-36-18.5-55.8c-1.5-18.7,0.7-37.6,5-55.8c2.2-9.4,5-18.6,8.3-27.6c-1,0.2-1.9,0.5-2.9,0.7
					c-2.4,11.8-6.5,23.3-12.9,33.6c-5.7,9-12.9,17-21.4,23.5c-8.5,6.6-17.9,11.7-27.8,16c-10.4,4.5-21.1,8-32,11.1
					c-11.3,3.2-22.8,5.9-34.3,8.7c-1.4,0.3-2.8,0.7-4.2,1c0.4,0.4,0.8,0.8,1.1,1.1c3.7-11.1,9.1-21.6,16.1-30.9
					C660,17.3,668,9.7,676.8,3.3c9.1-6.6,18.9-12.1,29.1-16.8c10.5-4.9,21.4-9,32.4-12.8c5.6-1.9,11.2-3.7,16.9-5.5
					c5.7-1.8,11.5-3.3,17-5.4c1.4-0.5,2.9-1.2,4.3-1.6c0.6-0.2,1.2-0.7,1.3-1.3c0.1-0.5-0.2-1-0.8-0.8c-2.8,0.9-5.7,1.3-8.5,2.1
					c-2.9,0.9-5.8,1.8-8.6,2.7c-5.8,1.8-11.6,3.7-17.4,5.6c-11.4,3.8-22.7,7.9-33.6,12.9C698.4-13,688.1-7.5,678.6-0.9
					c-9.4,6.5-18,14.2-25.3,23.1c-7.6,9.2-13.5,19.7-17.6,30.9c-0.6,1.5-1.1,3-1.6,4.5c-0.3,0.8,0.4,1.3,1.1,1.1
					c11.7-2.8,23.4-5.6,35-8.8c11.3-3.1,22.4-6.6,33.2-11.1c10.3-4.2,20.2-9.4,29.2-16c8.9-6.5,16.8-14.4,23.1-23.5
					c6.9-10.1,11.7-21.5,14.6-33.3c0.4-1.6,0.8-3.3,1.1-4.9c0.2-0.8-0.3-1.2-1.1-1.1c-0.9,0.2-1.5,1-1.8,1.8
					C762.4-21.3,758-3.7,756,14.1c-2.2,19.3-1.4,39.2,4,57.9c3.2,10.9,8.1,21.3,14.5,30.6c0.6,0.9,2-0.7,2.3-1.1
					c4.1-7.2,7.5-14.9,10.4-22.6c3.9-10.2,7.1-20.7,9.5-31.4c2.5-11.2,4.2-22.7,4.2-34.2c0-10.7-1.3-21.8-5.4-31.8
					c-3.9-9.5-10.4-18-19.4-23.2c-1.2-0.7-2.4-1.3-3.7-1.9C771.9-43.8,770.8-42.6,771.5-42.2L771.5-42.2z"/>
			</g>
		</g>
		<g>
			<g>
				<path class="st9" d="M643.3,52.6c3.3-2,6.2-4.6,9.2-7c3.2-2.5,6.5-4.9,9.8-7.3c7.2-5.2,14.5-10.1,21.9-15
					C699.9,13,715.8,3.1,731.3-7.2c8.5-5.7,17.1-11.3,25-17.9c0.3-0.2,0.3-0.7-0.2-0.4c-7.6,4.9-14.9,10.2-22.4,15.2
					C726-5.1,718.1,0,710.2,5.1c-15.4,9.9-30.9,19.7-45.8,30.3c-3.8,2.7-7.5,5.4-11.2,8.3c-3.4,2.7-7.1,5.4-10,8.7
					C643.1,52.5,643.1,52.7,643.3,52.6L643.3,52.6z"/>
			</g>
		</g>
		<g>
			<g>
				<path class="st9" d="M778.8,96c-1.1-8.4-2.3-16.7-2.6-25.1c-0.3-8.5,0-17.1,0.5-25.6c0.9-17.5,2.5-35,2.1-52.5
					c-0.1-4.9-0.4-9.7-0.9-14.6c-0.5-4.7-1-9.6-2.7-14c-0.1-0.3-0.6,0.1-0.6,0.3c0.3,4.5,1.1,8.9,1.6,13.3c0.5,4.3,0.8,8.6,1,13
					c0.3,8.7,0.1,17.4-0.3,26.1c-0.8,17.3-2.4,34.6-1.9,52c0.2,9.1,0.8,18.7,3.4,27.4C778.4,96.6,778.8,96.2,778.8,96L778.8,96z"/>
			</g>
		</g>
	</g>
</g>
<g>
	<rect x="96.3" y="114" class="st9" width="826.2" height="431"/>
	<text transform="matrix(1 0 0 1 357.8154 366.6484)" class="st10 st11 st12">rganic</text>
	<path class="st10" d="M266.6,313.9c7.8,8,27.3,12.1,40.9-0.5c11.1-10.3,9.5-28.3-0.7-41.4c-9.4-12.1-26.4-20.4-44.2-21.5
		c-21.2-1.4-44,5.2-60,21.1c-22.3,22.3-38.2,75,2.6,112.3c31.5,28.8,82.7,24.3,110.9,7.8c4-2.3,7-5.7,11-2.8
		c2.4,1.7,5.3,6.3-4.4,12.9c-15.3,10.3-37.4,18.2-68.1,16.6c-79.7-4.2-98.5-79.1-92.6-110.9c7.5-40.4,30.8-75.2,90.5-81.3
		c38.1-3.9,85.9,21.8,94,67.1c10.4,58.1-32.1,85.7-60,92c-16.7,3.8-46.8,4.3-68.7-19.4c-20.9-22.7-11.6-45.7-3.5-54.1
		C223.3,302.6,247.3,294.1,266.6,313.9z"/>
	<text transform="matrix(1 0 0 1 360.8042 612.3847)" class="st13 st14 st15">Organic Culture Argentina</text>
</g>
</svg>
