<?xml version="1.0" encoding="utf-8"?>
<!-- Generator: Adobe Illustrator 23.0.1, SVG Export Plug-In . SVG Version: 6.00 Build 0)  -->
<svg version="1.1" id="Layer_1" xmlns="http://www.w3.org/2000/svg" xmlns:xlink="http://www.w3.org/1999/xlink" x="0px" y="0px"
	 viewBox="0 0 1050 700" style="enable-background:new 0 0 1050 700;" xml:space="preserve">
<style type="text/css">
	.st0{fill:#FFFFFF;}
	.st1{fill:#626366;}
	.st2{fill:#C5C7C9;}
	.st3{fill:none;stroke:#231F20;stroke-width:0.7465;}
</style>
<rect class="st0" width="1050" height="700"/>
<g>
	<g>
		<g>
			<path class="st1" d="M208.6,367c0.3,11.9,10.3,19.7,20.8,19.7c15.3,0,21.3-8.7,23.2-11.4l16.4,9.5c-6,9.2-17.6,19.7-39.6,19.7
				c-26.1,0-41.2-18.1-41.2-42.1s15.1-42.1,41.2-42.1c26.9,0,38.6,18,38.6,46.7L208.6,367L208.6,367z M247.8,352.1
				c0-4.3-5.2-15.9-18.3-15.9c-11.3,0-18.8,7.3-20.8,15.9H247.8z"/>
			<path class="st1" d="M281.8,322.2h19.4v11.1h0.3c4.6-9.2,13.5-13,24.8-13V340c-13.2,0-25.1,6.2-25.1,23.7v39h-19.4L281.8,322.2
				L281.8,322.2z"/>
			<path class="st1" d="M337.8,289.4h19.4v19.7h-19.4V289.4z M337.8,322.2h19.4v80.5h-19.4V322.2z"/>
			<path class="st1" d="M376.2,289.4h19.4v63l30.5-30.2h25.1L420,353.5l34.2,49.1h-23.7l-24-36.1l-11,10.8v25.3h-19.4V289.4H376.2z"
				/>
			<path class="st2" d="M461.6,322.2H481v6.8h0.3c5.9-5.4,13.4-8.7,22.9-8.7c20.4,0,34.7,18.9,34.7,42.1s-14.3,42.1-35,42.1
				c-11.6,0-17.8-4-22.9-9.7v33.6h-19.4L461.6,322.2L461.6,322.2z M518.5,362.4c-0.2-11.6-4.5-24.3-19.1-24.3s-18.9,12.7-19.1,24.3
				c0.2,11.6,4.5,24.3,19.1,24.3C514.1,386.7,518.4,374,518.5,362.4z"/>
			<path class="st2" d="M552.9,289.4h19.4v40.7h0.3c4.3-5.6,12.1-9.9,23.1-9.9c13.7,0,29.4,5.7,29.4,29.1v53.3h-19.4v-47.7
				c0-11.1-4.5-15.9-14.3-15.9c-14.6,0-19.1,12.4-19.1,22.3v41.3h-19.4V289.4z"/>
			<path class="st2" d="M721.4,362.4c0,24-15.1,42.1-41.2,42.1c-26.1,0-41.2-18.1-41.2-42.1s15.1-42.1,41.2-42.1
				C706.3,320.3,721.4,338.4,721.4,362.4z M659.4,362.4c0,12.6,7,24.3,20.8,24.3s20.8-11.8,20.8-24.3c0-12.6-7-24.3-20.8-24.3
				S659.4,349.8,659.4,362.4z"/>
			<path class="st2" d="M738.4,293.7h19.4v28.5h17.3v14h-17.3v40.7c0,6.4,1.3,9.9,8.7,9.9c2.7,0,5.7-0.6,8.6-0.9v15.9
				c-4.6,1-9.4,1.9-15.4,1.9c-15.9,0-21.3-7.2-21.3-19.4v-48h-11.8v-14h11.8V293.7z"/>
			<path class="st2" d="M862.8,362.4c0,24-15.1,42.1-41.2,42.1c-26.1,0-41.2-18.1-41.2-42.1s15.1-42.1,41.2-42.1
				S862.8,338.4,862.8,362.4z M800.8,362.4c0,12.6,7,24.3,20.8,24.3s20.8-11.8,20.8-24.3c0-12.6-7-24.3-20.8-24.3
				S800.8,349.8,800.8,362.4z"/>
		</g>
	</g>
	<polyline class="st3" points="185.6,198.5 185.6,104.9 279.2,104.9 	"/>
	<polyline class="st3" points="864.4,501.5 864.4,595.1 770.8,595.1 	"/>
</g>
</svg>
